<svg width="21" height="21" viewBox="0 0 21 21" fill="none" xmlns="http://www.w3.org/2000/svg">
<path d="M10.5 0C7.71523 0 5.04451 1.10625 3.07538 3.07538C1.10625 5.04451 0 7.71523 0 10.5C0 13.2848 1.10625 15.9555 3.07538 17.9246C5.04451 19.8938 7.71523 21 10.5 21C13.2848 21 15.9555 19.8938 17.9246 17.9246C19.8938 15.9555 21 13.2848 21 10.5C21 7.71523 19.8938 5.04451 17.9246 3.07538C15.9555 1.10625 13.2848 0 10.5 0ZM10.5 4.375C10.7321 4.375 10.9546 4.46719 11.1187 4.63128C11.2828 4.79538 11.375 5.01794 11.375 5.25C11.375 5.48206 11.2828 5.70462 11.1187 5.86872C10.9546 6.03281 10.7321 6.125 10.5 6.125C10.2679 6.125 10.0454 6.03281 9.88128 5.86872C9.71719 5.70462 9.625 5.48206 9.625 5.25C9.625 5.01794 9.71719 4.79538 9.88128 4.63128C10.0454 4.46719 10.2679 4.375 10.5 4.375ZM10.5034 7.87329C10.6183 7.87374 10.732 7.89682 10.838 7.9412C10.944 7.98559 11.0402 8.05042 11.1211 8.13199C11.2021 8.21356 11.2661 8.31027 11.3097 8.4166C11.3533 8.52293 11.3755 8.6368 11.375 8.75171V15.7483C11.3755 15.8632 11.3533 15.9771 11.3097 16.0834C11.2661 16.1897 11.2021 16.2864 11.1211 16.368C11.0402 16.4496 10.944 16.5144 10.838 16.5588C10.732 16.6032 10.6183 16.6263 10.5034 16.6267C10.3879 16.6272 10.2735 16.6047 10.1667 16.5608C10.0599 16.5168 9.96293 16.4521 9.88128 16.3704C9.79962 16.2888 9.73493 16.1918 9.69095 16.085C9.64696 15.9782 9.62455 15.8638 9.625 15.7483V8.75171C9.62455 8.63623 9.64696 8.5218 9.69095 8.41502C9.73493 8.30824 9.79962 8.21123 9.88128 8.12957C9.96293 8.04791 10.0599 7.98322 10.1667 7.93924C10.2735 7.89525 10.3879 7.87284 10.5034 7.87329Z" fill="#A5A5A5"/>
</svg>
