<svg width="21" height="21" viewBox="0 0 21 21" fill="none" xmlns="http://www.w3.org/2000/svg">
<path fill-rule="evenodd" clip-rule="evenodd" d="M9.14675 2H9.19062C10.2583 2 11.0894 1.99999 11.7582 2.04939C12.4369 2.09951 12.9908 2.20264 13.4956 2.43132C14.5648 2.91581 15.4216 3.77252 15.906 4.84183C16.1347 5.34654 16.2379 5.90052 16.288 6.57922C16.3374 7.24794 16.3374 8.07905 16.3374 9.14675V9.19062C16.3374 10.2583 16.3374 11.0894 16.288 11.7582C16.2379 12.4369 16.1347 12.9908 15.906 13.4956C15.4216 14.5648 14.5648 15.4216 13.4956 15.906C12.9908 16.1347 12.4369 16.2379 11.7582 16.288C11.0894 16.3374 10.2583 16.3374 9.19062 16.3374H9.14675C8.07905 16.3374 7.24794 16.3374 6.57922 16.288C5.90052 16.2379 5.34654 16.1347 4.84183 15.906C3.77252 15.4216 2.91581 14.5648 2.43132 13.4956C2.20264 12.9908 2.09951 12.4369 2.04939 11.7582C1.99999 11.0894 2 10.2583 2 9.19062V9.14675C2 8.07905 1.99999 7.24795 2.04939 6.57922C2.09951 5.90052 2.20264 5.34654 2.43132 4.84183C2.91581 3.77252 3.77252 2.91581 4.84183 2.43132C5.34654 2.20264 5.90052 2.09951 6.57922 2.04939C7.24795 1.99999 8.07905 2 9.14675 2ZM6.65842 3.12177C6.03931 3.16749 5.62708 3.25606 5.28562 3.41077C4.45393 3.78761 3.78761 4.45393 3.41077 5.28562C3.25606 5.62708 3.16749 6.03931 3.12177 6.65842C3.07565 7.28293 3.0753 8.07446 3.0753 9.16869C3.0753 10.2629 3.07565 11.0545 3.12177 11.6789C3.16749 12.298 3.25606 12.7103 3.41077 13.0517C3.78761 13.8835 4.45393 14.5498 5.28562 14.9266C5.62708 15.0813 6.03931 15.1699 6.65842 15.2156C7.28293 15.2617 8.07446 15.2621 9.16869 15.2621C10.2629 15.2621 11.0545 15.2617 11.6789 15.2156C12.298 15.1699 12.7103 15.0813 13.0517 14.9266C13.8835 14.5498 14.5498 13.8835 14.9266 13.0517C15.0813 12.7103 15.1699 12.298 15.2156 11.6789C15.2617 11.0545 15.2621 10.2629 15.2621 9.16869C15.2621 8.07446 15.2617 7.28293 15.2156 6.65842C15.1699 6.03931 15.0813 5.62708 14.9266 5.28562C14.5498 4.45393 13.8835 3.78761 13.0517 3.41077C12.7103 3.25606 12.298 3.16749 11.6789 3.12177C11.0545 3.07565 10.2629 3.0753 9.16869 3.0753C8.07446 3.0753 7.28293 3.07565 6.65842 3.12177Z" fill="#DCDCDC"/>
<path fill-rule="evenodd" clip-rule="evenodd" d="M11.8093 4.6626H11.8532C12.9209 4.6626 13.752 4.66259 14.4208 4.71198C15.0995 4.76211 15.6534 4.86523 16.1582 5.09392C17.2274 5.57841 18.0842 6.43512 18.5686 7.50443C18.7973 8.00913 18.9005 8.56312 18.9506 9.24182C19 9.91054 19 10.7416 19 11.8093V11.8532C19 12.9209 19 13.752 18.9506 14.4208C18.9005 15.0995 18.7973 15.6534 18.5686 16.1582C18.0842 17.2274 17.2274 18.0842 16.1582 18.5686C15.6534 18.7973 15.0995 18.9005 14.4208 18.9506C13.752 19 12.9209 19 11.8532 19H11.8093C10.7416 19 9.91054 19 9.24182 18.9506C8.56312 18.9005 8.00913 18.7973 7.50443 18.5686C6.43512 18.0842 5.57841 17.2274 5.09392 16.1582C4.86523 15.6534 4.76211 15.0995 4.71198 14.4208C4.66259 13.752 4.6626 12.9209 4.6626 11.8532V11.8093C4.6626 10.7416 4.66259 9.91055 4.71198 9.24182C4.76211 8.56312 4.86523 8.00913 5.09392 7.50443C5.57841 6.43512 6.43512 5.57841 7.50443 5.09392C8.00913 4.86523 8.56312 4.76211 9.24182 4.71198C9.91055 4.66259 10.7416 4.6626 11.8093 4.6626ZM9.32102 5.78437C8.70191 5.83009 8.28967 5.91866 7.94821 6.07337C7.11653 6.4502 6.4502 7.11653 6.07337 7.94821C5.91866 8.28967 5.83009 8.70191 5.78437 9.32102C5.73824 9.94553 5.7379 10.7371 5.7379 11.8313C5.7379 12.9255 5.73824 13.7171 5.78437 14.3415C5.83009 14.9606 5.91866 15.3729 6.07337 15.7143C6.4502 16.5461 7.11653 17.2124 7.94821 17.5892C8.28967 17.7439 8.70191 17.8325 9.32102 17.8782C9.94553 17.9243 10.7371 17.9247 11.8313 17.9247C12.9255 17.9247 13.7171 17.9243 14.3415 17.8782C14.9606 17.8325 15.3729 17.7439 15.7143 17.5892C16.5461 17.2124 17.2124 16.5461 17.5892 15.7143C17.7439 15.3729 17.8325 14.9606 17.8782 14.3415C17.9243 13.7171 17.9247 12.9255 17.9247 11.8313C17.9247 10.7371 17.9243 9.94553 17.8782 9.32102C17.8325 8.70191 17.7439 8.28967 17.5892 7.94821C17.2124 7.11653 16.5461 6.4502 15.7143 6.07337C15.3729 5.91866 14.9606 5.83009 14.3415 5.78437C13.7171 5.73824 12.9255 5.7379 11.8313 5.7379C10.7371 5.7379 9.94553 5.73824 9.32102 5.78437Z" fill="#DCDCDC"/>
</svg>
