<svg width="80" height="97" viewBox="0 0 80 97" fill="none" xmlns="http://www.w3.org/2000/svg">
<path d="M71.0124 0H9.00533C6.61697 0 4.32643 0.948776 2.6376 2.6376C0.948776 4.32643 0 6.61698 0 9.00534V69.2895C0 71.6779 0.948776 73.9684 2.6376 75.6572C4.32643 77.3461 6.61697 78.2949 9.00533 78.2949H28.8455L15.4885 96.4476L38.579 78.2949H70.9947C73.383 78.2949 75.6736 77.3461 77.3624 75.6572C79.0512 73.9684 80 71.6779 80 69.2895V9.00534C80 6.62005 79.0537 4.33218 77.3687 2.64386C75.6837 0.955546 73.3977 0.00470471 71.0124 0Z" fill="#F15F42"/>
<path opacity="0.6" d="M71.0124 0H9.00533C6.61697 0 4.32643 0.948776 2.6376 2.6376C0.948776 4.32643 0 6.61698 0 9.00534V69.2895C0 71.6779 0.948776 73.9684 2.6376 75.6572C4.32643 77.3461 6.61697 78.2949 9.00533 78.2949H28.8455L15.4885 96.4476L38.579 78.2949H70.9947C73.383 78.2949 75.6736 77.3461 77.3624 75.6572C79.0512 73.9684 80 71.6779 80 69.2895V9.00534C80 6.62005 79.0537 4.33218 77.3687 2.64386C75.6837 0.955546 73.3977 0.00470471 71.0124 0Z" fill="white"/>
<path d="M40.018 67.3002C55.5663 67.3002 68.1707 54.6958 68.1707 39.1474C68.1707 23.5991 55.5663 10.9947 40.018 10.9947C24.4696 10.9947 11.8652 23.5991 11.8652 39.1474C11.8652 54.6958 24.4696 67.3002 40.018 67.3002Z" fill="#F15F42"/>
<path opacity="0.2" d="M63.5022 44.6743C66.5645 31.6994 58.5288 18.6987 45.554 15.6363C32.5791 12.574 19.5784 20.6097 16.5161 33.5845C13.4537 46.5594 21.4894 59.5601 34.4642 62.6224C47.4391 65.6848 60.4398 57.6491 63.5022 44.6743Z" fill="black"/>
<path d="M37.0162 50.675C36.6892 50.682 36.3639 50.6245 36.0591 50.5056C35.7543 50.3867 35.476 50.2089 35.24 49.9822L24.9914 39.9467C24.5203 39.4898 24.25 38.8644 24.24 38.2082C24.23 37.552 24.4811 36.9187 24.9381 36.4476C25.395 35.9765 26.0204 35.7063 26.6766 35.6963C27.3328 35.6863 27.9661 35.9374 28.4372 36.3943L36.8386 44.6181L51.3679 28.4014C51.8134 27.9524 52.4143 27.6915 53.0465 27.6726C53.6787 27.6536 54.2941 27.878 54.7657 28.2995C55.2374 28.721 55.5292 29.3074 55.5811 29.9378C55.633 30.5682 55.441 31.1944 55.0447 31.6874L38.7924 49.8224C38.5683 50.0732 38.2949 50.2751 37.9893 50.4157C37.6837 50.5562 37.3525 50.6324 37.0162 50.6394V50.675Z" fill="white"/>
</svg>
