<svg width="24" height="24" viewBox="0 0 24 24" fill="none" xmlns="http://www.w3.org/2000/svg">
<path fill-rule="evenodd" clip-rule="evenodd" d="M4.08777 7.7364C4.84209 3.96483 8.15365 1.25 11.9999 1.25C15.8462 1.25 19.1577 3.96483 19.912 7.7364L21.1658 14.0054C21.5686 16.019 20.4996 18.0431 18.6323 18.873C17.9505 19.176 17.2507 19.4298 16.5387 19.6343L16.435 19.8678C15.656 21.6205 13.9179 22.75 11.9999 22.75C10.0819 22.75 8.34382 21.6205 7.56484 19.8678L7.46108 19.6343C6.74912 19.4298 6.0493 19.176 5.36748 18.873C3.50016 18.0431 2.43126 16.019 2.83398 14.0054L4.08777 7.7364ZM9.44866 20.0731C10.0757 20.808 11.0026 21.25 11.9999 21.25C12.9972 21.25 13.9241 20.808 14.5511 20.0731C12.8624 20.3372 11.1374 20.3372 9.44866 20.0731Z" fill="white"/>
</svg>
