<svg width="241" height="241" viewBox="0 0 241 241" fill="none" xmlns="http://www.w3.org/2000/svg">
<rect width="169" height="169" rx="84.5" fill="#F2F2F2"/>
<path d="M241 184.317H0V184.437H241V184.317Z" fill="#FAFAFA"/>
<path d="M203.992 189.561H192.024V189.681H203.992V189.561Z" fill="#E0E0E0"/>
<path d="M211.574 189.498H207.53V189.619H211.574V189.498Z" fill="#E0E0E0"/>
<path d="M160.038 190.308H134.979V190.429H160.038V190.308Z" fill="#E0E0E0"/>
<path d="M129.065 191.614H125.33V191.735H129.065V191.614Z" fill="#E0E0E0"/>
<path d="M53.9599 187.802H47.5204V187.922H53.9599V187.802Z" fill="#E0E0E0"/>
<path d="M89.2953 187.802H56.635V187.922H89.2953V187.802Z" fill="#E0E0E0"/>
<path d="M61.455 190.713H38.7335V190.833H61.455V190.713Z" fill="#E0E0E0"/>
<path d="M114.234 162.82H21.1646C20.4355 162.818 19.7367 162.528 19.2216 162.012C18.7065 161.496 18.4172 160.796 18.4172 160.067V29.2381C18.4235 28.5132 18.7156 27.82 19.23 27.3092C19.7445 26.7984 20.4396 26.5112 21.1646 26.51H114.234C114.964 26.51 115.664 26.7999 116.18 27.3161C116.696 27.8322 116.986 28.5323 116.986 29.2622V160.067C116.986 160.797 116.696 161.497 116.18 162.013C115.664 162.53 114.964 162.82 114.234 162.82ZM21.1646 26.6064C20.4674 26.6077 19.7993 26.8855 19.3068 27.3789C18.8143 27.8723 18.5377 28.541 18.5377 29.2381V160.067C18.5377 160.765 18.8143 161.433 19.3068 161.927C19.7993 162.42 20.4674 162.698 21.1646 162.699H114.234C114.932 162.698 115.6 162.42 116.093 161.927C116.587 161.434 116.864 160.765 116.866 160.067V29.2381C116.864 28.5405 116.587 27.8719 116.093 27.3786C115.6 26.8853 114.932 26.6077 114.234 26.6064H21.1646Z" fill="#E0E0E0"/>
<path d="M218.495 162.82H125.421C124.692 162.818 123.992 162.528 123.477 162.012C122.961 161.496 122.67 160.797 122.669 160.067V29.2381C122.677 28.5127 122.97 27.8196 123.485 27.3089C124 26.7983 124.696 26.5112 125.421 26.51H218.495C219.22 26.5125 219.913 26.8003 220.427 27.3109C220.94 27.8216 221.232 28.514 221.238 29.2381V160.067C221.238 160.796 220.949 161.494 220.435 162.01C219.921 162.526 219.224 162.817 218.495 162.82ZM125.421 26.6064C124.724 26.6077 124.055 26.8853 123.562 27.3786C123.068 27.8719 122.791 28.5405 122.79 29.2381V160.067C122.791 160.765 123.068 161.434 123.562 161.927C124.055 162.42 124.724 162.698 125.421 162.699H218.495C219.193 162.698 219.862 162.42 220.355 161.927C220.848 161.434 221.126 160.765 221.127 160.067V29.2381C221.126 28.5405 220.848 27.8719 220.355 27.3786C219.862 26.8853 219.193 26.6077 218.495 26.6064H125.421Z" fill="#E0E0E0"/>
<path d="M164.724 184.317H181.753V153.411H164.724V184.317Z" fill="#E0E0E0"/>
<path d="M202.069 153.411H181.753V184.317H202.069V153.411Z" fill="#EBEBEB"/>
<g style="mix-blend-mode:multiply" opacity="0.7">
<path d="M164.723 157.426H202.247V156.028H164.723V157.426Z" fill="#E0E0E0"/>
</g>
<path d="M163.784 156.611H181.753V150.172H163.784V156.611Z" fill="#E0E0E0"/>
<path d="M203.009 150.177H181.753V156.616H203.009V150.177Z" fill="#EBEBEB"/>
<path d="M93.537 35.6632H36.2127V104.059H93.537V35.6632Z" fill="#E0E0E0"/>
<path d="M96.1638 35.6632H37.4418V104.059H96.1638V35.6632Z" fill="#EBEBEB"/>
<path d="M93.537 104.059H36.2127V108.932H93.537V104.059Z" fill="#E0E0E0"/>
<path d="M100.531 104.059H41.8087V108.932H100.531V104.059Z" fill="#EBEBEB"/>
<path d="M92.491 100.386V39.336H41.1146L41.1146 100.386H92.491Z" fill="#F5F5F5"/>
<path d="M47.4191 100.386L68.9693 39.336H79.1396L57.5941 100.386H47.4191Z" fill="#FAFAFA"/>
<path d="M42.8112 79.6746C42.7418 79.6733 42.6756 79.6448 42.6269 79.5953C42.5782 79.5457 42.551 79.479 42.551 79.4095V41.7219C42.551 41.6529 42.5784 41.5867 42.6272 41.5379C42.676 41.489 42.7422 41.4616 42.8112 41.4616C42.8807 41.4616 42.9474 41.4889 42.997 41.5376C43.0466 41.5862 43.0751 41.6524 43.0763 41.7219V79.4095C43.0763 79.4798 43.0484 79.5472 42.9987 79.5969C42.949 79.6467 42.8816 79.6746 42.8112 79.6746Z" fill="#EBEBEB"/>
<path d="M59.7776 100.386L81.3278 39.336H85.2947L63.7445 100.386H59.7776Z" fill="#FAFAFA"/>
<path d="M92.4862 100.386V39.336H92.0186V100.386H92.4862Z" fill="#E0E0E0"/>
<path d="M97.0267 44.0307H39.7072L39.3698 40.7627H96.6893L97.0267 44.0307Z" fill="#E0E0E0"/>
<path d="M97.0267 46.4262H39.7072L39.3698 43.1534H96.6893L97.0267 46.4262Z" fill="#E0E0E0"/>
<path d="M97.0267 49.2989H39.7072L39.3698 46.0262H96.6893L97.0267 49.2989Z" fill="#E0E0E0"/>
<path d="M97.0267 52.4946H39.7072L39.3698 49.2266H96.6893L97.0267 52.4946Z" fill="#E0E0E0"/>
<path d="M97.0267 56.3265H39.7072L39.3698 53.0537H96.6893L97.0267 56.3265Z" fill="#E0E0E0"/>
<path d="M97.0267 60.6308H39.7072L39.3698 57.3628H96.6893L97.0267 60.6308Z" fill="#E0E0E0"/>
<path d="M197.794 35.6632H140.469V104.059H197.794V35.6632Z" fill="#E0E0E0"/>
<path d="M200.416 35.6632H141.694V104.059H200.416V35.6632Z" fill="#EBEBEB"/>
<path d="M197.794 104.059H140.469V108.932H197.794V104.059Z" fill="#E0E0E0"/>
<path d="M204.787 104.059H146.065V108.932H204.787V104.059Z" fill="#EBEBEB"/>
<path d="M196.748 100.386V39.336H145.371V100.386H196.748Z" fill="#F5F5F5"/>
<path d="M151.676 100.386L173.226 39.336H183.396L161.846 100.386H151.676Z" fill="#FAFAFA"/>
<path d="M147.068 79.6746C146.998 79.6733 146.932 79.6448 146.884 79.5953C146.835 79.5457 146.808 79.479 146.808 79.4095V41.7219C146.808 41.6529 146.835 41.5867 146.884 41.5379C146.933 41.489 146.999 41.4616 147.068 41.4616C147.137 41.4616 147.203 41.489 147.252 41.5379C147.301 41.5867 147.328 41.6529 147.328 41.7219V79.4095C147.328 79.479 147.301 79.5457 147.252 79.5953C147.204 79.6448 147.137 79.6733 147.068 79.6746Z" fill="#EBEBEB"/>
<path d="M164.034 100.386L185.584 39.336H189.546L168.001 100.386H164.034Z" fill="#FAFAFA"/>
<path d="M196.743 100.386V39.336H196.275V100.386H196.743Z" fill="#E0E0E0"/>
<path d="M201.283 44.0307H143.964L143.622 40.7627H200.946L201.283 44.0307Z" fill="#E0E0E0"/>
<path d="M201.283 46.4262H143.964L143.622 43.1534H200.946L201.283 46.4262Z" fill="#E0E0E0"/>
<path d="M201.283 49.2989H143.964L143.622 46.0262H200.946L201.283 49.2989Z" fill="#E0E0E0"/>
<path d="M201.283 52.4946H143.964L143.622 49.2266H200.946L201.283 52.4946Z" fill="#E0E0E0"/>
<path d="M201.283 56.3265H143.964L143.622 53.0537H200.946L201.283 56.3265Z" fill="#E0E0E0"/>
<path d="M201.283 60.6308H143.964L143.622 57.3628H200.946L201.283 60.6308Z" fill="#E0E0E0"/>
<path d="M153.295 140.966H141.848V184.317H153.295V140.966Z" fill="#E0E0E0"/>
<path d="M151.117 184.317H153.29V179.005H148.837L151.117 184.317Z" fill="#F5F5F5"/>
<path d="M42.2039 140.966H30.7564V184.317H42.2039V140.966Z" fill="#E0E0E0"/>
<path d="M153.295 140.966H40.3048V181.396H153.295V140.966Z" fill="#F5F5F5"/>
<path d="M97.5279 142.99V171.862H151.608V142.99H97.5279Z" fill="#E0E0E0"/>
<path d="M41.9919 142.99V171.862H96.0722V142.99H41.9919Z" fill="#E0E0E0"/>
<path d="M151.603 177.964V174.749H97.5231V177.964H151.603Z" fill="#E0E0E0"/>
<path d="M96.0674 177.969V174.754H41.987V177.969H96.0674Z" fill="#E0E0E0"/>
<path d="M88.0758 144.716H49.9978C49.1524 144.716 48.3155 144.546 47.5377 144.214C46.7599 143.883 46.0571 143.398 45.4718 142.788H92.6211C92.0335 143.4 91.3277 143.887 90.5463 144.218C89.765 144.55 88.9245 144.719 88.0758 144.716Z" fill="#F5F5F5"/>
<path d="M143.814 144.716H105.736C104.891 144.716 104.054 144.546 103.276 144.214C102.498 143.883 101.796 143.398 101.21 142.788H148.36C147.773 143.401 147.067 143.889 146.286 144.221C145.504 144.552 144.663 144.721 143.814 144.716Z" fill="#F5F5F5"/>
<path d="M42.4787 184.317H40.3V179.005H44.7537L42.4787 184.317Z" fill="#F5F5F5"/>
<g style="mix-blend-mode:multiply" opacity="0.4">
<path d="M123.18 114.35H110.436V140.966H123.18V114.35Z" fill="#E0E0E0"/>
</g>
<path d="M133.885 140.966H112.316L110.286 112.224H131.851L133.885 140.966Z" fill="#E0E0E0"/>
<path d="M136.339 140.966H112.928L110.899 112.224H134.304L136.339 140.966Z" fill="#F5F5F5"/>
<path d="M114.012 139.867L112.137 113.323H133.225L135.105 139.867H114.012Z" fill="#FAFAFA"/>
<path d="M119.117 133.924L118.08 119.266H128.12L129.157 133.924H119.117Z" fill="#F5F5F5"/>
<path d="M76.8067 136.247C79.8999 136.247 82.4075 133.739 82.4075 130.646C82.4075 127.553 79.8999 125.045 76.8067 125.045C73.7134 125.045 71.2058 127.553 71.2058 130.646C71.2058 133.739 73.7134 136.247 76.8067 136.247Z" fill="#EBEBEB"/>
<path d="M86.3985 138.917C89.4918 138.917 91.9993 136.41 91.9993 133.316C91.9993 130.223 89.4918 127.715 86.3985 127.715C83.3052 127.715 80.7977 130.223 80.7977 133.316C80.7977 136.41 83.3052 138.917 86.3985 138.917Z" fill="#EBEBEB"/>
<path d="M95.929 134.432C97.8365 133.646 98.7458 131.463 97.96 129.555C97.1742 127.648 94.9908 126.738 93.0832 127.524C91.1757 128.31 90.2664 130.493 91.0522 132.401C91.8381 134.308 94.0215 135.218 95.929 134.432Z" fill="#EBEBEB"/>
<path d="M86.1049 127.859C86.4347 125.822 85.0512 123.904 83.0147 123.574C80.9782 123.244 79.0598 124.628 78.73 126.664C78.4001 128.701 79.7837 130.619 81.8202 130.949C83.8567 131.279 85.775 129.895 86.1049 127.859Z" fill="#EBEBEB"/>
<path d="M67.8511 132.314C67.8511 132.314 68.2898 140.966 85.0971 140.966C101.904 140.966 102.343 132.314 102.343 132.314H67.8511Z" fill="#E0E0E0"/>
<path d="M52.3308 138.001C52.3308 138.001 46.8552 128.564 54.4516 121.049C54.4516 121.049 56.4326 122.341 56.3796 124.081C56.3265 125.821 54.2539 126.255 54.7022 127.706C55.1505 129.157 57.1122 130.598 55.8349 131.779C54.5576 132.96 56.0422 134.039 55.9554 135.509C55.8686 136.98 52.3308 138.001 52.3308 138.001Z" fill="#E0E0E0"/>
<path d="M52.7452 138.864C52.7452 138.864 54.9624 128.183 45.3851 123.44C45.3851 123.44 43.9102 125.296 44.4886 126.935C45.067 128.573 47.1878 128.328 47.2215 129.827C47.2553 131.326 45.8237 133.316 47.4336 134.044C49.0435 134.772 47.9493 136.261 48.494 137.625C49.0387 138.989 52.7452 138.864 52.7452 138.864Z" fill="#E0E0E0"/>
<path d="M44.344 133.924C44.344 133.924 44.5272 140.966 51.5065 140.966C58.4859 140.966 58.669 133.924 58.669 133.924H44.344Z" fill="#EBEBEB"/>
<path d="M120.5 206.084C172.114 206.084 213.955 203.641 213.955 200.628C213.955 197.614 172.114 195.171 120.5 195.171C68.8862 195.171 27.045 197.614 27.045 200.628C27.045 203.641 68.8862 206.084 120.5 206.084Z" fill="#F5F5F5"/>
<path d="M86.9769 131.316C86.6911 131.297 86.4232 131.171 86.2274 130.962C86.0316 130.753 85.9227 130.477 85.9227 130.191C85.9227 129.904 86.0316 129.629 86.2274 129.42C86.4232 129.211 86.6911 129.084 86.9769 129.065C89.7339 129.065 92.0572 125.118 92.0572 120.442C92.0759 120.156 92.2026 119.888 92.4116 119.693C92.6206 119.497 92.8963 119.388 93.1826 119.388C93.469 119.388 93.7447 119.497 93.9537 119.693C94.1627 119.888 94.2894 120.156 94.3081 120.442C94.3081 126.539 91.098 131.316 86.9769 131.316Z" fill="#F15F42"/>
<path d="M103.987 131.316C103.701 131.297 103.433 131.171 103.237 130.962C103.041 130.753 102.932 130.477 102.932 130.191C102.932 129.904 103.041 129.629 103.237 129.42C103.433 129.211 103.701 129.084 103.987 129.065C106.744 129.065 109.067 125.118 109.067 120.442C109.086 120.156 109.212 119.888 109.421 119.693C109.63 119.497 109.906 119.388 110.192 119.388C110.479 119.388 110.754 119.497 110.963 119.693C111.172 119.888 111.299 120.156 111.318 120.442C111.342 126.539 108.098 131.316 103.987 131.316Z" fill="#F15F42"/>
<path d="M120.982 131.316C120.696 131.297 120.428 131.171 120.233 130.962C120.037 130.753 119.928 130.477 119.928 130.191C119.928 129.904 120.037 129.629 120.233 129.42C120.428 129.211 120.696 129.084 120.982 129.065C123.734 129.065 126.062 125.118 126.062 120.442C126.062 120.144 126.181 119.859 126.391 119.648C126.602 119.437 126.888 119.319 127.185 119.319C127.483 119.319 127.769 119.437 127.979 119.648C128.19 119.859 128.308 120.144 128.308 120.442C128.323 126.539 125.108 131.316 120.982 131.316Z" fill="#F15F42"/>
<path d="M138.006 131.316C137.852 131.326 137.698 131.305 137.553 131.253C137.407 131.201 137.274 131.119 137.161 131.014C137.049 130.908 136.959 130.781 136.898 130.639C136.836 130.498 136.805 130.345 136.805 130.191C136.805 130.036 136.836 129.884 136.898 129.742C136.959 129.6 137.049 129.473 137.161 129.367C137.274 129.262 137.407 129.181 137.553 129.129C137.698 129.077 137.852 129.055 138.006 129.065C140.758 129.065 143.086 125.118 143.086 120.442C143.086 120.144 143.205 119.859 143.415 119.648C143.626 119.437 143.912 119.319 144.21 119.319C144.507 119.319 144.793 119.437 145.004 119.648C145.214 119.859 145.333 120.144 145.333 120.442C145.333 126.539 142.113 131.316 138.006 131.316Z" fill="#F15F42"/>
<path d="M155.011 131.316C154.725 131.297 154.458 131.171 154.262 130.962C154.066 130.753 153.957 130.477 153.957 130.191C153.957 129.904 154.066 129.629 154.262 129.42C154.458 129.211 154.725 129.084 155.011 129.065C157.768 129.065 160.091 125.118 160.091 120.442C160.11 120.156 160.237 119.888 160.446 119.693C160.655 119.497 160.931 119.388 161.217 119.388C161.503 119.388 161.779 119.497 161.988 119.693C162.197 119.888 162.324 120.156 162.342 120.442C162.342 126.539 159.123 131.316 155.011 131.316Z" fill="#F15F42"/>
<path d="M172.021 131.316C171.735 131.297 171.467 131.171 171.271 130.962C171.076 130.753 170.967 130.477 170.967 130.191C170.967 129.904 171.076 129.629 171.271 129.42C171.467 129.211 171.735 129.084 172.021 129.065C174.773 129.065 177.101 125.118 177.101 120.442C177.12 120.156 177.247 119.888 177.456 119.693C177.665 119.497 177.94 119.388 178.227 119.388C178.513 119.388 178.789 119.497 178.998 119.693C179.207 119.888 179.333 120.156 179.352 120.442C179.352 126.539 176.132 131.316 172.021 131.316Z" fill="#F15F42"/>
<g opacity="0.3">
<path d="M86.9769 131.316C86.6911 131.297 86.4232 131.171 86.2274 130.962C86.0316 130.753 85.9227 130.477 85.9227 130.191C85.9227 129.904 86.0316 129.629 86.2274 129.42C86.4232 129.211 86.6911 129.084 86.9769 129.065C89.7339 129.065 92.0572 125.118 92.0572 120.442C92.0759 120.156 92.2026 119.888 92.4116 119.693C92.6206 119.497 92.8963 119.388 93.1826 119.388C93.469 119.388 93.7447 119.497 93.9537 119.693C94.1627 119.888 94.2894 120.156 94.3081 120.442C94.3081 126.539 91.098 131.316 86.9769 131.316Z" fill="black"/>
<path d="M103.987 131.316C103.701 131.297 103.433 131.171 103.237 130.962C103.041 130.753 102.932 130.477 102.932 130.191C102.932 129.904 103.041 129.629 103.237 129.42C103.433 129.211 103.701 129.084 103.987 129.065C106.744 129.065 109.067 125.118 109.067 120.442C109.086 120.156 109.212 119.888 109.421 119.693C109.63 119.497 109.906 119.388 110.192 119.388C110.479 119.388 110.754 119.497 110.963 119.693C111.172 119.888 111.299 120.156 111.318 120.442C111.342 126.539 108.098 131.316 103.987 131.316Z" fill="black"/>
<path d="M120.982 131.316C120.696 131.297 120.428 131.171 120.233 130.962C120.037 130.753 119.928 130.477 119.928 130.191C119.928 129.904 120.037 129.629 120.233 129.42C120.428 129.211 120.696 129.084 120.982 129.065C123.734 129.065 126.062 125.118 126.062 120.442C126.062 120.144 126.181 119.859 126.391 119.648C126.602 119.437 126.888 119.319 127.185 119.319C127.483 119.319 127.769 119.437 127.979 119.648C128.19 119.859 128.308 120.144 128.308 120.442C128.323 126.539 125.108 131.316 120.982 131.316Z" fill="black"/>
<path d="M138.006 131.316C137.852 131.326 137.698 131.305 137.553 131.253C137.407 131.201 137.274 131.119 137.161 131.014C137.049 130.908 136.959 130.781 136.898 130.639C136.836 130.498 136.805 130.345 136.805 130.191C136.805 130.036 136.836 129.884 136.898 129.742C136.959 129.6 137.049 129.473 137.161 129.367C137.274 129.262 137.407 129.181 137.553 129.129C137.698 129.077 137.852 129.055 138.006 129.065C140.758 129.065 143.086 125.118 143.086 120.442C143.086 120.144 143.205 119.859 143.415 119.648C143.626 119.437 143.912 119.319 144.21 119.319C144.507 119.319 144.793 119.437 145.004 119.648C145.214 119.859 145.333 120.144 145.333 120.442C145.333 126.539 142.113 131.316 138.006 131.316Z" fill="black"/>
<path d="M155.011 131.316C154.725 131.297 154.458 131.171 154.262 130.962C154.066 130.753 153.957 130.477 153.957 130.191C153.957 129.904 154.066 129.629 154.262 129.42C154.458 129.211 154.725 129.084 155.011 129.065C157.768 129.065 160.091 125.118 160.091 120.442C160.11 120.156 160.237 119.888 160.446 119.693C160.655 119.497 160.931 119.388 161.217 119.388C161.503 119.388 161.779 119.497 161.988 119.693C162.197 119.888 162.324 120.156 162.342 120.442C162.342 126.539 159.123 131.316 155.011 131.316Z" fill="black"/>
<path d="M172.021 131.316C171.735 131.297 171.467 131.171 171.272 130.962C171.076 130.753 170.967 130.477 170.967 130.191C170.967 129.904 171.076 129.629 171.272 129.42C171.467 129.211 171.735 129.084 172.021 129.065C174.773 129.065 177.101 125.118 177.101 120.442C177.12 120.156 177.247 119.888 177.456 119.693C177.665 119.497 177.94 119.388 178.227 119.388C178.513 119.388 178.789 119.497 178.998 119.693C179.207 119.888 179.333 120.156 179.352 120.442C179.352 126.539 176.132 131.316 172.021 131.316Z" fill="black"/>
</g>
<path d="M76.3199 121.594H185.821C187.289 121.624 188.696 122.188 189.778 123.181C190.859 124.174 191.542 125.527 191.696 126.988L197.76 195.35C197.834 196.036 197.761 196.73 197.546 197.385C197.332 198.041 196.981 198.644 196.516 199.154C196.051 199.663 195.484 200.069 194.85 200.343C194.217 200.617 193.533 200.753 192.843 200.743H83.3378C81.8702 200.712 80.4644 200.147 79.383 199.154C78.3017 198.162 77.6189 196.809 77.4622 195.35L71.4035 126.988C71.3289 126.302 71.4011 125.607 71.6152 124.951C71.8293 124.295 72.1804 123.692 72.6454 123.182C73.1103 122.672 73.6783 122.267 74.3118 121.993C74.9453 121.719 75.6298 121.583 76.3199 121.594Z" fill="#F15F42"/>
<path opacity="0.4" d="M76.3199 121.594H185.821C187.289 121.624 188.696 122.188 189.778 123.181C190.859 124.174 191.542 125.527 191.696 126.988L197.76 195.35C197.834 196.036 197.761 196.73 197.546 197.385C197.332 198.041 196.981 198.644 196.516 199.154C196.051 199.663 195.484 200.069 194.85 200.343C194.217 200.617 193.533 200.753 192.843 200.743H83.3378C81.8702 200.712 80.4644 200.147 79.383 199.154C78.3017 198.162 77.6189 196.809 77.4622 195.35L71.4035 126.988C71.3289 126.302 71.4011 125.607 71.6152 124.951C71.8293 124.295 72.1804 123.692 72.6454 123.182C73.1103 122.672 73.6783 122.267 74.3118 121.993C74.9453 121.719 75.6298 121.583 76.3199 121.594Z" fill="#FAFAFA"/>
<path d="M184.91 121.594H75.4041C73.9557 121.611 72.5678 122.178 71.5209 123.179C70.4741 124.18 69.8464 125.541 69.7647 126.988L66.6799 195.35C66.6431 196.046 66.7489 196.743 66.9908 197.397C67.2327 198.051 67.6056 198.649 68.0867 199.154C68.5677 199.659 69.1467 200.06 69.7883 200.333C70.43 200.607 71.1206 200.746 71.818 200.743H181.333C182.782 200.726 184.17 200.16 185.216 199.158C186.263 198.157 186.891 196.796 186.973 195.35L190.062 126.988C190.098 126.29 189.992 125.593 189.749 124.938C189.506 124.283 189.131 123.685 188.649 123.18C188.166 122.675 187.586 122.274 186.943 122.001C186.3 121.728 185.608 121.59 184.91 121.594Z" fill="#F15F42"/>
<path opacity="0.2" d="M184.91 121.594H75.4041C73.9557 121.611 72.5678 122.178 71.5209 123.179C70.4741 124.18 69.8464 125.541 69.7647 126.988L66.6799 195.35C66.6431 196.046 66.7489 196.743 66.9908 197.397C67.2327 198.051 67.6056 198.649 68.0867 199.154C68.5677 199.659 69.1467 200.06 69.7883 200.333C70.43 200.607 71.1206 200.746 71.818 200.743H181.333C182.782 200.726 184.17 200.16 185.216 199.158C186.263 198.157 186.891 196.796 186.973 195.35L190.062 126.988C190.098 126.29 189.992 125.593 189.749 124.938C189.506 124.283 189.131 123.685 188.649 123.18C188.166 122.675 187.586 122.274 186.943 122.001C186.3 121.728 185.608 121.59 184.91 121.594Z" fill="#FAFAFA"/>
<path d="M77.414 182.678L79.9638 126.221C79.9944 125.667 80.2346 125.146 80.6356 124.763C81.0367 124.38 81.5685 124.164 82.1231 124.158H177.959C178.226 124.157 178.491 124.21 178.737 124.314C178.983 124.418 179.205 124.572 179.39 124.765C179.574 124.958 179.717 125.187 179.811 125.437C179.904 125.688 179.944 125.954 179.931 126.221L177.376 182.678C177.345 183.232 177.105 183.753 176.704 184.136C176.303 184.519 175.771 184.736 175.217 184.741H79.3854C79.1182 184.743 78.8535 184.69 78.6075 184.585C78.3615 184.481 78.1394 184.328 77.9548 184.135C77.7703 183.941 77.6271 183.713 77.5341 183.462C77.4411 183.212 77.4002 182.945 77.414 182.678Z" fill="#F15F42"/>
<path opacity="0.1" d="M77.414 182.678L79.9638 126.221C79.9944 125.667 80.2346 125.146 80.6356 124.763C81.0367 124.38 81.5685 124.164 82.1231 124.158H177.959C178.226 124.157 178.491 124.21 178.737 124.314C178.983 124.418 179.205 124.572 179.39 124.765C179.574 124.958 179.717 125.187 179.811 125.437C179.904 125.688 179.944 125.954 179.931 126.221L177.376 182.678C177.345 183.232 177.105 183.753 176.704 184.136C176.303 184.519 175.771 184.736 175.217 184.741H79.3854C79.1182 184.743 78.8535 184.69 78.6075 184.585C78.3615 184.481 78.1394 184.328 77.9548 184.135C77.7703 183.941 77.6271 183.713 77.5341 183.462C77.4411 183.212 77.4002 182.945 77.414 182.678Z" fill="#FAFAFA"/>
<path opacity="0.1" d="M74.71 187.286L77.3851 128C77.4158 127.418 77.6674 126.871 78.0884 126.468C78.5095 126.066 79.0682 125.84 79.6505 125.836H180.292C180.573 125.833 180.851 125.888 181.109 125.998C181.367 126.107 181.6 126.268 181.794 126.47C181.988 126.673 182.138 126.914 182.235 127.177C182.333 127.44 182.375 127.72 182.36 128L179.68 187.286C179.649 187.867 179.399 188.415 178.979 188.818C178.559 189.22 178.001 189.448 177.419 189.455H76.7681C76.4879 189.457 76.2102 189.401 75.9523 189.291C75.6945 189.181 75.4619 189.02 75.269 188.816C75.076 188.613 74.9269 188.372 74.8308 188.109C74.7346 187.846 74.6935 187.566 74.71 187.286Z" fill="black"/>
<path d="M72.2229 192.067L75.0136 130.227C75.0511 129.622 75.3149 129.054 75.7526 128.635C76.1903 128.216 76.7697 127.977 77.3754 127.966H182.36C182.653 127.964 182.943 128.021 183.213 128.135C183.483 128.25 183.726 128.418 183.928 128.629C184.131 128.841 184.288 129.092 184.389 129.367C184.491 129.642 184.535 129.934 184.519 130.227L181.714 192.067C181.677 192.672 181.413 193.24 180.975 193.659C180.537 194.078 179.958 194.317 179.352 194.328H74.3822C74.0891 194.331 73.7985 194.274 73.5284 194.16C73.2583 194.046 73.0145 193.878 72.812 193.666C72.6096 193.454 72.4528 193.203 72.3515 192.928C72.2501 192.653 72.2063 192.36 72.2229 192.067Z" fill="#FAFAFA"/>
<path d="M172.006 131.673C171.809 131.673 171.614 131.633 171.432 131.555C171.251 131.477 171.088 131.363 170.952 131.219C170.817 131.075 170.712 130.906 170.645 130.72C170.577 130.534 170.549 130.337 170.56 130.14C170.579 129.753 170.744 129.388 171.023 129.119C171.302 128.851 171.672 128.698 172.06 128.694C172.257 128.694 172.452 128.734 172.634 128.812C172.815 128.89 172.978 129.004 173.114 129.148C173.249 129.291 173.354 129.461 173.421 129.647C173.489 129.832 173.517 130.03 173.506 130.227C173.487 130.613 173.322 130.978 173.043 131.247C172.764 131.516 172.394 131.668 172.006 131.673Z" fill="#F15F42"/>
<path d="M154.997 131.673C154.799 131.673 154.604 131.633 154.423 131.555C154.241 131.477 154.078 131.363 153.942 131.219C153.807 131.075 153.702 130.906 153.635 130.72C153.568 130.534 153.539 130.337 153.551 130.14C153.569 129.753 153.735 129.388 154.013 129.119C154.292 128.851 154.663 128.698 155.05 128.694C155.247 128.694 155.443 128.734 155.624 128.812C155.805 128.89 155.969 129.004 156.104 129.148C156.24 129.291 156.344 129.461 156.412 129.647C156.479 129.832 156.508 130.03 156.496 130.227C156.478 130.614 156.313 130.98 156.035 131.249C155.756 131.518 155.384 131.669 154.997 131.673Z" fill="#F15F42"/>
<path d="M137.987 131.673C137.79 131.673 137.594 131.633 137.413 131.555C137.231 131.477 137.068 131.363 136.933 131.219C136.797 131.075 136.692 130.906 136.625 130.72C136.558 130.534 136.529 130.337 136.541 130.14C136.56 129.754 136.726 129.389 137.005 129.121C137.283 128.852 137.653 128.7 138.04 128.694C138.237 128.694 138.433 128.734 138.614 128.812C138.795 128.89 138.959 129.004 139.094 129.148C139.23 129.291 139.334 129.461 139.402 129.647C139.469 129.832 139.498 130.03 139.486 130.227C139.469 130.614 139.304 130.98 139.025 131.249C138.746 131.518 138.374 131.669 137.987 131.673Z" fill="#F15F42"/>
<path d="M120.982 131.673C120.785 131.673 120.589 131.633 120.408 131.555C120.226 131.477 120.063 131.363 119.928 131.219C119.792 131.075 119.687 130.906 119.62 130.72C119.553 130.534 119.524 130.337 119.536 130.14C119.557 129.753 119.724 129.389 120.003 129.12C120.282 128.852 120.653 128.7 121.04 128.694C121.237 128.694 121.433 128.734 121.614 128.812C121.795 128.89 121.959 129.004 122.094 129.148C122.23 129.291 122.334 129.461 122.402 129.647C122.469 129.832 122.498 130.03 122.486 130.227C122.469 130.615 122.303 130.981 122.023 131.25C121.743 131.519 121.37 131.671 120.982 131.673Z" fill="#F15F42"/>
<path d="M103.972 131.673C103.775 131.673 103.579 131.633 103.398 131.555C103.217 131.477 103.053 131.363 102.918 131.219C102.782 131.075 102.678 130.906 102.61 130.72C102.543 130.534 102.514 130.337 102.526 130.14C102.545 129.753 102.71 129.388 102.989 129.119C103.267 128.851 103.638 128.698 104.025 128.694C104.223 128.694 104.418 128.734 104.599 128.812C104.781 128.89 104.944 129.004 105.08 129.148C105.215 129.291 105.32 129.461 105.387 129.647C105.454 129.832 105.483 130.03 105.471 130.227C105.453 130.613 105.287 130.978 105.009 131.247C104.73 131.516 104.359 131.668 103.972 131.673Z" fill="#F15F42"/>
<path d="M86.9624 131.673C86.765 131.673 86.5696 131.633 86.3882 131.555C86.2069 131.477 86.0435 131.363 85.908 131.219C85.7725 131.075 85.6679 130.906 85.6005 130.72C85.5332 130.534 85.5046 130.337 85.5164 130.14C85.5348 129.753 85.7002 129.388 85.9789 129.119C86.2575 128.851 86.6283 128.698 87.0154 128.694C87.2128 128.694 87.4082 128.734 87.5896 128.812C87.7709 128.89 87.9344 129.004 88.0698 129.148C88.2053 129.291 88.3099 129.461 88.3773 129.647C88.4446 129.832 88.4733 130.03 88.4614 130.227C88.4442 130.614 88.2791 130.98 88.0002 131.249C87.7213 131.518 87.3499 131.669 86.9624 131.673Z" fill="#F15F42"/>
<g opacity="0.1">
<path d="M172.006 131.673C171.809 131.673 171.614 131.633 171.432 131.555C171.251 131.477 171.088 131.363 170.952 131.219C170.817 131.075 170.712 130.906 170.645 130.72C170.577 130.534 170.549 130.337 170.56 130.14C170.579 129.753 170.744 129.388 171.023 129.119C171.302 128.851 171.672 128.698 172.06 128.694C172.257 128.694 172.452 128.734 172.634 128.812C172.815 128.89 172.978 129.004 173.114 129.148C173.249 129.291 173.354 129.461 173.421 129.647C173.489 129.832 173.517 130.03 173.506 130.227C173.487 130.613 173.322 130.979 173.043 131.247C172.764 131.516 172.394 131.668 172.006 131.673Z" fill="#FAFAFA"/>
<path d="M154.997 131.673C154.799 131.673 154.604 131.633 154.423 131.555C154.241 131.477 154.078 131.363 153.942 131.219C153.807 131.075 153.702 130.906 153.635 130.72C153.568 130.534 153.539 130.337 153.551 130.14C153.569 129.753 153.735 129.388 154.013 129.119C154.292 128.851 154.663 128.698 155.05 128.694C155.247 128.694 155.443 128.734 155.624 128.812C155.805 128.89 155.969 129.004 156.104 129.148C156.24 129.291 156.344 129.461 156.412 129.647C156.479 129.832 156.508 130.03 156.496 130.227C156.478 130.614 156.313 130.98 156.035 131.249C155.756 131.518 155.384 131.669 154.997 131.673Z" fill="#FAFAFA"/>
<path d="M137.987 131.673C137.79 131.673 137.594 131.633 137.413 131.555C137.231 131.477 137.068 131.363 136.933 131.219C136.797 131.075 136.692 130.906 136.625 130.72C136.558 130.534 136.529 130.337 136.541 130.14C136.56 129.754 136.726 129.389 137.005 129.121C137.283 128.852 137.653 128.7 138.04 128.694C138.237 128.694 138.433 128.734 138.614 128.812C138.795 128.89 138.959 129.004 139.094 129.148C139.23 129.291 139.334 129.461 139.402 129.647C139.469 129.832 139.498 130.03 139.486 130.227C139.469 130.614 139.304 130.98 139.025 131.249C138.746 131.518 138.374 131.669 137.987 131.673Z" fill="#FAFAFA"/>
<path d="M120.982 131.673C120.785 131.673 120.589 131.633 120.408 131.555C120.226 131.477 120.063 131.363 119.928 131.219C119.792 131.075 119.687 130.906 119.62 130.72C119.553 130.534 119.524 130.337 119.536 130.14C119.557 129.753 119.724 129.389 120.003 129.12C120.282 128.852 120.653 128.7 121.04 128.694C121.237 128.694 121.433 128.734 121.614 128.812C121.795 128.89 121.959 129.004 122.094 129.148C122.23 129.291 122.334 129.461 122.402 129.647C122.469 129.832 122.498 130.03 122.486 130.227C122.469 130.615 122.303 130.981 122.023 131.25C121.743 131.519 121.37 131.671 120.982 131.673Z" fill="#FAFAFA"/>
<path d="M103.972 131.673C103.775 131.673 103.579 131.633 103.398 131.555C103.217 131.477 103.053 131.363 102.918 131.219C102.782 131.075 102.678 130.906 102.61 130.72C102.543 130.534 102.514 130.337 102.526 130.14C102.545 129.753 102.71 129.388 102.989 129.119C103.267 128.851 103.638 128.698 104.025 128.694C104.223 128.694 104.418 128.734 104.599 128.812C104.781 128.89 104.944 129.004 105.08 129.148C105.215 129.291 105.32 129.461 105.387 129.647C105.454 129.832 105.483 130.03 105.471 130.227C105.453 130.613 105.287 130.979 105.009 131.247C104.73 131.516 104.359 131.668 103.972 131.673Z" fill="#FAFAFA"/>
<path d="M86.9624 131.673C86.765 131.673 86.5696 131.633 86.3882 131.555C86.2069 131.477 86.0435 131.363 85.908 131.219C85.7725 131.075 85.6679 130.906 85.6005 130.72C85.5332 130.534 85.5046 130.337 85.5164 130.14C85.5348 129.753 85.7002 129.388 85.9789 129.119C86.2575 128.851 86.6283 128.698 87.0154 128.694C87.2128 128.694 87.4082 128.734 87.5896 128.812C87.7709 128.89 87.9344 129.004 88.0698 129.148C88.2053 129.291 88.3099 129.461 88.3773 129.647C88.4446 129.832 88.4733 130.03 88.4614 130.227C88.4442 130.614 88.2791 130.98 88.0002 131.249C87.7213 131.518 87.3499 131.669 86.9624 131.673Z" fill="#FAFAFA"/>
</g>
<path d="M91.2137 137.061H82.6582C82.5341 137.062 82.4112 137.038 82.2972 136.989C82.1832 136.94 82.0807 136.868 81.9959 136.777C81.9112 136.687 81.8462 136.579 81.8051 136.462C81.7639 136.345 81.7475 136.221 81.7568 136.097C81.7664 135.845 81.871 135.605 82.0497 135.426C82.2285 135.248 82.4682 135.143 82.7208 135.133H91.2763C91.4004 135.132 91.5233 135.157 91.6372 135.206C91.7512 135.255 91.8538 135.327 91.9385 135.418C92.0233 135.508 92.0883 135.615 92.1294 135.733C92.1706 135.85 92.187 135.974 92.1777 136.097C92.1681 136.35 92.0635 136.59 91.8847 136.769C91.706 136.947 91.4663 137.052 91.2137 137.061Z" fill="#F15F42"/>
<path d="M108.223 137.061H99.668C99.5439 137.062 99.421 137.038 99.307 136.989C99.193 136.94 99.0904 136.868 99.0057 136.777C98.921 136.687 98.856 136.579 98.8149 136.462C98.7737 136.345 98.7573 136.221 98.7666 136.097C98.7765 135.841 98.8845 135.598 99.0683 135.418C99.2522 135.239 99.4979 135.137 99.7547 135.133H108.305C108.43 135.133 108.553 135.157 108.667 135.206C108.781 135.255 108.884 135.327 108.969 135.417C109.054 135.508 109.12 135.615 109.161 135.732C109.203 135.849 109.22 135.974 109.212 136.097C109.202 136.354 109.094 136.597 108.91 136.777C108.726 136.956 108.48 137.058 108.223 137.061Z" fill="#F15F42"/>
<path d="M125.233 137.061H116.678C116.553 137.062 116.43 137.038 116.316 136.989C116.202 136.94 116.099 136.868 116.014 136.778C115.929 136.687 115.863 136.58 115.822 136.463C115.78 136.346 115.763 136.221 115.772 136.097C115.781 135.841 115.889 135.598 116.073 135.418C116.257 135.239 116.503 135.137 116.76 135.133H125.32C125.444 135.132 125.567 135.157 125.681 135.206C125.795 135.255 125.897 135.327 125.982 135.418C126.067 135.508 126.132 135.615 126.173 135.733C126.214 135.85 126.231 135.974 126.221 136.097C126.213 136.355 126.105 136.598 125.921 136.778C125.737 136.958 125.49 137.059 125.233 137.061Z" fill="#F15F42"/>
<path d="M142.238 137.061H133.683C133.559 137.062 133.436 137.038 133.322 136.989C133.208 136.94 133.105 136.868 133.02 136.777C132.936 136.687 132.871 136.579 132.83 136.462C132.788 136.345 132.772 136.221 132.781 136.097C132.791 135.845 132.895 135.605 133.074 135.426C133.253 135.248 133.493 135.143 133.745 135.133H142.301C142.425 135.132 142.548 135.157 142.662 135.206C142.776 135.255 142.878 135.327 142.963 135.418C143.048 135.508 143.113 135.615 143.154 135.733C143.195 135.85 143.212 135.974 143.202 136.097C143.193 136.35 143.088 136.59 142.909 136.769C142.73 136.947 142.491 137.052 142.238 137.061Z" fill="#F15F42"/>
<path d="M159.248 137.061H150.692C150.568 137.062 150.446 137.038 150.332 136.989C150.218 136.94 150.115 136.868 150.03 136.777C149.946 136.687 149.881 136.579 149.839 136.462C149.798 136.345 149.782 136.221 149.791 136.097C149.801 135.841 149.909 135.598 150.093 135.418C150.277 135.239 150.522 135.137 150.779 135.133H159.335C159.459 135.132 159.582 135.157 159.696 135.206C159.81 135.255 159.912 135.327 159.997 135.418C160.082 135.508 160.147 135.615 160.188 135.733C160.229 135.85 160.245 135.974 160.236 136.097C160.226 136.354 160.118 136.597 159.934 136.777C159.751 136.956 159.505 137.058 159.248 137.061Z" fill="#F15F42"/>
<path d="M176.258 137.061H167.702C167.578 137.062 167.455 137.038 167.341 136.989C167.227 136.94 167.125 136.868 167.04 136.777C166.955 136.687 166.89 136.579 166.849 136.462C166.808 136.345 166.792 136.221 166.801 136.097C166.811 135.841 166.919 135.598 167.103 135.418C167.286 135.239 167.532 135.137 167.789 135.133H176.34C176.464 135.133 176.587 135.157 176.701 135.206C176.815 135.255 176.918 135.327 177.003 135.417C177.088 135.508 177.154 135.615 177.196 135.732C177.237 135.849 177.254 135.974 177.246 136.097C177.236 136.354 177.128 136.597 176.944 136.777C176.76 136.956 176.515 137.058 176.258 137.061Z" fill="#F15F42"/>
<g opacity="0.3">
<path d="M91.2137 137.061H82.6582C82.5341 137.062 82.4112 137.038 82.2972 136.989C82.1832 136.94 82.0807 136.868 81.9959 136.777C81.9112 136.687 81.8462 136.579 81.8051 136.462C81.7639 136.345 81.7475 136.221 81.7568 136.097C81.7664 135.845 81.871 135.605 82.0497 135.426C82.2285 135.248 82.4682 135.143 82.7208 135.133H91.2763C91.4004 135.132 91.5233 135.157 91.6372 135.206C91.7512 135.255 91.8538 135.327 91.9385 135.418C92.0233 135.508 92.0883 135.615 92.1294 135.733C92.1706 135.85 92.187 135.974 92.1777 136.097C92.1681 136.35 92.0635 136.59 91.8847 136.769C91.706 136.947 91.4663 137.052 91.2137 137.061Z" fill="black"/>
<path d="M108.223 137.061H99.668C99.5439 137.063 99.421 137.038 99.307 136.989C99.193 136.94 99.0904 136.868 99.0057 136.777C98.921 136.687 98.856 136.579 98.8149 136.462C98.7737 136.345 98.7573 136.221 98.7666 136.097C98.7765 135.841 98.8845 135.598 99.0683 135.418C99.2522 135.239 99.4979 135.137 99.7547 135.133H108.305C108.43 135.133 108.553 135.157 108.667 135.206C108.781 135.255 108.884 135.327 108.969 135.417C109.054 135.508 109.12 135.615 109.161 135.732C109.203 135.849 109.22 135.974 109.212 136.097C109.202 136.354 109.094 136.597 108.91 136.777C108.726 136.956 108.48 137.058 108.223 137.061Z" fill="black"/>
<path d="M125.233 137.061H116.678C116.553 137.062 116.43 137.038 116.316 136.989C116.202 136.94 116.099 136.868 116.014 136.778C115.929 136.687 115.863 136.58 115.822 136.463C115.78 136.346 115.763 136.221 115.772 136.097C115.781 135.841 115.889 135.598 116.073 135.418C116.257 135.239 116.503 135.137 116.76 135.133H125.32C125.444 135.132 125.567 135.157 125.681 135.206C125.795 135.255 125.897 135.327 125.982 135.418C126.067 135.508 126.132 135.616 126.173 135.733C126.214 135.85 126.231 135.974 126.221 136.097C126.213 136.355 126.105 136.598 125.921 136.778C125.737 136.958 125.49 137.059 125.233 137.061Z" fill="black"/>
<path d="M142.238 137.061H133.683C133.559 137.063 133.436 137.038 133.322 136.989C133.208 136.94 133.105 136.868 133.02 136.777C132.936 136.687 132.871 136.579 132.83 136.462C132.788 136.345 132.772 136.221 132.781 136.097C132.791 135.845 132.895 135.605 133.074 135.426C133.253 135.248 133.493 135.143 133.745 135.133H142.301C142.425 135.132 142.548 135.157 142.662 135.206C142.776 135.255 142.878 135.327 142.963 135.418C143.048 135.508 143.113 135.616 143.154 135.733C143.195 135.85 143.212 135.974 143.202 136.097C143.193 136.35 143.088 136.59 142.909 136.769C142.73 136.947 142.491 137.052 142.238 137.061Z" fill="black"/>
<path d="M159.248 137.061H150.692C150.568 137.063 150.446 137.038 150.332 136.989C150.218 136.94 150.115 136.868 150.03 136.777C149.946 136.687 149.881 136.579 149.839 136.462C149.798 136.345 149.782 136.221 149.791 136.097C149.801 135.841 149.909 135.598 150.093 135.418C150.277 135.239 150.522 135.137 150.779 135.133H159.335C159.459 135.132 159.582 135.157 159.696 135.206C159.81 135.255 159.912 135.327 159.997 135.418C160.082 135.508 160.147 135.616 160.188 135.733C160.229 135.85 160.245 135.974 160.236 136.097C160.226 136.354 160.118 136.597 159.934 136.777C159.751 136.956 159.505 137.058 159.248 137.061Z" fill="black"/>
<path d="M176.258 137.061H167.702C167.578 137.063 167.455 137.038 167.341 136.989C167.227 136.94 167.125 136.868 167.04 136.777C166.955 136.687 166.89 136.579 166.849 136.462C166.808 136.345 166.792 136.221 166.801 136.097C166.811 135.841 166.919 135.598 167.103 135.418C167.286 135.239 167.532 135.137 167.789 135.133H176.34C176.464 135.133 176.587 135.157 176.701 135.206C176.815 135.255 176.918 135.327 177.003 135.417C177.088 135.508 177.154 135.615 177.196 135.732C177.237 135.849 177.254 135.974 177.246 136.097C177.236 136.354 177.128 136.597 176.944 136.777C176.76 136.956 176.515 137.058 176.258 137.061Z" fill="black"/>
</g>
<path d="M91.686 155.267H80.5422C80.2978 155.268 80.0557 155.219 79.8308 155.123C79.6059 155.027 79.4029 154.887 79.2342 154.71C79.0655 154.533 78.9346 154.324 78.8496 154.094C78.7645 153.865 78.727 153.621 78.7395 153.377L79.2215 142.233C79.2507 141.727 79.4709 141.25 79.8376 140.9C80.2043 140.549 80.6904 140.35 81.1977 140.344H92.3415C92.5859 140.343 92.828 140.392 93.0529 140.488C93.2778 140.583 93.4808 140.724 93.6495 140.901C93.8182 141.078 93.9491 141.287 94.0341 141.516C94.1192 141.745 94.1567 141.989 94.1442 142.233L93.6622 153.377C93.6319 153.883 93.4114 154.359 93.0449 154.71C92.6784 155.06 92.193 155.259 91.686 155.267Z" fill="#F15F42"/>
<path d="M108.696 155.267H97.552C97.3074 155.268 97.065 155.22 96.8398 155.124C96.6146 155.029 96.4113 154.888 96.2424 154.711C96.0736 154.534 95.9427 154.325 95.8579 154.095C95.7731 153.866 95.7361 153.621 95.7493 153.377L96.2313 142.233C96.2605 141.727 96.4807 141.25 96.8474 140.9C97.2142 140.549 97.7002 140.35 98.2075 140.344H109.366C109.61 140.343 109.853 140.392 110.078 140.488C110.303 140.583 110.506 140.724 110.675 140.9C110.844 141.077 110.976 141.287 111.061 141.516C111.147 141.745 111.185 141.989 111.173 142.233L110.667 153.377C110.639 153.883 110.42 154.36 110.054 154.711C109.688 155.061 109.203 155.26 108.696 155.267Z" fill="#F15F42"/>
<path d="M125.701 155.267H114.562C114.317 155.268 114.075 155.219 113.85 155.123C113.625 155.027 113.421 154.887 113.252 154.71C113.083 154.533 112.952 154.324 112.866 154.095C112.781 153.866 112.742 153.622 112.754 153.377L113.236 142.233C113.265 141.727 113.486 141.25 113.852 140.9C114.219 140.549 114.705 140.35 115.212 140.344H126.351C126.596 140.342 126.838 140.391 127.064 140.486C127.289 140.582 127.492 140.722 127.661 140.899C127.83 141.076 127.961 141.286 128.046 141.515C128.13 141.745 128.167 141.989 128.154 142.233L127.672 153.377C127.643 153.883 127.423 154.359 127.058 154.709C126.692 155.06 126.207 155.259 125.701 155.267Z" fill="#F15F42"/>
<path d="M142.711 155.267H131.586C131.341 155.268 131.099 155.22 130.873 155.124C130.648 155.029 130.444 154.889 130.275 154.712C130.106 154.535 129.974 154.325 129.889 154.096C129.804 153.866 129.766 153.622 129.778 153.377L130.26 142.233C130.289 141.727 130.508 141.251 130.874 140.9C131.24 140.549 131.725 140.35 132.232 140.344H143.376C143.62 140.343 143.862 140.392 144.087 140.488C144.312 140.583 144.515 140.724 144.684 140.901C144.852 141.078 144.983 141.287 145.068 141.516C145.153 141.745 145.191 141.989 145.178 142.233L144.696 153.377C144.667 153.885 144.445 154.363 144.077 154.714C143.708 155.065 143.22 155.263 142.711 155.267Z" fill="#F15F42"/>
<path d="M159.72 155.267H148.576C148.332 155.268 148.09 155.219 147.865 155.123C147.64 155.027 147.437 154.887 147.269 154.71C147.1 154.533 146.969 154.324 146.884 154.094C146.799 153.865 146.761 153.621 146.774 153.377L147.256 142.233C147.285 141.727 147.505 141.25 147.872 140.9C148.239 140.549 148.725 140.35 149.232 140.344H160.371C160.616 140.342 160.858 140.391 161.084 140.486C161.309 140.582 161.513 140.722 161.682 140.899C161.851 141.076 161.983 141.285 162.068 141.515C162.153 141.744 162.191 141.989 162.179 142.233L161.697 153.377C161.666 153.883 161.446 154.359 161.079 154.71C160.713 155.06 160.227 155.259 159.72 155.267Z" fill="#F15F42"/>
<path d="M176.725 155.267H165.586C165.342 155.268 165.099 155.22 164.874 155.124C164.649 155.029 164.446 154.888 164.277 154.711C164.108 154.534 163.977 154.325 163.892 154.095C163.807 153.866 163.77 153.621 163.784 153.377L164.266 142.233C164.295 141.727 164.515 141.25 164.882 140.9C165.248 140.549 165.734 140.35 166.242 140.344H177.381C177.625 140.343 177.868 140.392 178.093 140.488C178.318 140.583 178.521 140.724 178.69 140.9C178.859 141.077 178.991 141.287 179.076 141.516C179.162 141.745 179.2 141.989 179.188 142.233L178.682 153.377C178.654 153.881 178.437 154.355 178.074 154.706C177.711 155.056 177.23 155.256 176.725 155.267Z" fill="#F15F42"/>
<g opacity="0.8">
<path d="M91.686 155.267H80.5422C80.2978 155.268 80.0557 155.219 79.8308 155.123C79.6059 155.027 79.4029 154.887 79.2342 154.71C79.0655 154.533 78.9346 154.324 78.8496 154.095C78.7645 153.865 78.727 153.621 78.7395 153.377L79.2215 142.233C79.2507 141.727 79.4709 141.25 79.8376 140.9C80.2043 140.549 80.6904 140.35 81.1977 140.344H92.3415C92.5859 140.343 92.828 140.392 93.0529 140.488C93.2778 140.583 93.4808 140.724 93.6495 140.901C93.8182 141.078 93.9491 141.287 94.0341 141.516C94.1192 141.745 94.1567 141.989 94.1442 142.233L93.6622 153.377C93.6319 153.883 93.4114 154.359 93.0449 154.71C92.6784 155.06 92.193 155.259 91.686 155.267Z" fill="#FAFAFA"/>
<path d="M108.696 155.267H97.552C97.3074 155.268 97.065 155.22 96.8398 155.124C96.6146 155.029 96.4113 154.888 96.2424 154.711C96.0736 154.534 95.9427 154.325 95.8579 154.095C95.7731 153.866 95.7361 153.621 95.7493 153.377L96.2313 142.233C96.2605 141.727 96.4807 141.25 96.8474 140.9C97.2142 140.549 97.7002 140.35 98.2075 140.344H109.366C109.61 140.343 109.853 140.392 110.078 140.488C110.303 140.583 110.506 140.724 110.675 140.9C110.844 141.077 110.976 141.287 111.061 141.516C111.147 141.745 111.185 141.989 111.173 142.233L110.667 153.377C110.639 153.883 110.42 154.36 110.054 154.711C109.688 155.061 109.203 155.26 108.696 155.267Z" fill="#FAFAFA"/>
<path d="M125.701 155.267H114.562C114.317 155.268 114.075 155.219 113.85 155.123C113.625 155.027 113.421 154.887 113.252 154.71C113.083 154.533 112.952 154.324 112.866 154.095C112.781 153.866 112.742 153.622 112.754 153.377L113.236 142.233C113.265 141.727 113.486 141.25 113.852 140.9C114.219 140.549 114.705 140.35 115.212 140.344H126.351C126.596 140.342 126.838 140.391 127.064 140.486C127.289 140.582 127.492 140.722 127.661 140.899C127.83 141.076 127.961 141.286 128.046 141.515C128.13 141.745 128.167 141.989 128.154 142.233L127.672 153.377C127.643 153.883 127.423 154.359 127.058 154.709C126.692 155.06 126.207 155.259 125.701 155.267Z" fill="#FAFAFA"/>
<path d="M142.711 155.267H131.586C131.341 155.268 131.099 155.22 130.873 155.124C130.648 155.029 130.444 154.889 130.275 154.712C130.106 154.535 129.974 154.325 129.889 154.096C129.804 153.866 129.766 153.622 129.778 153.377L130.26 142.233C130.289 141.727 130.508 141.251 130.874 140.9C131.24 140.549 131.725 140.35 132.232 140.344H143.376C143.62 140.343 143.862 140.392 144.087 140.488C144.312 140.583 144.515 140.724 144.684 140.901C144.852 141.078 144.983 141.287 145.068 141.516C145.153 141.745 145.191 141.989 145.178 142.233L144.696 153.377C144.667 153.885 144.445 154.363 144.077 154.714C143.708 155.065 143.22 155.263 142.711 155.267Z" fill="#FAFAFA"/>
<path d="M159.72 155.267H148.576C148.332 155.268 148.09 155.219 147.865 155.123C147.64 155.027 147.437 154.887 147.269 154.71C147.1 154.533 146.969 154.324 146.884 154.095C146.799 153.865 146.761 153.621 146.774 153.377L147.256 142.233C147.285 141.727 147.505 141.25 147.872 140.9C148.239 140.549 148.725 140.35 149.232 140.344H160.371C160.616 140.342 160.858 140.391 161.084 140.486C161.309 140.582 161.513 140.722 161.682 140.899C161.851 141.076 161.983 141.285 162.068 141.515C162.153 141.744 162.191 141.989 162.179 142.233L161.697 153.377C161.666 153.883 161.446 154.359 161.079 154.71C160.713 155.06 160.227 155.259 159.72 155.267Z" fill="#FAFAFA"/>
<path d="M176.725 155.267H165.586C165.342 155.268 165.099 155.22 164.874 155.124C164.649 155.029 164.446 154.888 164.277 154.711C164.108 154.534 163.977 154.325 163.892 154.095C163.807 153.866 163.77 153.621 163.784 153.377L164.266 142.233C164.295 141.727 164.515 141.25 164.882 140.9C165.248 140.549 165.734 140.35 166.242 140.344H177.381C177.625 140.343 177.868 140.392 178.093 140.488C178.318 140.583 178.521 140.724 178.69 140.9C178.859 141.077 178.991 141.287 179.076 141.516C179.162 141.745 179.2 141.989 179.188 142.233L178.682 153.377C178.654 153.881 178.437 154.355 178.074 154.706C177.711 155.056 177.23 155.256 176.725 155.267Z" fill="#FAFAFA"/>
</g>
<path d="M90.9052 172.556H79.7613C79.5169 172.557 79.2749 172.508 79.05 172.412C78.8251 172.317 78.6221 172.176 78.4534 171.999C78.2847 171.822 78.1538 171.613 78.0687 171.384C77.9837 171.155 77.9462 170.911 77.9587 170.667L78.4407 159.523C78.471 159.017 78.6915 158.541 79.058 158.19C79.4245 157.84 79.9099 157.641 80.4169 157.633H91.58C91.8244 157.632 92.0664 157.681 92.2913 157.777C92.5162 157.873 92.7192 158.013 92.8879 158.19C93.0567 158.367 93.1875 158.576 93.2726 158.805C93.3577 159.035 93.3951 159.279 93.3827 159.523L92.9007 170.667C92.8701 171.176 92.6468 171.655 92.2763 172.006C91.9057 172.356 91.4155 172.553 90.9052 172.556Z" fill="#F15F42"/>
<path d="M107.915 172.556H96.7711C96.5267 172.557 96.2847 172.508 96.0598 172.412C95.8349 172.317 95.6319 172.176 95.4632 171.999C95.2945 171.822 95.1636 171.613 95.0785 171.384C94.9935 171.155 94.956 170.911 94.9685 170.667L95.4505 159.523C95.4797 159.016 95.6999 158.54 96.0666 158.189C96.4333 157.838 96.9193 157.64 97.4267 157.633H108.566C108.812 157.631 109.057 157.68 109.284 157.777C109.511 157.874 109.716 158.016 109.886 158.195C110.056 158.374 110.187 158.585 110.272 158.817C110.356 159.049 110.393 159.296 110.378 159.542L109.896 170.667C109.868 171.174 109.647 171.652 109.279 172.003C108.911 172.354 108.423 172.552 107.915 172.556Z" fill="#F15F42"/>
<path d="M124.92 172.556H113.781C113.536 172.558 113.294 172.509 113.069 172.414C112.843 172.318 112.64 172.178 112.471 172.001C112.302 171.824 112.172 171.614 112.087 171.385C112.002 171.155 111.965 170.911 111.978 170.667L112.46 159.523C112.489 159.016 112.71 158.54 113.076 158.189C113.443 157.838 113.929 157.64 114.436 157.633H125.575C125.82 157.632 126.062 157.68 126.288 157.775C126.513 157.871 126.716 158.012 126.885 158.188C127.054 158.365 127.185 158.575 127.269 158.805C127.354 159.034 127.391 159.278 127.378 159.523L126.896 170.667C126.867 171.173 126.647 171.65 126.28 172C125.913 172.351 125.427 172.549 124.92 172.556Z" fill="#F15F42"/>
<path d="M141.93 172.556H130.791C130.546 172.557 130.304 172.508 130.079 172.412C129.854 172.317 129.65 172.176 129.481 171.999C129.312 171.823 129.181 171.613 129.095 171.384C129.009 171.155 128.971 170.911 128.983 170.667L129.465 159.523C129.493 159.017 129.712 158.54 130.078 158.189C130.444 157.839 130.93 157.64 131.437 157.633H142.58C142.829 157.629 143.075 157.676 143.304 157.771C143.533 157.867 143.74 158.008 143.912 158.188C144.083 158.367 144.216 158.58 144.301 158.813C144.386 159.046 144.423 159.294 144.407 159.542L143.925 170.686C143.891 171.192 143.666 171.667 143.296 172.014C142.925 172.361 142.437 172.555 141.93 172.556Z" fill="#F15F42"/>
<path d="M158.94 172.556H147.796C147.551 172.557 147.309 172.508 147.084 172.412C146.859 172.317 146.656 172.176 146.488 171.999C146.319 171.822 146.188 171.613 146.103 171.384C146.018 171.155 145.981 170.911 145.993 170.667L146.475 159.523C146.501 159.012 146.72 158.531 147.088 158.176C147.456 157.822 147.945 157.621 148.456 157.614H159.6C159.844 157.613 160.086 157.662 160.311 157.758C160.536 157.853 160.739 157.994 160.908 158.171C161.077 158.348 161.207 158.557 161.292 158.786C161.378 159.015 161.415 159.259 161.403 159.503L160.921 170.647C160.895 171.158 160.676 171.639 160.308 171.994C159.94 172.348 159.45 172.549 158.94 172.556Z" fill="#F15F42"/>
<path d="M175.93 172.556H164.805C164.561 172.558 164.318 172.509 164.093 172.414C163.868 172.318 163.665 172.178 163.496 172.001C163.327 171.824 163.196 171.614 163.111 171.385C163.027 171.155 162.99 170.911 163.003 170.667L163.485 159.523C163.514 159.016 163.734 158.54 164.101 158.189C164.468 157.838 164.954 157.64 165.461 157.633H176.6C176.845 157.632 177.087 157.681 177.312 157.777C177.537 157.873 177.74 158.013 177.91 158.19C178.079 158.367 178.21 158.576 178.296 158.805C178.381 159.034 178.419 159.278 178.407 159.523L177.901 170.667C177.873 171.173 177.654 171.649 177.288 172C176.922 172.351 176.437 172.549 175.93 172.556Z" fill="#F15F42"/>
<g opacity="0.8">
<path d="M90.9052 172.556H79.7613C79.5169 172.557 79.2749 172.508 79.05 172.412C78.8251 172.317 78.6221 172.176 78.4534 171.999C78.2846 171.822 78.1538 171.613 78.0687 171.384C77.9836 171.155 77.9462 170.911 77.9586 170.667L78.4406 159.523C78.471 159.017 78.6915 158.541 79.058 158.19C79.4245 157.84 79.9098 157.641 80.4168 157.633H91.58C91.8244 157.632 92.0664 157.681 92.2913 157.777C92.5162 157.873 92.7192 158.013 92.8879 158.19C93.0566 158.367 93.1875 158.576 93.2726 158.805C93.3576 159.035 93.3951 159.279 93.3826 159.523L92.9006 170.667C92.87 171.176 92.6468 171.655 92.2762 172.006C91.9057 172.356 91.4155 172.553 90.9052 172.556Z" fill="#FAFAFA"/>
<path d="M107.915 172.556H96.7711C96.5267 172.557 96.2847 172.508 96.0598 172.412C95.8349 172.317 95.6319 172.176 95.4632 171.999C95.2945 171.822 95.1636 171.613 95.0785 171.384C94.9935 171.155 94.956 170.911 94.9685 170.666L95.4505 159.523C95.4797 159.016 95.6999 158.54 96.0666 158.189C96.4333 157.838 96.9193 157.64 97.4267 157.633H108.566C108.812 157.631 109.057 157.68 109.284 157.777C109.511 157.874 109.716 158.016 109.886 158.195C110.056 158.374 110.187 158.585 110.272 158.817C110.356 159.049 110.393 159.296 110.378 159.542L109.896 170.666C109.868 171.174 109.647 171.652 109.279 172.003C108.911 172.354 108.423 172.552 107.915 172.556Z" fill="#FAFAFA"/>
<path d="M124.92 172.556H113.781C113.536 172.558 113.294 172.509 113.069 172.414C112.843 172.318 112.64 172.178 112.471 172.001C112.302 171.824 112.172 171.614 112.087 171.385C112.002 171.155 111.965 170.911 111.978 170.666L112.46 159.523C112.489 159.016 112.71 158.54 113.076 158.189C113.443 157.838 113.929 157.64 114.436 157.633H125.575C125.82 157.632 126.062 157.68 126.288 157.775C126.513 157.871 126.716 158.011 126.885 158.188C127.054 158.365 127.185 158.575 127.269 158.805C127.354 159.034 127.391 159.278 127.378 159.523L126.896 170.666C126.867 171.173 126.647 171.65 126.28 172C125.913 172.351 125.427 172.549 124.92 172.556Z" fill="#FAFAFA"/>
<path d="M141.93 172.556H130.791C130.546 172.557 130.304 172.508 130.079 172.412C129.854 172.317 129.65 172.176 129.481 171.999C129.312 171.823 129.181 171.613 129.095 171.384C129.009 171.155 128.971 170.911 128.983 170.667L129.465 159.523C129.493 159.017 129.712 158.54 130.078 158.189C130.444 157.839 130.93 157.64 131.437 157.633H142.58C142.829 157.629 143.075 157.676 143.304 157.771C143.533 157.867 143.74 158.008 143.912 158.188C144.083 158.367 144.216 158.58 144.301 158.813C144.386 159.046 144.423 159.294 144.407 159.542L143.925 170.686C143.891 171.192 143.666 171.667 143.296 172.014C142.925 172.361 142.437 172.555 141.93 172.556Z" fill="#FAFAFA"/>
<path d="M158.94 172.556H147.796C147.551 172.557 147.309 172.508 147.084 172.412C146.859 172.317 146.656 172.176 146.488 171.999C146.319 171.822 146.188 171.613 146.103 171.384C146.018 171.155 145.981 170.911 145.993 170.667L146.475 159.523C146.501 159.012 146.72 158.531 147.088 158.176C147.456 157.822 147.945 157.621 148.456 157.614H159.6C159.844 157.613 160.086 157.662 160.311 157.758C160.536 157.853 160.739 157.994 160.908 158.171C161.077 158.348 161.207 158.557 161.292 158.786C161.378 159.015 161.415 159.259 161.403 159.503L160.921 170.647C160.895 171.158 160.676 171.639 160.308 171.994C159.94 172.348 159.45 172.549 158.94 172.556Z" fill="#FAFAFA"/>
<path d="M175.93 172.556H164.805C164.561 172.558 164.318 172.509 164.093 172.414C163.868 172.318 163.665 172.178 163.496 172.001C163.327 171.824 163.196 171.614 163.111 171.385C163.027 171.155 162.99 170.911 163.003 170.667L163.485 159.523C163.514 159.016 163.734 158.54 164.101 158.189C164.468 157.838 164.954 157.64 165.461 157.633H176.6C176.845 157.632 177.087 157.681 177.312 157.777C177.537 157.873 177.74 158.013 177.91 158.19C178.079 158.367 178.21 158.576 178.296 158.805C178.381 159.034 178.419 159.278 178.407 159.523L177.901 170.667C177.873 171.173 177.654 171.649 177.288 172C176.922 172.351 176.437 172.549 175.93 172.556Z" fill="#FAFAFA"/>
</g>
<path d="M90.134 189.84H78.9805C78.7359 189.842 78.4935 189.794 78.2683 189.698C78.0431 189.603 77.8398 189.462 77.6709 189.285C77.5021 189.108 77.3712 188.899 77.2864 188.669C77.2016 188.44 77.1646 188.195 77.1778 187.951L77.6598 176.812C77.689 176.305 77.9092 175.829 78.2759 175.478C78.6427 175.128 79.1287 174.929 79.636 174.923H90.7798C91.0244 174.921 91.2668 174.969 91.492 175.065C91.7172 175.16 91.9205 175.301 92.0894 175.478C92.2582 175.655 92.3891 175.864 92.4739 176.094C92.5587 176.323 92.5957 176.568 92.5825 176.812L92.1005 187.951C92.0725 188.456 91.8541 188.932 91.4891 189.283C91.1242 189.633 90.64 189.833 90.134 189.84Z" fill="#F15F42"/>
<path d="M107.134 189.84H95.9903C95.7457 189.842 95.5033 189.794 95.2781 189.698C95.0529 189.603 94.8496 189.462 94.6807 189.285C94.5119 189.108 94.381 188.899 94.2962 188.669C94.2114 188.44 94.1744 188.195 94.1876 187.951L94.6696 176.812C94.6977 176.305 94.9175 175.828 95.2845 175.477C95.6515 175.126 96.1381 174.928 96.6458 174.923H107.785C108.03 174.92 108.273 174.968 108.498 175.063C108.724 175.159 108.928 175.299 109.098 175.476C109.267 175.653 109.398 175.863 109.483 176.093C109.568 176.323 109.605 176.567 109.592 176.812L109.11 187.951C109.083 188.458 108.864 188.936 108.497 189.287C108.129 189.639 107.642 189.836 107.134 189.84Z" fill="#F15F42"/>
<path d="M124.139 189.84H113C112.755 189.842 112.513 189.794 112.288 189.698C112.063 189.603 111.859 189.462 111.691 189.285C111.522 189.108 111.391 188.899 111.306 188.669C111.221 188.44 111.184 188.195 111.197 187.951L111.679 176.812C111.707 176.305 111.927 175.828 112.294 175.477C112.661 175.126 113.148 174.928 113.656 174.923H124.838C125.083 174.921 125.325 174.969 125.551 175.065C125.776 175.16 125.98 175.301 126.149 175.478C126.318 175.655 126.45 175.864 126.535 176.094C126.62 176.323 126.658 176.568 126.645 176.812L126.139 187.951C126.111 188.462 125.888 188.943 125.516 189.294C125.144 189.646 124.651 189.841 124.139 189.84Z" fill="#F15F42"/>
<path d="M141.149 189.84H130.01C129.765 189.842 129.522 189.794 129.297 189.698C129.072 189.603 128.868 189.462 128.699 189.285C128.529 189.109 128.398 188.899 128.313 188.669C128.227 188.44 128.19 188.196 128.202 187.951L128.684 176.812C128.711 176.306 128.93 175.828 129.296 175.477C129.662 175.126 130.149 174.928 130.656 174.923H141.8C142.044 174.921 142.287 174.969 142.512 175.065C142.737 175.16 142.94 175.301 143.109 175.478C143.278 175.655 143.409 175.864 143.494 176.094C143.578 176.323 143.615 176.568 143.602 176.812L143.12 187.951C143.092 188.457 142.873 188.934 142.507 189.284C142.141 189.635 141.656 189.834 141.149 189.84Z" fill="#F15F42"/>
<path d="M158.159 189.84H147.01C146.765 189.842 146.523 189.794 146.298 189.698C146.073 189.603 145.869 189.462 145.7 189.285C145.532 189.108 145.401 188.899 145.316 188.669C145.231 188.44 145.194 188.195 145.207 187.951L145.689 176.812C145.719 176.305 145.939 175.829 146.305 175.478C146.672 175.128 147.158 174.929 147.666 174.923H158.809C159.054 174.921 159.296 174.969 159.522 175.065C159.747 175.16 159.95 175.301 160.119 175.478C160.288 175.655 160.419 175.864 160.503 176.094C160.588 176.323 160.625 176.568 160.612 176.812L160.13 187.951C160.101 188.457 159.881 188.933 159.516 189.283C159.15 189.634 158.665 189.833 158.159 189.84Z" fill="#F15F42"/>
<path d="M175.168 189.84H164.025C163.78 189.842 163.538 189.794 163.312 189.698C163.087 189.603 162.884 189.462 162.715 189.285C162.546 189.108 162.415 188.899 162.331 188.669C162.246 188.44 162.209 188.195 162.222 187.951L162.704 176.812C162.732 176.305 162.952 175.828 163.319 175.477C163.686 175.126 164.172 174.928 164.68 174.923H175.819C176.064 174.921 176.307 174.969 176.532 175.065C176.757 175.16 176.961 175.301 177.13 175.478C177.299 175.655 177.431 175.864 177.516 176.094C177.602 176.323 177.639 176.568 177.627 176.812L177.121 187.951C177.094 188.454 176.878 188.929 176.516 189.279C176.154 189.63 175.672 189.83 175.168 189.84Z" fill="#F15F42"/>
<g opacity="0.8">
<path d="M90.134 189.841H78.9805C78.7359 189.842 78.4935 189.794 78.2683 189.698C78.0431 189.603 77.8398 189.462 77.6709 189.285C77.5021 189.108 77.3712 188.899 77.2864 188.669C77.2016 188.44 77.1646 188.195 77.1778 187.951L77.6598 176.812C77.689 176.306 77.9092 175.829 78.2759 175.478C78.6427 175.128 79.1287 174.929 79.636 174.923H90.7798C91.0244 174.921 91.2668 174.969 91.492 175.065C91.7172 175.16 91.9205 175.301 92.0894 175.478C92.2582 175.655 92.3891 175.865 92.4739 176.094C92.5587 176.323 92.5957 176.568 92.5825 176.812L92.1005 187.951C92.0725 188.456 91.8541 188.932 91.4891 189.283C91.1242 189.634 90.64 189.833 90.134 189.841Z" fill="#FAFAFA"/>
<path d="M107.134 189.84H95.9903C95.7457 189.842 95.5033 189.794 95.2781 189.698C95.0529 189.603 94.8496 189.462 94.6807 189.285C94.5119 189.108 94.381 188.899 94.2962 188.669C94.2114 188.44 94.1744 188.195 94.1876 187.951L94.6696 176.812C94.6977 176.305 94.9175 175.828 95.2845 175.477C95.6515 175.126 96.1381 174.928 96.6458 174.923H107.785C108.03 174.92 108.273 174.968 108.498 175.063C108.724 175.159 108.928 175.299 109.098 175.476C109.267 175.653 109.398 175.863 109.483 176.093C109.568 176.323 109.605 176.567 109.592 176.812L109.11 187.951C109.083 188.458 108.864 188.936 108.497 189.287C108.129 189.638 107.642 189.836 107.134 189.84Z" fill="#FAFAFA"/>
<path d="M124.139 189.84H113C112.755 189.842 112.513 189.794 112.288 189.698C112.063 189.603 111.859 189.462 111.691 189.285C111.522 189.108 111.391 188.899 111.306 188.669C111.221 188.44 111.184 188.195 111.197 187.951L111.679 176.812C111.707 176.305 111.927 175.828 112.294 175.477C112.661 175.126 113.148 174.928 113.656 174.923H124.838C125.083 174.921 125.325 174.969 125.551 175.065C125.776 175.16 125.98 175.301 126.149 175.478C126.318 175.654 126.45 175.864 126.535 176.094C126.62 176.323 126.658 176.567 126.645 176.812L126.139 187.951C126.111 188.462 125.888 188.943 125.516 189.294C125.144 189.646 124.651 189.841 124.139 189.84Z" fill="#FAFAFA"/>
<path d="M141.149 189.84H130.01C129.765 189.842 129.522 189.794 129.297 189.698C129.072 189.603 128.868 189.462 128.699 189.285C128.529 189.109 128.398 188.899 128.313 188.669C128.227 188.44 128.19 188.196 128.202 187.951L128.684 176.812C128.711 176.305 128.93 175.828 129.296 175.477C129.662 175.126 130.149 174.928 130.656 174.923H141.8C142.044 174.921 142.287 174.969 142.512 175.065C142.737 175.16 142.94 175.301 143.109 175.478C143.278 175.655 143.409 175.864 143.494 176.094C143.578 176.323 143.615 176.568 143.602 176.812L143.12 187.951C143.092 188.457 142.873 188.934 142.507 189.284C142.141 189.635 141.656 189.834 141.149 189.84Z" fill="#FAFAFA"/>
<path d="M158.159 189.84H147.01C146.765 189.842 146.523 189.794 146.298 189.698C146.073 189.603 145.869 189.462 145.7 189.285C145.532 189.108 145.401 188.899 145.316 188.669C145.231 188.44 145.194 188.195 145.207 187.951L145.689 176.812C145.719 176.305 145.939 175.829 146.305 175.478C146.672 175.128 147.158 174.929 147.665 174.923H158.809C159.054 174.921 159.296 174.969 159.522 175.065C159.747 175.16 159.95 175.301 160.119 175.478C160.288 175.655 160.419 175.864 160.503 176.094C160.588 176.323 160.625 176.568 160.612 176.812L160.13 187.951C160.101 188.457 159.881 188.933 159.516 189.283C159.15 189.634 158.665 189.833 158.159 189.84Z" fill="#FAFAFA"/>
<path d="M175.168 189.84H164.025C163.78 189.842 163.538 189.794 163.312 189.698C163.087 189.603 162.884 189.462 162.715 189.285C162.546 189.108 162.415 188.899 162.331 188.669C162.246 188.44 162.209 188.195 162.222 187.951L162.704 176.812C162.732 176.305 162.952 175.828 163.319 175.477C163.686 175.126 164.172 174.928 164.68 174.923H175.819C176.064 174.921 176.307 174.969 176.532 175.065C176.757 175.16 176.961 175.301 177.13 175.478C177.299 175.654 177.431 175.864 177.516 176.094C177.601 176.323 177.639 176.567 177.627 176.812L177.121 187.951C177.094 188.454 176.878 188.929 176.516 189.279C176.154 189.63 175.672 189.83 175.168 189.84Z" fill="#FAFAFA"/>
</g>
<path d="M86.9769 131.316C82.8702 131.316 79.6505 126.539 79.6505 120.442C79.6505 114.345 82.8702 109.573 86.9769 109.573C91.0835 109.573 94.3081 114.35 94.3081 120.442C94.2894 120.728 94.1627 120.996 93.9537 121.192C93.7447 121.387 93.469 121.496 93.1826 121.496C92.8963 121.496 92.6206 121.387 92.4116 121.192C92.2026 120.996 92.0759 120.728 92.0572 120.442C92.0572 115.772 89.7339 111.819 86.9769 111.819C84.2198 111.819 81.8966 115.772 81.8966 120.442C81.8966 125.113 84.2247 129.065 86.9769 129.065C87.1309 129.055 87.2853 129.077 87.4306 129.129C87.5759 129.181 87.709 129.262 87.8216 129.367C87.9342 129.473 88.024 129.6 88.0854 129.742C88.1468 129.884 88.1785 130.036 88.1785 130.191C88.1785 130.345 88.1468 130.498 88.0854 130.639C88.024 130.781 87.9342 130.908 87.8216 131.014C87.709 131.119 87.5759 131.201 87.4306 131.253C87.2853 131.305 87.1309 131.326 86.9769 131.316Z" fill="#F15F42"/>
<path d="M103.987 131.316C99.88 131.316 96.6602 126.539 96.6602 120.442C96.6602 114.345 99.88 109.573 103.987 109.573C108.093 109.573 111.342 114.35 111.342 120.442C111.323 120.728 111.197 120.996 110.988 121.192C110.779 121.387 110.503 121.496 110.216 121.496C109.93 121.496 109.654 121.387 109.445 121.192C109.236 120.996 109.11 120.728 109.091 120.442C109.091 115.772 106.768 111.819 104.011 111.819C101.254 111.819 98.9305 115.772 98.9305 120.442C98.9305 125.113 101.259 129.065 104.011 129.065C104.297 129.084 104.564 129.211 104.76 129.42C104.956 129.629 105.065 129.904 105.065 130.191C105.065 130.477 104.956 130.753 104.76 130.962C104.564 131.171 104.297 131.297 104.011 131.316H103.987Z" fill="#F15F42"/>
<path d="M120.982 131.316C116.871 131.316 113.651 126.539 113.651 120.442C113.651 114.345 116.871 109.573 120.982 109.573C125.093 109.573 128.308 114.35 128.308 120.442C128.308 120.74 128.19 121.026 127.979 121.236C127.769 121.447 127.483 121.565 127.185 121.565C126.887 121.565 126.602 121.447 126.391 121.236C126.181 121.026 126.062 120.74 126.062 120.442C126.062 115.772 123.734 111.819 120.982 111.819C118.23 111.819 115.902 115.772 115.902 120.442C115.902 125.113 118.23 129.065 120.982 129.065C121.268 129.084 121.536 129.211 121.731 129.42C121.927 129.629 122.036 129.904 122.036 130.191C122.036 130.477 121.927 130.753 121.731 130.962C121.536 131.171 121.268 131.297 120.982 131.316Z" fill="#F15F42"/>
<path d="M138.006 131.316C133.895 131.316 130.675 126.539 130.675 120.442C130.675 114.345 133.895 109.573 138.006 109.573C142.118 109.573 145.333 114.35 145.333 120.442C145.333 120.74 145.214 121.026 145.004 121.236C144.793 121.447 144.507 121.565 144.21 121.565C143.912 121.565 143.626 121.447 143.415 121.236C143.205 121.026 143.086 120.74 143.086 120.442C143.086 115.772 140.758 111.819 138.006 111.819C135.254 111.819 132.926 115.772 132.926 120.442C132.926 125.113 135.249 129.065 138.006 129.065C138.292 129.084 138.56 129.211 138.756 129.42C138.951 129.629 139.06 129.904 139.06 130.191C139.06 130.477 138.951 130.753 138.756 130.962C138.56 131.171 138.292 131.297 138.006 131.316Z" fill="#F15F42"/>
<path d="M155.011 131.316C150.905 131.316 147.685 126.539 147.685 120.442C147.685 114.345 150.905 109.573 155.011 109.573C159.118 109.573 162.342 114.35 162.342 120.442C162.324 120.728 162.197 120.996 161.988 121.192C161.779 121.387 161.503 121.496 161.217 121.496C160.931 121.496 160.655 121.387 160.446 121.192C160.237 120.996 160.11 120.728 160.091 120.442C160.091 115.772 157.768 111.819 155.011 111.819C152.254 111.819 149.931 115.772 149.931 120.442C149.931 125.113 152.259 129.065 155.011 129.065C155.165 129.055 155.32 129.077 155.465 129.129C155.61 129.181 155.743 129.262 155.856 129.367C155.969 129.473 156.058 129.6 156.12 129.742C156.181 129.884 156.213 130.036 156.213 130.191C156.213 130.345 156.181 130.498 156.12 130.639C156.058 130.781 155.969 130.908 155.856 131.014C155.743 131.119 155.61 131.201 155.465 131.253C155.32 131.305 155.165 131.326 155.011 131.316Z" fill="#F15F42"/>
<path d="M172.021 131.316C167.914 131.316 164.695 126.539 164.695 120.442C164.695 114.345 167.914 109.573 172.021 109.573C176.128 109.573 179.352 114.35 179.352 120.442C179.333 120.728 179.207 120.996 178.998 121.192C178.789 121.387 178.513 121.496 178.227 121.496C177.94 121.496 177.665 121.387 177.456 121.192C177.247 120.996 177.12 120.728 177.101 120.442C177.101 115.772 174.773 111.819 172.021 111.819C169.269 111.819 166.941 115.772 166.941 120.442C166.941 125.113 169.269 129.065 172.021 129.065C172.307 129.084 172.575 129.211 172.77 129.42C172.966 129.629 173.075 129.904 173.075 130.191C173.075 130.477 172.966 130.753 172.77 130.962C172.575 131.171 172.307 131.297 172.021 131.316Z" fill="#F15F42"/>
<g opacity="0.3">
<path d="M86.9769 131.316C82.8702 131.316 79.6505 126.539 79.6505 120.442C79.6505 114.345 82.8702 109.573 86.9769 109.573C91.0835 109.573 94.3081 114.35 94.3081 120.442C94.2894 120.728 94.1627 120.996 93.9537 121.192C93.7447 121.387 93.469 121.496 93.1826 121.496C92.8963 121.496 92.6206 121.387 92.4116 121.192C92.2026 120.996 92.0759 120.728 92.0572 120.442C92.0572 115.772 89.7339 111.819 86.9769 111.819C84.2198 111.819 81.8966 115.772 81.8966 120.442C81.8966 125.113 84.2247 129.065 86.9769 129.065C87.1309 129.055 87.2853 129.077 87.4306 129.129C87.5759 129.181 87.709 129.262 87.8216 129.367C87.9342 129.473 88.024 129.6 88.0854 129.742C88.1468 129.884 88.1785 130.036 88.1785 130.191C88.1785 130.345 88.1468 130.498 88.0854 130.639C88.024 130.781 87.9342 130.908 87.8216 131.014C87.709 131.119 87.5759 131.201 87.4306 131.253C87.2853 131.305 87.1309 131.326 86.9769 131.316Z" fill="black"/>
<path d="M103.987 131.316C99.88 131.316 96.6602 126.539 96.6602 120.442C96.6602 114.345 99.88 109.573 103.987 109.573C108.093 109.573 111.342 114.35 111.342 120.442C111.323 120.728 111.197 120.996 110.988 121.192C110.779 121.387 110.503 121.496 110.216 121.496C109.93 121.496 109.654 121.387 109.445 121.192C109.236 120.996 109.11 120.728 109.091 120.442C109.091 115.772 106.768 111.819 104.011 111.819C101.254 111.819 98.9305 115.772 98.9305 120.442C98.9305 125.113 101.259 129.065 104.011 129.065C104.297 129.084 104.564 129.211 104.76 129.42C104.956 129.629 105.065 129.904 105.065 130.191C105.065 130.477 104.956 130.753 104.76 130.962C104.564 131.171 104.297 131.297 104.011 131.316H103.987Z" fill="black"/>
<path d="M120.982 131.316C116.871 131.316 113.651 126.539 113.651 120.442C113.651 114.345 116.871 109.573 120.982 109.573C125.093 109.573 128.308 114.35 128.308 120.442C128.308 120.74 128.19 121.026 127.979 121.236C127.769 121.447 127.483 121.565 127.185 121.565C126.887 121.565 126.602 121.447 126.391 121.236C126.181 121.026 126.062 120.74 126.062 120.442C126.062 115.772 123.734 111.819 120.982 111.819C118.23 111.819 115.902 115.772 115.902 120.442C115.902 125.113 118.23 129.065 120.982 129.065C121.268 129.084 121.536 129.211 121.731 129.42C121.927 129.629 122.036 129.904 122.036 130.191C122.036 130.477 121.927 130.753 121.731 130.962C121.536 131.171 121.268 131.297 120.982 131.316Z" fill="black"/>
<path d="M138.006 131.316C133.895 131.316 130.675 126.539 130.675 120.442C130.675 114.345 133.895 109.573 138.006 109.573C142.118 109.573 145.333 114.35 145.333 120.442C145.333 120.74 145.214 121.026 145.004 121.236C144.793 121.447 144.507 121.565 144.21 121.565C143.912 121.565 143.626 121.447 143.415 121.236C143.205 121.026 143.087 120.74 143.087 120.442C143.087 115.772 140.758 111.819 138.006 111.819C135.254 111.819 132.926 115.772 132.926 120.442C132.926 125.113 135.249 129.065 138.006 129.065C138.292 129.084 138.56 129.211 138.756 129.42C138.951 129.629 139.06 129.904 139.06 130.191C139.06 130.477 138.951 130.753 138.756 130.962C138.56 131.171 138.292 131.297 138.006 131.316Z" fill="black"/>
<path d="M155.011 131.316C150.905 131.316 147.685 126.539 147.685 120.442C147.685 114.345 150.905 109.573 155.011 109.573C159.118 109.573 162.342 114.35 162.342 120.442C162.324 120.728 162.197 120.996 161.988 121.192C161.779 121.387 161.503 121.496 161.217 121.496C160.931 121.496 160.655 121.387 160.446 121.192C160.237 120.996 160.11 120.728 160.091 120.442C160.091 115.772 157.768 111.819 155.011 111.819C152.254 111.819 149.931 115.772 149.931 120.442C149.931 125.113 152.259 129.065 155.011 129.065C155.165 129.055 155.32 129.077 155.465 129.129C155.61 129.181 155.743 129.262 155.856 129.367C155.969 129.473 156.058 129.6 156.12 129.742C156.181 129.884 156.213 130.036 156.213 130.191C156.213 130.345 156.181 130.498 156.12 130.639C156.058 130.781 155.969 130.908 155.856 131.014C155.743 131.119 155.61 131.201 155.465 131.253C155.32 131.305 155.165 131.326 155.011 131.316Z" fill="black"/>
<path d="M172.021 131.316C167.914 131.316 164.695 126.539 164.695 120.442C164.695 114.345 167.914 109.573 172.021 109.573C176.128 109.573 179.352 114.35 179.352 120.442C179.333 120.728 179.207 120.996 178.998 121.192C178.789 121.387 178.513 121.496 178.227 121.496C177.94 121.496 177.665 121.387 177.456 121.192C177.247 120.996 177.12 120.728 177.101 120.442C177.101 115.772 174.773 111.819 172.021 111.819C169.269 111.819 166.941 115.772 166.941 120.442C166.941 125.113 169.269 129.065 172.021 129.065C172.307 129.084 172.575 129.211 172.77 129.42C172.966 129.629 173.075 129.904 173.075 130.191C173.075 130.477 172.966 130.753 172.77 130.962C172.575 131.171 172.307 131.297 172.021 131.316Z" fill="black"/>
</g>
<path d="M139.144 155.888C135.211 155.108 130.796 156.019 129.219 160.164C127.952 163.499 129.576 167.114 133.075 167.996C136.16 168.772 141.481 167.823 142.58 164.266C143.838 160.197 138.724 158.877 135.857 158.636C134.994 158.564 134.999 159.913 135.857 159.985C137.163 160.096 138.657 160.169 139.814 160.887C142.224 162.395 141.231 164.815 139.178 165.972C137.124 167.129 133.977 167.418 131.948 166.136C129.73 164.723 129.658 161.619 130.984 159.595C132.724 156.92 135.9 156.621 138.763 157.185C139.611 157.354 139.973 156.052 139.12 155.884L139.144 155.888Z" fill="#F15F42"/>
<path opacity="0.1" d="M139.144 155.888C135.211 155.108 130.796 156.019 129.219 160.164C127.952 163.499 129.576 167.114 133.075 167.996C136.16 168.772 141.481 167.823 142.58 164.266C143.838 160.197 138.724 158.877 135.857 158.636C134.994 158.564 134.999 159.913 135.857 159.985C137.163 160.096 138.657 160.169 139.814 160.887C142.224 162.395 141.231 164.815 139.178 165.972C137.124 167.129 133.977 167.418 131.948 166.136C129.73 164.723 129.658 161.619 130.984 159.595C132.724 156.92 135.9 156.621 138.763 157.185C139.611 157.354 139.973 156.052 139.12 155.884L139.144 155.888Z" fill="#FAFAFA"/>
<path d="M95.7493 140.363C99.5107 145.35 103.704 149.995 108.281 154.245C108.917 154.838 109.877 153.883 109.245 153.281C104.747 149.115 100.623 144.562 96.9205 139.674C96.4048 138.989 95.2335 139.674 95.7589 140.354L95.7493 140.363Z" fill="#F15F42"/>
<path d="M97.1423 153.681C99.9861 148.625 104.965 144.311 109.674 141.009C110.378 140.527 109.708 139.341 108.995 139.843C104.098 143.284 98.9498 147.728 95.9806 152.996C95.8992 153.15 95.8801 153.329 95.9273 153.496C95.9745 153.663 96.0844 153.806 96.2341 153.894C96.3838 153.982 96.5618 154.009 96.731 153.97C96.9002 153.93 97.0475 153.826 97.1423 153.681Z" fill="#F15F42"/>
<g opacity="0.2">
<path d="M95.7493 140.363C99.5107 145.35 103.704 149.995 108.281 154.245C108.917 154.838 109.877 153.883 109.245 153.281C104.747 149.115 100.623 144.562 96.9205 139.674C96.4048 138.989 95.2335 139.674 95.7589 140.354L95.7493 140.363Z" fill="black"/>
<path d="M97.1423 153.681C99.9861 148.625 104.965 144.311 109.674 141.009C110.378 140.527 109.708 139.341 108.995 139.843C104.098 143.284 98.9498 147.728 95.9806 152.996C95.8992 153.15 95.8801 153.329 95.9273 153.496C95.9745 153.663 96.0844 153.806 96.2341 153.894C96.3838 153.982 96.5618 154.009 96.731 153.97C96.9002 153.93 97.0475 153.826 97.1423 153.681Z" fill="black"/>
</g>
<path d="M149.357 144.677H158.154C158.322 144.663 158.479 144.586 158.594 144.461C158.708 144.337 158.772 144.174 158.772 144.005C158.772 143.836 158.708 143.673 158.594 143.548C158.479 143.424 158.322 143.347 158.154 143.332H149.357C149.189 143.347 149.032 143.424 148.917 143.548C148.803 143.673 148.74 143.836 148.74 144.005C148.74 144.174 148.803 144.337 148.917 144.461C149.032 144.586 149.189 144.663 149.357 144.677Z" fill="#F15F42"/>
<path d="M149.256 147.179H154.356C154.535 147.179 154.706 147.108 154.833 146.981C154.959 146.854 155.03 146.683 155.03 146.504C155.03 146.325 154.959 146.153 154.833 146.027C154.706 145.9 154.535 145.829 154.356 145.829H149.256C149.077 145.829 148.906 145.9 148.779 146.027C148.652 146.153 148.581 146.325 148.581 146.504C148.581 146.683 148.652 146.854 148.779 146.981C148.906 147.108 149.077 147.179 149.256 147.179Z" fill="#F15F42"/>
<g opacity="0.1">
<path d="M149.357 144.677H158.154C158.322 144.663 158.479 144.586 158.594 144.461C158.708 144.337 158.772 144.174 158.772 144.005C158.772 143.836 158.708 143.673 158.594 143.548C158.479 143.424 158.322 143.347 158.154 143.332H149.357C149.189 143.347 149.032 143.424 148.917 143.548C148.803 143.673 148.74 143.836 148.74 144.005C148.74 144.174 148.803 144.337 148.917 144.461C149.032 144.586 149.189 144.663 149.357 144.677Z" fill="#FAFAFA"/>
<path d="M149.256 147.179H154.356C154.535 147.179 154.706 147.108 154.833 146.981C154.959 146.854 155.03 146.683 155.03 146.504C155.03 146.325 154.959 146.153 154.833 146.027C154.706 145.9 154.535 145.829 154.356 145.829H149.256C149.077 145.829 148.906 145.9 148.779 146.027C148.652 146.153 148.581 146.325 148.581 146.504C148.581 146.683 148.652 146.854 148.779 146.981C148.906 147.108 149.077 147.179 149.256 147.179Z" fill="#FAFAFA"/>
</g>
<path d="M96.6699 179.208H104.213C104.392 179.208 104.564 179.136 104.69 179.01C104.817 178.883 104.888 178.712 104.888 178.533C104.888 178.354 104.817 178.182 104.69 178.056C104.564 177.929 104.392 177.858 104.213 177.858H96.6699C96.4909 177.858 96.3193 177.929 96.1928 178.056C96.0662 178.182 95.9951 178.354 95.9951 178.533C95.9951 178.712 96.0662 178.883 96.1928 179.01C96.3193 179.136 96.4909 179.208 96.6699 179.208Z" fill="#F15F42"/>
<path d="M96.4 182.104H106.185C106.364 182.104 106.535 182.033 106.662 181.907C106.788 181.78 106.859 181.609 106.859 181.43C106.859 181.251 106.788 181.079 106.662 180.952C106.535 180.826 106.364 180.755 106.185 180.755H96.4C96.221 180.755 96.0494 180.826 95.9228 180.952C95.7963 181.079 95.7252 181.251 95.7252 181.43C95.7252 181.609 95.7963 181.78 95.9228 181.907C96.0494 182.033 96.221 182.104 96.4 182.104Z" fill="#F15F42"/>
<path d="M96.4 185.088H101.292C101.471 185.088 101.643 185.017 101.769 184.89C101.896 184.764 101.967 184.592 101.967 184.413C101.967 184.234 101.896 184.063 101.769 183.936C101.643 183.809 101.471 183.738 101.292 183.738H96.4C96.221 183.738 96.0494 183.809 95.9228 183.936C95.7963 184.063 95.7252 184.234 95.7252 184.413C95.7252 184.592 95.7963 184.764 95.9228 184.89C96.0494 185.017 96.221 185.088 96.4 185.088Z" fill="#F15F42"/>
<g opacity="0.1">
<path d="M96.6699 179.208H104.213C104.392 179.208 104.564 179.136 104.69 179.01C104.817 178.883 104.888 178.712 104.888 178.533C104.888 178.354 104.817 178.182 104.69 178.056C104.564 177.929 104.392 177.858 104.213 177.858H96.6699C96.4909 177.858 96.3193 177.929 96.1928 178.056C96.0662 178.182 95.9951 178.354 95.9951 178.533C95.9951 178.712 96.0662 178.883 96.1928 179.01C96.3193 179.136 96.4909 179.208 96.6699 179.208Z" fill="#FAFAFA"/>
<path d="M96.4 182.104H106.185C106.364 182.104 106.535 182.033 106.662 181.907C106.788 181.78 106.859 181.609 106.859 181.43C106.859 181.251 106.788 181.079 106.662 180.952C106.535 180.826 106.364 180.755 106.185 180.755H96.4C96.221 180.755 96.0494 180.826 95.9228 180.952C95.7963 181.079 95.7252 181.251 95.7252 181.43C95.7252 181.609 95.7963 181.78 95.9228 181.907C96.0494 182.033 96.221 182.104 96.4 182.104Z" fill="#FAFAFA"/>
<path d="M96.4 185.088H101.292C101.471 185.088 101.643 185.017 101.769 184.89C101.896 184.764 101.967 184.592 101.967 184.413C101.967 184.234 101.896 184.063 101.769 183.936C101.643 183.809 101.471 183.738 101.292 183.738H96.4C96.221 183.738 96.0494 183.809 95.9228 183.936C95.7963 184.063 95.7252 184.234 95.7252 184.413C95.7252 184.592 95.7963 184.764 95.9228 184.89C96.0494 185.017 96.221 185.088 96.4 185.088Z" fill="#FAFAFA"/>
</g>
<path d="M43.4716 103.529L45.7514 103.428L44.72 107.766C43.9063 107.209 43.1648 106.553 42.5124 105.813C42.3242 105.592 42.2309 105.306 42.2525 105.016C42.2742 104.726 42.4091 104.457 42.6281 104.266L43.4716 103.529Z" fill="#E4897B"/>
<path d="M48.3976 105.765L47.3758 109.293L44.72 107.756L45.7515 103.428L48.3976 105.765Z" fill="#E4897B"/>
<path d="M47.948 84.8194L43.283 85.2513L53.9825 200.808L58.6476 200.376L47.948 84.8194Z" fill="#F15F42"/>
<path opacity="0.3" d="M47.948 84.8194L43.283 85.2513L53.9825 200.808L58.6476 200.376L47.948 84.8194Z" fill="black"/>
<path d="M57.2804 83.9531L52.6153 84.385L63.3148 199.942L67.9799 199.51L57.2804 83.9531Z" fill="#F15F42"/>
<path opacity="0.3" d="M57.2804 83.9531L52.6153 84.385L63.3148 199.942L67.9799 199.51L57.2804 83.9531Z" fill="black"/>
<path d="M52.6166 84.3862L47.9515 84.8182L58.6511 200.375L63.3161 199.943L52.6166 84.3862Z" fill="#F15F42"/>
<path opacity="0.1" d="M52.6166 84.3862L47.9515 84.8182L58.6511 200.375L63.3161 199.943L52.6166 84.3862Z" fill="black"/>
<path d="M51.6318 76.3054L47.4336 76.6958L43.2836 85.2513L57.2809 83.9547L51.6318 76.3054Z" fill="#F15F42"/>
<g opacity="0.8">
<path d="M51.6318 76.3054L47.4336 76.6958L43.2836 85.2513L57.2809 83.9547L51.6318 76.3054Z" fill="#FAFAFA"/>
</g>
<path d="M49.2122 73.0278L47.4336 76.6958L51.6318 76.3054L49.2122 73.0278Z" fill="#263238"/>
<path d="M84.485 79.5589C84.967 80.0409 85.367 80.4988 85.7815 81.0049C86.1961 81.511 86.5913 81.9689 86.9865 82.4509C87.7818 83.4149 88.5241 84.4319 89.2471 85.4682C90.7376 87.5753 91.9949 89.8379 92.9971 92.2162C93.1176 92.5247 93.2284 92.8477 93.3441 93.1802L93.5176 93.6622C93.6132 93.9507 93.681 94.2477 93.7201 94.5491C93.8247 95.5083 93.6974 96.4787 93.3489 97.3784C92.8287 98.7067 92.0998 99.9433 91.1896 101.042C89.5803 103.011 87.7275 104.769 85.6755 106.271L83.8584 104.343C85.2885 102.556 86.5961 100.673 87.7722 98.7088C88.2874 97.8696 88.6833 96.9628 88.9483 96.0144C89.0215 95.7817 89.0299 95.5333 88.9724 95.2962L88.8085 94.9395C88.6976 94.7034 88.6012 94.4575 88.4807 94.2262C87.4605 92.2464 86.2669 90.3608 84.9139 88.5916C84.2391 87.671 83.5258 86.7744 82.8028 85.8779C82.4413 85.4345 82.075 84.991 81.699 84.5572L80.6 83.2896L84.485 79.5589Z" fill="#E4897B"/>
<path d="M80.9422 105.813L82.9956 109.877L85.0055 108.146L83.3571 105.259L80.9422 105.813Z" fill="#E4897B"/>
<path d="M65.4748 81.94C64.2249 84.3211 62.9267 86.6748 61.5803 89.0013C60.92 90.1725 60.2259 91.3245 59.5511 92.4861L58.5148 94.2213L58.2545 94.6551C58.1244 94.8624 57.9798 95.1082 57.8496 95.2721C57.7195 95.436 57.5893 95.6336 57.464 95.783C57.3387 95.9324 57.2037 96.1011 57.0784 96.2409C56.1047 97.3016 55.0682 98.3027 53.9743 99.239C52.9188 100.14 51.8632 101.018 50.7739 101.851C48.6193 103.534 46.4069 105.1 44.1126 106.594L42.4594 104.512L48.1711 98.8871C49.1061 97.9231 50.0509 97.0169 50.9426 96.0626C51.8187 95.1644 52.6442 94.2183 53.4152 93.2284C53.5084 93.1127 53.5903 93.0019 53.661 92.8958C53.743 92.7802 53.8008 92.6838 53.8587 92.5874C53.9085 92.5098 53.9536 92.4294 53.9936 92.3464L54.2153 91.8981L55.107 90.081C55.7192 88.8808 56.3169 87.671 56.9386 86.4804C58.1693 84.0801 59.4547 81.707 60.7946 79.3613L65.4748 81.94Z" fill="#E4897B"/>
<path d="M79.0046 65.658C78.942 65.9376 79.0432 66.2027 79.2215 66.2509C79.3999 66.2991 79.5975 66.1063 79.6601 65.8267C79.7228 65.5472 79.6168 65.2821 79.4384 65.2339C79.2601 65.1857 79.048 65.3785 79.0046 65.658Z" fill="#263238"/>
<path d="M79.0143 66.1979C79.1652 67.138 79.4408 68.0538 79.8337 68.9212C79.6118 69.009 79.3735 69.0471 79.1353 69.033C78.8972 69.0188 78.665 68.9527 78.4551 68.8392L79.0143 66.1979Z" fill="#DE5753"/>
<path d="M79.7421 63.9614C79.7078 63.9615 79.6742 63.9514 79.6457 63.9325C79.4676 63.8237 79.2657 63.7598 79.0575 63.7464C78.8492 63.7329 78.6409 63.7703 78.4503 63.8553C78.4087 63.8716 78.3624 63.8711 78.3211 63.854C78.2798 63.837 78.2466 63.8046 78.2286 63.7638C78.2124 63.7221 78.2128 63.6758 78.2299 63.6345C78.2469 63.5932 78.2793 63.5601 78.3202 63.542C78.5638 63.4374 78.8291 63.3933 79.0935 63.4135C79.3579 63.4336 79.6135 63.5174 79.8385 63.6577C79.8568 63.6698 79.8725 63.6855 79.8846 63.7038C79.8967 63.7221 79.9051 63.7426 79.9091 63.7642C79.9132 63.7858 79.9129 63.808 79.9082 63.8294C79.9035 63.8509 79.8945 63.8712 79.8818 63.8891C79.8662 63.9116 79.8452 63.9299 79.8209 63.9425C79.7965 63.9551 79.7695 63.9616 79.7421 63.9614Z" fill="#263238"/>
<path d="M69.2538 66.7232C69.8611 69.3164 70.5504 74.0593 68.8055 75.7897C68.8055 75.7897 69.6153 78.4166 74.4305 78.4166C79.7325 78.4166 76.8405 75.7897 76.8405 75.7897C73.9244 75.1004 73.9147 72.9555 74.3389 70.9456L69.2538 66.7232Z" fill="#E4897B"/>
<path d="M68.15 76.691C67.7355 75.862 67.2824 74.9076 68.15 74.6088C69.0851 74.281 74.2762 73.9484 76.0934 74.5606C76.5775 74.6901 76.9922 75.0031 77.2496 75.4332C77.5069 75.8633 77.5866 76.3766 77.4719 76.8645L68.15 76.691Z" fill="#F15F42"/>
<path opacity="0.6" d="M68.15 76.691C67.7355 75.862 67.2824 74.9076 68.15 74.6088C69.0851 74.281 74.2762 73.9484 76.0934 74.5606C76.5775 74.6901 76.9922 75.0031 77.2496 75.4332C77.5069 75.8633 77.5866 76.3766 77.4719 76.8645L68.15 76.691Z" fill="#FAFAFA"/>
<path d="M61.214 197.62C60.9029 197.618 60.5927 197.584 60.2886 197.519C60.273 197.516 60.2586 197.509 60.2474 197.497C60.2361 197.486 60.2287 197.472 60.2259 197.456C60.2227 197.44 60.2242 197.423 60.2302 197.408C60.2362 197.392 60.2464 197.379 60.2597 197.369C60.2982 197.34 61.2237 196.675 61.7635 196.791C61.8218 196.801 61.8771 196.824 61.9255 196.858C61.9738 196.893 62.014 196.937 62.0431 196.989C62.0865 197.046 62.1099 197.116 62.1099 197.189C62.1099 197.261 62.0865 197.331 62.0431 197.389C61.9274 197.577 61.5755 197.62 61.214 197.62ZM60.5248 197.398C61.055 197.485 61.778 197.485 61.9226 197.287C61.9226 197.287 61.9804 197.21 61.8985 197.07C61.8808 197.04 61.8565 197.013 61.8273 196.993C61.7981 196.973 61.7648 196.96 61.7298 196.955C61.2921 196.983 60.8726 197.141 60.5248 197.408V197.398Z" fill="#FAFAFA"/>
<path d="M60.3078 197.533H60.2644C60.2519 197.526 60.2416 197.515 60.2348 197.503C60.2279 197.49 60.2249 197.475 60.2259 197.461C60.2259 197.418 60.2692 196.396 60.6693 196.058C60.7173 196.015 60.774 195.983 60.8356 195.964C60.8971 195.945 60.9621 195.939 61.026 195.947C61.091 195.947 61.154 195.97 61.2041 196.011C61.2542 196.053 61.2884 196.11 61.3007 196.174C61.3778 196.569 60.703 197.34 60.3367 197.538L60.3078 197.533ZM60.9681 196.087C60.8988 196.088 60.8321 196.114 60.7802 196.16C60.5437 196.483 60.4125 196.872 60.4042 197.273C60.7512 196.998 61.1802 196.415 61.1368 196.184C61.1368 196.16 61.1368 196.102 61.0067 196.087H60.9681Z" fill="#FAFAFA"/>
<path d="M82.4798 197.62C82.1144 197.62 81.7497 197.586 81.3905 197.519C81.3736 197.516 81.3581 197.508 81.346 197.496C81.3338 197.484 81.3258 197.468 81.323 197.451C81.3203 197.435 81.3226 197.418 81.3294 197.402C81.3363 197.387 81.3474 197.374 81.3616 197.365C81.5399 197.263 83.1113 196.362 83.492 196.984C83.5302 197.038 83.5507 197.103 83.5507 197.169C83.5507 197.236 83.5302 197.301 83.492 197.355C83.386 197.567 82.9329 197.62 82.4798 197.62ZM81.6556 197.393C82.3208 197.49 83.2173 197.475 83.3715 197.258C83.3715 197.258 83.4197 197.191 83.3474 197.07C83.1354 196.728 82.181 197.138 81.6556 197.403V197.393Z" fill="#FAFAFA"/>
<path d="M81.405 197.533C81.3892 197.538 81.3725 197.538 81.3568 197.533C81.3447 197.525 81.3352 197.513 81.3292 197.499C81.3233 197.486 81.3211 197.471 81.323 197.456C81.323 197.418 81.3809 196.463 81.805 196.092C81.8693 196.033 81.946 195.99 82.0295 195.965C82.1129 195.94 82.201 195.934 82.287 195.947C82.5232 195.972 82.5907 196.092 82.6051 196.188C82.6726 196.598 81.8677 197.345 81.4435 197.538L81.405 197.533ZM82.2147 196.087C82.1077 196.086 82.0042 196.126 81.9255 196.198C81.6721 196.508 81.5251 196.892 81.5062 197.292C81.9303 197.032 82.4702 196.439 82.4364 196.193C82.4364 196.169 82.4364 196.107 82.2629 196.087H82.2147Z" fill="#FAFAFA"/>
<path d="M77.5104 197.446H81.0531L81.0868 189.248H77.549L77.5104 197.446Z" fill="#E4897B"/>
<path d="M56.2494 197.446H59.7921L61.2574 189.248H57.7147L56.2494 197.446Z" fill="#E4897B"/>
<path d="M60.0283 197.037H56.0518C55.9815 197.036 55.9132 197.06 55.8593 197.105C55.8053 197.15 55.7693 197.213 55.7578 197.283L55.1794 200.43C55.1675 200.508 55.1728 200.588 55.1948 200.664C55.2168 200.74 55.255 200.81 55.3068 200.869C55.3586 200.929 55.4228 200.977 55.4948 201.009C55.5669 201.041 55.6451 201.058 55.7241 201.057C57.1122 201.033 57.7822 200.951 59.5319 200.951C60.6067 200.951 62.8288 201.066 64.3181 201.066C65.8075 201.066 65.9377 199.62 65.3255 199.461C62.5733 198.864 61.5129 198.039 60.6116 197.258C60.4507 197.116 60.2433 197.037 60.0283 197.037Z" fill="#263238"/>
<path d="M81.0146 197.037H77.1586C77.0883 197.036 77.02 197.06 76.966 197.105C76.9121 197.15 76.8761 197.213 76.8646 197.283L76.2862 200.43C76.2727 200.508 76.2765 200.587 76.2973 200.663C76.318 200.739 76.3553 200.809 76.4064 200.869C76.4575 200.929 76.5212 200.977 76.5929 201.009C76.6645 201.042 76.7425 201.058 76.8212 201.057C78.2142 201.033 80.2241 200.951 81.9786 200.951C84.0319 200.951 85.8057 201.066 88.2108 201.066C89.6568 201.066 90.0087 199.62 89.3966 199.461C86.601 198.854 84.3356 198.791 81.887 197.316C81.628 197.144 81.3258 197.047 81.0146 197.037Z" fill="#263238"/>
<path d="M62.0527 76.5898C58.7606 77.3514 55.3047 86.3985 55.3047 86.3985L62.1442 90.9679C63.7145 88.5869 65.091 86.0837 66.2605 83.4824C68.068 79.342 65.4122 75.8138 62.0527 76.5898Z" fill="#F15F42"/>
<path opacity="0.7" d="M62.0527 76.5898C58.7606 77.3514 55.3047 86.3985 55.3047 86.3985L62.1442 90.9679C63.7145 88.5869 65.091 86.0837 66.2605 83.4824C68.068 79.342 65.4122 75.8138 62.0527 76.5898Z" fill="black"/>
<path d="M64.6507 82.3593L61.8214 90.751L62.1443 90.9678C62.1443 90.9678 63.4361 89.0398 64.8098 86.4708L64.6507 82.3593Z" fill="#F15F42"/>
<path opacity="0.8" d="M64.6507 82.3593L61.8214 90.751L62.1443 90.9678C62.1443 90.9678 63.4361 89.0398 64.8098 86.4708L64.6507 82.3593Z" fill="black"/>
<path d="M84.1427 92.409C84.1138 96.3614 83.8776 101.278 83.2896 107.38H64.347C64.1012 104.488 65.3833 90.2882 62.0527 76.5898C64.1361 76.1859 66.2437 75.9187 68.3621 75.7897C71.043 75.6353 73.7305 75.6353 76.4114 75.7897C78.2603 75.9694 80.0926 76.2917 81.8918 76.7537C81.8918 76.7537 83.5113 78.5081 84.003 86.7359C84.0993 88.3795 84.1524 90.2497 84.1427 92.409Z" fill="#F15F42"/>
<path opacity="0.7" d="M84.1427 92.409C84.1138 96.3614 83.8776 101.278 83.2896 107.38H64.347C64.1012 104.488 65.3833 90.2882 62.0527 76.5898C64.1361 76.1859 66.2437 75.9187 68.3621 75.7897C71.043 75.6353 73.7305 75.6353 76.4114 75.7897C78.2603 75.9694 80.0926 76.2917 81.8918 76.7537C81.8918 76.7537 83.5113 78.5081 84.003 86.7359C84.0993 88.3795 84.1524 90.2497 84.1427 92.409Z" fill="black"/>
<path d="M84.1428 92.409C82.9956 90.3171 80.9134 86.1189 81.2074 83.733L84.003 86.76C84.0994 88.3795 84.1524 90.2497 84.1428 92.409Z" fill="#F15F42"/>
<path opacity="0.8" d="M84.1428 92.409C82.9956 90.3171 80.9134 86.1189 81.2074 83.733L84.003 86.76C84.0994 88.3795 84.1524 90.2497 84.1428 92.409Z" fill="black"/>
<path d="M78.1804 79.9734C77.8816 83.3474 85.5309 91.4643 85.5309 91.4643L91.6619 86.4708C90.0561 83.761 88.1322 81.2529 85.931 78.9998C82.3449 75.5342 78.5178 76.1945 78.1804 79.9734Z" fill="#F15F42"/>
<path opacity="0.7" d="M78.1804 79.9734C77.8816 83.3474 85.5309 91.4643 85.5309 91.4643L91.6619 86.4708C90.0561 83.761 88.1322 81.2529 85.931 78.9998C82.3449 75.5342 78.5178 76.1945 78.1804 79.9734Z" fill="black"/>
<path d="M81.0869 189.252L81.0676 193.475H77.5297L77.5442 189.252H81.0869Z" fill="#CE6F64"/>
<path d="M57.7147 189.252H61.2574L60.5006 193.475H56.9579L57.7147 189.252Z" fill="#CE6F64"/>
<path d="M69.89 62.7323C69.3743 66.222 68.8971 68.2271 70.237 70.4443C70.663 71.1623 71.2773 71.7501 72.0135 72.1439C72.7496 72.5377 73.5795 72.7225 74.4132 72.6783C75.2469 72.6341 76.0526 72.3626 76.743 71.8932C77.4334 71.4238 77.9822 70.7743 78.3298 70.0153C79.7132 67.1233 80.3301 61.8984 77.2887 59.6909C76.6469 59.1953 75.886 58.8775 75.0824 58.7694C74.2788 58.6613 73.461 58.7666 72.711 59.0749C71.9611 59.3832 71.3056 59.8835 70.8103 60.5255C70.3151 61.1675 69.9977 61.9286 69.89 62.7323Z" fill="#E4897B"/>
<path d="M80.3735 61.079C79.3303 61.6487 78.1826 62.0013 76.9995 62.1153C76.1174 66.1497 73.7701 70.7913 69.9719 69.4562C68.5259 68.9742 67.0799 65.47 66.9305 62.3611C66.6799 62.6648 66.5112 63.06 66.381 63.2239C66.1643 61.8423 66.3207 60.4278 66.8341 59.1269C67.8849 56.1482 68.5838 58.1244 69.7261 56.3169C70.4636 55.1215 71.7746 54.5045 74.0641 54.4274C73.423 54.76 73.3025 55.295 74.2521 55.2179C75.2016 55.1408 79.2552 54.9191 81.617 56.5145C80.0216 56.876 80.9953 59.4065 83.1257 58.0569C82.3497 59.3149 81.3857 60.5103 80.3735 61.079Z" fill="#263238"/>
<path d="M74.2714 64.8916C74.2849 65.779 74.5822 66.6388 75.1197 67.345C75.8379 68.2705 76.6621 67.827 76.8597 66.7859C77.0332 65.8605 76.8597 64.2602 75.9632 63.7011C75.0667 63.142 74.2666 63.8312 74.2714 64.8916Z" fill="#E4897B"/>
<path d="M69.9527 56.6928C69.4716 56.6623 69.0054 56.5146 68.5946 56.2626C68.1837 56.0105 67.8408 55.6618 67.5957 55.2468C67.5957 55.2468 67.533 58.0713 69.9527 56.6928Z" fill="#1E2A4C"/>
<path d="M76.5657 107.38C76.5657 107.38 73.5966 134.439 71.7794 144.576C69.7936 155.662 62.1394 192.66 62.1394 192.66H55.6324C55.6324 192.66 60.25 156.573 61.214 145.564C62.2503 133.634 64.3663 107.361 64.3663 107.361L76.5657 107.38Z" fill="#F15F42"/>
<path opacity="0.6" d="M76.5657 107.38C76.5657 107.38 73.5966 134.439 71.7794 144.576C69.7936 155.662 62.1394 192.66 62.1394 192.66H55.6324C55.6324 192.66 60.25 156.573 61.214 145.564C62.2503 133.634 64.3663 107.361 64.3663 107.361L76.5657 107.38Z" fill="#FAFAFA"/>
<path d="M63.0601 190.269C63.089 190.269 62.4865 192.761 62.4865 192.761H55.1938L55.242 190.539L63.0601 190.269Z" fill="#F15F42"/>
<path opacity="0.1" d="M63.0601 190.269C63.089 190.269 62.4865 192.761 62.4865 192.761H55.1938L55.242 190.539L63.0601 190.269Z" fill="#FAFAFA"/>
<path d="M74.4015 117.02C69.7888 117.931 70.9504 135.259 71.8518 144.171C72.9507 137.871 74.4449 125.749 75.4523 117.145C75.1262 116.986 74.7559 116.942 74.4015 117.02Z" fill="#F15F42"/>
<path opacity="0.4" d="M74.4015 117.02C69.7888 117.931 70.9504 135.259 71.8518 144.171C72.9507 137.871 74.4449 125.749 75.4523 117.145C75.1262 116.986 74.7559 116.942 74.4015 117.02Z" fill="#FAFAFA"/>
<path d="M83.2848 107.38C83.2848 107.38 84.7983 133.851 84.8272 144.653C84.8609 155.884 82.3594 192.66 82.3594 192.66H76.3585C76.3585 192.66 74.7438 156.539 74.0497 145.511C73.2978 133.485 70.8347 107.38 70.8347 107.38H83.2848Z" fill="#F15F42"/>
<path opacity="0.6" d="M83.2848 107.38C83.2848 107.38 84.7983 133.851 84.8272 144.653C84.8609 155.884 82.3594 192.66 82.3594 192.66H76.3585C76.3585 192.66 74.7438 156.539 74.0497 145.511C73.2978 133.485 70.8347 107.38 70.8347 107.38H83.2848Z" fill="#FAFAFA"/>
<path d="M84.7356 103.977L83.0534 104.112C82.9164 104.123 82.7836 104.165 82.6648 104.235C82.546 104.304 82.4441 104.399 82.3665 104.512C82.289 104.626 82.2377 104.755 82.2164 104.891C82.1952 105.027 82.2045 105.166 82.2436 105.298L82.9377 107.635C82.9963 107.825 83.0999 107.998 83.2397 108.14C83.3795 108.281 83.5514 108.386 83.7407 108.447C83.9301 108.507 84.1312 108.521 84.3271 108.488C84.523 108.454 84.7077 108.373 84.8657 108.252C85.7346 107.444 86.3578 106.406 86.6636 105.259L84.7356 103.977Z" fill="#E4897B"/>
<path d="M80.9374 188.351C80.9213 188.349 80.9065 188.341 80.8959 188.328C80.8852 188.316 80.8794 188.3 80.8796 188.284C81.5448 178.109 83.0872 153.483 83.0583 144.653C83.0583 135.616 81.9593 115.4 81.6123 109.419C81.6116 109.411 81.6126 109.403 81.6152 109.395C81.6178 109.388 81.622 109.381 81.6274 109.375C81.6328 109.369 81.6394 109.364 81.6468 109.361C81.6541 109.358 81.6621 109.356 81.6701 109.356C81.6859 109.356 81.7012 109.362 81.7128 109.373C81.7244 109.383 81.7315 109.398 81.7328 109.414C82.0605 115.396 83.1354 135.611 83.1788 144.653C83.2077 153.488 81.6653 178.113 81.0001 188.293C81.0001 188.301 80.9985 188.309 80.9953 188.317C80.9921 188.324 80.9874 188.331 80.9815 188.336C80.9756 188.341 80.9686 188.346 80.9611 188.348C80.9535 188.351 80.9454 188.352 80.9374 188.351Z" fill="#F15F42"/>
<path opacity="0.3" d="M80.9374 188.351C80.9213 188.349 80.9065 188.341 80.8959 188.328C80.8852 188.316 80.8794 188.3 80.8796 188.284C81.5448 178.109 83.0872 153.483 83.0583 144.653C83.0583 135.616 81.9593 115.4 81.6123 109.419C81.6116 109.411 81.6126 109.403 81.6152 109.395C81.6178 109.388 81.622 109.381 81.6274 109.375C81.6328 109.369 81.6394 109.364 81.6468 109.361C81.6541 109.358 81.6621 109.356 81.6701 109.356C81.6859 109.356 81.7012 109.362 81.7128 109.373C81.7244 109.383 81.7315 109.398 81.7328 109.414C82.0605 115.396 83.1354 135.611 83.1788 144.653C83.2077 153.488 81.6653 178.113 81.0001 188.293C81.0001 188.301 80.9985 188.309 80.9953 188.317C80.9921 188.324 80.9874 188.331 80.9815 188.336C80.9756 188.341 80.9686 188.346 80.9611 188.348C80.9535 188.351 80.9454 188.352 80.9374 188.351Z" fill="#FAFAFA"/>
<path d="M83.4197 190.269C83.4486 190.269 83.1787 192.761 83.1787 192.761H75.8812L75.5969 190.539L83.4197 190.269Z" fill="#F15F42"/>
<path opacity="0.1" d="M83.4197 190.269C83.4486 190.269 83.1787 192.761 83.1787 192.761H75.8812L75.5969 190.539L83.4197 190.269Z" fill="#FAFAFA"/>
</svg>
