<svg width="169" height="235" viewBox="0 0 169 235" fill="none" xmlns="http://www.w3.org/2000/svg">
<rect y="16" width="169" height="169" rx="84.5" fill="#F2F2F2"/>
<path d="M41.5 123.712C55.5833 123.712 67 112.36 67 98.356C67 84.3523 55.5833 73 41.5 73C27.4167 73 16 84.3523 16 98.356C16 112.36 27.4167 123.712 41.5 123.712Z" fill="#F15F42"/>
<path d="M41.4879 122.022C36.7788 122.024 32.1751 120.636 28.2592 118.035C24.3432 115.435 21.2909 111.738 19.4883 107.412C17.6856 103.086 17.2137 98.3258 18.1321 93.7332C19.0505 89.1406 21.318 84.922 24.6478 81.611C27.9776 78.3 32.2201 76.0453 36.8388 75.1321C41.4574 74.2189 46.2447 74.6882 50.5951 76.4806C54.9455 78.2731 58.6636 81.3082 61.279 85.202C63.8945 89.0959 65.2899 93.6735 65.2887 98.356C65.2822 104.631 62.7726 110.647 58.3105 115.084C53.8484 119.521 47.7983 122.016 41.4879 122.022ZM41.4879 76.9343C37.227 76.9343 33.0618 78.1907 29.519 80.5445C25.9763 82.8984 23.215 86.244 21.5844 90.1583C19.9539 94.0726 19.5272 98.3798 20.3585 102.535C21.1898 106.691 23.2416 110.508 26.2544 113.503C29.2673 116.499 33.106 118.54 37.285 119.366C41.464 120.193 45.7956 119.768 49.7321 118.147C53.6687 116.526 57.0333 113.78 59.4005 110.257C61.7677 106.734 63.0312 102.593 63.0312 98.356C63.0247 92.6766 60.753 87.2316 56.7142 83.2157C52.6754 79.1997 47.1995 76.9407 41.4879 76.9343Z" fill="white"/>
<path d="M38.8238 109.682C38.4837 109.682 38.1478 109.608 37.8396 109.466C37.5314 109.323 37.2583 109.115 37.0396 108.856L27.0326 97.1371C26.6302 96.6658 26.4326 96.0548 26.4833 95.4387C26.5339 94.8225 26.8287 94.2515 27.3027 93.8514C27.7766 93.4513 28.3911 93.2549 29.0107 93.3052C29.6304 93.3556 30.2046 93.6487 30.607 94.12L38.8238 103.775L52.4112 87.8504C52.8136 87.379 53.3878 87.086 54.0075 87.0356C54.6271 86.9852 55.2416 87.1817 55.7156 87.5818C56.1895 87.9819 56.4843 88.5529 56.5349 89.169C56.5856 89.7852 56.388 90.3962 55.9856 90.8675L40.6261 108.856C40.4054 109.117 40.1295 109.326 39.8179 109.469C39.5063 109.612 39.1669 109.685 38.8238 109.682Z" fill="white"/>
<path d="M19.7504 129.577C19.7748 129.079 19.9455 128.599 20.2415 128.196C20.5375 127.793 20.9458 127.485 21.4159 127.31C21.8859 127.136 22.3972 127.102 22.8863 127.213C23.3755 127.324 23.8212 127.576 24.1682 127.936L23.5978 128.473C23.4392 128.295 23.2438 128.153 23.0248 128.057C22.8059 127.961 22.5687 127.914 22.3295 127.918C21.8869 127.918 21.4624 128.093 21.1494 128.404C20.8365 128.715 20.6606 129.137 20.6606 129.577C20.6606 130.017 20.8365 130.44 21.1494 130.751C21.4624 131.062 21.8869 131.237 22.3295 131.237C22.5691 131.24 22.8064 131.191 23.0254 131.094C23.2443 130.997 23.4395 130.854 23.5978 130.676L24.1682 131.213C23.8215 131.573 23.3764 131.824 22.8878 131.935C22.3991 132.047 21.8883 132.014 21.4185 131.84C20.9487 131.666 20.5403 131.359 20.2439 130.957C19.9474 130.555 19.7759 130.075 19.7504 129.577Z" fill="#263238"/>
<path d="M24.5748 129.577C24.5482 129.069 24.6754 128.564 24.94 128.128C25.2047 127.692 25.5947 127.346 26.0597 127.132C26.5247 126.919 27.0432 126.849 27.5485 126.932C28.0537 127.015 28.5224 127.246 28.894 127.596C29.2657 127.947 29.5232 128.4 29.6333 128.897C29.7434 129.394 29.7011 129.913 29.5118 130.386C29.3225 130.859 28.995 131.265 28.5714 131.551C28.1479 131.837 27.6478 131.99 27.1358 131.991C26.8059 132.009 26.4759 131.96 26.1658 131.847C25.8557 131.734 25.5721 131.559 25.3324 131.333C25.0926 131.107 24.9018 130.835 24.7715 130.533C24.6413 130.231 24.5743 129.906 24.5748 129.577ZM28.8228 129.577C28.8228 129.249 28.7248 128.928 28.5411 128.655C28.3575 128.382 28.0965 128.169 27.7912 128.044C27.4859 127.918 27.15 127.886 26.8262 127.95C26.5023 128.015 26.2049 128.173 25.9718 128.406C25.7386 128.639 25.5802 128.935 25.5165 129.257C25.4528 129.58 25.4867 129.914 25.6139 130.217C25.7412 130.52 25.956 130.778 26.2312 130.96C26.5065 131.142 26.8297 131.238 27.1601 131.237C27.3787 131.24 27.5958 131.199 27.7982 131.117C28.0005 131.034 28.1839 130.912 28.3371 130.756C28.4903 130.601 28.6103 130.417 28.6896 130.214C28.7689 130.011 28.806 129.795 28.7985 129.577H28.8228Z" fill="#263238"/>
<path d="M34.8428 127.218V131.937H34.1206L31.4991 128.739V131.937H30.6252V127.218H31.3534L33.9689 130.41V127.218H34.8428Z" fill="#263238"/>
<path d="M37.0032 127.954V129.39H39.2911V130.126H37.0032V131.937H36.1233V127.218H39.5823V127.954H37.0032Z" fill="#263238"/>
<path d="M40.4441 127.218H41.324V131.937H40.4441V127.218Z" fill="#263238"/>
<path d="M45.7358 131.937L44.7649 130.555H43.5087V131.931H42.6287V127.212H44.5828C45.8269 127.212 46.6036 127.815 46.6036 128.889C46.6171 129.213 46.526 129.532 46.3436 129.801C46.1612 130.069 45.8972 130.272 45.5902 130.38L46.6825 131.931L45.7358 131.937ZM44.5221 127.96H43.4905V129.837H44.5221C45.2928 129.837 45.6934 129.487 45.6934 128.896C45.6934 128.304 45.2868 127.96 44.5221 127.96Z" fill="#263238"/>
<path d="M51.9197 131.937V128.811L50.3601 131.394H49.9838L48.4303 128.847V131.937H47.5564V127.218H48.2846L50.1659 130.344L52.0168 127.218H52.7389V131.937H51.9197Z" fill="#263238"/>
<path d="M57.5998 131.201V131.937H54.0376V127.218H57.5027V127.954H54.9236V129.161H57.2114V129.879H54.9236V131.182L57.5998 131.201Z" fill="#263238"/>
<path d="M58.5829 127.218H60.6584C62.1937 127.218 63.2496 128.159 63.2496 129.577C63.2496 130.995 62.1937 131.937 60.6584 131.937H58.5829V127.218ZM60.6159 131.195C60.8413 131.214 61.0683 131.187 61.2824 131.114C61.4966 131.042 61.6933 130.926 61.86 130.774C62.0267 130.622 62.1598 130.437 62.2509 130.231C62.3419 130.025 62.389 129.802 62.389 129.577C62.389 129.352 62.3419 129.13 62.2509 128.924C62.1598 128.718 62.0267 128.533 61.86 128.381C61.6933 128.229 61.4966 128.113 61.2824 128.041C61.0683 127.968 60.8413 127.941 60.6159 127.96H59.4629V131.195H60.6159Z" fill="#263238"/>
<path d="M70.8354 4.23734H99.7555C100.773 4.23734 101.748 4.64143 102.468 5.36072C103.187 6.08 103.591 7.05557 103.591 8.07279V31.0538C103.591 32.071 103.187 33.0466 102.468 33.7659C101.748 34.4852 100.773 34.8893 99.7555 34.8893H97.2249L102.405 45.1224L92.8438 34.8893H70.8275C69.8117 34.8872 68.8382 34.4821 68.1206 33.7631C67.403 33.044 67 32.0697 67 31.0538V8.07279C67 7.05557 67.4041 6.08 68.1234 5.36072C68.8427 4.64143 69.8182 4.23734 70.8354 4.23734Z" fill="#F15F42"/>
<path opacity="0.7" d="M70.8354 4.23734H99.7555C100.773 4.23734 101.748 4.64143 102.468 5.36072C103.187 6.08 103.591 7.05557 103.591 8.07279V31.0538C103.591 32.071 103.187 33.0466 102.468 33.7659C101.748 34.4852 100.773 34.8893 99.7555 34.8893H97.2249L102.405 45.1224L92.8438 34.8893H70.8275C69.8117 34.8872 68.8382 34.4821 68.1206 33.7631C67.403 33.044 67 32.0697 67 31.0538V8.07279C67 7.05557 67.4041 6.08 68.1234 5.36072C68.8427 4.64143 69.8182 4.23734 70.8354 4.23734Z" fill="white"/>
<path d="M99.368 2.17334H71.215V30.002H99.368V2.17334Z" fill="white"/>
<path d="M99.368 2.17334H71.215V8.70546H99.368V2.17334Z" fill="#F15F42"/>
<path d="M75.778 6.34882C75.4857 6.34883 75.2053 6.23327 74.9979 6.02735C74.7905 5.82143 74.673 5.54185 74.6709 5.24959V1.20063C74.6579 1.0479 74.6768 0.894158 74.7264 0.749122C74.776 0.604086 74.8551 0.470922 74.9588 0.35806C75.0625 0.245198 75.1885 0.155092 75.3289 0.0934577C75.4692 0.0318239 75.6208 0 75.7741 0C75.9273 0 76.0789 0.0318239 76.2193 0.0934577C76.3596 0.155092 76.4856 0.245198 76.5893 0.35806C76.693 0.470922 76.7721 0.604086 76.8217 0.749122C76.8713 0.894158 76.8902 1.0479 76.8772 1.20063V5.24959C76.8772 5.54113 76.7614 5.82071 76.5553 6.02686C76.3491 6.23301 76.0695 6.34882 75.778 6.34882Z" fill="#263238"/>
<path d="M80.5308 6.34882C80.2393 6.34882 79.9597 6.23301 79.7535 6.02686C79.5474 5.82071 79.4316 5.54113 79.4316 5.24959V1.20063C79.4186 1.0479 79.4375 0.894158 79.4871 0.749122C79.5367 0.604086 79.6158 0.470922 79.7195 0.35806C79.8232 0.245197 79.9492 0.155092 80.0895 0.0934577C80.2299 0.0318239 80.3815 0 80.5348 0C80.688 0 80.8396 0.0318239 80.98 0.0934577C81.1203 0.155092 81.2463 0.245197 81.35 0.35806C81.4537 0.470922 81.5328 0.604086 81.5824 0.749122C81.632 0.894158 81.6509 1.0479 81.6379 1.20063V5.24959C81.6379 5.39461 81.6093 5.5382 81.5535 5.67208C81.4978 5.80596 81.4161 5.92749 81.3132 6.02967C81.2103 6.13185 81.0882 6.21265 80.9539 6.26742C80.8196 6.3222 80.6758 6.34986 80.5308 6.34882Z" fill="#263238"/>
<path d="M85.2915 6.34882C85 6.34882 84.7204 6.23301 84.5142 6.02686C84.3081 5.82071 84.1923 5.54113 84.1923 5.24959V1.20063C84.1793 1.0479 84.1982 0.894158 84.2478 0.749122C84.2974 0.604086 84.3765 0.470922 84.4802 0.35806C84.5839 0.245198 84.7099 0.155092 84.8502 0.0934577C84.9906 0.0318239 85.1422 0 85.2955 0C85.4487 0 85.6003 0.0318239 85.7407 0.0934577C85.881 0.155092 86.007 0.245198 86.1107 0.35806C86.2144 0.470922 86.2935 0.604086 86.3431 0.749122C86.3927 0.894158 86.4116 1.0479 86.3986 1.20063V5.24959C86.3966 5.54185 86.279 5.82143 86.0716 6.02735C85.8642 6.23327 85.5838 6.34883 85.2915 6.34882Z" fill="#263238"/>
<path d="M90.0522 6.34882C89.7599 6.34883 89.4795 6.23327 89.2721 6.02735C89.0647 5.82143 88.9471 5.54185 88.9451 5.24959V1.20063C88.9451 0.906999 89.0617 0.625392 89.2693 0.417763C89.477 0.210134 89.7586 0.0934906 90.0522 0.0934906C90.3458 0.0934906 90.6274 0.210134 90.8351 0.417763C91.0427 0.625392 91.1593 0.906999 91.1593 1.20063V5.24959C91.1572 5.54185 91.0397 5.82143 90.8323 6.02735C90.6249 6.23327 90.3445 6.34883 90.0522 6.34882Z" fill="#263238"/>
<path d="M94.8129 6.34882C94.5206 6.34883 94.2402 6.23327 94.0328 6.02735C93.8254 5.82143 93.7078 5.54185 93.7057 5.24959V1.20063C93.7057 0.906999 93.8224 0.625392 94.03 0.417763C94.2376 0.210134 94.5193 0.0934906 94.8129 0.0934906C95.1065 0.0934906 95.3881 0.210134 95.5958 0.417763C95.8034 0.625392 95.92 0.906999 95.92 1.20063V5.24959C95.9179 5.54185 95.8004 5.82143 95.593 6.02735C95.3856 6.23327 95.1052 6.34883 94.8129 6.34882Z" fill="#263238"/>
<g opacity="0.7">
<path d="M75.778 6.34882C75.4857 6.34883 75.2053 6.23327 74.9979 6.02735C74.7905 5.82143 74.673 5.54185 74.6709 5.24959V1.20063C74.6579 1.0479 74.6768 0.894158 74.7264 0.749122C74.776 0.604086 74.8551 0.470922 74.9588 0.35806C75.0625 0.245198 75.1885 0.155092 75.3289 0.0934577C75.4692 0.0318239 75.6208 0 75.7741 0C75.9273 0 76.0789 0.0318239 76.2193 0.0934577C76.3596 0.155092 76.4856 0.245198 76.5893 0.35806C76.693 0.470922 76.7721 0.604086 76.8217 0.749122C76.8713 0.894158 76.8902 1.0479 76.8772 1.20063V5.24959C76.8772 5.54113 76.7614 5.82071 76.5553 6.02686C76.3491 6.23301 76.0695 6.34882 75.778 6.34882Z" fill="white"/>
<path d="M80.5308 6.34882C80.2393 6.34882 79.9597 6.23301 79.7535 6.02686C79.5474 5.82071 79.4316 5.54113 79.4316 5.24959V1.20063C79.4186 1.0479 79.4375 0.894158 79.4871 0.749122C79.5367 0.604086 79.6158 0.470922 79.7195 0.35806C79.8232 0.245197 79.9492 0.155092 80.0895 0.0934577C80.2299 0.0318239 80.3815 0 80.5347 0C80.688 0 80.8396 0.0318239 80.98 0.0934577C81.1203 0.155092 81.2463 0.245197 81.35 0.35806C81.4537 0.470922 81.5328 0.604086 81.5824 0.749122C81.632 0.894158 81.6509 1.0479 81.6379 1.20063V5.24959C81.6379 5.39461 81.6092 5.5382 81.5535 5.67208C81.4978 5.80596 81.4161 5.92749 81.3132 6.02967C81.2103 6.13185 81.0882 6.21265 80.9539 6.26742C80.8196 6.3222 80.6758 6.34986 80.5308 6.34882Z" fill="white"/>
<path d="M85.2915 6.34882C85 6.34882 84.7204 6.23301 84.5142 6.02686C84.3081 5.82071 84.1923 5.54113 84.1923 5.24959V1.20063C84.1793 1.0479 84.1982 0.894158 84.2478 0.749122C84.2974 0.604086 84.3765 0.470922 84.4802 0.35806C84.5839 0.245198 84.7099 0.155092 84.8502 0.0934577C84.9906 0.0318239 85.1422 0 85.2954 0C85.4487 0 85.6003 0.0318239 85.7407 0.0934577C85.881 0.155092 86.007 0.245198 86.1107 0.35806C86.2144 0.470922 86.2935 0.604086 86.3431 0.749122C86.3927 0.894158 86.4116 1.0479 86.3986 1.20063V5.24959C86.3965 5.54185 86.279 5.82143 86.0716 6.02735C85.8642 6.23327 85.5838 6.34883 85.2915 6.34882Z" fill="white"/>
<path d="M90.0522 6.34882C89.7599 6.34883 89.4795 6.23327 89.2721 6.02735C89.0647 5.82143 88.9471 5.54185 88.9451 5.24959V1.20063C88.9451 0.906999 89.0617 0.625392 89.2693 0.417763C89.477 0.210134 89.7586 0.0934906 90.0522 0.0934906C90.3458 0.0934906 90.6274 0.210134 90.835 0.417763C91.0427 0.625392 91.1593 0.906999 91.1593 1.20063V5.24959C91.1572 5.54185 91.0397 5.82143 90.8323 6.02735C90.6249 6.23327 90.3445 6.34883 90.0522 6.34882Z" fill="white"/>
<path d="M94.8129 6.34882C94.5206 6.34883 94.2402 6.23327 94.0328 6.02735C93.8254 5.82143 93.7078 5.54185 93.7057 5.24959V1.20063C93.7057 0.906999 93.8224 0.625392 94.03 0.417763C94.2376 0.210134 94.5193 0.0934906 94.8129 0.0934906C95.1065 0.0934906 95.3881 0.210134 95.5957 0.417763C95.8034 0.625392 95.92 0.906999 95.92 1.20063V5.24959C95.9179 5.54185 95.8004 5.82143 95.593 6.02735C95.3856 6.23327 95.1052 6.34883 94.8129 6.34882Z" fill="white"/>
</g>
<path d="M84.8249 22.3549V24.0077H77.0749V22.7028L81.2584 18.7488C82.2785 17.7761 82.4604 17.1671 82.4604 16.574C82.4604 15.6092 81.7961 15.0557 80.5071 15.0557C80.0382 15.0305 79.57 15.117 79.141 15.3081C78.712 15.4992 78.3346 15.7894 78.0397 16.1549L76.6716 15.1031C77.155 14.5207 77.7679 14.0594 78.4613 13.7559C79.1547 13.4525 79.9094 13.3153 80.6652 13.3554C82.9507 13.3554 84.4216 14.5179 84.4216 16.3763C84.4216 17.3965 84.1369 18.3296 82.6818 19.6977L79.8744 22.3549H84.8249Z" fill="#263238"/>
<path d="M93.5713 22.3549V24.0077H85.8213V22.7028L89.9968 18.7488C91.017 17.7761 91.1989 17.1671 91.1989 16.574C91.1989 15.6092 90.5346 15.0557 89.2456 15.0557C88.7768 15.0317 88.309 15.1188 87.8803 15.3098C87.4515 15.5009 87.0739 15.7904 86.7782 16.1549L85.4101 15.1031C85.8947 14.5201 86.5089 14.0584 87.2037 13.755C87.8985 13.4515 88.6546 13.3147 89.4116 13.3554C91.6971 13.3554 93.168 14.5179 93.168 16.3763C93.168 17.3965 92.8833 18.3296 91.4203 19.6977L88.6129 22.3549H93.5713Z" fill="#263238"/>
<path d="M112.804 69.5348C112.25 70.6182 111.752 71.5355 111.222 72.5082C110.692 73.4809 110.123 74.4062 109.554 75.3393C108.399 77.2056 107.165 79.0271 105.853 80.8038C104.529 82.6174 103.098 84.3497 101.566 85.9916C99.9776 87.7139 98.2359 89.2888 96.3629 90.6969L96.268 90.7602C95.8036 91.1024 95.2685 91.3361 94.7019 91.4442C94.1353 91.5523 93.5517 91.5321 92.994 91.3849C91.3764 90.9286 89.9329 89.9975 88.8502 88.712C88.0375 87.7571 87.3639 86.6922 86.8494 85.5487C86.0173 83.6323 85.4096 81.6262 85.0384 79.5702C84.6857 77.6727 84.4506 75.7553 84.3346 73.8289C84.2793 72.8799 84.2476 71.9388 84.2397 70.9977V68.8626C84.2397 68.6174 84.2397 68.3881 84.8249 68.0717C86.0618 67.4394 87.4943 67.3063 88.8264 67.7001L89.8149 67.9927C90.3764 68.1587 90.4397 68.3802 90.4476 68.5858L90.5188 69.2184L90.6769 70.4995C90.7956 71.3457 90.93 72.1919 91.0882 73.038C91.3509 74.6888 91.6967 76.3252 92.1241 77.9411C92.484 79.4185 93.0147 80.849 93.7057 82.2036C93.9427 82.6874 94.255 83.1305 94.631 83.5163C94.9157 83.7931 95.0264 83.7694 94.9473 83.7219L91.5864 84.4178C94.4283 81.929 96.9138 79.0603 98.9726 75.8929C100.08 74.3113 101.124 72.5873 102.136 70.8633C102.642 70.0092 103.124 69.1393 103.591 68.2694C104.057 67.3996 104.532 66.4822 104.904 65.6914V65.644C105.407 64.5848 106.311 63.769 107.415 63.3759C108.52 62.9829 109.736 63.0449 110.795 63.5483C111.854 64.0517 112.67 64.9552 113.063 66.0601C113.456 67.1649 113.394 68.3807 112.891 69.4398C112.858 69.4678 112.829 69.4997 112.804 69.5348Z" fill="#263238"/>
<path d="M110.479 224.012L115.841 220.264C115.923 220.193 116.029 220.155 116.137 220.155C116.246 220.155 116.351 220.193 116.434 220.264L119.913 223.577C120.063 223.738 120.142 223.951 120.135 224.171C120.128 224.39 120.034 224.597 119.874 224.748C119.831 224.782 119.786 224.814 119.739 224.842C117.865 226.108 116.845 226.685 114.512 228.314C113.081 229.311 106.984 232.948 104.682 233.209C102.381 233.47 102.025 231.296 102.95 230.908C107.616 228.931 109.356 226.59 109.886 224.787C109.992 224.47 110.2 224.197 110.479 224.012Z" fill="#263238"/>
<path opacity="0.2" d="M110.479 224.012L115.841 220.264C115.923 220.193 116.029 220.155 116.137 220.155C116.246 220.155 116.351 220.193 116.434 220.264L119.913 223.577C120.063 223.738 120.142 223.951 120.135 224.171C120.128 224.39 120.034 224.597 119.874 224.748C119.831 224.782 119.786 224.814 119.739 224.842C117.865 226.108 116.845 226.685 114.512 228.314C113.081 229.311 106.984 232.948 104.682 233.209C102.381 233.47 102.025 231.296 102.95 230.908C107.616 228.931 109.356 226.59 109.886 224.787C109.992 224.47 110.2 224.197 110.479 224.012Z" fill="black"/>
<path d="M109.435 101.855C109.435 101.855 89.2614 146.742 88.1701 162.748C86.9759 180.288 108.794 225.444 108.794 225.444L118.727 222.818C118.727 222.818 103.314 177.196 104.35 163.752C107.664 144.528 130.74 105.05 130.74 105.05L109.435 101.855Z" fill="#263238"/>
<path opacity="0.2" d="M111.713 200.217C115.263 212.498 118.759 222.818 118.759 222.818L108.818 225.436C108.818 225.436 108.114 223.981 106.968 221.482C101.717 210.094 87.1974 177.133 88.1938 162.74C89.2772 146.742 109.451 101.847 109.451 101.847L130.803 105.011C130.803 105.011 107.719 144.48 104.405 163.705C103.804 170.798 107.758 186.694 111.713 200.217Z" fill="white"/>
<path opacity="0.2" d="M122.491 115.204C117.24 117.577 113.729 130.064 113.958 136.651C117.612 128.798 121.621 121.112 124.801 115.228C124.452 115.02 124.055 114.908 123.649 114.904C123.243 114.9 122.844 115.004 122.491 115.204Z" fill="black"/>
<path opacity="0.2" d="M118.735 222.818L108.794 225.436C108.794 225.436 108.091 223.981 106.944 221.482C109.696 214.127 111.096 205.025 111.689 200.217C115.24 212.498 118.735 222.818 118.735 222.818Z" fill="black"/>
<path d="M109.158 98.9451L138.6 99.9652C138.6 99.9652 138.79 109.629 136.56 116.817L107.3 106.632L109.158 98.9451Z" fill="#263238"/>
<path opacity="0.2" d="M109.158 98.9451L138.6 99.9652C138.6 99.9652 138.79 109.629 136.56 116.817L107.3 106.632L109.158 98.9451Z" fill="white"/>
<path d="M114.923 227.871L121.629 228.093C121.739 228.099 121.843 228.141 121.926 228.213C122.009 228.284 122.066 228.381 122.088 228.488L123.013 233.431C123.036 233.536 123.037 233.646 123.016 233.752C122.995 233.858 122.952 233.958 122.891 234.047C122.829 234.136 122.75 234.212 122.658 234.269C122.566 234.326 122.464 234.364 122.357 234.38C122.297 234.387 122.235 234.387 122.175 234.38C120.008 234.277 118.434 234.095 115.706 234C114.03 233.945 108.968 233.961 106.651 233.882C104.334 233.802 104.105 231.509 105.07 231.327C109.348 230.536 112.59 229.358 113.998 228.164C114.258 227.952 114.589 227.847 114.923 227.871Z" fill="#263238"/>
<path d="M119.969 101.207C119.969 101.207 114.884 148.276 114.654 164.472C114.401 182.21 113.397 228.211 113.397 228.211L122.887 229.651C122.887 229.651 128.161 186.077 129.949 168.893C131.973 149.304 137.604 109.479 137.604 109.479L119.969 101.207Z" fill="#263238"/>
<path opacity="0.2" d="M119.969 101.207C119.969 101.207 114.884 148.276 114.654 164.472C114.401 182.21 113.397 228.211 113.397 228.211L122.887 229.651C122.887 229.651 128.161 186.077 129.949 168.893C131.973 149.304 137.604 109.479 137.604 109.479L119.969 101.207Z" fill="white"/>
<path d="M113.927 103.176L127.766 104.054L127.94 100.677L114.093 99.9731L113.927 103.176Z" fill="#263238"/>
<path d="M128.992 100.732L128.818 104.125L138.284 104.726L138.458 101.215L128.992 100.732Z" fill="#263238"/>
<path d="M113.041 99.9178L109.008 99.7043L108.47 102.836L112.875 103.113L113.041 99.9178Z" fill="#263238"/>
<path d="M122.462 100.187L117.013 99.9085L116.812 103.834L122.261 104.113L122.462 100.187Z" fill="white"/>
<path d="M106.382 59.1197C103.876 59.61 96.529 77.0316 96.529 77.0316L103.464 85.8176L106.501 81.5709L106.382 59.1197Z" fill="#F15F42"/>
<path opacity="0.4" d="M106.382 59.1197L106.446 70.1911L106.501 81.5472L103.464 85.7939L101.74 83.6033L96.529 77.0079C96.529 77.0079 103.868 59.6021 106.382 59.1197Z" fill="white"/>
<path opacity="0.2" d="M106.446 70.2149L106.501 81.5709L103.464 85.8176L101.74 83.627C101.274 77.1187 104.651 72.2868 106.446 70.2149Z" fill="black"/>
<path d="M94.8603 65.9603C94.8756 66.0276 94.8757 66.0974 94.8607 66.1647C94.8457 66.2321 94.8159 66.2952 94.7736 66.3497C94.7312 66.4042 94.6773 66.4485 94.6157 66.4797C94.5542 66.5108 94.4865 66.5279 94.4175 66.5297L89.0479 66.8934C88.8996 66.8987 88.7543 66.8516 88.6372 66.7606C88.5201 66.6695 88.4387 66.5402 88.4073 66.3952L86.4935 55.8853C86.4775 55.8135 86.4764 55.7391 86.4903 55.6668C86.5042 55.5945 86.5328 55.5258 86.5743 55.465C86.6158 55.4042 86.6694 55.3526 86.7317 55.3134C86.794 55.2741 86.8636 55.2481 86.9364 55.2369L92.306 54.8731C92.4631 54.8829 92.6123 54.9452 92.7299 55.0498C92.8474 55.1545 92.9265 55.2955 92.9545 55.4504L94.8603 65.9603Z" fill="#263238"/>
<path opacity="0.5" d="M92.3535 55.4187L94.3147 66.0314C94.3345 66.0928 94.3397 66.158 94.3296 66.2218C94.3196 66.2855 94.2948 66.346 94.257 66.3984C94.2193 66.4508 94.1698 66.4935 94.1125 66.5232C94.0552 66.5528 93.9917 66.5686 93.9272 66.5692L89.38 66.8697C89.0716 66.8697 88.5022 66.759 88.4468 66.4664L86.5094 55.8141C86.454 55.5136 86.9601 55.2368 87.3002 55.221L91.8473 54.9126C91.978 54.9234 92.1005 54.9802 92.1932 55.0729C92.2859 55.1655 92.3427 55.2881 92.3535 55.4187Z" fill="white"/>
<path d="M106.382 59.1197C106.382 59.1197 125.409 56.2175 139.976 57.5381C139.976 57.5381 136.331 85.6752 138.236 100.376L109.641 99.4037C109.641 99.4037 103.14 74.8806 106.382 59.1197Z" fill="#263238"/>
<path d="M128.66 57.38C126.2 60.1794 119.368 60.0213 119.368 60.0213C119.368 60.0213 115.042 59.3491 115.777 57.9414C118.205 57.2534 119.273 55.9644 119.597 54.4302C119.762 53.4833 119.738 52.513 119.526 51.5754C119.428 51.0411 119.298 50.5129 119.138 49.9938L126.754 42.8765C126.129 47.1152 125.639 54.7782 128.66 57.38Z" fill="#EBB376"/>
<path opacity="0.2" d="M125.275 47.0598C125.512 52.0815 121.574 53.9241 119.597 54.4302C119.762 53.4832 119.738 52.5129 119.526 51.5754L125.275 47.0598Z" fill="black"/>
<path d="M128.486 55.8458L124.84 58.2024L131.894 104.726L143.353 109.028L139.976 57.546L128.486 55.8458Z" fill="#F15F42"/>
<path opacity="0.4" d="M143.353 109.028L131.894 104.726L124.84 58.2024L128.486 55.8458L139.984 57.546L140.356 61.9667L140.973 69.1077L141.692 77.6643L142.325 89.653L143.353 109.028Z" fill="white"/>
<path d="M124.84 58.2024L128.968 54.1218L132.052 56.1305L129.071 60.994L124.84 58.2024Z" fill="#F15F42"/>
<path opacity="0.6" d="M124.84 58.2024L128.968 54.1218L132.052 56.1305L129.071 60.994L124.84 58.2024Z" fill="white"/>
<path d="M115.777 57.9414C114.196 60.8042 111.325 108.166 111.325 108.166H105.339C105.339 108.166 102.966 62.6705 106.382 59.1356L115.777 57.9414Z" fill="#F15F42"/>
<path opacity="0.4" d="M115.777 57.9414C114.196 60.8042 111.325 108.166 111.325 108.166H105.339C105.339 108.166 102.966 62.6705 106.382 59.1356L115.777 57.9414Z" fill="white"/>
<path d="M116.9 55.4899L113.176 58.234L113.263 60.8833L116.473 58.0284L116.9 55.4899Z" fill="#F15F42"/>
<path opacity="0.6" d="M116.9 55.4899L113.176 58.234L113.263 60.8833L116.473 58.0284L116.9 55.4899Z" fill="white"/>
<path opacity="0.2" d="M140.973 69.1077L141.7 77.6643C138.656 73.4097 139.51 66.4664 139.51 66.4664C139.51 66.4664 140.126 67.5498 140.973 69.1077Z" fill="black"/>
<path d="M116.102 34.652C118.537 35.9252 117.81 38.6061 113.152 43.3035C110.779 40.8441 109.823 35.6484 111.325 34.138C112.828 32.6275 113.982 33.5449 116.102 34.652Z" fill="#263238"/>
<path d="M126.311 37.7599C126.698 43.2956 127.197 46.5458 124.793 49.7407C121.163 54.5488 114.03 52.9039 111.989 47.5818C110.163 42.7894 109.838 34.5017 114.947 31.6074C115.812 31.1105 116.766 30.789 117.756 30.6612C118.745 30.5334 119.75 30.6019 120.713 30.8626C121.675 31.1233 122.577 31.5712 123.367 32.1807C124.157 32.7902 124.818 33.5494 125.315 34.4147C125.907 35.4351 126.248 36.5817 126.311 37.7599Z" fill="#EBB376"/>
<path d="M118.276 40.3538C118.34 40.7966 118.15 41.192 117.849 41.2316C117.549 41.2711 117.28 40.939 117.225 40.4882C117.169 40.0374 117.351 39.6499 117.636 39.6025C117.92 39.555 118.189 39.9109 118.276 40.3538Z" fill="#263238"/>
<path d="M113.176 41.0259C113.239 41.4767 113.049 41.8721 112.756 41.9037C112.464 41.9354 112.171 41.619 112.116 41.1604C112.061 40.7017 112.242 40.3221 112.535 40.2826C112.828 40.243 113.12 40.5435 113.176 41.0259Z" fill="#263238"/>
<path d="M114.876 41.018C114.522 42.4602 113.972 43.8467 113.239 45.1382C113.575 45.3164 113.945 45.4194 114.325 45.4399C114.705 45.4604 115.084 45.3979 115.437 45.2568L114.876 41.018Z" fill="#D58745"/>
<path d="M119.463 38.5586C119.522 38.5561 119.58 38.537 119.629 38.5032C119.677 38.4519 119.704 38.384 119.704 38.3134C119.704 38.2429 119.677 38.175 119.629 38.1237C119.337 37.8193 118.976 37.5888 118.577 37.4513C118.179 37.3137 117.753 37.2732 117.335 37.3328C117.302 37.3377 117.27 37.3491 117.241 37.3665C117.212 37.3839 117.187 37.4069 117.167 37.4342C117.147 37.4614 117.133 37.4924 117.125 37.5252C117.117 37.5581 117.116 37.5922 117.122 37.6254C117.135 37.6942 117.175 37.755 117.233 37.7949C117.29 37.8348 117.361 37.8506 117.43 37.839C117.761 37.7962 118.098 37.8335 118.412 37.9477C118.725 38.0619 119.007 38.2497 119.233 38.4953C119.265 38.5218 119.301 38.5412 119.341 38.5521C119.381 38.563 119.422 38.5652 119.463 38.5586Z" fill="#263238"/>
<path d="M110.629 39.6104C110.679 39.6032 110.726 39.5824 110.765 39.5503C110.804 39.5183 110.834 39.4761 110.851 39.4285C110.947 39.1093 111.118 38.8175 111.349 38.5769C111.58 38.3364 111.864 38.1539 112.179 38.0446C112.214 38.0354 112.246 38.0195 112.274 37.9978C112.302 37.9761 112.326 37.949 112.343 37.9181C112.361 37.8872 112.372 37.8532 112.377 37.8178C112.381 37.7825 112.379 37.7467 112.369 37.7124C112.349 37.6458 112.304 37.5893 112.244 37.5541C112.184 37.5189 112.113 37.5077 112.045 37.5226C111.645 37.6574 111.283 37.8855 110.988 38.188C110.694 38.4905 110.476 38.8589 110.352 39.2624C110.33 39.3275 110.333 39.3989 110.363 39.4611C110.393 39.5233 110.446 39.5713 110.511 39.5946C110.548 39.6087 110.589 39.6141 110.629 39.6104Z" fill="#263238"/>
<path d="M123.48 33.1574C121.013 34.3831 121.693 37.1114 126.256 41.8563C128.691 39.4839 129.743 34.2645 128.264 32.7382C126.785 31.212 125.631 32.0977 123.48 33.1574Z" fill="#263238"/>
<path d="M129.522 41.8247C129.307 43.2107 128.558 44.4572 127.434 45.2963C125.931 46.3798 124.54 45.1935 124.413 43.4379C124.302 41.8563 124.959 39.389 126.722 38.9936C127.11 38.9131 127.511 38.9309 127.89 39.0453C128.269 39.1597 128.613 39.367 128.891 39.6484C129.17 39.9298 129.373 40.2763 129.483 40.6564C129.593 41.0365 129.606 41.4381 129.522 41.8247Z" fill="#EBB376"/>
<path d="M127.885 32.4061C127.885 32.4061 128.565 30.3104 124.895 27.9222C121.226 25.5339 114.828 26.6885 110.503 29.2507C106.177 31.813 110.779 35.9568 112.741 36.2178L112.25 35.4903C114.357 35.7835 116.502 35.6162 118.537 35L117.319 34.4701C117.319 34.4701 125.299 33.7505 127.885 32.4061Z" fill="#263238"/>
<path d="M116.236 46.53C116.561 47.1143 116.841 47.7223 117.074 48.3489L117.422 48.2777C119.004 47.9377 119.597 47.2655 119.795 46.6249C119.89 46.3096 119.909 45.9763 119.85 45.6522C119.82 45.4661 119.764 45.2851 119.684 45.1144C118.812 45.7506 117.815 46.1928 116.758 46.4114L116.236 46.53Z" fill="#263238"/>
<path d="M116.766 46.4114L117.027 46.9333C118.498 46.617 119.494 46.1979 119.858 45.6522C119.828 45.4661 119.772 45.2851 119.692 45.1144C118.82 45.7506 117.823 46.1928 116.766 46.4114Z" fill="white"/>
<path d="M117.422 48.2777C119.004 47.9376 119.597 47.2655 119.795 46.6249C119.204 46.7653 118.643 47.0061 118.134 47.3366C117.806 47.5698 117.557 47.8984 117.422 48.2777Z" fill="#A24E3F"/>
<path d="M144.587 65.2723C145.71 67.1465 146.682 68.91 147.655 70.7684C148.628 72.6268 149.513 74.501 150.36 76.4464C151.238 78.4205 151.996 80.4461 152.629 82.512C152.949 83.6156 153.213 84.7347 153.42 85.865C153.669 87.149 153.778 88.4563 153.744 89.7637V89.8824C153.737 90.1092 153.705 90.3345 153.649 90.5546C153.309 91.8377 152.845 93.085 152.265 94.2793C151.728 95.3943 151.15 96.4303 150.549 97.4425C149.36 99.3772 148.075 101.251 146.698 103.057C145.346 104.829 143.922 106.521 142.467 108.166C141.724 108.957 140.981 109.787 140.221 110.586L139.075 111.772L138.489 112.365C138.308 112.579 138.086 112.737 137.477 112.579C136.731 112.388 136.036 112.034 135.444 111.541C134.852 111.049 134.377 110.431 134.053 109.732L133.808 109.194C133.555 108.64 133.697 108.403 133.871 108.221L134.354 107.612L135.318 106.379C135.951 105.551 136.576 104.713 137.193 103.864C138.442 102.203 139.644 100.503 140.799 98.8027C141.94 97.1441 142.995 95.4284 143.962 93.6624C144.836 92.1343 145.501 90.4959 145.939 88.791L145.844 89.5818C145.711 88.0359 145.354 86.5174 144.784 85.0742C144.183 83.3977 143.432 81.6895 142.618 79.9814C141.803 78.2732 140.894 76.5888 139.96 74.9044C139.027 73.2199 138.031 71.5197 137.05 69.9776V69.9302C136.421 68.9402 136.211 67.7408 136.466 66.5959C136.721 65.451 137.42 64.4543 138.41 63.8251C139.4 63.1959 140.6 62.9857 141.745 63.2408C142.89 63.4959 143.886 64.1953 144.515 65.1853L144.587 65.2723Z" fill="#263238"/>
<path opacity="0.2" d="M142.325 89.653C136.916 84.4495 134.1 74.0028 134.1 74.0028C134.559 70.0488 137.098 65.1774 140.356 61.9667L140.973 69.084L141.692 77.6406L142.325 89.653Z" fill="black"/>
<path d="M139.984 57.546C143.646 58.6215 151.411 75.9641 151.411 75.9641L140.538 83.9196L134.1 74.0028C134.1 74.0028 132.321 66.6404 134.1 62.1406C134.537 60.8909 135.324 59.7931 136.367 58.9783C137.41 58.1636 138.666 57.6664 139.984 57.546Z" fill="#F15F42"/>
<path opacity="0.4" d="M139.984 57.546C143.646 58.6215 151.411 75.9641 151.411 75.9641L140.538 83.9196L134.1 74.0028C134.1 74.0028 132.321 66.6404 134.1 62.1406C134.537 60.8909 135.324 59.7931 136.367 58.9783C137.41 58.1636 138.666 57.6664 139.984 57.546Z" fill="white"/>
<path d="M84.6826 68.7518L84.3425 62.5914L90.669 65.1932C90.669 65.1932 90.669 70.7289 87.7984 70.5865L84.6826 68.7518Z" fill="#EBB376"/>
<path d="M87.229 57.1981L91.9106 61.2866L90.6769 65.2011L84.3425 62.5914L87.229 57.1981Z" fill="#EBB376"/>
<path d="M133.31 106.181C133.31 106.181 138.055 109.431 139.391 114.216L133.31 122.298C133.31 122.298 128.383 112.033 133.31 106.181Z" fill="#263238"/>
<path opacity="0.2" d="M133.31 106.181C133.31 106.181 138.055 109.431 139.391 114.216L133.31 122.298C133.31 122.298 128.383 112.033 133.31 106.181Z" fill="white"/>
</svg>
