<svg width="241" height="241" viewBox="0 0 241 241" fill="none" xmlns="http://www.w3.org/2000/svg">
<rect width="169" height="169" rx="84.5" fill="#F2F2F2"/>
<path d="M161.436 151.946H231.779V149.295H161.436V151.946Z" stroke="#263238" stroke-width="0.482" stroke-linecap="round" stroke-linejoin="round"/>
<path d="M164.699 223.648H228.516V152.023H164.699V223.648Z" stroke="#263238" stroke-width="0.482" stroke-linecap="round" stroke-linejoin="round"/>
<path d="M166.999 170.898H226.299V155.358H166.999V170.898Z" stroke="#263238" stroke-width="0.482" stroke-linecap="round" stroke-linejoin="round"/>
<path d="M193.783 164.555H199.712V161.692H193.783V164.555Z" fill="#263238" stroke="#263238" stroke-width="0.482" stroke-linecap="round" stroke-linejoin="round"/>
<path d="M166.999 190.53H226.299V174.99H166.999V190.53Z" stroke="#263238" stroke-width="0.482" stroke-linecap="round" stroke-linejoin="round"/>
<path d="M193.783 184.191H199.712V181.328H193.783V184.191Z" fill="#263238" stroke="#263238" stroke-width="0.482" stroke-linecap="round" stroke-linejoin="round"/>
<path d="M166.999 210.248H226.299V194.709H166.999V210.248Z" stroke="#263238" stroke-width="0.482" stroke-linecap="round" stroke-linejoin="round"/>
<path d="M193.783 203.91H199.712V201.047H193.783V203.91Z" fill="#263238" stroke="#263238" stroke-width="0.482" stroke-linecap="round" stroke-linejoin="round"/>
<path d="M199.548 117.96C200.266 118.273 202.026 118.235 202.026 118.235C202.026 118.235 201.65 117.083 201.616 117.01C201.23 116.205 200.011 114.87 199.018 115.005C198.852 115.031 198.694 115.092 198.554 115.183C198.414 115.274 198.294 115.394 198.203 115.534C198.112 115.675 198.052 115.833 198.026 115.999C198 116.164 198.01 116.333 198.054 116.495C198.183 116.832 198.383 117.138 198.641 117.391C198.899 117.644 199.208 117.838 199.548 117.96Z" fill="#263238"/>
<path d="M217.319 118.345C217.319 118.345 217.637 117.179 217.647 117.102C217.772 116.215 217.488 114.432 216.587 113.993C216.434 113.925 216.269 113.889 216.102 113.889C215.935 113.889 215.77 113.925 215.618 113.993C215.465 114.061 215.329 114.161 215.218 114.286C215.106 114.41 215.023 114.557 214.972 114.716C214.892 115.067 214.889 115.432 214.963 115.785C215.037 116.138 215.186 116.47 215.401 116.76C215.83 117.406 217.315 118.345 217.319 118.345Z" fill="#263238"/>
<path d="M222.568 111.973C221.571 111.867 220.385 113.231 220.023 114.046C219.99 114.118 219.628 115.28 219.647 115.28C219.459 115.492 219.257 115.723 219.045 115.984C218.655 116.466 218.221 117.005 217.787 117.632C217.311 118.298 216.874 118.992 216.481 119.71C216.032 120.513 215.658 121.355 215.362 122.226C215.362 122.226 215.362 122.226 215.362 122.254C215.362 121.96 215.362 121.141 215.362 121.078C215.247 120.192 214.504 118.543 213.516 118.36C213.352 118.335 213.184 118.344 213.024 118.388C212.863 118.432 212.714 118.51 212.585 118.615C212.456 118.72 212.351 118.852 212.277 119.001C212.202 119.149 212.16 119.312 212.152 119.478C212.169 119.839 212.263 120.192 212.43 120.512C212.596 120.833 212.831 121.113 213.116 121.334C213.68 121.816 215.237 122.322 215.362 122.361C215.085 123.252 214.864 124.16 214.702 125.079C214.611 125.619 214.529 126.159 214.456 126.703C214.456 126.453 214.456 126.221 214.456 126.192C214.341 125.306 213.598 123.657 212.615 123.479C212.451 123.452 212.282 123.46 212.121 123.504C211.96 123.547 211.81 123.623 211.681 123.728C211.551 123.833 211.446 123.965 211.371 124.114C211.296 124.263 211.254 124.426 211.246 124.592C211.262 124.953 211.357 125.306 211.523 125.626C211.69 125.947 211.924 126.227 212.21 126.448C212.881 126.892 213.615 127.23 214.389 127.45C214.365 127.663 214.336 127.87 214.312 128.082C214.191 129.084 214.076 130.092 213.931 131.07C213.883 131.417 213.82 131.755 213.757 132.097C213.757 131.87 213.757 131.678 213.757 131.649C213.642 130.762 212.899 129.118 211.911 128.935C211.747 128.909 211.579 128.918 211.419 128.961C211.258 129.005 211.109 129.081 210.98 129.187C210.851 129.292 210.746 129.423 210.672 129.571C210.597 129.72 210.555 129.882 210.547 130.048C210.563 130.409 210.658 130.762 210.824 131.083C210.991 131.403 211.225 131.684 211.511 131.904C212.162 132.334 212.876 132.66 213.627 132.868C213.555 133.215 213.483 133.562 213.396 133.895C213.328 134.116 213.285 134.338 213.208 134.56C213.131 134.782 213.063 135.003 212.996 135.22C212.846 135.635 212.692 136.064 212.514 136.464C212.408 136.739 212.302 137.004 212.196 137.269C212.249 136.927 212.34 136.252 212.34 136.194C212.329 135.406 212.117 134.635 211.723 133.953C211.732 133.768 211.699 133.584 211.627 133.414C211.555 133.244 211.445 133.092 211.306 132.97C211.167 132.848 211.002 132.76 210.824 132.71C210.646 132.661 210.459 132.652 210.277 132.685C209.313 132.945 208.696 134.642 208.648 135.538C208.648 135.591 208.682 136.165 208.711 136.526C208.658 136.319 208.614 136.112 208.561 135.895C208.46 135.466 208.345 135.042 208.224 134.589C208.161 134.367 208.094 134.145 208.026 133.924C207.959 133.702 207.867 133.475 207.79 133.249C207.602 132.724 207.381 132.203 207.149 131.682C207.932 131.518 208.684 131.236 209.381 130.844C209.681 130.645 209.934 130.382 210.122 130.075C210.31 129.768 210.429 129.423 210.47 129.065C210.475 128.899 210.444 128.733 210.381 128.579C210.317 128.425 210.221 128.286 210.1 128.171C209.979 128.057 209.836 127.969 209.678 127.914C209.521 127.858 209.354 127.837 209.188 127.85C208.19 127.961 207.328 129.547 207.149 130.424C207.149 130.477 207.077 131.123 207.053 131.475C206.908 131.162 206.768 130.853 206.614 130.54C206.171 129.644 205.689 128.752 205.216 127.855C205.072 127.585 204.932 127.311 204.787 127.036C204.922 127.002 206.508 126.636 207.101 126.178C207.401 125.979 207.654 125.716 207.842 125.409C208.03 125.102 208.149 124.757 208.19 124.399C208.195 124.233 208.164 124.067 208.101 123.913C208.037 123.759 207.941 123.62 207.821 123.506C207.7 123.391 207.556 123.303 207.399 123.248C207.241 123.193 207.074 123.171 206.908 123.185C205.915 123.296 205.048 124.881 204.869 125.759C204.869 125.821 204.773 126.747 204.763 126.983C204.45 126.38 204.141 125.778 203.862 125.166C203.486 124.346 203.164 123.502 202.898 122.64C202.961 122.64 204.619 122.25 205.226 121.782C205.526 121.583 205.779 121.321 205.967 121.013C206.156 120.706 206.274 120.361 206.315 120.004C206.32 119.837 206.289 119.671 206.226 119.517C206.162 119.363 206.066 119.224 205.946 119.11C205.825 118.995 205.681 118.907 205.524 118.852C205.366 118.797 205.199 118.775 205.033 118.789C204.04 118.9 203.173 120.486 202.994 121.358C202.994 121.416 202.917 122.124 202.893 122.462H202.84C202.589 121.587 202.417 120.692 202.329 119.787C202.271 119.305 202.247 118.823 202.233 118.341C203.042 118.266 203.835 118.067 204.585 117.753C204.905 117.586 205.185 117.352 205.406 117.067C205.627 116.781 205.782 116.451 205.862 116.099C205.885 115.934 205.872 115.767 205.825 115.607C205.779 115.447 205.699 115.299 205.591 115.172C205.483 115.045 205.35 114.943 205.2 114.871C205.05 114.799 204.886 114.759 204.72 114.755C203.717 114.755 202.686 116.234 202.411 117.087C202.411 117.131 202.295 117.618 202.228 117.974C202.228 117.767 202.228 117.55 202.228 117.348C202.228 116.586 202.276 115.902 202.324 115.28C202.353 114.933 202.387 114.615 202.421 114.316C203.101 113.878 203.711 113.338 204.228 112.716C204.436 112.421 204.576 112.085 204.641 111.73C204.705 111.375 204.691 111.011 204.599 110.662C204.543 110.506 204.454 110.363 204.339 110.243C204.224 110.123 204.085 110.028 203.931 109.965C203.777 109.902 203.612 109.871 203.445 109.876C203.279 109.881 203.115 109.921 202.965 109.992C202.079 110.474 201.842 112.243 202.001 113.125C202.001 113.203 202.348 114.374 202.363 114.364C202.324 114.649 202.286 114.952 202.247 115.285C202.189 115.897 202.127 116.591 202.107 117.353C202.08 118.172 202.099 118.993 202.165 119.811C202.236 120.725 202.388 121.632 202.618 122.52V122.553C202.459 122.303 201.997 121.628 201.953 121.589C201.37 120.915 199.837 119.951 198.917 120.341C198.766 120.41 198.631 120.511 198.521 120.635C198.411 120.76 198.329 120.906 198.279 121.065C198.23 121.224 198.214 121.391 198.234 121.556C198.253 121.721 198.307 121.88 198.391 122.023C198.601 122.316 198.873 122.559 199.187 122.737C199.5 122.914 199.849 123.021 200.208 123.05C200.955 123.156 202.522 122.703 202.647 122.664C202.911 123.563 203.233 124.444 203.611 125.301C203.828 125.783 204.06 126.294 204.301 126.79L204.007 126.371C203.418 125.691 201.891 124.732 200.97 125.122C200.818 125.191 200.683 125.291 200.573 125.416C200.463 125.54 200.38 125.687 200.33 125.846C200.281 126.005 200.265 126.172 200.285 126.337C200.305 126.503 200.359 126.662 200.445 126.805C200.655 127.097 200.926 127.341 201.24 127.518C201.554 127.695 201.902 127.802 202.262 127.831C203.066 127.831 203.866 127.707 204.633 127.465C204.73 127.653 204.821 127.846 204.913 128.034C205.395 128.94 205.824 129.841 206.248 130.738C206.397 131.051 206.532 131.369 206.667 131.702C206.542 131.514 206.431 131.359 206.412 131.335C205.828 130.661 204.296 129.697 203.375 130.087C203.224 130.157 203.089 130.258 202.979 130.383C202.87 130.508 202.787 130.655 202.738 130.814C202.688 130.973 202.673 131.14 202.692 131.306C202.711 131.471 202.765 131.631 202.85 131.774C203.061 132.065 203.333 132.308 203.646 132.484C203.96 132.66 204.308 132.767 204.667 132.796C205.45 132.799 206.228 132.681 206.976 132.449C207.106 132.777 207.236 133.104 207.347 133.413C207.414 133.634 207.501 133.847 207.559 134.073L207.747 134.738C207.848 135.167 207.954 135.606 208.046 136.03C208.108 136.319 208.166 136.599 208.224 136.878C208.079 136.565 207.785 135.948 207.742 135.914C207.26 135.158 205.901 133.986 204.932 134.223C204.772 134.269 204.624 134.348 204.496 134.455C204.369 134.561 204.265 134.694 204.192 134.843C204.119 134.993 204.078 135.156 204.072 135.322C204.066 135.488 204.094 135.654 204.156 135.808C204.32 136.129 204.552 136.41 204.836 136.633C205.12 136.855 205.449 137.013 205.8 137.095C206.613 137.22 207.44 137.22 208.253 137.095C208.349 137.577 208.436 138.016 208.508 138.445C208.672 139.385 208.798 140.228 208.894 140.946H204.946V149.246H215.329V140.932H211.314C211.574 140.354 211.858 139.698 212.157 138.97C212.34 138.522 212.528 138.04 212.716 137.548C212.904 137.587 214.447 137.9 215.165 137.736C215.52 137.681 215.859 137.549 216.158 137.349C216.457 137.149 216.708 136.887 216.895 136.58C216.97 136.431 217.012 136.268 217.019 136.101C217.027 135.935 216.999 135.769 216.937 135.614C216.876 135.459 216.782 135.319 216.663 135.203C216.544 135.087 216.401 134.998 216.245 134.941C215.281 134.618 213.835 135.697 213.314 136.42C213.28 136.459 212.991 136.96 212.832 137.278C212.909 137.076 212.986 136.878 213.058 136.671C213.213 136.257 213.353 135.837 213.502 135.394C213.569 135.172 213.632 134.95 213.7 134.729C213.767 134.507 213.82 134.247 213.878 134.035C214.008 133.49 214.114 132.936 214.206 132.372C214.947 132.67 215.731 132.851 216.529 132.907C216.889 132.907 217.245 132.828 217.572 132.676C217.898 132.523 218.187 132.301 218.418 132.025C218.514 131.888 218.581 131.734 218.613 131.57C218.645 131.407 218.642 131.238 218.605 131.076C218.568 130.914 218.496 130.761 218.396 130.628C218.296 130.495 218.169 130.384 218.023 130.304C217.131 129.846 215.536 130.694 214.9 131.326C214.861 131.364 214.456 131.866 214.239 132.15C214.292 131.808 214.345 131.47 214.389 131.128C214.514 130.135 214.606 129.123 214.707 128.12C214.736 127.812 214.77 127.503 214.803 127.195C214.929 127.243 216.457 127.812 217.213 127.759C217.878 127.711 218.717 127.47 219.103 126.877C219.198 126.74 219.263 126.585 219.294 126.422C219.326 126.258 219.323 126.09 219.285 125.928C219.247 125.765 219.176 125.613 219.076 125.48C218.975 125.347 218.848 125.237 218.703 125.156C217.816 124.674 216.216 125.542 215.584 126.173C215.536 126.221 214.953 126.949 214.818 127.137C214.89 126.458 214.967 125.783 215.068 125.122C215.204 124.229 215.397 123.345 215.647 122.476C215.705 122.476 217.295 123.098 218.057 123.045C218.417 123.044 218.773 122.965 219.099 122.812C219.425 122.66 219.714 122.438 219.946 122.163C220.042 122.027 220.108 121.872 220.141 121.708C220.173 121.545 220.17 121.377 220.133 121.214C220.095 121.052 220.024 120.899 219.924 120.766C219.824 120.633 219.697 120.523 219.551 120.442C218.659 119.984 217.064 120.828 216.428 121.459C216.384 121.503 215.946 122.057 215.738 122.322H215.69C215.964 121.454 216.316 120.611 216.741 119.806C216.968 119.362 217.223 118.948 217.454 118.553C218.172 118.935 218.944 119.206 219.744 119.358C220.102 119.395 220.465 119.354 220.806 119.237C221.147 119.121 221.459 118.932 221.72 118.683C221.83 118.558 221.912 118.411 221.961 118.253C222.01 118.094 222.025 117.927 222.006 117.762C221.986 117.597 221.932 117.438 221.847 117.295C221.762 117.152 221.648 117.029 221.513 116.933C220.674 116.379 218.997 117.044 218.298 117.603C218.259 117.632 217.907 117.984 217.652 118.244C217.768 118.066 217.878 117.878 217.994 117.714C218.409 117.083 218.833 116.528 219.214 116.041C219.431 115.767 219.633 115.526 219.821 115.299C220.637 115.307 221.449 115.191 222.231 114.957C222.567 114.827 222.871 114.625 223.121 114.365C223.37 114.106 223.56 113.794 223.677 113.453C223.722 113.281 223.728 113.101 223.694 112.927C223.659 112.752 223.586 112.588 223.48 112.446C223.373 112.304 223.236 112.187 223.078 112.105C222.92 112.024 222.746 111.978 222.568 111.973ZM211.535 138.739C211.179 139.568 210.832 140.305 210.533 140.932H209.477C209.366 140.19 209.217 139.308 208.995 138.32C208.904 137.838 208.793 137.356 208.677 136.83C209.145 136.64 209.602 136.424 210.046 136.184C210.651 136.703 211.324 137.136 212.046 137.471C211.892 137.91 211.714 138.334 211.535 138.739Z" fill="#263238"/>
<path d="M13.7225 152.775L19.3137 206.339" stroke="#263238" stroke-width="0.964" stroke-miterlimit="10"/>
<path d="M18.4124 196.087L15.8771 193.412" stroke="#263238" stroke-width="0.964" stroke-miterlimit="10"/>
<path d="M16.6483 194.212C16.642 193.803 16.549 193.4 16.3753 193.029C16.2017 192.659 15.9513 192.329 15.6409 192.063C14.9902 191.484 11.5632 190.043 11.2402 191.248C10.8884 192.559 14.3925 195.133 16.6483 194.212Z" fill="#F15F42" stroke="#263238" stroke-width="0.482" stroke-miterlimit="10"/>
<path d="M16.6483 194.212L13.39 192.183" stroke="#263238" stroke-width="0.241" stroke-miterlimit="10"/>
<path d="M19.0486 202.18L16.5133 199.505" stroke="#263238" stroke-width="0.964" stroke-miterlimit="10"/>
<path d="M17.2845 200.305C17.2783 199.896 17.1852 199.492 17.0116 199.122C16.8379 198.751 16.5876 198.422 16.2771 198.155C15.6264 197.577 12.1994 196.135 11.8765 197.34C11.5246 198.651 15.0288 201.225 17.2845 200.305Z" fill="#F15F42" stroke="#263238" stroke-width="0.482" stroke-miterlimit="10"/>
<path d="M17.2845 200.305L14.0262 198.276" stroke="#263238" stroke-width="0.241" stroke-miterlimit="10"/>
<path d="M16.8604 181.222L14.325 178.547" stroke="#263238" stroke-width="0.964" stroke-miterlimit="10"/>
<path d="M15.0962 179.347C15.09 178.938 14.997 178.535 14.8233 178.164C14.6496 177.794 14.3993 177.464 14.0889 177.198C13.4382 176.614 10.0111 175.178 9.68819 176.383C9.33633 177.694 12.8405 180.268 15.0962 179.347Z" fill="#F15F42" stroke="#263238" stroke-width="0.482" stroke-miterlimit="10"/>
<path d="M15.0962 179.347L11.8379 177.318" stroke="#263238" stroke-width="0.241" stroke-miterlimit="10"/>
<path d="M17.4966 187.315L14.9613 184.64" stroke="#263238" stroke-width="0.964" stroke-miterlimit="10"/>
<path d="M15.7325 185.44C15.7262 185.031 15.6332 184.627 15.4595 184.257C15.2859 183.886 15.0355 183.557 14.7251 183.29C14.0744 182.707 10.6474 181.271 10.3244 182.476C9.97256 183.787 13.496 186.36 15.7325 185.44Z" fill="#F15F42" stroke="#263238" stroke-width="0.482" stroke-miterlimit="10"/>
<path d="M15.7325 185.44L12.4742 183.411" stroke="#263238" stroke-width="0.241" stroke-miterlimit="10"/>
<path d="M15.8289 171.327L13.2935 168.647" stroke="#263238" stroke-width="0.964" stroke-miterlimit="10"/>
<path d="M14.0647 169.452C14.0598 169.042 13.9668 168.638 13.7922 168.267C13.6176 167.896 13.3653 167.567 13.0525 167.302C12.4018 166.719 8.97964 165.283 8.6567 166.488C8.30484 167.799 11.809 170.373 14.0647 169.452Z" fill="#F15F42" stroke="#263238" stroke-width="0.482" stroke-miterlimit="10"/>
<path d="M14.0647 169.452L10.8064 167.423" stroke="#263238" stroke-width="0.241" stroke-miterlimit="10"/>
<path d="M14.7926 161.388L12.2573 158.708" stroke="#263238" stroke-width="0.964" stroke-miterlimit="10"/>
<path d="M13.014 159.513C13.009 159.103 12.9161 158.699 12.7414 158.328C12.5668 157.957 12.3146 157.628 12.0018 157.363C11.3511 156.78 7.92889 155.339 7.60595 156.549C7.26373 157.86 10.7679 160.434 13.014 159.513Z" fill="#F15F42" stroke="#263238" stroke-width="0.482" stroke-miterlimit="10"/>
<path d="M13.0285 159.513L9.76532 157.479" stroke="#263238" stroke-width="0.241" stroke-miterlimit="10"/>
<path d="M17.9882 192.482L19.9114 189.339" stroke="#263238" stroke-width="0.964" stroke-miterlimit="10"/>
<path d="M19.3234 190.284C19.2465 189.883 19.2553 189.471 19.3491 189.074C19.443 188.677 19.6199 188.304 19.868 187.98C20.3838 187.276 23.4348 185.16 24.0036 186.274C24.6206 187.498 21.7237 190.723 19.3234 190.284Z" fill="#F15F42" stroke="#263238" stroke-width="0.482" stroke-miterlimit="10"/>
<path d="M19.3234 190.284L22.2587 187.479" stroke="#263238" stroke-width="0.241" stroke-miterlimit="10"/>
<path d="M16.3109 176.451L18.2389 173.308" stroke="#263238" stroke-width="0.964" stroke-miterlimit="10"/>
<path d="M17.6508 174.253C17.5733 173.851 17.5817 173.438 17.6756 173.04C17.7694 172.642 17.9467 172.268 18.1955 171.944C18.7112 171.24 21.7623 169.124 22.3311 170.238C22.948 171.447 20.0512 174.691 17.6508 174.253Z" fill="#F15F42" stroke="#263238" stroke-width="0.482" stroke-miterlimit="10"/>
<path d="M17.6508 174.253L20.5862 171.447" stroke="#263238" stroke-width="0.241" stroke-miterlimit="10"/>
<path d="M15.5782 169.409L17.5062 166.266" stroke="#263238" stroke-width="0.964" stroke-miterlimit="10"/>
<path d="M16.9182 167.211C16.8392 166.809 16.8465 166.395 16.9396 165.996C17.0326 165.597 17.2094 165.222 17.458 164.897C17.9786 164.193 21.0297 162.077 21.5936 163.191C22.2106 164.401 19.3137 167.644 16.9182 167.211Z" fill="#F15F42" stroke="#263238" stroke-width="0.482" stroke-miterlimit="10"/>
<path d="M16.9182 167.211L19.8536 164.405" stroke="#263238" stroke-width="0.241" stroke-miterlimit="10"/>
<path d="M14.4986 159.079L16.4266 155.937" stroke="#263238" stroke-width="0.964" stroke-miterlimit="10"/>
<path d="M15.8385 156.881C15.7602 156.479 15.7683 156.065 15.8622 155.666C15.9561 155.267 16.1337 154.893 16.3832 154.568C16.8989 153.864 19.95 151.748 20.5187 152.861C21.1357 154.071 18.2389 157.315 15.8385 156.881Z" fill="#F15F42" stroke="#263238" stroke-width="0.482" stroke-miterlimit="10"/>
<path d="M15.8385 156.881L18.7739 154.076" stroke="#263238" stroke-width="0.241" stroke-miterlimit="10"/>
<path d="M13.6743 152.476C13.596 152.074 13.6041 151.659 13.698 151.261C13.7919 150.862 13.9695 150.487 14.219 150.162C14.7347 149.459 17.7858 147.343 18.3545 148.456C18.9715 149.666 16.0747 152.91 13.6743 152.476Z" fill="#F15F42" stroke="#263238" stroke-width="0.482" stroke-miterlimit="10"/>
<path d="M13.6743 152.476L16.6097 149.671" stroke="#263238" stroke-width="0.241" stroke-miterlimit="10"/>
<path d="M13.8478 152.596C13.4406 152.635 13.0297 152.586 12.6426 152.454C12.2554 152.322 11.9006 152.109 11.6017 151.83C10.9607 151.242 9.19173 147.974 10.3389 147.535C11.6066 147.034 14.5323 150.259 13.8478 152.596Z" fill="#F15F42" stroke="#263238" stroke-width="0.482" stroke-miterlimit="10"/>
<path d="M13.8478 152.596L11.3655 149.381" stroke="#263238" stroke-width="0.241" stroke-miterlimit="10"/>
<path d="M28.4669 160.149L22.9095 213.719" stroke="#263238" stroke-width="0.964" stroke-miterlimit="10"/>
<path d="M24.1385 203.5L22.2105 200.363" stroke="#263238" stroke-width="0.964" stroke-miterlimit="10"/>
<path d="M22.7986 201.302C22.8762 200.901 22.8678 200.488 22.7739 200.09C22.68 199.692 22.5028 199.318 22.2539 198.994C21.7334 198.29 18.6823 196.179 18.1135 197.287C17.5014 198.502 20.3982 201.741 22.7986 201.302Z" fill="#F15F42" stroke="#263238" stroke-width="0.482" stroke-miterlimit="10"/>
<path d="M22.7986 201.302L20.0271 198.647" stroke="#263238" stroke-width="0.241" stroke-miterlimit="10"/>
<path d="M25.681 188.636L23.753 185.493" stroke="#263238" stroke-width="0.964" stroke-miterlimit="10"/>
<path d="M24.341 186.438C24.4193 186.035 24.4112 185.621 24.3173 185.222C24.2234 184.823 24.0459 184.449 23.7963 184.124C23.2806 183.42 20.2247 181.304 19.6608 182.418C19.0438 183.642 21.9406 186.876 24.341 186.438Z" fill="#F15F42" stroke="#263238" stroke-width="0.482" stroke-miterlimit="10"/>
<path d="M24.341 186.438L21.5695 183.777" stroke="#263238" stroke-width="0.241" stroke-miterlimit="10"/>
<path d="M25.0495 194.728L23.1215 191.585" stroke="#263238" stroke-width="0.964" stroke-miterlimit="10"/>
<path d="M23.7096 192.53C23.7872 192.129 23.7787 191.715 23.6849 191.317C23.591 190.919 23.4138 190.546 23.1649 190.221C22.6443 189.518 19.5933 187.402 19.0245 188.515C18.4124 189.725 21.3092 192.969 23.7096 192.53Z" fill="#F15F42" stroke="#263238" stroke-width="0.482" stroke-miterlimit="10"/>
<path d="M23.7096 192.53L20.9381 189.869" stroke="#263238" stroke-width="0.241" stroke-miterlimit="10"/>
<path d="M26.7076 178.74L24.7796 175.597" stroke="#263238" stroke-width="0.964" stroke-miterlimit="10"/>
<path d="M25.3676 176.542C25.446 176.14 25.4379 175.726 25.344 175.327C25.2501 174.928 25.0725 174.554 24.823 174.229C24.3072 173.53 21.2514 171.414 20.6874 172.527C20.0705 173.737 22.9673 176.981 25.3676 176.542Z" fill="#F15F42" stroke="#263238" stroke-width="0.482" stroke-miterlimit="10"/>
<path d="M25.3677 176.542L22.5962 173.882" stroke="#263238" stroke-width="0.241" stroke-miterlimit="10"/>
<path d="M27.7391 168.801L25.8111 165.659" stroke="#263238" stroke-width="0.964" stroke-miterlimit="10"/>
<path d="M26.3991 166.603C26.4774 166.201 26.4694 165.787 26.3755 165.388C26.2816 164.989 26.104 164.615 25.8545 164.29C25.3387 163.586 22.2829 161.475 21.7189 162.588C21.102 163.798 23.9988 167.037 26.3991 166.603Z" fill="#F15F42" stroke="#263238" stroke-width="0.482" stroke-miterlimit="10"/>
<path d="M26.3991 166.603L23.6276 163.943" stroke="#263238" stroke-width="0.241" stroke-miterlimit="10"/>
<path d="M24.4615 199.885L26.9968 197.21" stroke="#263238" stroke-width="0.964" stroke-miterlimit="10"/>
<path d="M26.2256 198.01C26.2319 197.601 26.3249 197.198 26.4986 196.827C26.6722 196.457 26.9225 196.127 27.233 195.861C27.8837 195.282 31.3059 193.836 31.6337 195.041C31.9855 196.352 28.4814 198.931 26.2256 198.01Z" fill="#F15F42" stroke="#263238" stroke-width="0.482" stroke-miterlimit="10"/>
<path d="M26.2256 198.01L29.6767 195.87" stroke="#263238" stroke-width="0.241" stroke-miterlimit="10"/>
<path d="M26.1244 183.854L28.6597 181.179" stroke="#263238" stroke-width="0.964" stroke-miterlimit="10"/>
<path d="M27.8885 181.979C27.8978 181.568 27.9945 181.164 28.1724 180.793C28.3503 180.422 28.6051 180.094 28.92 179.829C29.5707 179.246 32.9929 177.805 33.3207 179.01C33.6484 180.321 30.1491 182.9 27.8885 181.979Z" fill="#F15F42" stroke="#263238" stroke-width="0.482" stroke-miterlimit="10"/>
<path d="M27.8885 181.979L31.3396 179.839" stroke="#263238" stroke-width="0.241" stroke-miterlimit="10"/>
<path d="M26.857 176.807L29.3923 174.132" stroke="#263238" stroke-width="0.964" stroke-miterlimit="10"/>
<path d="M28.6212 174.932C28.6274 174.523 28.7204 174.12 28.8941 173.749C29.0677 173.379 29.3181 173.049 29.6285 172.783C30.2792 172.204 33.7014 170.758 34.0244 171.963C34.3811 173.279 30.8769 175.853 28.6212 174.932Z" fill="#F15F42" stroke="#263238" stroke-width="0.482" stroke-miterlimit="10"/>
<path d="M28.6212 174.932L32.0723 172.792" stroke="#263238" stroke-width="0.241" stroke-miterlimit="10"/>
<path d="M27.9271 166.483L30.4624 163.803" stroke="#263238" stroke-width="0.964" stroke-miterlimit="10"/>
<path d="M29.6912 164.603C29.6947 164.191 29.7864 163.784 29.9602 163.409C30.1339 163.035 30.3857 162.703 30.6986 162.434C31.3493 161.856 34.7715 160.41 35.0992 161.619C35.4511 162.95 31.9518 165.524 29.6912 164.603Z" fill="#F15F42" stroke="#263238" stroke-width="0.482" stroke-miterlimit="10"/>
<path d="M29.6912 164.603L33.1423 162.463" stroke="#263238" stroke-width="0.241" stroke-miterlimit="10"/>
<path d="M28.4814 159.85C28.4876 159.441 28.5807 159.038 28.7543 158.667C28.928 158.297 29.1783 157.967 29.4888 157.701C30.1395 157.118 33.5617 155.676 33.8894 156.881C34.222 158.192 30.742 160.771 28.4814 159.85Z" fill="#F15F42" stroke="#263238" stroke-width="0.482" stroke-miterlimit="10"/>
<path d="M28.4814 159.85L31.9325 157.71" stroke="#263238" stroke-width="0.241" stroke-miterlimit="10"/>
<path d="M28.626 160.024C28.2191 159.977 27.827 159.844 27.4761 159.633C27.1252 159.421 26.8237 159.137 26.5919 158.8C26.081 158.091 25.0062 154.539 26.2401 154.341C27.58 154.1 29.778 157.855 28.626 160.024Z" fill="#F15F42" stroke="#263238" stroke-width="0.482" stroke-miterlimit="10"/>
<path d="M28.626 160L26.857 156.346" stroke="#263238" stroke-width="0.241" stroke-miterlimit="10"/>
<path d="M22.0949 138.334V206.079" stroke="#263238" stroke-width="0.964" stroke-miterlimit="10"/>
<path d="M22.1527 195.894L19.9066 192.969" stroke="#263238" stroke-width="0.964" stroke-miterlimit="10"/>
<path d="M20.591 193.846C20.6275 193.438 20.5768 193.026 20.4421 192.639C20.3075 192.252 20.0921 191.897 19.8102 191.6C19.2221 190.959 15.9542 189.19 15.5204 190.337C15.0336 191.6 18.2485 194.526 20.591 193.846Z" fill="#F15F42" stroke="#263238" stroke-width="0.482" stroke-miterlimit="10"/>
<path d="M20.591 193.846L17.5592 191.489" stroke="#263238" stroke-width="0.241" stroke-miterlimit="10"/>
<path d="M22.1527 183.16L19.9066 180.239" stroke="#263238" stroke-width="0.964" stroke-miterlimit="10"/>
<path d="M20.591 181.116C20.6275 180.708 20.5768 180.297 20.4421 179.909C20.3075 179.522 20.0921 179.168 19.8102 178.87C19.2221 178.224 15.9542 176.436 15.5204 177.603C15.0336 178.87 18.2485 181.796 20.591 181.116Z" fill="#F15F42" stroke="#263238" stroke-width="0.482" stroke-miterlimit="10"/>
<path d="M20.591 181.116L17.5592 178.755" stroke="#263238" stroke-width="0.241" stroke-miterlimit="10"/>
<path d="M22.1527 168.218L19.9066 165.292" stroke="#263238" stroke-width="0.964" stroke-miterlimit="10"/>
<path d="M20.591 166.17C20.6275 165.761 20.5768 165.35 20.4421 164.962C20.3075 164.575 20.0921 164.221 19.8102 163.923C19.2221 163.278 15.9542 161.513 15.5204 162.656C15.0336 163.923 18.2485 166.849 20.591 166.17Z" fill="#F15F42" stroke="#263238" stroke-width="0.482" stroke-miterlimit="10"/>
<path d="M20.591 166.169L17.5592 163.808" stroke="#263238" stroke-width="0.241" stroke-miterlimit="10"/>
<path d="M22.1527 158.265L19.9066 155.339" stroke="#263238" stroke-width="0.964" stroke-miterlimit="10"/>
<path d="M20.591 156.216C20.6268 155.809 20.5757 155.398 20.4411 155.012C20.3065 154.625 20.0915 154.272 19.8102 153.975C19.2221 153.329 15.9542 151.541 15.5204 152.707C15.0336 153.975 18.2485 156.901 20.591 156.216Z" fill="#F15F42" stroke="#263238" stroke-width="0.482" stroke-miterlimit="10"/>
<path d="M20.591 156.216L17.5592 153.859" stroke="#263238" stroke-width="0.241" stroke-miterlimit="10"/>
<path d="M22.1527 148.273L19.9066 145.347" stroke="#263238" stroke-width="0.964" stroke-miterlimit="10"/>
<path d="M20.591 146.224C20.6268 145.817 20.5757 145.406 20.4411 145.02C20.3065 144.634 20.0915 144.28 19.8102 143.983C19.2221 143.337 15.9542 141.549 15.5204 142.715C15.0336 143.983 18.2485 146.909 20.591 146.224Z" fill="#F15F42" stroke="#263238" stroke-width="0.482" stroke-miterlimit="10"/>
<path d="M20.591 146.224L17.5592 143.867" stroke="#263238" stroke-width="0.241" stroke-miterlimit="10"/>
<path d="M22.0997 199.779L24.3458 196.854" stroke="#263238" stroke-width="0.964" stroke-miterlimit="10"/>
<path d="M23.6614 197.731C23.6256 197.323 23.6767 196.913 23.8113 196.526C23.9459 196.14 24.1609 195.787 24.4422 195.49C25.0302 194.844 28.2982 193.055 28.732 194.222C29.2188 195.49 26.028 198.415 23.6614 197.731Z" fill="#F15F42" stroke="#263238" stroke-width="0.482" stroke-miterlimit="10"/>
<path d="M23.6614 197.731L26.8715 195.249" stroke="#263238" stroke-width="0.241" stroke-miterlimit="10"/>
<path d="M22.0997 179.531L24.3458 176.61" stroke="#263238" stroke-width="0.964" stroke-miterlimit="10"/>
<path d="M23.6614 177.487C23.6249 177.079 23.6756 176.667 23.8103 176.28C23.9449 175.893 24.1603 175.538 24.4422 175.241C25.0303 174.595 28.2982 172.831 28.732 173.973C29.2188 175.241 26.028 178.166 23.6614 177.487Z" fill="#F15F42" stroke="#263238" stroke-width="0.482" stroke-miterlimit="10"/>
<path d="M23.6614 177.487L26.8715 175" stroke="#263238" stroke-width="0.241" stroke-miterlimit="10"/>
<path d="M22.0997 169.539L24.3458 166.613" stroke="#263238" stroke-width="0.964" stroke-miterlimit="10"/>
<path d="M23.6614 167.49C23.6256 167.083 23.6767 166.672 23.8113 166.286C23.9459 165.899 24.1609 165.546 24.4422 165.249C25.0302 164.603 28.2982 162.839 28.732 163.981C29.2188 165.249 26.028 168.175 23.6614 167.49Z" fill="#F15F42" stroke="#263238" stroke-width="0.482" stroke-miterlimit="10"/>
<path d="M23.6614 167.49L26.8715 165.008" stroke="#263238" stroke-width="0.241" stroke-miterlimit="10"/>
<path d="M22.0997 156.332L24.3458 153.406" stroke="#263238" stroke-width="0.964" stroke-miterlimit="10"/>
<path d="M23.6614 154.283C23.6256 153.876 23.6767 153.465 23.8113 153.079C23.9459 152.693 24.1609 152.339 24.4422 152.042C25.0302 151.396 28.2982 149.608 28.732 150.774C29.2188 152.042 26.028 154.968 23.6614 154.283Z" fill="#F15F42" stroke="#263238" stroke-width="0.482" stroke-miterlimit="10"/>
<path d="M23.6614 154.283L26.8715 151.796" stroke="#263238" stroke-width="0.241" stroke-miterlimit="10"/>
<path d="M22.0997 145.945L24.3458 143.019" stroke="#263238" stroke-width="0.964" stroke-miterlimit="10"/>
<path d="M23.6614 143.901C23.6249 143.493 23.6756 143.081 23.8103 142.694C23.9449 142.307 24.1603 141.953 24.4422 141.655C25.0303 141.009 28.2982 139.221 28.732 140.387C29.2188 141.655 26.028 144.6 23.6614 143.901Z" fill="#F15F42" stroke="#263238" stroke-width="0.482" stroke-miterlimit="10"/>
<path d="M23.6614 143.901L26.8715 141.414" stroke="#263238" stroke-width="0.241" stroke-miterlimit="10"/>
<path d="M21.9695 139.298C21.9309 138.891 21.9802 138.48 22.1141 138.093C22.248 137.706 22.4633 137.353 22.7456 137.057C23.3336 136.411 26.6016 134.647 27.0402 135.789C27.527 137.052 24.3072 139.978 21.9695 139.298Z" fill="#F15F42" stroke="#263238" stroke-width="0.482" stroke-miterlimit="10"/>
<path d="M21.9695 139.293L25.1797 136.806" stroke="#263238" stroke-width="0.241" stroke-miterlimit="10"/>
<path d="M22.1238 139.433C21.7142 139.426 21.3108 139.332 20.9402 139.158C20.5696 138.983 20.2403 138.732 19.9741 138.421C19.3957 137.77 17.9593 134.343 19.1643 134.02C20.4753 133.668 23.0492 137.177 22.1238 139.433Z" fill="#F15F42" stroke="#263238" stroke-width="0.482" stroke-miterlimit="10"/>
<path d="M22.1238 139.433L19.9885 135.977" stroke="#263238" stroke-width="0.241" stroke-miterlimit="10"/>
<path d="M24.8857 223.648H17.7087L16.8122 205.53H25.7822L24.8857 223.648Z" fill="#263238" stroke="#263238" stroke-width="0.482" stroke-miterlimit="10"/>
<path d="M55.4686 84.9188H12.3681V16.3061H65.7304V84.9188H58.269" stroke="#263238" stroke-width="0.482" stroke-miterlimit="10"/>
<path d="M63.7975 18.7932H14.3058V82.4316H63.7975V18.7932Z" stroke="#263238" stroke-width="0.482" stroke-miterlimit="10"/>
<path d="M24.2205 36.2223C25.0964 37.0328 26.0326 37.7756 27.0209 38.4443C38.2178 46.0406 57.2086 42.4449 63.6047 53.2369" stroke="#263238" stroke-width="0.482" stroke-miterlimit="10"/>
<path d="M17.6267 19.0535C17.3585 21.8962 17.6817 24.7637 18.576 27.4755C19.4702 30.1872 20.9161 32.6845 22.8227 34.81" stroke="#263238" stroke-width="0.482" stroke-miterlimit="10"/>
<path d="M21.8683 54.1093C27.3294 51.2173 34.4003 49.1785 38.0202 55.0348C42.2184 61.8358 22.8227 73.8328 22.8227 82.422" stroke="#263238" stroke-width="0.482" stroke-miterlimit="10"/>
<path d="M14.4311 59.0354C16.3009 57.5246 18.2828 56.1582 20.3597 54.948" stroke="#263238" stroke-width="0.482" stroke-miterlimit="10"/>
<path d="M40.2181 19.0535C40.2181 19.0535 47.4144 30.2503 63.8072 27.2475" stroke="#263238" stroke-width="0.482" stroke-miterlimit="10"/>
<path d="M42.3678 30.0479C42.4009 30.3133 42.417 30.5805 42.416 30.848C42.4136 32.4569 41.8226 34.0093 40.7545 35.2125C39.6864 36.4157 38.2149 37.1865 36.6177 37.3796C35.0204 37.5726 33.4077 37.1746 32.0836 36.2605C30.7596 35.3464 29.8158 33.9795 29.4302 32.4175C29.0446 30.8555 29.2438 29.2063 29.9903 27.7811C30.7368 26.3559 31.979 25.253 33.4826 24.6805C34.9862 24.108 36.6473 24.1055 38.1527 24.6734C39.658 25.2412 40.9036 26.3403 41.6545 27.7632" stroke="#263238" stroke-width="0.482" stroke-miterlimit="10"/>
<path d="M58.804 39.7457C58.8012 40.3583 58.6168 40.9563 58.2743 41.4641C57.9318 41.972 57.4465 42.367 56.8797 42.5992C56.3128 42.8314 55.6899 42.8904 55.0895 42.7688C54.4892 42.6472 53.9383 42.3504 53.5065 41.916C53.0747 41.4815 52.7813 40.9288 52.6635 40.3276C52.5456 39.7265 52.6085 39.104 52.8442 38.5386C53.0799 37.9732 53.4779 37.4903 53.9879 37.151C54.4979 36.8117 55.097 36.6311 55.7096 36.632C56.1176 36.632 56.5215 36.7127 56.8982 36.8694C57.2749 37.0261 57.6169 37.2558 57.9045 37.5451C58.1921 37.8345 58.4197 38.1779 58.574 38.5556C58.7284 38.9333 58.8066 39.3377 58.804 39.7457Z" stroke="#263238" stroke-width="0.482" stroke-miterlimit="10"/>
<path d="M58.8474 60.6501C60.593 61.1041 62.2215 61.9258 63.624 63.0601" stroke="#263238" stroke-width="0.482" stroke-miterlimit="10"/>
<path d="M46.9757 82.4702C45.0772 80.7291 43.7486 78.4553 43.1637 75.9466C42.5789 73.4378 42.765 70.8109 43.6979 68.4098C44.6308 66.0086 46.2669 63.945 48.392 62.489C50.5171 61.0331 53.0323 60.2527 55.6084 60.25C55.859 60.25 56.0904 60.25 56.3458 60.25" stroke="#263238" stroke-width="0.482" stroke-miterlimit="10"/>
<path d="M155.204 223.648H231.842" stroke="#263238" stroke-width="0.482" stroke-miterlimit="10"/>
<path d="M7.71201 223.648H151.348" stroke="#263238" stroke-width="0.482" stroke-miterlimit="10"/>
<path d="M190.645 20.485H93.3634V200.7H190.645V20.485Z" fill="white"/>
<path d="M190.645 169.968H93.3634V200.7H190.645V169.968Z" fill="#DEDEDE"/>
<path d="M193.566 55.9409C193.885 55.9409 194.19 55.8145 194.415 55.5894C194.64 55.3643 194.767 55.059 194.767 54.7407V42.7245C194.767 42.4062 194.64 42.1009 194.415 41.8758C194.19 41.6507 193.885 41.5243 193.566 41.5243C193.491 41.5169 193.415 41.5169 193.34 41.5243V19.0679C193.34 17.0136 192.524 15.0435 191.071 13.5909C189.619 12.1382 187.648 11.3222 185.594 11.3222H100.208C99.1902 11.3215 98.1825 11.5214 97.2422 11.9104C96.3018 12.2994 95.4474 12.8698 94.7276 13.5891C94.0079 14.3085 93.4369 15.1626 93.0473 16.1026C92.6577 17.0427 92.4572 18.0503 92.4572 19.0679V200.44C92.4572 202.495 93.2738 204.467 94.7273 205.92C96.1808 207.374 98.1522 208.19 100.208 208.19H185.594C187.649 208.189 189.619 207.372 191.071 205.918C192.524 204.465 193.34 202.494 193.34 200.44V90.1003C193.415 90.1076 193.491 90.1076 193.566 90.1003C193.885 90.099 194.19 89.9715 194.415 89.7456C194.64 89.5198 194.767 89.214 194.767 88.8953V76.9031C194.767 76.5848 194.64 76.2795 194.415 76.0545C194.19 75.8294 193.885 75.7029 193.566 75.7029C193.49 75.7035 193.414 75.7116 193.34 75.727V73.0085C193.414 73.0239 193.49 73.032 193.566 73.0326C193.884 73.0314 194.189 72.9045 194.414 72.6797C194.638 72.4549 194.765 72.1504 194.767 71.8325V59.8114C194.765 59.4935 194.638 59.1889 194.414 58.9641C194.189 58.7393 193.884 58.6125 193.566 58.6112C193.49 58.6118 193.414 58.6199 193.34 58.6353V55.912C193.414 55.929 193.49 55.9387 193.566 55.9409ZM188.852 196.507H96.9447V24.688H188.852V196.507Z" fill="#263238"/>
<path d="M185.724 26.4714H178.104V30.6504H185.724V26.4714Z" stroke="#263238" stroke-width="0.395754" stroke-linecap="round" stroke-linejoin="round"/>
<path d="M184.047 26.4714H178.104V30.6504H184.047V26.4714Z" fill="#263238" stroke="#263238" stroke-width="0.349485" stroke-linecap="round" stroke-linejoin="round"/>
<path d="M186.785 27.6427H185.71V29.4839H186.785V27.6427Z" fill="#263238" stroke="#263238" stroke-width="0.349485" stroke-linecap="round" stroke-linejoin="round"/>
<path d="M100.41 27.768H99.0125V30.1636H100.41V27.768Z" fill="#263238" stroke="#263238" stroke-width="0.425647" stroke-linecap="round" stroke-linejoin="round"/>
<path d="M102.608 26.9293H101.21V30.1636H102.608V26.9293Z" fill="#263238" stroke="#263238" stroke-width="0.425647" stroke-linecap="round" stroke-linejoin="round"/>
<path d="M104.801 25.9316H103.403V30.1636H104.801V25.9316Z" fill="#263238" stroke="#263238" stroke-width="0.425647" stroke-linecap="round" stroke-linejoin="round"/>
<path d="M186.683 32.9736H98.4244V56.1675H186.683V32.9736Z" fill="#F15F42"/>
<path d="M120.731 36.3139V53.3429" stroke="white" stroke-width="0.482" stroke-miterlimit="10"/>
<path d="M143.221 36.3139V53.3429" stroke="white" stroke-width="0.482" stroke-miterlimit="10"/>
<path d="M165.716 36.3139V53.3429" stroke="white" stroke-width="0.482" stroke-miterlimit="10"/>
<path opacity="0.15" d="M192.545 90.1003C192.62 90.1076 192.696 90.1076 192.771 90.1003C193.09 90.099 193.395 89.9715 193.62 89.7456C193.845 89.5198 193.971 89.214 193.971 88.8953V84.591L188.057 95.0167V196.507H130.521L123.874 208.19H184.794C186.85 208.19 188.821 207.374 190.274 205.92C191.728 204.467 192.545 202.495 192.545 200.44V90.1003Z" fill="white"/>
<path d="M139.168 136.131V130.622H141.92V127.851H139.178C139.178 126.93 139.178 126.004 139.178 125.084H144.696V122.332H147.453V125.069H150.22V119.536H158.511V122.288H161.253V119.536H158.501V116.76H152.972V111.275H144.677V114.032H139.178V119.56H141.915V122.317H139.163V125.079H136.406V122.312H128.12V119.56H136.406V97.4459H139.178C139.178 100.107 139.178 102.767 139.178 105.428V105.727H141.939V100.217H144.692V105.736H147.468V108.489H161.282V111.246H164.049V114.027H161.296V116.798H164.039V122.332H166.811V127.855H164.068V133.369H166.772V136.131H172.291V138.888H164.039V144.407H161.282V141.65H155.739V138.888H152.982V136.131H158.482V133.369H144.701V136.117H139.168V136.131ZM155.739 127.841V125.093H152.996V127.836H155.749V130.588H161.253V127.841H155.739ZM150.206 127.841H147.492V130.574H150.225L150.206 127.841ZM155.753 113.993H158.486V111.255H155.753V113.993Z" fill="#263238"/>
<path d="M114.301 105.717V86.3985H133.615V105.717H114.301ZM117.073 89.17V102.96H130.858V89.17H117.073Z" fill="#263238"/>
<path d="M172.305 105.722H152.992V86.4081H172.305V105.722ZM169.548 89.17H155.763V102.955H169.548V89.17Z" fill="#263238"/>
<path d="M114.306 125.084H133.625V144.402H114.306V125.084ZM130.863 127.855H117.073V141.645H130.863V127.855Z" fill="#263238"/>
<path d="M139.163 97.4459V91.9174H136.406V86.4033H150.196V91.9078H147.492V94.6744H150.225V100.189H147.473V97.4459H144.696V94.6889H141.939V97.4363H139.158L139.163 97.4459ZM141.935 91.8981H144.672V89.17H141.935V91.8981Z" fill="#263238"/>
<path d="M128.106 111.255V114.017H133.625V116.774H125.349V122.298H114.311V116.803H117.044V119.536H122.587V111.255H128.111H128.106Z" fill="#263238"/>
<path d="M139.158 136.126V138.888H141.92V141.645H144.672V144.407H136.406V136.131H139.149L139.158 136.126Z" fill="#263238"/>
<path d="M122.587 111.255H117.063V114.007H114.311V108.513H122.577V111.26L122.587 111.255Z" fill="#263238"/>
<path d="M172.305 116.774H169.568V111.265H166.811V108.508H172.305V116.774Z" fill="#263238"/>
<path d="M128.111 111.265V108.513H133.62V111.255H128.106L128.111 111.265Z" fill="#263238"/>
<path d="M166.801 122.317V119.565H169.543V122.307H166.772L166.801 122.317Z" fill="#263238"/>
<path d="M169.572 125.089H172.305V127.826H169.572V125.089Z" fill="#263238"/>
<path d="M147.453 105.736V102.984H150.201V105.727H147.449L147.453 105.736Z" fill="#263238"/>
<path d="M139.168 130.622H136.406V127.865H139.149V130.622H139.168Z" fill="#263238"/>
<path d="M166.801 133.369V130.622H169.543V133.365H166.801V133.369Z" fill="#263238"/>
<path d="M164.029 114.027H166.772V116.784H164.029V114.012V114.027Z" fill="#263238"/>
<path d="M150.201 141.645H147.463V138.912H150.201V141.645Z" fill="#263238"/>
<path d="M155.739 141.65V144.402H152.996V141.66H155.749L155.739 141.65Z" fill="#263238"/>
<path d="M172.305 144.412H169.572V141.674H172.305V144.412Z" fill="#263238"/>
<path d="M150.22 119.536H147.492V116.793H150.239V119.536H150.22Z" fill="#263238"/>
<path d="M128.091 100.193H119.83V91.9319H128.091V100.193Z" fill="#263238"/>
<path d="M158.515 100.189V91.927H166.772V100.189H158.515Z" fill="#263238"/>
<path d="M119.83 138.879V130.622H128.091V138.883L119.83 138.879Z" fill="#263238"/>
<path d="M122.327 79.8529H110.229V93.1995" stroke="#F15F42" stroke-width="0.964" stroke-miterlimit="10"/>
<path d="M166.324 79.8529H178.417V93.1995" stroke="#F15F42" stroke-width="0.964" stroke-miterlimit="10"/>
<path d="M122.327 150.138H110.229V136.792" stroke="#F15F42" stroke-width="0.964" stroke-miterlimit="10"/>
<path d="M166.324 150.138H178.417V136.792" stroke="#F15F42" stroke-width="0.964" stroke-miterlimit="10"/>
</svg>
