<svg width="131" height="131" viewBox="0 0 131 131" fill="none" xmlns="http://www.w3.org/2000/svg">
<path d="M68.9609 20.3833L68.9059 20.4619L68.7566 20.6951C68.6989 20.8025 68.6361 20.9414 68.5653 21.1064C68.4977 21.3017 68.4468 21.5024 68.4134 21.7064C68.3347 22.2702 68.3758 22.8442 68.5339 23.3911C68.7428 24.1144 69.0928 24.7894 69.5635 25.377C70.1468 26.082 70.8579 26.6705 71.6595 27.1115C72.5668 27.6192 73.5078 28.0639 74.476 28.4424C76.4961 29.2625 78.7021 30.2948 80.6409 31.9139C81.573 32.7075 82.3857 33.6314 83.0539 34.6571C83.6634 35.6222 84.1451 36.6623 84.4871 37.7513C85.163 39.8316 85.5665 41.773 85.6163 43.4262C85.6495 44.1684 85.6065 44.912 85.4879 45.6453C85.446 45.9702 85.3674 46.2663 85.3097 46.5414C85.2521 46.8165 85.1578 47.0654 85.0949 47.2802C84.9804 47.6153 84.8483 47.9441 84.6993 48.2653L84.5866 48.5273C84.5724 48.5559 84.561 48.5857 84.5526 48.6164C84.5706 48.5898 84.5864 48.5618 84.5997 48.5326L84.7255 48.2863C84.8853 47.9674 85.0262 47.6393 85.1473 47.3038C85.2128 47.0811 85.2993 46.8374 85.3726 46.565C85.446 46.2925 85.5193 45.9938 85.5639 45.6663C85.6902 44.9284 85.7403 44.1795 85.7132 43.4314C85.6765 41.7651 85.2783 39.808 84.6076 37.7225C84.2638 36.6174 83.7767 35.5622 83.1587 34.5837C82.4848 33.5437 81.6621 32.608 80.7169 31.8065C78.7624 30.1716 76.5406 29.1367 74.5127 28.3219C73.5487 27.9496 72.6112 27.5119 71.7067 27.0119C70.9168 26.5814 70.2154 26.0053 69.6395 25.3141C69.1727 24.7382 68.8221 24.0771 68.6072 23.3675C68.4455 22.8313 68.3982 22.2672 68.4684 21.7116C68.4949 21.5095 68.5405 21.3104 68.6046 21.1169C68.6675 20.9545 68.7278 20.8156 68.7802 20.7056L68.919 20.4671C68.9372 20.4415 68.9514 20.4132 68.9609 20.3833Z" fill="#E0E0E0"/>
<path d="M68.5648 22.2696C66.8958 21.4338 65.4732 19.7072 64.5012 18.1169C63.5291 16.5265 63.1545 14.517 63.7545 12.7511C64.3544 10.9852 66.0077 9.55733 67.8705 9.46825C69.8643 9.37393 71.735 10.8149 72.5 12.6568C73.2651 14.4986 72.7175 16.9667 71.659 18.6592C70.4774 20.5666 70.1368 21.1954 68.5648 22.2696Z" fill="#E0E0E0"/>
<path d="M69.2859 22.5921C69.032 22.3701 68.842 22.0842 68.7357 21.7642L68.5654 21.9554C68.3562 22.2531 68.2206 22.5961 68.1698 22.9563C68.154 23.0349 68.1698 23.1344 68.23 23.1737C68.2903 23.213 68.3951 23.1475 68.4396 23.0742C68.4722 22.9949 68.5223 22.9241 68.5863 22.8672C68.5804 22.9566 68.5947 23.0461 68.6283 23.1292C68.6458 23.1699 68.6758 23.204 68.7139 23.2266C68.752 23.2492 68.7964 23.2591 68.8405 23.2549C68.884 23.2411 68.9216 23.2134 68.9477 23.1759C68.9738 23.1385 68.9867 23.0935 68.9846 23.048C68.9808 22.9558 68.9547 22.8659 68.9086 22.786C68.9747 22.8795 69.0654 22.953 69.1706 22.9982C69.2225 23.0193 69.2805 23.0193 69.3324 22.9983C69.3842 22.9772 69.4258 22.9368 69.4483 22.8855C69.4719 22.7755 69.3723 22.6707 69.2859 22.5921Z" fill="#E0E0E0"/>
<path d="M72.0943 14.6299C72.1068 14.7238 72.1068 14.8189 72.0943 14.9129C72.0943 15.0936 72.055 15.3556 72.0026 15.6753C71.7139 17.3533 71.0095 18.9323 69.9537 20.2681C69.7958 20.4702 69.627 20.6635 69.4481 20.8472C69.3872 20.9192 69.3177 20.9835 69.2411 21.0384C69.2227 21.0227 69.5031 20.7266 69.8777 20.2079C70.8774 18.8568 71.5695 17.3036 71.9056 15.6569C72.034 15.0255 72.0707 14.6273 72.0943 14.6299Z" fill="#F5F5F5"/>
<path d="M71.7559 12.5288C71.8656 12.7038 71.9362 12.9004 71.9629 13.1052C72.0306 13.3002 72.0548 13.5077 72.0336 13.713C71.9236 13.5385 71.8538 13.3416 71.8293 13.1366C71.7615 12.9416 71.7365 12.7343 71.7559 12.5288Z" fill="#F5F5F5"/>
<path d="M44.5687 78.5215C44.5687 78.5215 44.5478 78.5451 44.5137 78.5975C44.4796 78.6499 44.4273 78.7337 44.3618 78.8306C44.2963 78.9276 44.2412 79.0795 44.1731 79.2446C44.1051 79.4398 44.0543 79.6406 44.0212 79.8446C43.9417 80.4082 43.9818 80.9822 44.1391 81.5292C44.3502 82.2517 44.6999 82.9263 45.1687 83.5152C45.7526 84.2195 46.4636 84.8079 47.2647 85.2496C48.1714 85.7575 49.1126 86.2014 50.0812 86.578C52.1039 87.398 54.3099 88.4303 56.2461 90.0495C57.18 90.8437 57.9944 91.7685 58.6643 92.7952C59.2703 93.7617 59.7485 94.8027 60.087 95.8921C60.763 97.9697 61.1664 99.9138 61.2162 101.564C61.2482 102.307 61.2052 103.05 61.0878 103.784C61.0459 104.111 60.9673 104.404 60.9097 104.68C60.852 104.955 60.7577 105.204 60.6948 105.418C60.5807 105.754 60.4486 106.084 60.2992 106.406L60.1866 106.668C60.1713 106.696 60.1598 106.726 60.1525 106.757L60.197 106.676L60.3228 106.427C60.4822 106.109 60.6231 105.782 60.7446 105.447C60.8127 105.225 60.8992 104.981 60.9726 104.706C61.0459 104.431 61.1193 104.135 61.1638 103.807C61.2902 103.069 61.3402 102.32 61.3132 101.572C61.2739 99.9085 60.8782 97.9514 60.2075 95.8633C59.8643 94.7626 59.38 93.7111 58.7665 92.735C58.0937 91.6918 57.2729 90.7519 56.3299 89.9447C54.3702 88.3124 52.1379 87.2775 50.1205 86.4601C49.1558 86.0872 48.2175 85.6496 47.3119 85.1501C46.523 84.7191 45.8218 84.1441 45.2447 83.4549C44.7786 82.8785 44.4281 82.2175 44.2124 81.5083C44.0534 80.9716 44.0061 80.4081 44.0736 79.8524C44.1018 79.6504 44.1483 79.4514 44.2124 79.2577C44.2753 79.0926 44.3356 78.9538 44.388 78.8437C44.4404 78.7337 44.4901 78.6656 44.5268 78.6053C44.5429 78.5785 44.5569 78.5504 44.5687 78.5215Z" fill="#E0E0E0"/>
<path d="M44.1703 80.3999C42.504 79.5641 41.0813 77.8375 40.1067 76.2472C39.1321 74.6568 38.7627 72.6499 39.3626 70.884C39.9626 69.1181 41.6158 67.6902 43.4917 67.5959C45.4856 67.499 47.3536 68.94 48.1213 70.7845C48.8889 72.629 48.3388 75.0917 47.2803 76.7843C46.0856 78.6969 45.7554 79.3257 44.1834 80.3946" fill="#E0E0E0"/>
<path d="M44.8912 80.7273C44.6375 80.5057 44.4483 80.2197 44.3436 79.8994L44.1733 80.0907C43.9648 80.3899 43.8285 80.7334 43.7751 81.0941C43.762 81.1727 43.7751 81.2723 43.838 81.309C43.9009 81.3457 44.003 81.2828 44.0476 81.212C44.08 81.132 44.1302 81.0603 44.1943 81.0024C44.1873 81.0916 44.2007 81.1812 44.2336 81.2644C44.2513 81.3056 44.2817 81.34 44.3203 81.3627C44.359 81.3853 44.4039 81.3949 44.4484 81.3902C44.4919 81.3764 44.5296 81.3486 44.5557 81.3112C44.5817 81.2738 44.5947 81.2288 44.5925 81.1832C44.5875 81.0912 44.5615 81.0016 44.5166 80.9212C44.5828 81.0147 44.6734 81.0881 44.7786 81.1334C44.8042 81.1441 44.8317 81.1496 44.8594 81.1496C44.8871 81.1495 44.9146 81.144 44.9402 81.1333C44.9658 81.1226 44.989 81.1069 45.0085 81.0871C45.028 81.0673 45.0433 81.0439 45.0537 81.0182C45.0772 80.9107 44.9777 80.8086 44.8912 80.7273Z" fill="#E0E0E0"/>
<path d="M47.702 72.7656C47.7144 72.8595 47.7144 72.9547 47.702 73.0486C47.6843 73.3042 47.6528 73.5587 47.6077 73.811C47.3228 75.4897 46.619 77.0694 45.5614 78.4039C45.4028 78.6053 45.234 78.7986 45.0558 78.9829C44.9274 79.1139 44.8567 79.182 44.8488 79.1741C44.8409 79.1663 45.1108 78.8624 45.4828 78.3462C46.4844 76.995 47.1775 75.4407 47.5133 73.7927C47.6391 73.1639 47.6836 72.7656 47.702 72.7656Z" fill="#F5F5F5"/>
<path d="M47.3647 70.6641C47.4738 70.84 47.5436 71.0376 47.569 71.2431C47.6384 71.4377 47.6635 71.6454 47.6424 71.8509C47.5335 71.6758 47.4638 71.4791 47.438 71.2745C47.3686 71.079 47.3436 70.8705 47.3647 70.6641Z" fill="#F5F5F5"/>
<path d="M10.3437 42.2866C10.2681 42.3065 10.191 42.3205 10.1132 42.3285C9.89106 42.3537 9.66618 42.3368 9.45032 42.2787C9.10422 42.1934 8.78522 42.0222 8.52284 41.7809C8.1681 41.4621 7.94875 41.0197 7.90976 40.5443C7.8862 40.2576 7.92043 39.9692 8.01045 39.696C8.10046 39.4228 8.24441 39.1705 8.43376 38.954C8.64302 38.7035 8.92212 38.5211 9.23548 38.43C9.40011 38.3848 9.57244 38.375 9.74114 38.4011C9.92101 38.4311 10.0844 38.524 10.2023 38.6631C10.3184 38.8114 10.3848 38.9925 10.3919 39.1808C10.3989 39.369 10.3463 39.5546 10.2416 39.7111C10.028 40.022 9.71164 40.2474 9.34814 40.3478C8.97129 40.464 8.5704 40.4785 8.18617 40.3897C7.80194 40.3008 7.44805 40.1119 7.16044 39.8421C6.88695 39.5594 6.69412 39.2087 6.60198 38.8263C6.50983 38.4439 6.52173 38.0438 6.63644 37.6675C6.73877 37.3043 6.94668 36.9797 7.2338 36.7348C7.37728 36.6177 7.54583 36.5352 7.72636 36.4938C7.9023 36.4577 8.08505 36.476 8.25036 36.5462C8.42261 36.6105 8.56401 36.7379 8.64598 36.9025C8.72309 37.0664 8.73708 37.2529 8.68528 37.4265C8.64129 37.5841 8.56372 37.7303 8.45789 37.8552C8.35207 37.98 8.2205 38.0804 8.0722 38.1496C7.79989 38.2819 7.49385 38.3285 7.1945 38.2832C6.91983 38.2394 6.66196 38.1227 6.4478 37.9453C6.0844 37.6392 5.8298 37.2238 5.72206 36.761C5.64164 36.4179 5.61687 36.064 5.6487 35.713C5.6709 35.4141 5.72357 35.1183 5.8059 34.8301C5.80939 34.8491 5.80939 34.8687 5.8059 34.8877L5.77708 35.058C5.7374 35.2754 5.71115 35.495 5.69848 35.7156C5.67125 36.0673 5.70044 36.4211 5.78494 36.7636C5.8962 37.2106 6.14668 37.6107 6.5002 37.906C6.70582 38.0718 6.9517 38.1803 7.21284 38.2204C7.49683 38.2606 7.78633 38.214 8.04338 38.0867C8.17933 38.0222 8.29977 37.9291 8.39652 37.8138C8.49327 37.6985 8.56406 37.5637 8.60406 37.4186C8.64543 37.2699 8.63338 37.1114 8.57 36.9706C8.49816 36.8293 8.37696 36.7193 8.2294 36.6615C8.07748 36.5996 7.91065 36.5841 7.74994 36.6169C7.58501 36.6559 7.43155 36.7331 7.30192 36.8422C7.03054 37.074 6.83442 37.3814 6.73862 37.7252C6.63034 38.0847 6.62063 38.4667 6.71051 38.8313C6.80038 39.1959 6.98654 39.5296 7.24952 39.7976C7.52499 40.0562 7.86416 40.2371 8.23239 40.3218C8.60063 40.4065 8.98474 40.392 9.34552 40.2797C9.68811 40.1842 9.98596 39.9708 10.1865 39.6771C10.2777 39.5394 10.3241 39.3769 10.3194 39.2118C10.3147 39.0467 10.2592 38.8871 10.1603 38.7548C10.0539 38.637 9.91083 38.5585 9.75424 38.5321C9.5978 38.5081 9.43805 38.517 9.28526 38.5583C8.99043 38.6416 8.72634 38.8091 8.52546 39.0404C8.34079 39.2468 8.19929 39.488 8.1093 39.7499C8.0193 40.0117 7.98264 40.289 8.00146 40.5653C8.03504 41.025 8.242 41.4549 8.58048 41.7678C8.83482 42.0059 9.14323 42.1785 9.47914 42.2709C9.69124 42.3299 9.91191 42.3521 10.1315 42.3364C10.2625 42.2971 10.3411 42.2787 10.3437 42.2866Z" fill="#E0E0E0"/>
<path d="M32.8048 6.93994C32.8765 6.96855 32.945 7.00455 33.0092 7.04736C33.1979 7.16746 33.3631 7.32108 33.4965 7.50062C33.7128 7.78412 33.8542 8.11749 33.9078 8.47002C33.9849 8.94109 33.879 9.4238 33.6118 9.81932C33.4521 10.0593 33.2456 10.2647 33.0048 10.4231C32.764 10.5816 32.4937 10.6899 32.2101 10.7416C31.8919 10.8022 31.5629 10.7676 31.2643 10.642C31.1078 10.5733 30.967 10.4734 30.8503 10.3486C30.7286 10.2107 30.6591 10.0346 30.6538 9.85076C30.6584 9.66503 30.7207 9.48534 30.8319 9.33654C30.9432 9.18774 31.0979 9.0772 31.2747 9.02022C31.637 8.90631 32.0279 8.92488 32.3778 9.07262C32.7438 9.21775 33.065 9.45701 33.3089 9.76619C33.5527 10.0754 33.7105 10.4435 33.7664 10.8333C33.8057 11.2256 33.7389 11.6212 33.573 11.9789C33.407 12.3365 33.1481 12.6431 32.8232 12.8664C32.5167 13.0856 32.1519 13.2088 31.7752 13.2201C31.5938 13.2209 31.4147 13.1806 31.2512 13.1022C31.0862 13.0192 30.9508 12.8875 30.8634 12.7249C30.7729 12.5703 30.7442 12.3871 30.783 12.2122C30.8219 12.0372 30.9255 11.8834 31.073 11.7817C31.2059 11.6865 31.3578 11.621 31.5183 11.5898C31.6788 11.5586 31.8442 11.5624 32.0031 11.6009C32.2907 11.6749 32.5503 11.8316 32.7498 12.0516C32.9363 12.258 33.0647 12.5103 33.1218 12.7825C33.2137 13.2488 33.1521 13.7323 32.9463 14.1607C32.7946 14.4795 32.5919 14.7716 32.3463 15.0253C32.1424 15.2448 31.9168 15.4432 31.673 15.6174C31.673 15.6174 31.673 15.6017 31.7149 15.5755L31.8433 15.4602C32.0099 15.3155 32.1682 15.1615 32.3175 14.9991C32.5532 14.7424 32.7477 14.4508 32.8939 14.1345C33.0873 13.7172 33.1424 13.249 33.0511 12.7983C32.9948 12.54 32.8709 12.3013 32.6922 12.1066C32.4969 11.8965 32.2432 11.7496 31.9638 11.6848C31.8172 11.6499 31.6647 11.647 31.5169 11.6764C31.369 11.7058 31.2292 11.7667 31.1071 11.8551C30.9768 11.9432 30.8855 12.078 30.8518 12.2316C30.8182 12.3852 30.8448 12.5459 30.9263 12.6804C31.0054 12.8243 31.1259 12.9411 31.2721 13.0157C31.425 13.0886 31.5928 13.1245 31.7621 13.1205C32.1171 13.1082 32.4607 12.9916 32.7498 12.7852C33.0597 12.5723 33.3067 12.28 33.4648 11.9389C33.6229 11.5978 33.6863 11.2204 33.6485 10.8464C33.595 10.4763 33.4455 10.1266 33.2147 9.8324C32.9839 9.53817 32.68 9.30962 32.3332 9.16956C32.0018 9.02598 31.6298 9.00645 31.2852 9.11454C31.1279 9.16482 30.99 9.2626 30.8906 9.39444C30.7911 9.52628 30.7349 9.68569 30.7298 9.85076C30.7375 10.0095 30.8006 10.1606 30.9079 10.2778C31.0149 10.3907 31.1443 10.48 31.2878 10.5398C31.5702 10.6607 31.8819 10.6953 32.1839 10.6394C32.4561 10.5924 32.7161 10.4915 32.9487 10.3425C33.1813 10.1936 33.3818 9.99968 33.5384 9.77216C33.8001 9.389 33.9068 8.92089 33.8371 8.46216C33.7895 8.11813 33.6572 7.79132 33.452 7.5111C33.3304 7.34192 33.1817 7.19407 33.0118 7.07356C32.8729 6.97924 32.8022 6.94518 32.8048 6.93994Z" fill="#E0E0E0"/>
<path d="M118.424 40.4446C118.362 40.3983 118.304 40.3466 118.251 40.29C118.094 40.1301 117.969 39.9427 117.881 39.7372C117.735 39.4084 117.675 39.0478 117.706 38.6892C117.739 38.2129 117.954 37.7676 118.306 37.4447C118.517 37.2507 118.765 37.1011 119.035 37.0048C119.305 36.9085 119.592 36.8674 119.878 36.884C120.204 36.8972 120.519 37.0086 120.782 37.2037C120.918 37.3051 121.032 37.4347 121.114 37.5836C121.203 37.7429 121.234 37.9281 121.201 38.1076C121.155 38.2863 121.054 38.4465 120.914 38.5661C120.773 38.6857 120.599 38.7589 120.415 38.7757C120.04 38.7983 119.669 38.6889 119.367 38.4665C119.044 38.2404 118.787 37.9331 118.621 37.5756C118.456 37.2181 118.387 36.8231 118.424 36.4308C118.477 36.0403 118.634 35.6713 118.878 35.3621C119.122 35.0529 119.445 34.8148 119.812 34.6727C120.162 34.5307 120.546 34.4961 120.915 34.5732C121.096 34.6137 121.264 34.6952 121.408 34.8116C121.547 34.9313 121.648 35.0901 121.696 35.2675C121.747 35.4416 121.731 35.6285 121.651 35.7915C121.57 35.9479 121.435 36.0704 121.272 36.1373C121.12 36.1987 120.958 36.227 120.794 36.2203C120.631 36.2135 120.471 36.1718 120.326 36.098C120.054 35.9625 119.829 35.7491 119.679 35.4849C119.547 35.2441 119.481 34.9731 119.487 34.6989C119.505 34.2209 119.677 33.7614 119.977 33.3889C120.2 33.1141 120.465 32.877 120.763 32.6868C121.01 32.5202 121.273 32.3797 121.549 32.2676C121.533 32.2802 121.516 32.2908 121.497 32.299L121.345 32.3802C121.149 32.4828 120.959 32.5965 120.776 32.7208C120.488 32.9143 120.231 33.1522 120.017 33.4256C119.731 33.7871 119.568 34.2305 119.553 34.6911C119.547 34.9549 119.612 35.2154 119.741 35.4456C119.884 35.6939 120.097 35.8938 120.355 36.0194C120.489 36.0875 120.637 36.1258 120.787 36.1316C120.938 36.1375 121.088 36.1109 121.227 36.0535C121.37 35.9937 121.489 35.8864 121.562 35.7496C121.629 35.6058 121.64 35.4425 121.594 35.2911C121.55 35.1329 121.458 34.9921 121.332 34.8876C121.2 34.7808 121.045 34.7063 120.879 34.6701C120.527 34.5966 120.162 34.6304 119.831 34.7671C119.48 34.9023 119.172 35.1293 118.939 35.4243C118.707 35.7193 118.557 36.0714 118.507 36.4439C118.474 36.8175 118.539 37.1934 118.697 37.5338C118.855 37.8741 119.099 38.1669 119.406 38.3827C119.691 38.5945 120.042 38.6985 120.396 38.6761C120.562 38.6659 120.72 38.6037 120.848 38.4983C120.976 38.3929 121.067 38.2497 121.109 38.0892C121.139 37.9334 121.113 37.772 121.036 37.6333C120.958 37.496 120.854 37.3757 120.729 37.2796C120.482 37.0976 120.187 36.992 119.88 36.9757C119.605 36.9576 119.329 36.9946 119.068 37.0846C118.807 37.1746 118.566 37.3157 118.361 37.4997C118.02 37.8102 117.808 38.2377 117.769 38.6971C117.735 39.0435 117.788 39.3929 117.923 39.7136C118.006 39.9175 118.124 40.1054 118.272 40.2691C118.374 40.3896 118.437 40.4394 118.424 40.4446Z" fill="#E0E0E0"/>
<path d="M64.0453 79.0927C63.9832 79.0464 63.9254 78.9946 63.8724 78.9381C63.7154 78.7779 63.5901 78.5894 63.503 78.3827C63.3587 78.0579 63.2983 77.702 63.3275 77.3478C63.3609 76.8707 63.5756 76.4245 63.9274 76.1006C64.1389 75.9072 64.3869 75.7579 64.6569 75.6616C64.9268 75.5653 65.2133 75.524 65.4994 75.54C65.8231 75.5539 66.1351 75.6643 66.3955 75.857C66.5323 75.9594 66.6457 76.0898 66.7282 76.2395C66.8185 76.3983 66.8491 76.5841 66.8147 76.7635C66.7687 76.9422 66.6684 77.1021 66.5276 77.2213C66.3868 77.3405 66.2125 77.4131 66.0287 77.429C65.6543 77.4526 65.2834 77.3441 64.9807 77.1224C64.6578 76.8966 64.4004 76.5892 64.2347 76.2317C64.0691 75.8741 64.001 75.4791 64.0375 75.0867C64.0903 74.6962 64.2471 74.327 64.4914 74.0178C64.7356 73.7085 65.0584 73.4706 65.4261 73.3287C65.7754 73.1854 66.1598 73.1507 66.5291 73.2291C66.7099 73.2684 66.8787 73.3501 67.0217 73.4675C67.1616 73.5858 67.2621 73.7439 67.3099 73.9208C67.3605 74.0949 67.3447 74.2817 67.2653 74.4448C67.1833 74.6005 67.0487 74.7222 66.8854 74.788C66.7343 74.8501 66.5715 74.8788 66.4082 74.872C66.2449 74.8652 66.0851 74.8232 65.9396 74.7487C65.6679 74.6142 65.4426 74.4016 65.2925 74.1383C65.1612 73.8974 65.0953 73.6265 65.1012 73.3523C65.1187 72.8741 65.2906 72.4145 65.5911 72.0423C65.8129 71.766 66.0784 71.5279 66.3771 71.3375C66.6235 71.1709 66.887 71.0313 67.1631 70.9209L67.1107 70.9497L66.9588 71.0309C66.7635 71.1345 66.5737 71.2482 66.3902 71.3715C66.1012 71.5656 65.844 71.8034 65.6278 72.0763C65.3444 72.4389 65.183 72.8819 65.1667 73.3418C65.1615 73.6064 65.2266 73.8677 65.3553 74.099C65.4985 74.3466 65.7118 74.5463 65.9684 74.6727C66.1029 74.7408 66.2504 74.7791 66.4009 74.785C66.5515 74.7908 66.7016 74.7642 66.8409 74.7068C66.984 74.6477 67.1018 74.5401 67.1736 74.4029C67.2427 74.2599 67.2549 74.096 67.2077 73.9444C67.1639 73.7854 67.0725 73.6437 66.9457 73.5383C66.8136 73.4315 66.6584 73.357 66.4924 73.3208C66.1409 73.2496 65.7762 73.2843 65.4444 73.4204C65.0942 73.5554 64.7866 73.782 64.5539 74.0765C64.3211 74.371 64.1717 74.7226 64.1213 75.0946C64.0869 75.4686 64.1518 75.8452 64.3096 76.1861C64.4674 76.527 64.7125 76.8202 65.02 77.036C65.305 77.2479 65.6559 77.3518 66.0103 77.3294C66.1759 77.3193 66.3339 77.257 66.4619 77.1516C66.5899 77.0462 66.6813 76.903 66.723 76.7425C66.753 76.5867 66.727 76.4252 66.6496 76.2867C66.5737 76.1483 66.4692 76.0278 66.3431 75.933C66.0965 75.7498 65.801 75.6441 65.4942 75.629C65.2187 75.6103 64.9423 75.6471 64.6813 75.7371C64.4203 75.8271 64.18 75.9685 63.9746 76.153C63.6343 76.4629 63.423 76.8893 63.3825 77.3478C63.3488 77.6942 63.4019 78.0436 63.5371 78.3643C63.6196 78.5686 63.7375 78.7566 63.8855 78.9198C63.9877 79.035 64.0506 79.0874 64.0453 79.0927Z" fill="#E0E0E0"/>
<path d="M85.7708 100.807C85.708 100.762 85.65 100.71 85.5979 100.653C85.4408 100.493 85.3155 100.306 85.2285 100.1C85.0821 99.7709 85.0217 99.4102 85.0529 99.0517C85.0865 98.5754 85.3012 98.1301 85.6529 97.8072C85.8641 97.6132 86.112 97.4635 86.382 97.3668C86.652 97.27 86.9386 97.2282 87.2249 97.2439C87.549 97.2595 87.8614 97.3697 88.1236 97.5609C88.2597 97.6641 88.373 97.7943 88.4563 97.9434C88.5463 98.1023 88.577 98.288 88.5428 98.4674C88.4962 98.646 88.3958 98.806 88.2552 98.9255C88.1145 99.045 87.9405 99.1184 87.7568 99.1355C87.3819 99.159 87.0108 99.0495 86.7088 98.8264C86.3858 98.6005 86.1285 98.2932 85.9628 97.9356C85.7971 97.578 85.7291 97.183 85.7656 96.7906C85.8184 96.4001 85.9752 96.0309 86.2194 95.7217C86.4637 95.4125 86.7865 95.1745 87.1542 95.0326C87.5029 94.8908 87.886 94.8561 88.2546 94.933C88.4353 94.9724 88.6041 95.0541 88.7471 95.1715C88.8871 95.2908 88.9876 95.4497 89.0353 95.6273C89.086 95.8012 89.0711 95.9877 88.9934 96.1513C88.9108 96.3072 88.7764 96.4295 88.6135 96.4972C88.462 96.5582 88.2992 96.586 88.136 96.5788C87.9729 96.5716 87.8132 96.5295 87.6677 96.4553C87.3954 96.3216 87.1699 96.1088 87.0205 95.8448C86.8879 95.6045 86.8219 95.3332 86.8293 95.0588C86.846 94.5805 87.018 94.1207 87.3192 93.7488C87.5417 93.474 87.8071 93.2369 88.1052 93.0466C88.3521 92.8803 88.6155 92.7399 88.8912 92.6274C88.8912 92.6274 88.8755 92.6405 88.8414 92.6589L88.6895 92.7375C88.5559 92.8108 88.3594 92.9183 88.1209 93.0781C87.8318 93.2732 87.5747 93.5118 87.3585 93.7855C87.0735 94.1462 86.9119 94.5888 86.8974 95.0483C86.8906 95.3131 86.9558 95.5748 87.086 95.8055C87.2292 96.0532 87.4425 96.2529 87.6991 96.3793C87.8313 96.4455 87.9759 96.4829 88.1236 96.4893C88.2712 96.4956 88.4185 96.4706 88.5559 96.416C88.699 96.3568 88.8168 96.2492 88.8886 96.112C88.9577 95.9691 88.9698 95.8052 88.9227 95.6535C88.8796 95.495 88.788 95.3539 88.6607 95.2501C88.5302 95.1422 88.3756 95.0676 88.21 95.0326C87.8589 94.9591 87.4937 94.9929 87.162 95.1295C86.8118 95.2646 86.5042 95.4911 86.2715 95.7856C86.0387 96.0802 85.8893 96.4318 85.8389 96.8037C85.8044 97.1775 85.8691 97.5538 86.0264 97.8947C86.1837 98.2355 86.4281 98.5289 86.735 98.7451C87.0211 98.9568 87.3727 99.0607 87.7279 99.0386C87.8934 99.0284 88.0515 98.9662 88.1795 98.8608C88.3075 98.7554 88.3989 98.6122 88.4406 98.4517C88.4691 98.2958 88.4432 98.1349 88.3672 97.9958C88.2897 97.8579 88.1844 97.7374 88.0581 97.6421C87.8125 97.4589 87.5178 97.3531 87.2118 97.3382C86.9364 97.3199 86.6601 97.3569 86.3991 97.4469C86.1382 97.5369 85.8978 97.6781 85.6922 97.8622C85.3486 98.1706 85.1366 98.5993 85.1001 99.0595C85.0664 99.406 85.1195 99.7553 85.2547 100.076C85.3371 100.28 85.4541 100.468 85.6005 100.632C85.7132 100.752 85.776 100.802 85.7708 100.807Z" fill="#E0E0E0"/>
<path d="M111.394 14.1769C111.394 14.1769 110.902 12.0809 109.104 12.3927L109.49 11.0513C109.49 11.0513 112.476 11.5281 112.136 13.6765L111.394 14.1769Z" fill="#E0E0E0"/>
<path d="M18.7751 15.277C18.7751 15.277 18.2825 13.181 16.4878 13.4928L16.8703 12.1514C16.8703 12.1514 19.8571 12.6387 19.5139 14.7714L18.7751 15.277Z" fill="#E0E0E0"/>
<path d="M121.906 56.9142C121.906 56.9142 121.413 54.8313 119.619 55.13L119.996 53.7886C119.996 53.7886 122.983 54.2759 122.64 56.4086L121.906 56.9142Z" fill="#E0E0E0"/>
<path d="M89.342 79.9097C89.342 79.9097 88.8494 77.8294 87.0547 78.1281L87.4372 76.7866C87.4372 76.7866 90.424 77.2713 90.0808 79.4066L89.342 79.9097Z" fill="#E0E0E0"/>
<path d="M79.2518 12.542C79.2518 12.542 79.2361 14.6799 81.0517 14.8162L80.3574 16.0292C80.3574 16.0292 77.5724 14.845 78.416 12.8512L79.2518 12.542Z" fill="#E0E0E0"/>
<path d="M14.318 89.6588C14.318 89.6588 12.1906 89.8946 12.2692 91.7155L10.9854 91.1758C10.9854 91.1758 11.829 88.2702 13.9119 88.8728L14.318 89.6588Z" fill="#E0E0E0"/>
<path d="M54.7758 70.9366C54.7758 70.9366 56.7775 71.6964 57.5347 70.0405L58.4307 71.1121C58.4307 71.1121 56.3557 73.3129 54.7627 71.8274L54.7758 70.9366Z" fill="#E0E0E0"/>
<path d="M55.0199 32.4273C55.0199 32.4273 57.019 33.1871 57.7788 31.5312L58.6748 32.6002C58.6748 32.6002 56.5972 34.8036 55.0068 33.3181L55.0199 32.4273Z" fill="#E0E0E0"/>
<path d="M44.1229 81.0495C44.434 81.0495 44.6862 80.7973 44.6862 80.4862C44.6862 80.1751 44.434 79.9229 44.1229 79.9229C43.8118 79.9229 43.5596 80.1751 43.5596 80.4862C43.5596 80.7973 43.8118 81.0495 44.1229 81.0495Z" fill="#E0E0E0"/>
<path d="M8.0091 70.7057C8.3202 70.7057 8.5724 70.4535 8.5724 70.1424C8.5724 69.8313 8.3202 69.5791 8.0091 69.5791C7.698 69.5791 7.4458 69.8313 7.4458 70.1424C7.4458 70.4535 7.698 70.7057 8.0091 70.7057Z" fill="#E0E0E0"/>
<path d="M65.8849 96.72C65.8849 96.8314 65.8519 96.9404 65.79 97.033C65.7281 97.1256 65.6401 97.1978 65.5372 97.2405C65.4342 97.2831 65.321 97.2942 65.2117 97.2725C65.1024 97.2508 65.0021 97.1971 64.9233 97.1183C64.8445 97.0396 64.7909 96.9392 64.7691 96.8299C64.7474 96.7207 64.7585 96.6074 64.8012 96.5045C64.8438 96.4015 64.916 96.3136 65.0086 96.2517C65.1013 96.1898 65.2102 96.1567 65.3216 96.1567C65.3956 96.1567 65.4688 96.1713 65.5372 96.1996C65.6055 96.2279 65.6676 96.2694 65.7199 96.3217C65.7722 96.374 65.8137 96.4361 65.842 96.5045C65.8703 96.5728 65.8849 96.6461 65.8849 96.72Z" fill="#E0E0E0"/>
<path d="M57.4145 20.3836C57.4151 20.4959 57.3822 20.6058 57.3201 20.6993C57.258 20.7928 57.1695 20.8658 57.0658 20.9088C56.9621 20.9519 56.848 20.9632 56.7379 20.9412C56.6278 20.9192 56.5267 20.865 56.4475 20.7855C56.3683 20.7059 56.3146 20.6046 56.2931 20.4944C56.2717 20.3842 56.2835 20.2701 56.3271 20.1666C56.3706 20.0632 56.444 19.975 56.5378 19.9133C56.6316 19.8517 56.7416 19.8193 56.8539 19.8203C57.0026 19.8217 57.1448 19.8816 57.2497 19.987C57.3547 20.0924 57.4139 20.2349 57.4145 20.3836Z" fill="#E0E0E0"/>
<path d="M64.0303 6.52083C64.0308 6.63298 63.998 6.74275 63.936 6.83622C63.874 6.92968 63.7856 7.00262 63.6821 7.04578C63.5786 7.08894 63.4646 7.10037 63.3546 7.07861C63.2446 7.05686 63.1435 7.00291 63.0642 6.92361C62.9849 6.8443 62.9309 6.74323 62.9092 6.6332C62.8874 6.52318 62.8989 6.40918 62.942 6.30566C62.9852 6.20215 63.0581 6.11379 63.1516 6.05181C63.245 5.98982 63.3548 5.95701 63.467 5.95753C63.6164 5.95753 63.7596 6.01687 63.8653 6.12251C63.9709 6.22815 64.0303 6.37143 64.0303 6.52083Z" fill="#E0E0E0"/>
<path d="M100.561 35.0661C100.872 35.0661 101.124 34.8139 101.124 34.5028C101.124 34.1917 100.872 33.9395 100.561 33.9395C100.25 33.9395 99.9976 34.1917 99.9976 34.5028C99.9976 34.8139 100.25 35.0661 100.561 35.0661Z" fill="#E0E0E0"/>
<path d="M123.234 21.764C123.234 21.8754 123.201 21.9843 123.139 22.0769C123.077 22.1696 122.989 22.2418 122.886 22.2844C122.783 22.327 122.67 22.3382 122.561 22.3165C122.452 22.2947 122.351 22.2411 122.272 22.1623C122.194 22.0835 122.14 21.9831 122.118 21.8739C122.097 21.7646 122.108 21.6513 122.15 21.5484C122.193 21.4455 122.265 21.3575 122.358 21.2956C122.45 21.2337 122.559 21.2007 122.671 21.2007C122.745 21.2007 122.818 21.2153 122.886 21.2436C122.955 21.2719 123.017 21.3134 123.069 21.3657C123.121 21.418 123.163 21.4801 123.191 21.5484C123.219 21.6168 123.234 21.69 123.234 21.764Z" fill="#E0E0E0"/>
<path d="M42.4806 94.2645C42.4806 94.3759 42.4476 94.4848 42.3857 94.5774C42.3238 94.6701 42.2358 94.7423 42.1329 94.7849C42.0299 94.8275 41.9167 94.8387 41.8074 94.8169C41.6981 94.7952 41.5978 94.7416 41.519 94.6628C41.4402 94.584 41.3866 94.4836 41.3648 94.3744C41.3431 94.2651 41.3542 94.1518 41.3969 94.0489C41.4395 93.946 41.5117 93.858 41.6043 93.7961C41.697 93.7342 41.8059 93.7012 41.9173 93.7012C42.0667 93.7012 42.21 93.7605 42.3156 93.8662C42.4213 93.9718 42.4806 94.1151 42.4806 94.2645Z" fill="#E0E0E0"/>
<path d="M36.3419 38.577C36.3419 38.6884 36.3089 38.7973 36.247 38.8899C36.1851 38.9826 36.0971 39.0548 35.9942 39.0974C35.8913 39.14 35.778 39.1512 35.6687 39.1295C35.5595 39.1077 35.4591 39.0541 35.3803 38.9753C35.3015 38.8965 35.2479 38.7961 35.2262 38.6869C35.2044 38.5776 35.2156 38.4643 35.2582 38.3614C35.3008 38.2585 35.373 38.1705 35.4657 38.1086C35.5583 38.0467 35.6672 38.0137 35.7786 38.0137C35.8526 38.0137 35.9259 38.0282 35.9942 38.0566C36.0625 38.0849 36.1246 38.1264 36.1769 38.1787C36.2293 38.231 36.2707 38.2931 36.2991 38.3614C36.3274 38.4298 36.3419 38.503 36.3419 38.577Z" fill="#E0E0E0"/>
<path d="M17.5537 25.8094C17.5542 25.9214 17.5215 26.0311 17.4596 26.1245C17.3977 26.2179 17.3095 26.2909 17.2062 26.3341C17.1028 26.3773 16.9889 26.3889 16.879 26.3674C16.769 26.3458 16.668 26.2921 16.5886 26.2131C16.5092 26.1341 16.455 26.0332 16.4329 25.9234C16.4109 25.8135 16.4219 25.6996 16.4647 25.5961C16.5075 25.4925 16.58 25.404 16.6731 25.3417C16.7662 25.2794 16.8757 25.2461 16.9878 25.2461C17.1374 25.2461 17.281 25.3054 17.387 25.4109C17.4931 25.5165 17.553 25.6598 17.5537 25.8094Z" fill="#E0E0E0"/>
<path d="M89.145 70.0247C89.1455 70.1368 89.1128 70.2464 89.0509 70.3398C88.9891 70.4333 88.9009 70.5062 88.7975 70.5494C88.6941 70.5927 88.5803 70.6043 88.4703 70.5827C88.3604 70.5612 88.2593 70.5075 88.1799 70.4284C88.1005 70.3494 88.0463 70.2486 88.0243 70.1387C88.0022 70.0289 88.0133 69.9149 88.056 69.8114C88.0988 69.7078 88.1713 69.6193 88.2644 69.557C88.3575 69.4947 88.4671 69.4614 88.5791 69.4614C88.7287 69.4614 88.8723 69.5207 88.9783 69.6263C89.0844 69.7318 89.1443 69.8751 89.145 70.0247Z" fill="#E0E0E0"/>
<path d="M121.709 72.8174C121.709 72.9294 121.676 73.039 121.614 73.1321C121.552 73.2252 121.463 73.2977 121.36 73.3405C121.256 73.3832 121.142 73.3943 121.032 73.3722C120.922 73.3502 120.822 73.296 120.742 73.2166C120.663 73.1372 120.61 73.0361 120.588 72.9262C120.567 72.8162 120.578 72.7024 120.621 72.599C120.665 72.4956 120.738 72.4074 120.831 72.3456C120.924 72.2837 121.034 72.251 121.146 72.2515C121.296 72.2522 121.439 72.3121 121.545 72.4182C121.65 72.5242 121.709 72.6678 121.709 72.8174Z" fill="#E0E0E0"/>
<path d="M121.621 124.599C121.621 124.639 98.3838 124.667 69.7288 124.667C41.0739 124.667 17.8345 124.639 17.8345 124.599C17.8345 124.56 41.0634 124.531 69.7288 124.531C98.3942 124.531 121.621 124.563 121.621 124.599Z" fill="#263238"/>
<path d="M52.1514 115.458L53.5426 124.6H61.6227L63.4986 115.592L52.1514 115.458Z" fill="#FF725E"/>
<path d="M62.3692 121.306C62.3692 121.332 60.2994 121.356 57.7449 121.356C55.1904 121.356 53.1206 121.332 53.1206 121.306C53.1206 121.28 55.1904 121.259 57.7449 121.259C60.2994 121.259 62.3692 121.306 62.3692 121.306Z" fill="#FAFAFA"/>
<path d="M62.4003 120.868C62.4003 120.895 60.3043 120.916 57.7446 120.916C55.1849 120.916 53.0889 120.895 53.0889 120.868C53.0889 120.842 55.1849 120.821 57.7446 120.821C60.3043 120.821 62.4003 120.842 62.4003 120.868Z" fill="#FAFAFA"/>
<path d="M62.3844 120.36C62.3844 120.386 60.2884 120.407 57.7287 120.407C55.1689 120.407 53.0703 120.386 53.0703 120.36C53.0703 120.334 55.1663 120.313 57.7287 120.313C60.291 120.313 62.3844 120.334 62.3844 120.36Z" fill="#FAFAFA"/>
<path d="M54.4697 124.078C54.3565 123.702 54.2742 123.317 54.2234 122.928C54.1397 122.544 54.088 122.154 54.0688 121.762C54.1805 122.138 54.2629 122.523 54.3151 122.912C54.3988 123.296 54.4505 123.686 54.4697 124.078Z" fill="#FAFAFA"/>
<path d="M55.02 123.981C54.9633 123.61 54.93 123.235 54.9204 122.86C54.8777 122.486 54.8602 122.109 54.868 121.733C54.9546 122.1 55.0038 122.475 55.0147 122.852C55.0558 123.227 55.0576 123.605 55.02 123.981Z" fill="#FAFAFA"/>
<path d="M56.0209 123.981C55.9129 123.605 55.8427 123.22 55.8113 122.831C55.7497 122.444 55.7295 122.053 55.751 121.662C55.8239 122.044 55.8755 122.43 55.9056 122.818C55.9689 123.202 56.0074 123.591 56.0209 123.981Z" fill="#FAFAFA"/>
<path d="M56.7259 124.03C56.6011 123.255 56.5756 122.467 56.6499 121.686C56.7014 122.466 56.7268 123.248 56.7259 124.03Z" fill="#FAFAFA"/>
<path d="M57.9704 123.981C57.9114 123.614 57.8833 123.244 57.8865 122.872C57.8555 122.501 57.8555 122.128 57.8865 121.756C57.9764 122.494 58.0018 123.238 57.9625 123.981H57.9704Z" fill="#FAFAFA"/>
<path d="M58.8794 124.031C58.8244 123.265 58.8305 122.497 58.8978 121.733C58.9563 122.498 58.9502 123.267 58.8794 124.031Z" fill="#FAFAFA"/>
<path d="M59.7366 123.908C59.7282 123.507 59.7509 123.105 59.8047 122.708C59.8286 122.307 59.8829 121.908 59.9671 121.516C59.9771 121.917 59.9543 122.318 59.899 122.716C59.8767 123.117 59.8224 123.515 59.7366 123.908Z" fill="#FAFAFA"/>
<path d="M60.8311 123.787C60.8347 123.443 60.8805 123.1 60.9673 122.767C61.0253 122.427 61.1266 122.096 61.2686 121.782C61.218 122.12 61.1489 122.455 61.0616 122.786C61.0059 123.124 60.9289 123.458 60.8311 123.787Z" fill="#FAFAFA"/>
<path d="M51.2236 113.647V115.358C51.2236 115.537 51.2946 115.708 51.4209 115.834C51.5471 115.961 51.7184 116.032 51.897 116.032H63.6005C63.7791 116.032 63.9504 115.961 64.0766 115.834C64.2029 115.708 64.2739 115.537 64.2739 115.358V113.647H51.2236Z" fill="#FF725E"/>
<g opacity="0.4">
<path d="M52.2373 116.032L52.3342 116.577L63.1339 117.347L63.4064 116.032H52.2373Z" fill="black"/>
</g>
<path d="M52.9868 113.658C52.9868 113.658 48.4359 108.418 48.9416 108.224C49.4472 108.03 53.4925 110.941 53.4925 110.941C53.4925 110.941 50.0158 103.168 50.7101 102.599C51.4044 102.031 55.0724 109.487 55.0724 109.487C55.0724 109.487 54.5012 98.6168 55.0724 98.4831C55.6435 98.3495 57.7264 109.354 57.7264 109.354C57.7264 109.354 60.8206 99.3058 61.7062 99.3058C62.5918 99.3058 60.7578 108.992 60.7578 108.992C60.7578 108.992 64.4258 102.798 64.9917 103.621C65.5576 104.444 62.4005 111.14 62.4005 111.14C62.4005 111.14 67.0143 107.286 67.203 107.792C67.3916 108.298 62.2119 113.669 62.2119 113.669L52.9868 113.658Z" fill="#455A64"/>
<path d="M52.3501 105.759C52.3815 105.743 53.1885 107.475 54.1526 109.623C55.1168 111.772 55.874 113.525 55.8425 113.538C55.8111 113.551 55.0041 111.822 54.04 109.673C53.0758 107.525 52.3186 105.772 52.3501 105.759Z" fill="#263238"/>
<path d="M56.026 106.726C56.0601 106.726 56.1937 108.248 56.3247 110.132C56.4557 112.015 56.5343 113.538 56.5002 113.538C56.4662 113.538 56.3326 112.015 56.2016 110.132C56.0706 108.248 55.992 106.728 56.026 106.726Z" fill="#263238"/>
<path d="M61.0955 101.857C61.0928 101.9 61.084 101.941 61.0693 101.981L60.9698 102.326C60.8755 102.643 60.7444 103.07 60.5899 103.592C60.2676 104.661 59.8379 106.141 59.3978 107.784C58.9576 109.427 58.5961 110.928 58.3498 112.015C58.224 112.539 58.1218 112.982 58.0485 113.302C58.0144 113.443 57.9856 113.564 57.962 113.653C57.9531 113.694 57.9408 113.734 57.9253 113.773C57.9232 113.731 57.9276 113.688 57.9384 113.647C57.9542 113.553 57.9751 113.435 58.0013 113.294C58.0563 112.985 58.1454 112.542 58.2633 111.997C58.4939 110.904 58.8449 109.4 59.2851 107.752C59.7253 106.104 60.1707 104.627 60.5113 103.56C60.6842 103.036 60.8283 102.602 60.9305 102.305L61.0536 101.967C61.0637 101.929 61.0777 101.893 61.0955 101.857Z" fill="#263238"/>
<path d="M63.2886 107.459C63.3174 107.48 62.4292 108.803 61.3052 110.417C60.1813 112.031 59.2485 113.323 59.2092 113.299C59.1699 113.276 60.0686 111.955 61.1926 110.341C62.3166 108.727 63.2598 107.441 63.2886 107.459Z" fill="#263238"/>
<path d="M54.5224 113.546C54.3765 113.471 54.2423 113.376 54.1241 113.263C53.8216 113.011 53.5322 112.745 53.2569 112.464C52.979 112.183 52.7166 111.887 52.4709 111.578C52.3603 111.457 52.2676 111.32 52.1958 111.172C52.2246 111.149 52.6962 111.722 53.3355 112.375C53.9748 113.027 54.5459 113.517 54.5224 113.546Z" fill="#263238"/>
<path d="M57.2839 111.462C57.4339 112.177 57.5007 112.907 57.4831 113.637C57.3879 113.284 57.3334 112.921 57.3206 112.555C57.2685 112.193 57.2562 111.827 57.2839 111.462Z" fill="#263238"/>
<path d="M25.1968 39.9575C25.1968 39.9575 25.1758 39.9811 25.1417 40.0335C25.1077 40.0859 25.0527 40.1697 24.9898 40.2667C24.9269 40.3636 24.8693 40.513 24.7985 40.678C24.7309 40.8731 24.6809 41.0739 24.6492 41.278C24.5695 41.8416 24.6097 42.4157 24.7671 42.9627C24.9773 43.6855 25.3271 44.3602 25.7967 44.9486C26.3792 45.6543 27.0905 46.2429 27.8927 46.6831C28.8 47.1908 29.741 47.6355 30.7092 48.014C32.7293 48.8341 34.9379 49.8664 36.8741 51.4855C37.8038 52.2812 38.6139 53.2069 39.2793 54.2339C39.8887 55.199 40.3704 56.2391 40.7124 57.3281C41.3884 59.4084 41.7918 61.3498 41.8416 63.003C41.8748 63.7452 41.8318 64.4888 41.7132 65.2222C41.674 65.5471 41.5927 65.8431 41.5351 66.1182C41.4774 66.3933 41.3857 66.6422 41.3229 66.8571C41.163 67.2894 41.0347 67.6247 40.9246 67.8422L40.812 68.1042C40.7977 68.1327 40.7863 68.1625 40.7779 68.1933C40.7967 68.1672 40.8125 68.139 40.8251 68.1094L40.9508 67.8631C41.1107 67.5442 41.2515 67.2162 41.3726 66.8806C41.4381 66.6579 41.5272 66.4143 41.598 66.1418C41.6687 65.8693 41.7447 65.5706 41.7892 65.2431C41.9156 64.5053 41.9656 63.7564 41.9386 63.0083C41.9019 61.342 41.5036 59.3848 40.8329 57.2993C40.4908 56.1983 40.0064 55.1466 39.3919 54.171C38.718 53.131 37.8953 52.1953 36.9501 51.3938C34.9956 49.7589 32.7738 48.724 30.7459 47.9118C29.7826 47.5379 28.8452 47.1003 27.9399 46.6018C27.1504 46.1706 26.4492 45.5947 25.8727 44.9041C25.4054 44.3285 25.0547 43.6672 24.8404 42.9574C24.6787 42.4213 24.6314 41.8572 24.7016 41.3016C24.7297 41.0998 24.7753 40.9008 24.8378 40.7068C24.9033 40.5444 24.961 40.4055 25.0134 40.2955L25.1522 40.0571C25.1837 39.9863 25.1968 39.9575 25.1968 39.9575Z" fill="#263238"/>
<path d="M24.7982 41.8365C23.1319 41.0007 21.7066 39.2741 20.7346 37.6838C19.7625 36.0934 19.3879 34.0839 19.9879 32.318C20.5878 30.5521 22.2437 29.1242 24.1039 29.0351C26.1003 28.9408 27.9684 30.3818 28.7334 32.2237C29.4985 34.0655 28.9509 36.5336 27.8924 38.2261C26.6977 40.1387 26.3702 40.7675 24.7982 41.8365Z" fill="#455A64"/>
<path d="M25.5185 42.1639C25.2644 41.9425 25.0752 41.6564 24.9709 41.3359L24.8006 41.5272C24.59 41.8243 24.4534 42.1675 24.4023 42.528C24.4023 42.6066 24.4023 42.7088 24.4626 42.7455C24.5229 42.7822 24.6303 42.7193 24.6748 42.6459C24.7073 42.5673 24.7565 42.4967 24.8189 42.439C24.813 42.5283 24.8273 42.6179 24.8608 42.701C24.8782 42.7424 24.9085 42.7771 24.9472 42.7997C24.986 42.8224 25.0311 42.8319 25.0757 42.8267C25.1187 42.8122 25.1559 42.7842 25.1818 42.747C25.2078 42.7097 25.2211 42.6651 25.2198 42.6197C25.2134 42.5276 25.1865 42.4381 25.1412 42.3577C25.2073 42.4513 25.2979 42.5247 25.4032 42.57C25.455 42.5911 25.5131 42.5911 25.5649 42.57C25.6168 42.549 25.6584 42.5086 25.6809 42.4573C25.7045 42.3473 25.6049 42.2425 25.5185 42.1639Z" fill="#455A64"/>
<path d="M25.1521 41.5873C25.1835 41.6082 25.0997 41.7497 24.9189 41.7916C24.7381 41.8336 24.5993 41.7445 24.615 41.713C24.6307 41.6816 24.7512 41.6921 24.877 41.658C25.0027 41.624 25.1206 41.5611 25.1521 41.5873Z" fill="#263238"/>
<path d="M28.3299 34.2012C28.3397 34.2953 28.3397 34.3901 28.3299 34.4841C28.3134 34.7398 28.2828 34.9943 28.2382 35.2466C27.9496 36.9246 27.2452 38.5036 26.1894 39.8394C26.0298 40.0424 25.8583 40.2357 25.6759 40.4184C25.615 40.4905 25.5455 40.5547 25.4689 40.6097C25.4532 40.594 25.7309 40.2979 26.1056 39.7792C26.6019 39.1045 27.0253 38.3791 27.3684 37.615C27.7086 36.8493 27.9651 36.0491 28.1334 35.2282C28.2671 34.5968 28.2959 34.1986 28.3299 34.2012Z" fill="#F5F5F5"/>
<path d="M27.9893 32.1006C28.1015 32.2744 28.1723 32.4716 28.1963 32.677C28.2656 32.8716 28.2898 33.0795 28.267 33.2848C28.157 33.1102 28.0872 32.9133 28.0627 32.7084C27.9949 32.5134 27.9699 32.3061 27.9893 32.1006Z" fill="#F5F5F5"/>
<path d="M108.678 26.7427C108.698 26.7667 108.716 26.7921 108.733 26.8187C108.775 26.8763 108.824 26.9523 108.89 27.0492C108.964 27.1811 109.031 27.3166 109.092 27.4553C109.165 27.6479 109.221 27.847 109.257 28.0501C109.352 28.6113 109.327 29.1865 109.183 29.7373C108.992 30.4658 108.659 31.1495 108.204 31.7495C107.641 32.4677 106.949 33.0739 106.163 33.5363C105.269 34.0671 104.341 34.5354 103.383 34.938C101.381 35.8079 99.1907 36.8978 97.3069 38.5667C96.3949 39.3839 95.6052 40.3281 94.962 41.3701C94.3775 42.3511 93.9222 43.4034 93.6075 44.501C92.9866 46.597 92.6302 48.5489 92.6224 50.2022C92.61 50.9445 92.6723 51.6862 92.8084 52.4161C92.8582 52.7409 92.9446 53.0344 93.0101 53.3069C93.0756 53.5793 93.1726 53.8309 93.2433 54.0405C93.411 54.4701 93.5499 54.8029 93.6625 55.0177C93.7149 55.1225 93.7542 55.2037 93.783 55.2666C93.7987 55.2948 93.811 55.3247 93.8197 55.3557C93.8008 55.3301 93.7842 55.3029 93.7699 55.2745L93.6389 55.0282C93.4711 54.7143 93.3224 54.3906 93.1935 54.0588C93.1202 53.8387 93.0259 53.5977 92.9473 53.3252C92.8687 53.0527 92.7874 52.7567 92.7324 52.4318C92.5874 51.6976 92.518 50.9505 92.5254 50.2022C92.5254 48.5358 92.8687 46.5682 93.487 44.4644C93.8 43.3557 94.2562 42.2927 94.8441 41.302C95.4922 40.2458 96.291 39.2899 97.2152 38.4646C99.1278 36.7799 101.323 35.6874 103.328 34.8228C104.286 34.4261 105.216 33.9638 106.11 33.4394C106.884 32.9904 107.569 32.4013 108.128 31.7023C108.578 31.1137 108.912 30.444 109.11 29.7295C109.256 29.1891 109.288 28.6244 109.204 28.071C109.172 27.8694 109.121 27.6712 109.052 27.4789C108.984 27.3165 108.921 27.1802 108.866 27.0728L108.722 26.837C108.704 26.8075 108.689 26.7759 108.678 26.7427Z" fill="#263238"/>
<path d="M109.411 29.8891C107.897 28.8018 106.763 26.8709 106.053 25.1495C105.343 23.4282 105.29 21.382 106.16 19.734C107.03 18.086 108.887 16.9358 110.742 17.1402C112.726 17.3577 114.345 19.0764 114.811 21.0178C115.278 22.9592 114.348 25.3067 113.035 26.8106C111.555 28.511 111.13 29.0795 109.411 29.8891Z" fill="#FF725E"/>
<path d="M110.011 30.13C109.794 29.8717 109.652 29.5592 109.6 29.2261L109.401 29.3885C109.147 29.6502 108.959 29.9679 108.851 30.316C108.824 30.392 108.811 30.4915 108.877 30.5387C108.942 30.5859 109.044 30.5387 109.099 30.4758C109.154 30.4129 109.199 30.3265 109.278 30.2924C109.258 30.3787 109.258 30.4681 109.278 30.5544C109.289 30.598 109.314 30.6369 109.349 30.6656C109.384 30.6943 109.427 30.7113 109.472 30.7142C109.516 30.7066 109.557 30.6845 109.589 30.6514C109.62 30.6183 109.639 30.576 109.644 30.5308C109.652 30.4421 109.64 30.3527 109.61 30.2688C109.658 30.3744 109.733 30.465 109.828 30.5308C109.876 30.5592 109.933 30.5676 109.988 30.5544C110.042 30.5412 110.089 30.5074 110.119 30.4601C110.166 30.337 110.082 30.2191 110.011 30.13Z" fill="#FF725E"/>
<path d="M109.736 29.4988C109.765 29.5224 109.66 29.6507 109.474 29.6638C109.288 29.6769 109.165 29.5669 109.188 29.5381C109.212 29.5093 109.325 29.5381 109.464 29.5381C109.602 29.5381 109.712 29.4673 109.736 29.4988Z" fill="#263238"/>
<path d="M114.038 22.7046C114.035 22.7998 114.019 22.8941 113.991 22.985C113.933 23.234 113.862 23.4797 113.778 23.7212C113.23 25.3338 112.286 26.7832 111.033 27.9368C110.846 28.111 110.649 28.2745 110.443 28.4267C110.373 28.4898 110.295 28.5427 110.21 28.5839C110.194 28.5656 110.509 28.3219 110.967 27.866C112.167 26.6889 113.096 25.2635 113.687 23.6898C113.915 23.0872 114.014 22.6994 114.038 22.7046Z" fill="#F5F5F5"/>
<path d="M114.036 20.5776C114.117 20.7679 114.155 20.9736 114.149 21.1802C114.184 21.3831 114.176 21.5912 114.125 21.7907C114.042 21.6019 114.004 21.3967 114.012 21.1907C113.975 20.9871 113.983 20.7778 114.036 20.5776Z" fill="#F5F5F5"/>
<path d="M91.2652 16.9673C91.2814 17.0022 91.2954 17.038 91.3071 17.0747L91.4171 17.3943C91.5167 17.6721 91.6451 18.0913 91.797 18.6336C92.2147 20.1733 92.4564 21.7554 92.5175 23.3496C92.557 24.4503 92.4912 25.5522 92.321 26.6403C92.2712 26.9338 92.2241 27.2324 92.1533 27.5311L92.0512 27.9844L91.9254 28.4376C91.7577 29.0481 91.5245 29.6586 91.3071 30.2716C90.8643 31.524 90.4844 32.8707 89.9211 34.2016C89.6374 34.8854 89.2974 35.5444 88.9045 36.1719C88.49 36.8083 88.0395 37.4207 87.5552 38.0059C87.0903 38.6028 86.6582 39.2247 86.261 39.8687C85.8601 40.4975 85.4985 41.1394 85.1501 41.7708C84.4891 42.9945 83.891 44.2511 83.358 45.5358C82.8671 46.6935 82.4634 47.8863 82.1502 49.1042C81.8828 50.1651 81.7204 51.2498 81.6655 52.3425C81.6046 53.2524 81.7367 54.1649 82.0532 55.0202C82.3045 55.6538 82.6907 56.2251 83.1851 56.6944C83.3646 56.8653 83.5564 57.0229 83.7589 57.1659C83.9041 57.2762 84.0564 57.3768 84.2147 57.4672L84.5029 57.6376C84.5375 57.6549 84.57 57.676 84.5999 57.7004C84.5643 57.6872 84.53 57.6706 84.4977 57.6507L84.199 57.4908C84.0373 57.4047 83.8823 57.3066 83.7353 57.1974C83.5271 57.0584 83.3308 56.9024 83.1484 56.731C82.6405 56.2631 82.2424 55.6887 81.9825 55.049C81.6578 54.1936 81.5168 53.2795 81.5685 52.3661C81.6175 51.265 81.7755 50.1715 82.0401 49.1016C82.3497 47.8773 82.7518 46.6783 83.2427 45.5148C83.7725 44.2241 84.3698 42.9621 85.0322 41.7341C85.3806 41.1001 85.7422 40.453 86.1457 39.8215C86.5478 39.1737 86.9851 38.5483 87.4557 37.9482C87.9368 37.3625 88.3847 36.7502 88.7971 36.1142C89.1852 35.4927 89.5226 34.8408 89.8058 34.165C90.3639 32.834 90.749 31.4873 91.197 30.235C91.4171 29.6062 91.6503 29.0009 91.818 28.401L91.9437 27.9529L92.0459 27.5023C92.1193 27.2062 92.1664 26.9102 92.2162 26.6194C92.3901 25.5386 92.4611 24.4438 92.4284 23.3496C92.3761 21.7628 92.1494 20.1866 91.7525 18.6493C91.6084 18.1044 91.4905 17.6852 91.3988 17.4022C91.3569 17.266 91.3254 17.1585 91.3018 17.0799C91.2862 17.0436 91.274 17.0059 91.2652 16.9673Z" fill="#263238"/>
<path d="M92.1741 21.5468C89.9288 20.5355 87.9559 18.3295 86.583 16.2833C85.2102 14.237 84.6259 11.6039 85.3097 9.24071C85.9935 6.87747 88.1131 4.90199 90.5654 4.68191C93.1854 4.44873 95.7399 6.25391 96.8534 8.64073C97.9669 11.0275 97.3774 14.3183 96.0674 16.6108C94.5924 19.2019 94.1941 20.0482 92.1767 21.5468" fill="#455A64"/>
<path d="M93.1436 21.9402C92.7961 21.6616 92.5308 21.294 92.3759 20.8765L92.1611 21.1385C91.8991 21.4005 91.7366 22.1183 91.6895 22.4825C91.6895 22.5873 91.6895 22.7209 91.7812 22.7655C91.8729 22.81 91.9986 22.7236 92.0432 22.624C92.0829 22.5181 92.1445 22.4216 92.2239 22.341C92.2214 22.4593 92.2456 22.5766 92.2947 22.6843C92.3181 22.7389 92.3593 22.784 92.4117 22.812C92.4641 22.8401 92.5244 22.8496 92.5829 22.8388C92.6409 22.8204 92.6907 22.7823 92.7236 22.7312C92.7566 22.68 92.7708 22.619 92.7637 22.5585C92.7502 22.4384 92.7099 22.3229 92.6458 22.2205C92.7362 22.3376 92.8566 22.4281 92.9942 22.4825C93.0637 22.508 93.1405 22.5049 93.2077 22.474C93.2749 22.443 93.3272 22.3868 93.3532 22.3175C93.3977 22.1734 93.2719 22.0424 93.1436 21.9402Z" fill="#455A64"/>
<path d="M92.6251 21.1985C92.6592 21.2169 92.5518 21.3977 92.3212 21.4605C92.0906 21.5234 91.9072 21.4265 91.9256 21.3924C91.9439 21.3584 92.0985 21.3924 92.2845 21.3269C92.4705 21.2614 92.5963 21.1723 92.6251 21.1985Z" fill="#263238"/>
<g opacity="0.3">
<path d="M88.5851 6.26715C86.1721 7.83915 85.4752 10.4749 86.3057 13.2337C86.5677 14.1141 87.0419 14.9734 87.9013 15.3952C88.1287 15.5082 88.3763 15.575 88.6296 15.5917C89.9108 15.673 90.5291 14.5621 90.6339 13.5167C90.7099 12.7307 90.5632 11.9657 90.5422 11.1875C90.5213 10.4094 90.6549 9.57621 91.1841 9.00767C91.7134 8.43913 92.6016 8.16665 92.6487 7.28633C92.6516 7.07539 92.6058 6.86663 92.5149 6.67624C92.4241 6.48586 92.2905 6.31898 92.1247 6.18855C91.8708 5.98751 91.5769 5.84282 91.2627 5.76411C90.4529 5.56622 89.5979 5.69118 88.8785 6.11257L88.5851 6.26715Z" fill="white"/>
</g>
<path d="M96.4161 11.2656C96.4292 11.3893 96.4292 11.514 96.4161 11.6377C96.4033 11.9752 96.3736 12.3118 96.327 12.6464C96.266 13.1516 96.1759 13.6528 96.0572 14.1476C95.9052 14.7436 95.7171 15.3299 95.4939 15.903C95.2652 16.4736 95.0027 17.03 94.7079 17.5693C94.4615 18.0072 94.1903 18.4305 93.8957 18.8374C93.6995 19.1099 93.4897 19.3723 93.2669 19.6234C93.188 19.7188 93.1003 19.8066 93.0049 19.8854C93.0675 19.778 93.1394 19.6763 93.2197 19.5815C93.3664 19.3955 93.5708 19.1178 93.8118 18.7667C94.0529 18.4156 94.3201 17.9807 94.5978 17.4907C94.8911 16.9551 95.1536 16.4031 95.3838 15.8375C95.6065 15.2699 95.7964 14.6899 95.9524 14.1005C96.0799 13.6188 96.1822 13.1308 96.2589 12.6385C96.327 12.2193 96.369 11.8761 96.3899 11.6377C96.3867 11.5131 96.3955 11.3885 96.4161 11.2656Z" fill="white"/>
<path d="M95.8628 8.51709C96.0012 8.75155 96.0995 9.00746 96.1536 9.27427C96.2461 9.52642 96.2974 9.79181 96.3056 10.0603C96.1694 9.82554 96.0738 9.56957 96.0226 9.30309C95.9264 9.05168 95.8724 8.7861 95.8628 8.51709Z" fill="white"/>
<path d="M43.4368 20.6196C43.4205 20.6493 43.4082 20.681 43.4002 20.7139C43.374 20.7821 43.3425 20.8764 43.3006 20.9969C43.2115 21.2432 43.0989 21.6152 42.9652 22.0973C42.5937 23.4658 42.3792 24.8722 42.326 26.2893C42.2894 27.2656 42.3482 28.2431 42.5015 29.208C42.5434 29.47 42.5853 29.732 42.6482 29.994C42.6797 30.125 42.7085 30.256 42.7373 30.3949C42.7661 30.5337 42.8133 30.6569 42.85 30.7983C42.9967 31.3407 43.2063 31.8804 43.3975 32.4358C43.7905 33.5493 44.1285 34.7441 44.6289 35.9362C44.8815 36.5426 45.1838 37.1271 45.5328 37.6837C45.8996 38.2493 46.2985 38.7934 46.7276 39.3133C47.1404 39.8427 47.5235 40.3946 47.8751 40.9666C48.2314 41.5246 48.5511 42.0932 48.8629 42.6538C49.4483 43.7397 49.9782 44.8547 50.4506 45.9943C50.8863 47.0213 51.2454 48.0792 51.5248 49.1593C51.7613 50.1037 51.9052 51.0689 51.9545 52.0413C52.0064 52.8429 51.8885 53.6464 51.6086 54.3993C51.3859 54.9608 51.0445 55.4675 50.6078 55.8848C50.4479 56.036 50.2772 56.1753 50.0969 56.3014C49.9684 56.3977 49.8336 56.4852 49.6934 56.5634L49.4314 56.7154C49.4011 56.7298 49.3729 56.7483 49.3476 56.7704C49.3793 56.7582 49.41 56.7433 49.4393 56.7259L49.7013 56.5844C49.8455 56.5072 49.9838 56.4197 50.1152 56.3224C50.3 56.1976 50.4751 56.0593 50.6392 55.9084C51.0887 55.4924 51.4412 54.9825 51.6715 54.415C51.9598 53.6567 52.0848 52.846 52.0383 52.0361C51.9954 51.0557 51.8532 50.0822 51.6139 49.1305C51.3438 48.0449 50.9935 46.9809 50.5659 45.9472C50.0947 44.8027 49.5647 43.6834 48.9781 42.5936C48.6664 42.0303 48.3467 41.4565 47.9904 40.8958C47.6346 40.3223 47.249 39.7678 46.835 39.2347C46.407 38.7179 46.0099 38.1764 45.6455 37.613C45.2987 37.0623 44.9982 36.484 44.7468 35.8838C44.2517 34.7021 43.9111 33.5074 43.5154 32.3939C43.3189 31.8359 43.112 31.3014 42.9626 30.7643C42.9259 30.6307 42.8893 30.5023 42.85 30.3634C42.8107 30.2246 42.7897 30.1014 42.7609 29.9652C42.6954 29.7032 42.6561 29.4412 42.6089 29.1792C42.455 28.2205 42.3927 27.2493 42.4229 26.2788C42.4685 24.8708 42.6688 23.472 43.0203 22.1078C43.1486 21.6231 43.2534 21.2511 43.3347 21.0022L43.4211 20.7139C43.4286 20.6829 43.4339 20.6514 43.4368 20.6196Z" fill="#263238"/>
<path d="M42.2688 24.7934C40.2749 23.8947 38.5143 21.9402 37.3065 20.1219C36.0987 18.3037 35.5589 15.9823 36.1773 13.8863C36.7956 11.7903 38.6636 10.0376 40.8409 9.84368C43.1727 9.63408 45.4311 11.2323 46.4188 13.3571C47.4066 15.4819 46.88 18.3927 45.7219 20.4311C44.4119 22.7288 44.0582 23.4808 42.2688 24.8091" fill="#FF725E"/>
<path d="M43.1281 25.1517C42.8201 24.9045 42.5848 24.5786 42.4469 24.2085L42.2556 24.4417C42.0329 24.6801 41.8783 25.3115 41.8364 25.6338C41.8364 25.7281 41.8364 25.8434 41.9203 25.8958C42.0041 25.9482 42.1141 25.8565 42.1613 25.77C42.1942 25.6718 42.2488 25.5822 42.3211 25.508C42.3195 25.6136 42.3409 25.7182 42.384 25.8146C42.4014 25.8667 42.438 25.9101 42.4864 25.9361C42.5348 25.962 42.5913 25.9684 42.6443 25.954C42.6973 25.9396 42.7427 25.9054 42.7713 25.8585C42.7999 25.8117 42.8094 25.7556 42.798 25.7019C42.787 25.595 42.7521 25.492 42.6958 25.4006C42.7756 25.5064 42.8824 25.5887 43.0049 25.639C43.0666 25.6578 43.133 25.6533 43.1915 25.6262C43.25 25.5991 43.2964 25.5515 43.322 25.4923C43.3534 25.3482 43.2303 25.2329 43.1281 25.1517Z" fill="#FF725E"/>
<path d="M42.6693 24.4837C42.6955 24.4994 42.6038 24.6592 42.4073 24.7169C42.2108 24.7745 42.0405 24.6854 42.0562 24.6566C42.0719 24.6278 42.2108 24.6566 42.3758 24.599C42.5409 24.5413 42.6431 24.4601 42.6693 24.4837Z" fill="#263238"/>
<g opacity="0.3">
<path d="M39.0822 11.2343C36.9416 12.6307 36.3233 14.9678 37.0595 17.4175C37.2953 18.2035 37.7119 18.9606 38.4769 19.3353C38.6784 19.435 38.8973 19.4946 39.1215 19.5108C40.2585 19.5816 40.8087 18.5938 40.9004 17.6768C40.9659 16.9904 40.8376 16.3013 40.8192 15.6123C40.8009 14.9232 40.9188 14.1818 41.3878 13.6787C41.8567 13.1757 42.6454 12.932 42.6978 12.1486C42.701 11.962 42.6611 11.7772 42.5811 11.6086C42.5011 11.44 42.3832 11.2921 42.2366 11.1766C42.0124 10.9925 41.7503 10.8601 41.469 10.7889C40.75 10.6126 39.9906 10.7235 39.352 11.098L39.0822 11.2343Z" fill="white"/>
</g>
<path d="M46.0386 15.6807C46.0489 15.7905 46.0489 15.901 46.0386 16.0108C46.0288 16.3106 46.0034 16.6097 45.9626 16.9068C45.8993 17.3479 45.8118 17.7853 45.7006 18.2168C45.5655 18.7464 45.3975 19.267 45.1976 19.7757C44.994 20.2818 44.7587 20.7745 44.4928 21.2508C44.2743 21.6397 44.0338 22.0159 43.7723 22.3774C43.5496 22.6839 43.3557 22.925 43.2143 23.0822C43.1468 23.1693 43.0704 23.2492 42.9863 23.3206C43.0428 23.2281 43.1067 23.1405 43.1776 23.0586C43.3086 22.8909 43.4894 22.6446 43.7016 22.3328C43.9138 22.0211 44.1522 21.6385 44.3959 21.2036C44.6522 20.7266 44.8822 20.2359 45.0849 19.7338C45.2835 19.2306 45.4523 18.7162 45.5906 18.1932C45.7137 17.7112 45.8054 17.271 45.8526 16.8832C45.8998 16.4955 45.9495 16.2073 45.9679 15.9951C45.9822 15.8884 46.0059 15.7832 46.0386 15.6807Z" fill="white"/>
<path d="M45.541 13.2334C45.6651 13.4408 45.7537 13.6675 45.803 13.9041C45.8868 14.1299 45.932 14.3681 45.9366 14.6089C45.8171 14.4007 45.733 14.174 45.6877 13.9382C45.5995 13.7132 45.5499 13.4749 45.541 13.2334Z" fill="white"/>
<path d="M77.29 114.858L77.2088 114.816L76.9808 114.683C76.7034 114.484 76.4631 114.239 76.2708 113.957C75.976 113.504 75.7821 112.993 75.7023 112.458C75.5954 111.75 75.6301 111.028 75.8045 110.333C76.0461 109.505 76.3828 108.708 76.8079 107.957C77.2925 107.104 77.7298 106.225 78.1179 105.324C78.5031 104.311 78.7088 103.239 78.7258 102.156C78.727 100.993 78.5844 99.8341 78.3013 98.7058C77.738 96.374 76.7974 94.278 76.0298 92.347C75.313 90.6438 74.7773 88.8699 74.4316 87.0546C74.3187 86.3528 74.2591 85.6433 74.2534 84.9325C74.2534 84.6207 74.2744 84.3272 74.298 84.06C74.3215 83.7927 74.353 83.5491 74.3949 83.3316L74.5128 82.7578C74.5547 82.5928 74.6019 82.4565 74.6333 82.3465C74.6648 82.2365 74.691 82.1579 74.7119 82.0845C74.7193 82.0547 74.7299 82.0257 74.7434 81.998C74.74 82.0282 74.7338 82.0581 74.725 82.0871C74.7093 82.1526 74.6857 82.2365 74.6595 82.3491C74.6333 82.4618 74.5914 82.598 74.5521 82.7631C74.5128 82.9282 74.4866 83.122 74.4473 83.3369C74.408 83.5517 74.3949 83.7954 74.3635 84.06C74.332 84.3246 74.3373 84.6154 74.332 84.9272C74.3425 85.6298 74.4074 86.3306 74.5259 87.0232C74.8843 88.8288 75.4278 90.5926 76.1477 92.2868C76.9206 94.2125 77.8664 96.3137 78.4349 98.6612C78.7212 99.8005 78.8638 100.971 78.8594 102.146C78.8399 103.244 78.6289 104.33 78.2358 105.355C77.8407 106.26 77.3946 107.142 76.8996 107.996C76.4738 108.741 76.1345 109.532 75.8883 110.354C75.7123 111.039 75.6722 111.751 75.7704 112.45C75.8431 112.977 76.0261 113.482 76.3075 113.933C76.4927 114.214 76.7239 114.461 76.9913 114.664L77.2088 114.808C77.2375 114.822 77.2647 114.839 77.29 114.858Z" fill="#263238"/>
<path d="M74.0486 87.0127C71.7456 85.9647 69.723 83.7115 68.3161 81.6129C66.9091 79.5143 66.2934 76.8157 67.0061 74.3922C67.7187 71.9687 69.8881 69.9382 72.398 69.7155C75.0914 69.4744 77.7035 71.3242 78.8432 73.7765C79.9829 76.2288 79.3672 79.5981 78.0363 81.9509C76.5245 84.6076 76.1158 85.4774 74.046 87.0127" fill="#FF725E"/>
<path d="M75.0448 87.4163C74.6884 87.1303 74.4166 86.7526 74.2588 86.3237L74.0388 86.5857C73.7768 86.8608 73.6012 87.5892 73.5541 87.9638C73.541 88.0713 73.5541 88.2075 73.651 88.2547C73.7479 88.3018 73.8737 88.2101 73.9287 88.1079C73.9837 88.0058 74.0204 87.8852 74.1147 87.8197C74.111 87.9407 74.1352 88.0608 74.1855 88.1708C74.2112 88.2256 74.2539 88.2707 74.3072 88.2995C74.3605 88.3283 74.4216 88.3392 74.4815 88.3307C74.5396 88.3095 74.589 88.2698 74.6222 88.2177C74.6554 88.1656 74.6704 88.104 74.6649 88.0424C74.6534 87.9195 74.613 87.801 74.547 87.6966C74.6408 87.8136 74.7637 87.904 74.9034 87.9586C74.9747 87.9843 75.0531 87.9811 75.1221 87.9498C75.1911 87.9185 75.2452 87.8615 75.2728 87.7909C75.3042 87.6521 75.1654 87.508 75.0448 87.4163Z" fill="#FF725E"/>
<path d="M74.5133 86.6538C74.5447 86.6748 74.4373 86.8582 74.1989 86.9158C73.9604 86.9735 73.7744 86.8791 73.7928 86.8477C73.8111 86.8163 73.9735 86.8346 74.1622 86.7796C74.3508 86.7246 74.4818 86.6276 74.5133 86.6538Z" fill="#263238"/>
<g opacity="0.3">
<path d="M70.3678 71.3401C67.8919 72.9567 67.1793 75.6553 68.0308 78.4875C68.2928 79.3888 68.7853 80.2691 69.6683 80.704C69.9005 80.8199 70.1534 80.8885 70.4123 80.9057C71.7223 80.9869 72.3616 79.8577 72.469 78.7757C72.5476 77.9897 72.3957 77.1853 72.3747 76.3889C72.3538 75.5924 72.49 74.7356 73.035 74.1514C73.5799 73.5671 74.4864 73.2894 74.5336 72.3855C74.5393 72.1704 74.495 71.9568 74.404 71.7618C74.3131 71.5667 74.1781 71.3954 74.0096 71.2615C73.7504 71.0482 73.447 70.8951 73.1214 70.8135C72.2913 70.6089 71.4141 70.7368 70.677 71.1698L70.3678 71.3401Z" fill="white"/>
</g>
<path d="M78.4065 76.478C78.4195 76.6052 78.4195 76.7334 78.4065 76.8605C78.4065 77.1042 78.3724 77.4605 78.3174 77.8954C78.2492 78.406 78.153 78.9124 78.0292 79.4124C77.8736 80.0247 77.6802 80.6267 77.4502 81.215C77.2125 81.8 76.9404 82.3704 76.6354 82.9232C76.382 83.3749 76.1039 83.8123 75.8022 84.2332C75.6007 84.5159 75.3847 84.7878 75.1551 85.048C75.0759 85.148 74.9883 85.2409 74.8931 85.3258C74.955 85.2143 75.0288 85.1097 75.1131 85.014C75.2651 84.8227 75.4747 84.5371 75.721 84.1756C75.9673 83.814 76.245 83.3739 76.5201 82.8656C77.1232 81.7671 77.5887 80.5985 77.9061 79.3862C78.0502 78.8282 78.155 78.3173 78.2205 77.8876C78.286 77.4579 78.3331 77.1016 78.3541 76.8605C78.3614 76.7318 78.3789 76.6039 78.4065 76.478Z" fill="white"/>
<path d="M77.8325 73.6509C77.9725 73.8946 78.07 74.1604 78.1207 74.4369C78.2172 74.698 78.2695 74.9734 78.2753 75.2517C78.0402 74.7499 77.8906 74.2124 77.8325 73.6614V73.6509Z" fill="white"/>
<path d="M41.1635 44.4741C41.1295 44.1204 36.6624 33.6928 36.6624 33.6928L45.4892 34.8692L47.8131 27.245L54.9474 31.4396L59.3621 22.7936L66.2422 29.768L72.1346 21.5596L78.454 30.1296L83.9429 22.6783L88.0642 30.7531L96.3303 29.8361L92.5522 38.2804L102.084 44.3064L91.554 47.1334L92.7487 55.7322L85.0721 52.8922L82.3683 60.7836L75.1371 52.6616L73.1904 64.318L65.1837 56.4946L59.1001 67.1869L54.6303 57.4352L44.5119 64.3311L44.2787 53.2223L27.4321 53.1856L41.1635 44.4741Z" fill="#FAFAFA"/>
<path d="M41.1631 44.4744C41.1631 44.4744 40.8618 44.6709 40.267 45.0508C39.6723 45.4307 38.7867 45.9967 37.6234 46.7355L27.45 53.2017L27.4316 53.144L44.2782 53.1859H44.3228V53.2305C44.3961 56.6522 44.4774 60.3857 44.5612 64.3367L44.4852 64.2974L54.601 57.3779L54.6534 57.3413L54.6796 57.3989C56.0813 60.4565 57.5931 63.7498 59.1546 67.1505H59.0498L65.1282 56.4583L65.1675 56.3876L65.2251 56.4426L73.2345 64.2659L73.1271 64.3C73.7401 60.632 74.4004 56.6732 75.0711 52.641L75.0947 52.5047L75.1864 52.6095L82.4176 60.7447L82.3049 60.7656C83.1564 58.2766 84.0734 55.5832 85.0035 52.8663L85.0245 52.8008L85.09 52.8244L92.7666 55.6645L92.6749 55.7378C92.371 53.5475 92.0461 51.1974 91.7212 48.8315L91.4854 47.139V47.0787L91.543 47.063L102.073 44.2308L102.054 44.3539L92.5229 38.3279L92.4731 38.2965L92.4967 38.2441L96.2774 29.7998L96.3455 29.8915L88.0794 30.8085H88.0349L88.0139 30.7692L83.8848 22.7127H83.9922L78.5033 30.164L78.4535 30.2321L78.4037 30.164C76.2291 27.2121 74.1235 24.3537 72.0869 21.5887H72.1812L66.2862 29.7946L66.2496 29.847L66.2024 29.8024L59.3249 22.8228H59.4087C57.8594 25.8532 56.3861 28.7405 54.9888 31.4845L54.9652 31.529L54.9233 31.5028L47.7917 27.2925L47.8519 27.2689L45.5227 34.8931V34.9219H45.4913L36.6645 33.7351L36.6933 33.6984C38.1789 37.1777 39.3133 39.8711 40.0705 41.6972C40.4478 42.609 40.7334 43.3033 40.9168 43.7749C41.0085 44.0081 41.0714 44.1889 41.1185 44.2989C41.1657 44.4089 41.1657 44.4613 41.1709 44.4823C41.1709 44.4613 41.1473 44.4142 41.1107 44.3015C41.074 44.1889 40.9954 44.0055 40.9011 43.7775C40.715 43.3085 40.4242 42.6169 40.0443 41.7051C39.2793 39.8842 38.137 37.1935 36.6383 33.7167L36.62 33.6722H36.6671L45.4965 34.8433L45.4572 34.8669L47.7759 27.2401L47.7917 27.1903L47.8362 27.2165L54.9731 31.4085L54.9076 31.4268C56.3049 28.6863 57.7756 25.7982 59.3197 22.7625L59.3511 22.6996L59.4009 22.7494L66.2862 29.7238H66.2024L72.0922 21.5128L72.1393 21.4473L72.1865 21.5128L78.5085 30.0906H78.409L83.8953 22.6367L83.9555 22.5555L84.0027 22.6472C85.3511 25.2864 86.7257 27.9781 88.1266 30.7221L88.0611 30.688L96.3272 29.7684L96.4424 29.7553L96.3953 29.8627L92.6172 38.307L92.5937 38.2205L102.125 44.2465L102.256 44.3303L102.107 44.3696L91.5771 47.2019L91.6269 47.1285C91.7055 47.6918 91.7814 48.2551 91.8601 48.821C92.1876 51.179 92.5124 53.537 92.8137 55.7273L92.8295 55.84L92.7247 55.8007L85.048 52.9606L85.1371 52.9187C84.207 55.6356 83.2874 58.329 82.4359 60.818L82.3992 60.9254L82.3233 60.8416L75.0921 52.7039L75.1942 52.6619C74.5209 56.6915 73.858 60.6503 73.245 64.3183L73.2266 64.4389L73.1375 64.355L65.1308 56.5291H65.2278L59.1441 67.2187L59.0865 67.3182L59.0393 67.216L54.5801 57.4566L54.6613 57.4775L44.5402 64.3707L44.4643 64.4205V64.3288C44.383 60.3778 44.3071 56.6443 44.2363 53.22L44.2809 53.2645L27.4343 53.2069H27.3242L27.4185 53.1493L37.5999 46.7172L40.2565 45.043L41.1631 44.4744Z" fill="#263238"/>
<path d="M70.1191 34.9876L70.6431 43.1096C70.6614 43.4314 70.7976 43.7352 71.0257 43.9629C71.2539 44.1906 71.5579 44.3261 71.8798 44.3437C72.2177 44.3658 72.5511 44.2562 72.81 44.0379C73.0689 43.8195 73.2332 43.5094 73.2684 43.1725L74.1723 35.006C74.1862 34.8602 74.1694 34.7132 74.123 34.5743C74.0766 34.4354 74.0016 34.3078 73.9029 34.1997C73.8041 34.0916 73.6838 34.0053 73.5497 33.9466C73.4156 33.8878 73.2707 33.8577 73.1243 33.8584L71.1409 33.8846C71.0008 33.8879 70.8627 33.9193 70.7349 33.9769C70.6071 34.0346 70.4921 34.1173 70.3969 34.2201C70.3016 34.323 70.2279 34.4439 70.1802 34.5757C70.1325 34.7076 70.1117 34.8476 70.1191 34.9876Z" fill="#E0E0E0"/>
<path d="M74.0236 48.9147C73.8998 49.287 73.6684 49.6142 73.3586 49.855C73.0489 50.0958 72.6746 50.2392 72.2833 50.2673C71.892 50.2953 71.5011 50.2067 71.1602 50.0125C70.8193 49.8184 70.5436 49.5276 70.368 49.1767C70.1924 48.8259 70.1248 48.4309 70.1737 48.0416C70.2226 47.6523 70.3859 47.2863 70.6429 46.9899C70.8999 46.6934 71.239 46.4799 71.6174 46.3762C71.9958 46.2725 72.3964 46.2834 72.7686 46.4074C73.2674 46.5736 73.6798 46.9311 73.9151 47.4013C74.1505 47.8715 74.1895 48.4158 74.0236 48.9147Z" fill="#E0E0E0"/>
<path d="M65.862 45.3253L61.2744 41.2905C61.0935 41.131 60.8605 41.043 60.6194 41.043C60.3782 41.043 60.1453 41.131 59.9644 41.2905C59.7746 41.4587 59.6568 41.6934 59.6354 41.946C59.6139 42.1987 59.6904 42.4499 59.8491 42.6477L63.7057 47.4632C63.7755 47.5479 63.8622 47.617 63.9603 47.6661C64.0583 47.7153 64.1656 47.7433 64.2752 47.7485C64.3847 47.7537 64.4942 47.7359 64.5965 47.6962C64.6987 47.6566 64.7916 47.5959 64.869 47.5182L65.917 46.4519C65.9888 46.375 66.0445 46.2846 66.0807 46.1858C66.1168 46.087 66.1329 45.982 66.1277 45.877C66.1226 45.7719 66.0964 45.669 66.0508 45.5742C66.0051 45.4794 65.9409 45.3948 65.862 45.3253Z" fill="#E0E0E0"/>
<path d="M56.3926 40.0099C56.2605 39.7468 56.2094 39.4504 56.2458 39.1583C56.2822 38.8662 56.4044 38.5914 56.5969 38.3687C56.7895 38.146 57.0438 37.9855 57.3276 37.9074C57.6114 37.8292 57.9121 37.8371 58.1915 37.9298C58.4709 38.0226 58.7165 38.1961 58.8972 38.4285C59.0779 38.6609 59.1857 38.9416 59.2069 39.2353C59.228 39.5289 59.1616 39.8222 59.016 40.0781C58.8704 40.3339 58.6522 40.5409 58.389 40.6727C58.0363 40.8494 57.628 40.8788 57.2536 40.7545C56.8793 40.6302 56.5696 40.3624 56.3926 40.0099Z" fill="#E0E0E0"/>
<path d="M33.1613 88.8523C33.2164 89.2322 38.9253 101.127 38.9777 103.661C39.0301 106.194 37.2381 107.714 36.6957 108.259C36.1534 108.804 20.9128 121.956 20.9128 121.956L19.4194 120.106L30.392 102.605C30.392 102.605 27.248 91.8968 27.248 92.0592C27.248 92.2216 25.5083 86.9502 25.5083 86.9502L33.1613 88.8523Z" fill="#263238"/>
<path d="M21.2376 119.404L18.442 121.602C18.442 121.602 23.6663 123.565 23.7266 124.6L12.8745 124.563L12.906 123.685L13.6762 121.663C14.0786 120.61 14.684 119.647 15.4578 118.828L17.7477 116.389L21.2376 119.404Z" fill="#FF725E"/>
<path d="M15.2354 121.125C15.1322 121.158 15.0444 121.227 14.9888 121.319C14.9333 121.412 14.9138 121.522 14.9341 121.628C14.9615 121.734 15.0283 121.826 15.1209 121.884C15.2135 121.942 15.3248 121.962 15.4319 121.94C15.5424 121.906 15.6364 121.832 15.6959 121.733C15.7553 121.634 15.7761 121.517 15.7542 121.403C15.7135 121.297 15.6333 121.21 15.5303 121.161C15.4273 121.113 15.3095 121.105 15.2014 121.141" fill="#E0E0E0"/>
<g opacity="0.6">
<path d="M12.8745 124.563L12.906 123.685L23.2995 124.049C23.2995 124.049 23.7816 124.261 23.7266 124.599L12.8745 124.563Z" fill="white"/>
</g>
<path d="M18.5258 121.568C18.5258 121.621 18.2638 121.644 18.0018 121.812C17.7398 121.98 17.6009 122.205 17.5511 122.184C17.5013 122.163 17.5826 121.856 17.9022 121.66C18.2218 121.463 18.5362 121.529 18.5258 121.568Z" fill="#263238"/>
<path d="M19.372 121.883C19.372 121.935 19.1545 122.024 18.9737 122.247C18.793 122.47 18.738 122.708 18.6856 122.705C18.6332 122.703 18.6017 122.404 18.8297 122.129C19.0576 121.854 19.3694 121.83 19.372 121.883Z" fill="#263238"/>
<path d="M20.0137 123.247C19.9639 123.247 19.8905 122.985 20.0294 122.705C20.1682 122.424 20.4145 122.298 20.4355 122.353C20.4564 122.408 20.3045 122.553 20.1971 122.794C20.0896 123.035 20.0661 123.242 20.0137 123.247Z" fill="#263238"/>
<path d="M18.864 121.274C18.8142 121.293 18.6937 121.07 18.4684 120.874C18.2431 120.677 18.0099 120.578 18.023 120.525C18.0361 120.473 18.3269 120.499 18.5915 120.735C18.8561 120.971 18.9216 121.264 18.864 121.274Z" fill="#263238"/>
<path d="M19.6943 120.646C19.6445 120.664 19.524 120.442 19.296 120.245C19.0681 120.049 18.8375 119.949 18.8506 119.897C18.8637 119.844 19.1546 119.871 19.4192 120.106C19.6838 120.342 19.7414 120.636 19.6943 120.646Z" fill="#263238"/>
<path d="M20.352 91.0683L21.6384 93.9136C22.1502 95.0425 22.9577 96.0121 23.9755 96.7196L27.4077 104.056L15.5679 117.577L19.9826 121.893C19.9826 121.893 31.7883 111.675 33.3446 110.407C37.044 107.388 35.0947 100.752 34.7934 99.5676C34.5498 98.6113 31.4294 88.333 31.4294 88.333L24.3554 85.4248L20.352 91.0683Z" fill="#263238"/>
<path d="M22.1156 51.575C21.6362 51.2501 21.0833 50.9645 20.824 50.4432C20.5882 49.9663 20.6353 49.348 20.2685 48.9629C19.8153 48.486 18.9847 48.6249 18.4764 48.2109C18.2328 48.0092 18.0913 47.7026 17.8476 47.4983C17.4311 47.1524 16.7996 47.1944 16.3045 47.383C15.8093 47.5716 15.3429 47.8913 14.832 48.0616C14.1272 48.2974 13.3255 48.2555 12.6915 48.638C11.9893 49.0624 11.6985 49.8537 11.3815 50.6318L10.9308 51.554C10.8334 51.7175 10.7202 51.8711 10.5929 52.0125C10.3438 52.2347 10.1158 52.4794 9.91167 52.7435C9.82576 52.898 9.77202 53.0683 9.75366 53.2441C9.73531 53.4199 9.75273 53.5976 9.80487 53.7665C9.857 53.9354 9.94279 54.092 10.057 54.2269C10.1713 54.3618 10.3117 54.4721 10.4697 54.5513C10.2176 54.7166 10.0257 54.959 9.92277 55.2424C9.81982 55.5257 9.81133 55.8348 9.89856 56.1233C10.0235 56.4276 10.1854 56.7153 10.3806 56.9801C10.5753 57.2493 10.6681 57.5789 10.6426 57.9102C10.6211 58.0712 10.537 58.2173 10.4085 58.3169C10.28 58.4164 10.1176 58.4614 9.9562 58.442C10.0601 58.6355 10.2061 58.8033 10.3834 58.933C10.5606 59.0626 10.7647 59.1509 10.9806 59.1913C10.871 59.3844 10.6922 59.5287 10.4802 59.5948C11.4155 60.8105 13.1814 61.117 14.6722 60.7398C16.163 60.3625 17.4337 59.4298 18.6677 58.5206L22.3933 56.4456C22.7235 56.2727 22.7575 55.8089 22.6553 55.45C22.5532 55.091 22.3671 54.74 22.4091 54.3705C22.4641 53.8649 22.9331 53.4797 23.0038 52.9741C23.0562 52.4003 22.5951 51.9025 22.1156 51.575Z" fill="#263238"/>
<path d="M13.6087 57.6766C13.0624 56.8622 12.5873 56.0023 12.1887 55.1064C11.7904 54.2063 11.622 53.2213 11.6987 52.2401C11.7144 52.0934 11.9083 51.0794 12.055 51.0585C12.2018 51.0375 12.1127 51.9519 12.1887 52.0279C12.8781 52.7801 13.323 53.7238 13.4646 54.7343C13.6213 55.7067 13.6696 56.6935 13.6087 57.6766Z" fill="#263238"/>
<path d="M21.7978 57.2338C21.5908 56.115 20.9725 53.8435 20.3909 51.7947C20.0883 50.7334 19.3975 49.8249 18.4558 49.2496C17.5141 48.6744 16.3904 48.4746 15.3081 48.69L15.0854 48.7345C12.7064 49.3554 11.9047 51.7187 12.5885 54.0793L14.9098 63.5113L20.59 62.893C20.59 62.893 19.9848 60.3673 19.99 60.3673C19.9952 60.3673 22.2301 59.5525 21.7978 57.2338Z" fill="#FFBE9D"/>
<path d="M19.9903 60.3728C18.9215 60.582 17.8151 60.4811 16.8018 60.082C16.8018 60.082 17.8707 61.6174 20.137 60.9493L19.9903 60.3728Z" fill="#EB996E"/>
<path d="M20.1167 53.647C20.1337 53.7342 20.1158 53.8245 20.0668 53.8986C20.0178 53.9726 19.9416 54.0244 19.8547 54.0427C19.8134 54.0541 19.7702 54.0572 19.7277 54.0518C19.6852 54.0463 19.6442 54.0325 19.6072 54.011C19.5701 53.9895 19.5377 53.9609 19.5118 53.9267C19.4859 53.8926 19.4671 53.8536 19.4565 53.8121C19.4477 53.7689 19.4475 53.7244 19.4559 53.6812C19.4643 53.6379 19.4811 53.5967 19.5055 53.56C19.5298 53.5233 19.5611 53.4917 19.5977 53.467C19.6342 53.4424 19.6753 53.4252 19.7185 53.4165C19.7597 53.405 19.8029 53.402 19.8454 53.4074C19.8879 53.4128 19.9289 53.4267 19.966 53.4482C20.0031 53.4696 20.0355 53.4983 20.0614 53.5324C20.0873 53.5666 20.1061 53.6055 20.1167 53.647Z" fill="#263238"/>
<path d="M20.0871 52.8531C20.0557 52.9055 19.7675 52.7693 19.4138 52.8531C19.0601 52.937 18.8321 53.1518 18.785 53.1151C18.7378 53.0784 18.785 53.0129 18.8871 52.9081C19.0198 52.7728 19.1908 52.6814 19.3771 52.6461C19.5619 52.6091 19.7538 52.6321 19.9247 52.7116C20.0504 52.7588 20.1028 52.8295 20.0871 52.8531Z" fill="#263238"/>
<path d="M16.8889 54.4567C16.8977 54.4999 16.8979 54.5444 16.8895 54.5876C16.8811 54.6309 16.8642 54.6721 16.8399 54.7088C16.8155 54.7455 16.7842 54.7771 16.7477 54.8018C16.7111 54.8264 16.6701 54.8436 16.6269 54.8523C16.5854 54.8638 16.5421 54.8669 16.4994 54.8615C16.4567 54.8561 16.4155 54.8423 16.3783 54.8208C16.341 54.7994 16.3083 54.7707 16.2822 54.7366C16.256 54.7024 16.2369 54.6634 16.226 54.6218C16.209 54.5346 16.2269 54.4443 16.2759 54.3702C16.3249 54.2962 16.4011 54.2444 16.488 54.2261C16.5295 54.2135 16.5731 54.2095 16.6161 54.2144C16.6592 54.2193 16.7008 54.233 16.7384 54.2546C16.7759 54.2762 16.8087 54.3053 16.8346 54.3401C16.8605 54.3748 16.8789 54.4145 16.8889 54.4567Z" fill="#263238"/>
<path d="M16.6369 53.6918C16.6029 53.7416 16.3173 53.608 15.961 53.6787C15.6047 53.7495 15.382 53.98 15.3348 53.9407C15.2876 53.9014 15.3348 53.8386 15.4344 53.7338C15.5674 53.5974 15.7395 53.5058 15.9269 53.4718C16.1115 53.433 16.3036 53.4551 16.4745 53.5346C16.6003 53.5975 16.6527 53.6683 16.6369 53.6918Z" fill="#263238"/>
<path d="M18.4553 56.1678C18.63 56.0705 18.8168 55.9965 19.0107 55.9477C19.0998 55.9215 19.181 55.8848 19.1837 55.8193C19.1753 55.7222 19.1358 55.6303 19.071 55.5573L18.6649 54.9207C18.0964 54.0115 17.6667 53.257 17.7034 53.2334C18.1099 53.7392 18.4761 54.2762 18.7985 54.8395L19.1941 55.484C19.2724 55.582 19.3141 55.7043 19.312 55.8298C19.3055 55.8646 19.291 55.8974 19.2696 55.9256C19.2483 55.9538 19.2206 55.9766 19.1889 55.9923C19.1416 56.0162 19.0914 56.0338 19.0396 56.0447C18.8506 56.1095 18.6544 56.1508 18.4553 56.1678Z" fill="#263238"/>
<path d="M16.3304 52.2532C16.3147 52.3554 15.9505 52.3816 15.5444 52.5152C15.1383 52.6488 14.8239 52.8296 14.7584 52.7536C14.727 52.7169 14.7584 52.6148 14.8842 52.4916C15.0429 52.3406 15.2339 52.2277 15.4427 52.1614C15.6515 52.0951 15.8726 52.0772 16.0894 52.1091C16.2439 52.1379 16.3357 52.2034 16.3304 52.2532Z" fill="#263238"/>
<path d="M19.7048 51.7027C19.6577 51.7944 19.3983 51.7603 19.1022 51.8153C18.8062 51.8703 18.5782 51.9778 18.4944 51.9044C18.4629 51.8677 18.4944 51.7786 18.5782 51.6817C18.7051 51.5586 18.8672 51.478 19.042 51.4511C19.2152 51.4195 19.394 51.4433 19.5529 51.5193C19.6734 51.5795 19.7258 51.6581 19.7048 51.7027Z" fill="#263238"/>
<path d="M13.1213 55.7537C13.0768 55.7537 11.4393 55.5991 11.8113 57.1711C12.1833 58.7431 13.6794 58.0514 13.6715 58.0043C13.6636 57.9571 13.1213 55.7537 13.1213 55.7537Z" fill="#FFBE9D"/>
<path d="M13.0451 57.5219C13.0451 57.5219 13.0215 57.5455 12.9796 57.5796C12.9203 57.6216 12.8472 57.6394 12.7752 57.6294C12.597 57.6084 12.3953 57.3674 12.3219 57.1054C12.287 56.9719 12.2816 56.8324 12.3062 56.6966C12.3096 56.6436 12.3256 56.5921 12.353 56.5465C12.3803 56.5009 12.4182 56.4626 12.4634 56.4346C12.4932 56.4191 12.5274 56.4143 12.5603 56.421C12.5932 56.4277 12.6228 56.4454 12.6442 56.4713C12.6756 56.5106 12.673 56.5447 12.6809 56.5447C12.6888 56.5447 12.7071 56.5106 12.6809 56.4477C12.663 56.4113 12.6335 56.3818 12.5971 56.3639C12.5447 56.3442 12.487 56.3442 12.4346 56.3639C12.3731 56.3921 12.3199 56.4355 12.28 56.4901C12.2401 56.5447 12.2149 56.6086 12.2067 56.6757C12.1687 56.8262 12.1687 56.9837 12.2067 57.1342C12.2315 57.2761 12.2977 57.4075 12.397 57.512C12.4963 57.6164 12.6242 57.6891 12.7647 57.7211C12.8098 57.7232 12.8547 57.7154 12.8964 57.6982C12.938 57.681 12.9754 57.6548 13.0058 57.6215C13.0503 57.5586 13.0503 57.5219 13.0451 57.5219Z" fill="#EB996E"/>
<path d="M18.7489 49.4446C18.969 49.2429 18.01 48.6062 17.3157 48.4752C16.2677 48.2735 14.7691 48.3599 13.9595 48.8158C12.9875 49.366 12.2434 50.0944 11.9474 51.1738C11.6758 52.2679 11.7002 53.4145 12.0181 54.496C12.0853 54.8333 12.2418 55.1464 12.4714 55.4025C12.7727 55.6959 13.2574 55.8112 13.3438 56.2933C13.3593 56.3804 13.3921 56.4636 13.4403 56.5378C13.4884 56.6121 13.5509 56.6759 13.6242 56.7256C13.9857 56.9614 14.2661 56.5894 14.3578 56.2619C14.5543 55.5649 14.4154 54.8235 14.2739 54.1135C14.2035 53.6023 14.0486 53.1065 13.8154 52.6463C13.6766 52.4026 13.4932 52.1878 13.3674 51.9362C13.2966 51.815 13.2529 51.6798 13.2393 51.5401C13.2258 51.4003 13.2426 51.2593 13.2888 51.1267C13.316 51.0705 13.3485 51.017 13.3857 50.9668C13.5579 50.7233 13.7919 50.5301 14.0636 50.4071C14.3353 50.2842 14.6349 50.2359 14.9315 50.2673C15.8905 50.3669 17.5096 50.4664 17.8319 50.0734C18.0657 49.8185 18.2441 49.5179 18.3559 49.1905L18.7489 49.4446Z" fill="#263238"/>
<path d="M13.9904 48.5824C14.3829 48.327 14.822 48.1518 15.2824 48.0668C15.7428 47.9818 16.2156 47.9887 16.6733 48.0872C16.9175 48.1343 17.1496 48.2306 17.3555 48.3702C17.5613 48.5099 17.7366 48.6899 17.8706 48.8994C17.9994 49.1127 18.0479 49.3648 18.0076 49.6106C17.9673 49.8565 17.8407 50.0799 17.6506 50.2408L17.6244 50.267C17.0087 50.6548 16.5528 50.6705 15.8297 50.5998C15.2218 50.5421 14.6402 50.3168 14.0323 50.2618C13.3807 50.2034 12.7265 50.3412 12.1538 50.6574C12.5744 49.8173 13.2076 49.1019 13.9904 48.5824Z" fill="#263238"/>
<path d="M11.292 60.1971C11.292 60.1971 11.3496 60.1971 11.4518 60.1552C11.5951 60.1033 11.7212 60.0126 11.816 59.8932C11.9671 59.7002 12.0443 59.4595 12.0334 59.2146C12.009 58.8894 11.9046 58.5753 11.7295 58.3002C11.5487 57.9858 11.2894 57.674 11.0771 57.2889C10.9623 57.0909 10.8826 56.8747 10.8413 56.6496C10.7918 56.4067 10.8136 56.1546 10.9042 55.9239C11.0177 55.6907 11.188 55.4898 11.3994 55.3396C11.6093 55.1923 11.8049 55.0256 11.9837 54.8418C12.3102 54.4155 12.4755 53.8874 12.45 53.351C12.45 52.7982 12.3662 52.2559 12.3505 51.7214C12.3071 51.2029 12.4048 50.6823 12.6334 50.2149C12.8718 49.8007 13.2556 49.4898 13.7102 49.3424C14.0988 49.2115 14.5133 49.1773 14.9181 49.2429C15.4947 49.3474 16.0386 49.5861 16.5058 49.9398C16.6708 50.0629 16.7914 50.1677 16.8726 50.2385C16.9161 50.2733 16.9556 50.3129 16.9905 50.3564C16.944 50.327 16.9002 50.2937 16.8595 50.2568C16.773 50.1913 16.6473 50.0917 16.4796 49.9765C16.012 49.6398 15.4748 49.4124 14.9076 49.311C14.5166 49.253 14.1174 49.2907 13.7443 49.421C13.3156 49.5635 12.9545 49.8593 12.7304 50.2516C12.5151 50.7043 12.4246 51.2063 12.4684 51.7057C12.4841 52.2297 12.581 52.772 12.5705 53.3405C12.5971 53.9071 12.4206 54.4645 12.0727 54.9125C11.8894 55.1015 11.6885 55.2726 11.4728 55.4234C11.2743 55.5575 11.113 55.7395 11.0038 55.9527C10.9206 56.1642 10.8988 56.3948 10.9409 56.6182C10.9819 56.8327 11.0561 57.0396 11.161 57.2312C11.3653 57.6059 11.6195 57.9203 11.8003 58.2452C11.9823 58.5359 12.0852 58.8692 12.0989 59.212C12.105 59.4706 12.0176 59.7227 11.8527 59.922C11.7487 60.0455 11.6113 60.1364 11.457 60.184C11.4032 60.1976 11.3473 60.2021 11.292 60.1971Z" fill="#455A64"/>
<path d="M15.6021 48.0637C15.7557 47.9984 15.9231 47.9723 16.0894 47.9877C16.4967 47.998 16.8895 48.1406 17.2086 48.3939C17.5277 48.6473 17.7556 48.9976 17.8579 49.392C17.9121 49.5494 17.9247 49.7182 17.8946 49.882C17.8762 49.882 17.871 49.6959 17.7767 49.4156C17.6607 49.0483 17.4377 48.7241 17.1361 48.4846C16.8344 48.2451 16.4681 48.1012 16.0841 48.0715C15.7907 48.0453 15.6047 48.082 15.6021 48.0637Z" fill="#455A64"/>
<path d="M19.1757 48.6431C19.3345 48.7755 19.4382 48.9623 19.4665 49.1671C19.5386 49.3606 19.5386 49.5735 19.4665 49.767C19.4324 49.767 19.4455 49.505 19.3669 49.1959C19.2883 48.8867 19.1469 48.6614 19.1757 48.6431Z" fill="#455A64"/>
<path d="M14.2397 61.5311L14.4624 62.2699C14.4624 62.2699 12.7385 66.3859 13.362 70.2164C13.9856 74.0468 21.3216 94.2575 21.3216 94.2575C21.3216 94.2575 22.925 88.559 26.2996 88.9153C29.6741 89.2716 33.6015 89.4393 33.6015 89.4393L27.0122 71.715L20.5985 62.4271C20.5985 62.4271 16.375 60.9075 14.2397 61.5311Z" fill="#FF725E"/>
<path d="M15.0703 65.7754C15.0022 65.9326 15.1149 65.3903 15.0703 65.7754V65.7754Z" fill="#FF725E"/>
<path d="M33.6377 63.6661L29.3592 63.2783L28.6466 68.7803L19.7884 64.6067C19.7884 64.6067 16.3667 62.8355 15.0724 65.7752C14.2156 68.6022 15.2872 70.5567 18.1745 71.6414C22.1045 73.1243 30.03 75.4613 31.0125 75.2779C32.3958 75.0159 33.2788 74.0937 33.5172 72.0082C33.656 70.7191 33.6377 63.6661 33.6377 63.6661Z" fill="#FF725E"/>
<path d="M18.9527 56.7803L18.0592 56.9244C18.0112 56.9292 17.9647 56.9444 17.923 56.9689C17.8963 56.9923 17.8747 57.0208 17.8594 57.0528C17.8441 57.0848 17.8354 57.1195 17.8339 57.1549C17.8244 57.2662 17.8435 57.378 17.8893 57.4798C17.9352 57.5816 18.0063 57.67 18.0959 57.7366C18.1886 57.8002 18.2939 57.8431 18.4047 57.8626C18.5154 57.882 18.629 57.8775 18.7378 57.8492C18.8251 57.8364 18.9073 57.8002 18.9756 57.7444C19.0438 57.6885 19.0957 57.6152 19.1256 57.5322C19.1359 57.2706 19.0762 57.011 18.9527 56.7803Z" fill="#EB996E"/>
<path d="M19.0816 57.6531C19.0816 57.6531 19.003 57.8339 18.7174 57.9151C18.549 57.9616 18.3694 57.9458 18.2117 57.8705C18.0239 57.7741 17.8818 57.6074 17.8161 57.4068C17.7803 57.3015 17.7661 57.1902 17.7742 57.0793C17.7767 57.0468 17.7847 57.0149 17.7978 56.985C17.8159 56.9506 17.8456 56.9237 17.8816 56.909C17.9306 56.8911 17.9816 56.8797 18.0336 56.8749L18.5078 56.8094C18.6533 56.7793 18.8026 56.7713 18.9506 56.7859C18.8151 56.8473 18.6711 56.888 18.5235 56.9064L18.0545 56.9981C18.0144 57.004 17.9749 57.0136 17.9366 57.0269C17.9157 57.0269 17.913 57.0426 17.9078 57.0898C17.9032 57.1787 17.9157 57.2676 17.9445 57.3518C18.0007 57.5233 18.1195 57.6674 18.2772 57.7553C18.4092 57.8213 18.5592 57.8424 18.7043 57.8155C18.8375 57.7807 18.9647 57.726 19.0816 57.6531Z" fill="#263238"/>
<path d="M30.2084 63.3021V61.0174C30.2084 61.0174 29.1787 59.359 29.1787 59.1834C29.2392 58.8988 29.327 58.6207 29.4407 58.3529L31.0992 55.8901C31.0992 55.8901 31.8537 55.8665 31.9035 56.1678C31.9035 56.1678 32.6581 56.3695 32.7341 56.7704C32.7341 56.7704 33.3628 57.0717 33.4388 57.4988V57.7005C33.5551 57.7271 33.6616 57.7859 33.7459 57.8703C33.8303 57.9546 33.8891 58.0611 33.9157 58.1773C34.0414 58.6044 33.9157 60.3388 33.9157 60.3388L33.1611 61.9999L33.2371 63.5719L30.2084 63.3021Z" fill="#FFBE9D"/>
<path d="M29.5275 58.2449H28.8856L27.8638 56.5943L30.7458 55.1533L31.1126 55.8895L29.5275 58.2449Z" fill="#263238"/>
<path d="M40.1856 54.2913V54.2704C40.1279 53.804 39.5332 51.8809 39.1376 50.6705C38.9204 49.9899 38.6685 49.321 38.383 48.6662C37.859 47.4453 36.9761 45.4803 36.6931 45.1004L36.68 45.082C36.6168 45.0016 36.5342 44.9385 36.44 44.8988C36.3457 44.8591 36.2429 44.8441 36.1412 44.8551C36.0395 44.8661 35.9423 44.9028 35.8587 44.9617C35.7751 45.0207 35.7079 45.1 35.6634 45.1921C35.2757 45.9781 34.4111 47.6496 33.5281 48.4959C32.75 49.2557 28.6366 51.0189 25.938 52.1377C25.6294 52.2666 25.3499 52.4562 25.116 52.6953C24.8821 52.9344 24.6986 53.218 24.5764 53.5293C24.4542 53.8406 24.3958 54.1733 24.4047 54.5077C24.4135 54.842 24.4895 55.1711 24.628 55.4756C24.8975 56.0679 25.3876 56.5317 25.9939 56.7681C26.6002 57.0044 27.2749 56.9947 27.8742 56.741C30.4496 55.6485 34.4713 54.0188 35.5639 54.0188C36.7874 54.0188 38.5612 54.6162 39.3917 54.9227C39.4873 54.956 39.5898 54.9646 39.6896 54.9477C39.7894 54.9307 39.8833 54.8887 39.9626 54.8257C40.0418 54.7627 40.1038 54.6806 40.1428 54.5872C40.1818 54.4938 40.1965 54.392 40.1856 54.2913Z" fill="#FF725E"/>
<path d="M27.8585 56.7409C27.2592 56.9946 26.5846 57.0043 25.9782 56.7679C25.3719 56.5316 24.8818 56.0678 24.6123 55.4754C24.4743 55.17 24.3991 54.84 24.3913 54.5049C24.3835 54.1699 24.4432 53.8367 24.567 53.5252C24.6907 53.2137 24.8758 52.9303 25.1114 52.6919C25.3469 52.4535 25.6281 52.265 25.938 52.1375L26.6402 51.8389C26.6402 51.8389 27.903 52.8738 28.2489 54.3881C28.5947 55.9025 28.4821 56.471 28.4821 56.471L27.8585 56.7409Z" fill="#455A64"/>
<path d="M39.68 54.9727C39.68 54.9727 39.68 54.8234 39.6381 54.5562C39.5961 54.2889 39.5228 53.9064 39.4101 53.4374C39.1114 52.2139 38.7378 51.01 38.2914 49.8323C37.7124 48.4725 37.2617 47.2123 36.7849 46.3687C36.6063 46.0343 36.3784 45.7288 36.1089 45.4621C36.0345 45.3909 35.9529 45.3277 35.8653 45.2735C35.8338 45.2555 35.8047 45.2335 35.7788 45.208C35.7788 45.208 35.8155 45.208 35.8784 45.2499C35.9728 45.2961 36.0608 45.3542 36.1404 45.4228C36.4315 45.6781 36.6769 45.9811 36.8661 46.3189C37.3718 47.1599 37.8355 48.4149 38.4145 49.7825C38.866 50.9645 39.2294 52.1783 39.5018 53.4138C39.5875 53.7886 39.6496 54.1684 39.6878 54.5509C39.6967 54.6555 39.6967 54.7607 39.6878 54.8653C39.6905 54.9387 39.6852 54.9754 39.68 54.9727Z" fill="#263238"/>
<path d="M25.9564 53.0788C25.7113 53.3231 25.4853 53.5859 25.2804 53.8648C25.114 54.1692 24.9721 54.4863 24.856 54.8132C24.8643 54.451 24.9711 54.0979 25.165 53.7919C25.3588 53.4859 25.6324 53.2384 25.9564 53.0762V53.0788Z" fill="#263238"/>
<path d="M27.2874 55.8746C27.0155 56.0195 26.7084 56.0849 26.4011 56.0631C26.0938 56.0413 25.7989 55.9333 25.5503 55.7515C25.8334 55.8251 26.1203 55.8837 26.4097 55.927C26.703 55.9261 26.996 55.9087 27.2874 55.8746Z" fill="#263238"/>
<path d="M26.5689 54.5488C26.3812 54.7009 26.1672 54.8173 25.9375 54.892C25.7211 55.006 25.4859 55.0797 25.2432 55.1095C25.4302 54.9546 25.6443 54.8356 25.8746 54.7584C26.0915 54.6472 26.3267 54.5762 26.5689 54.5488Z" fill="#263238"/>
<path d="M28.4792 56.4713C28.4556 56.4713 28.4792 56.1805 28.4478 55.7194C28.4258 55.4497 28.3855 55.1819 28.3273 54.9177C28.2528 54.5956 28.1548 54.2795 28.0338 53.9719C27.8042 53.4152 27.4982 52.8931 27.1247 52.4208C26.8339 52.0593 26.6243 51.8601 26.64 51.8418C26.7008 51.8745 26.7564 51.916 26.805 51.9649C26.9446 52.0871 27.0759 52.2184 27.198 52.3579C27.6036 52.8249 27.9285 53.3562 28.1596 53.9299C28.2845 54.2451 28.3827 54.5703 28.453 54.902C28.5069 55.1731 28.5376 55.4483 28.5447 55.7246C28.5532 55.91 28.5462 56.0958 28.5238 56.2801C28.5198 56.3459 28.5048 56.4106 28.4792 56.4713Z" fill="#263238"/>
<path d="M33.7824 49.4761C33.7955 49.5102 32.4724 50.0997 30.848 50.7861C29.2236 51.4726 27.877 52.0097 27.8639 51.9756C27.8508 51.9416 29.1739 51.3521 30.7956 50.6656C32.4174 49.9792 33.7667 49.4421 33.7824 49.4761Z" fill="white"/>
<path d="M35.5427 46.979C35.3122 47.5271 34.9995 48.0369 34.6152 48.4907C34.8457 47.9426 35.1585 47.4328 35.5427 46.979Z" fill="white"/>
<path d="M19.9824 121.893C20.0041 121.867 20.0278 121.844 20.0532 121.822L20.2759 121.625L21.1378 120.876L24.3211 118.138L29.0529 114.093L31.851 111.709C32.0921 111.502 32.341 111.297 32.582 111.08C32.823 110.863 33.0484 110.632 33.2737 110.394C33.7434 109.919 34.181 109.414 34.5837 108.882C35.3995 107.853 35.8992 106.61 36.0221 105.303C36.0953 104.083 35.9416 102.861 35.5688 101.698C35.4116 101.134 35.2413 100.589 35.0841 100.058C34.9269 99.5258 34.788 99.0096 34.6439 98.5014C34.3584 97.5005 34.0597 96.5783 33.7872 95.7346C33.2344 94.05 32.7837 92.6876 32.506 91.7365C32.3645 91.2597 32.2624 90.8903 32.1969 90.6361C32.1654 90.5156 32.1418 90.4213 32.1235 90.3479C32.1135 90.3163 32.1064 90.2839 32.1025 90.251C32.117 90.2812 32.1284 90.3128 32.1366 90.3453L32.2231 90.6309C32.3017 90.8929 32.4143 91.2518 32.5558 91.7208C32.8519 92.6666 33.313 94.0238 33.8789 95.7058C34.1592 96.5468 34.4605 97.4691 34.754 98.4699C34.9007 98.973 35.0369 99.4943 35.1994 100.024C35.3618 100.553 35.5321 101.098 35.6893 101.664C36.0063 102.79 36.2762 104.022 36.1557 105.313C36.0325 106.646 35.5246 107.914 34.6937 108.963C34.2908 109.499 33.8532 110.009 33.3837 110.488C33.1584 110.726 32.92 110.952 32.6868 111.18C32.4536 111.407 32.1942 111.601 31.9532 111.808L29.1498 114.187L24.384 118.212L21.1719 120.915L20.2942 121.646L20.0636 121.832C20.0384 121.855 20.0113 121.875 19.9824 121.893Z" fill="#455A64"/>
<path d="M20.598 62.427C20.6915 62.5503 20.7689 62.685 20.8286 62.8278C20.9648 63.0898 21.1377 63.4802 21.3788 63.9361L21.4416 64.054L21.3133 64.0121C20.6059 63.7789 19.7413 63.3885 18.7692 63.0165C17.8028 62.6315 16.7849 62.3914 15.7484 62.3038C14.9624 62.2409 14.4541 62.2671 14.4541 62.2409C14.5678 62.217 14.6838 62.2055 14.7999 62.2069C15.1176 62.1895 15.436 62.1895 15.7536 62.2069C16.8053 62.2687 17.8402 62.4986 18.819 62.8881C19.7884 63.2654 20.653 63.661 21.3499 63.9125L21.2844 63.9885C21.0486 63.5169 20.8941 63.1212 20.7762 62.854C20.7075 62.7157 20.648 62.573 20.598 62.427Z" fill="#263238"/>
<path d="M28.2227 74.7641C28.1804 74.7662 28.138 74.7618 28.097 74.751L27.738 74.6855C27.4263 74.6252 26.9782 74.5283 26.428 74.4025C25.325 74.1405 23.808 73.7449 22.1653 73.2026C20.5226 72.6602 19.0685 72.076 18.0257 71.6306C17.5017 71.4079 17.0877 71.2219 16.7995 71.0882L16.4694 70.931C16.4302 70.9148 16.3933 70.8937 16.3594 70.8682C16.4022 70.8735 16.4438 70.8859 16.4825 70.9048L16.8205 71.0385L18.0624 71.5415C19.1104 71.9633 20.5723 72.5292 22.2098 73.0716C23.8473 73.6139 25.3538 74.0279 26.4516 74.3082L27.7616 74.6331L28.1153 74.7248C28.1523 74.7345 28.1883 74.7476 28.2227 74.7641Z" fill="#263238"/>
<path d="M28.647 68.7647C28.5889 68.7489 28.5327 68.727 28.4793 68.6992L28.0129 68.487L26.3099 67.6722C24.8715 66.9857 22.9039 66.0137 20.6638 65.0522C20.1058 64.8138 19.5582 64.5858 19.0185 64.405C18.5011 64.232 17.9605 64.1384 17.415 64.1273C16.9247 64.119 16.4448 64.2697 16.0474 64.557C15.7058 64.8145 15.4279 65.1471 15.2352 65.529C14.9707 66.0936 14.8372 66.7107 14.8448 67.3342C14.8448 67.5543 14.8448 67.7272 14.8631 67.8451C14.8678 67.9044 14.8678 67.964 14.8631 68.0233C14.8444 67.9664 14.8329 67.9074 14.8291 67.8477C14.8134 67.7298 14.795 67.5569 14.7872 67.3237C14.7554 66.6858 14.8776 66.0495 15.1435 65.4688C15.34 65.0692 15.6271 64.7211 15.9819 64.4522C16.396 64.1451 16.8995 63.9822 17.415 63.9885C17.9743 63.9955 18.5292 64.0882 19.0604 64.2636C19.608 64.447 20.1582 64.6749 20.7188 64.9133C22.9511 65.888 24.9108 66.8731 26.3518 67.5805L28.0365 68.432L28.4924 68.6704C28.5467 68.6969 28.5985 68.7285 28.647 68.7647Z" fill="#263238"/>
<path d="M30.3735 71.4996C29.5829 70.8056 28.9816 69.9221 28.626 68.932C28.6627 68.9137 28.9666 69.5425 29.4487 70.242C29.9307 70.9416 30.3919 71.4708 30.3735 71.4996Z" fill="#263238"/>
<path d="M32.5954 89.2867C32.5613 89.2867 31.1832 85.9776 29.5169 81.8616C27.8505 77.7456 26.5301 74.3999 26.5641 74.3868C26.5982 74.3737 27.9789 77.6958 29.6426 81.8118C31.3063 85.9279 32.6294 89.2736 32.5954 89.2867Z" fill="#263238"/>
<g opacity="0.3">
<path d="M16.4639 70.9839C19.3616 73.9104 24.2374 75.6056 28.2539 74.6807C24.2449 73.716 20.3059 72.4809 16.4639 70.9839Z" fill="black"/>
</g>
<g opacity="0.3">
<path d="M28.6416 68.7568C28.9874 69.6005 29.6136 70.2922 30.2267 70.9681C30.391 71.1838 30.6112 71.3505 30.8634 71.4502C30.9265 71.4715 30.9932 71.4802 31.0597 71.4757C31.1262 71.4712 31.1911 71.4535 31.2508 71.4238C31.3104 71.3941 31.3636 71.3529 31.4073 71.3026C31.451 71.2523 31.4843 71.1938 31.5053 71.1306C31.5498 70.8948 31.3585 70.6825 31.1804 70.5227C30.3961 69.8496 29.5455 69.258 28.6416 68.7568Z" fill="black"/>
</g>
<path d="M50.2111 48.2974C50.1281 47.9876 50.125 47.6907 50.2019 47.4064C50.2817 47.1214 50.4263 46.8776 50.6357 46.675C50.8473 46.4686 51.1004 46.3259 51.3949 46.247C51.732 46.1566 52.0536 46.16 52.3595 46.2571C52.6676 46.3502 52.9216 46.5328 53.1214 46.8048L52.4973 46.972C52.3706 46.8269 52.2233 46.7329 52.0556 46.69C51.8879 46.6471 51.7083 46.6512 51.517 46.7025C51.3075 46.7586 51.1333 46.8558 50.9945 46.9938C50.8558 47.1319 50.7629 47.3017 50.716 47.503C50.6721 47.7036 50.6814 47.9208 50.7441 48.1546C50.8068 48.3884 50.9072 48.5812 51.0455 48.7329C51.1869 48.8839 51.3526 48.9859 51.5426 49.0392C51.7318 49.0894 51.9312 49.0864 52.1407 49.0303C52.3321 48.979 52.4896 48.8928 52.6134 48.7718C52.7372 48.6507 52.8177 48.4957 52.855 48.3067L53.4791 48.1395C53.442 48.4749 53.3133 48.76 53.0931 48.9948C52.8758 49.2288 52.5987 49.3909 52.2616 49.4812C51.964 49.561 51.6738 49.5655 51.3912 49.4947C51.1078 49.4209 50.8603 49.2806 50.6486 49.0737C50.4399 48.8659 50.2941 48.6072 50.2111 48.2974ZM55.5243 48.6216C55.2874 48.6851 55.0591 48.6893 54.8392 48.6343C54.6186 48.5762 54.4276 48.4647 54.2662 48.2996C54.104 48.1315 53.9883 47.9184 53.9191 47.6603C53.8508 47.4052 53.8463 47.1639 53.9058 46.9364C53.9653 46.7089 54.078 46.5159 54.2438 46.3576C54.4097 46.1992 54.6126 46.0879 54.8525 46.0236C55.0924 45.9593 55.3238 45.9543 55.5467 46.0085C55.7695 46.0627 55.9635 46.1734 56.1288 46.3407C56.2941 46.508 56.4109 46.7192 56.4792 46.9743C56.5476 47.2294 56.5505 47.4711 56.488 47.6994C56.4255 47.9277 56.3087 48.1234 56.1375 48.2864C55.9686 48.4456 55.7642 48.5574 55.5243 48.6216ZM55.4034 48.1707C55.5371 48.1349 55.653 48.0696 55.7513 47.9749C55.8527 47.8794 55.9227 47.7581 55.9614 47.611C56.0001 47.464 55.9951 47.2993 55.9462 47.1171C55.8974 46.9349 55.8214 46.7909 55.7182 46.6851C55.6142 46.5763 55.4959 46.5054 55.3634 46.4726C55.2309 46.4397 55.0979 46.4412 54.9643 46.477C54.8306 46.5128 54.7147 46.578 54.6164 46.6727C54.5211 46.7666 54.4571 46.8863 54.4245 47.0317C54.391 47.1742 54.3987 47.3365 54.4476 47.5187C54.52 47.789 54.6444 47.9802 54.821 48.0924C54.9997 48.2007 55.1939 48.2268 55.4034 48.1707ZM58.0034 45.1793C58.2008 45.1264 58.3879 45.1202 58.5648 45.1607C58.7447 45.2004 58.9002 45.2889 59.0314 45.4263C59.1626 45.5636 59.2587 45.7462 59.3198 45.9739L59.7164 47.4544L59.2017 47.5923L58.8258 46.1893C58.7655 45.9646 58.6634 45.808 58.5193 45.7197C58.3744 45.6284 58.2047 45.6087 58.0104 45.6608C57.816 45.7129 57.6774 45.8151 57.5946 45.9675C57.5139 46.116 57.5037 46.3027 57.5639 46.5274L57.9399 47.9304L57.4206 48.0696L56.748 45.5596L57.2673 45.4205L57.3442 45.7075C57.4016 45.5814 57.4878 45.4721 57.603 45.3794C57.7211 45.2859 57.8546 45.2192 58.0034 45.1793ZM60.7977 44.4306C60.9921 44.3785 61.1742 44.372 61.3442 44.4111C61.5164 44.4463 61.6604 44.5102 61.7764 44.6029L61.6788 44.2384L62.2026 44.0981L62.8861 46.649C62.948 46.8798 62.9543 47.0978 62.9052 47.3031C62.8568 47.5113 62.7538 47.6919 62.5962 47.8448C62.4417 47.9969 62.2369 48.1071 61.9818 48.1754C61.6417 48.2666 61.3377 48.2618 61.0698 48.161C60.8028 48.0633 60.6174 47.8819 60.5138 47.6167L61.0286 47.4788C61.1031 47.5988 61.2146 47.6812 61.3633 47.726C61.5159 47.773 61.6818 47.7725 61.8609 47.7244C62.0705 47.6683 62.2219 47.5594 62.3153 47.3976C62.4117 47.2351 62.4274 47.0324 62.3623 46.7894L62.25 46.3703C62.1937 46.5124 62.1006 46.6447 61.9707 46.7674C61.843 46.8862 61.6835 46.9713 61.4922 47.0225C61.2736 47.0811 61.0585 47.0802 60.847 47.0197C60.6377 46.9553 60.4535 46.8387 60.2943 46.6698C60.1373 46.497 60.0251 46.2846 59.9575 46.0325C59.89 45.7805 59.8818 45.5434 59.933 45.3214C59.9872 45.0985 60.0896 44.91 60.2403 44.7557C60.3933 44.5975 60.579 44.4892 60.7977 44.4306ZM62.0144 45.4911C61.968 45.318 61.8913 45.1775 61.7842 45.0695C61.6802 44.9606 61.5616 44.8883 61.4283 44.8524C61.295 44.8165 61.1615 44.8164 61.0279 44.8522C60.8942 44.8881 60.7787 44.9548 60.6812 45.0526C60.5829 45.1472 60.5144 45.2681 60.4757 45.4152C60.4392 45.5584 60.4441 45.7166 60.4905 45.8897C60.5369 46.0628 60.6125 46.2053 60.7173 46.3172C60.8252 46.4282 60.9462 46.5032 61.0803 46.5421C61.2167 46.5772 61.3501 46.5773 61.4807 46.5423C61.6143 46.5065 61.7299 46.4397 61.8274 46.342C61.9249 46.2442 61.9915 46.1222 62.0271 45.976C62.065 45.8259 62.0608 45.6642 62.0144 45.4911ZM63.5928 44.1162C63.6345 43.9683 63.7083 43.8427 63.8141 43.7395C63.9221 43.6324 64.0626 43.5557 64.2357 43.5093L64.3798 44.0469L64.2477 44.0823C64.0442 44.1368 63.9032 44.2299 63.8245 44.3616C63.7489 44.4926 63.7453 44.6856 63.8137 44.9407L64.1677 46.2617L63.6483 46.4009L62.9758 43.8909L63.4951 43.7517L63.5928 44.1162ZM64.9753 44.688C64.9078 44.4359 64.8996 44.1989 64.9508 43.9769C65.005 43.754 65.1074 43.5655 65.2581 43.4112C65.411 43.253 65.5968 43.1446 65.8155 43.0861C66.0129 43.0332 66.195 43.0267 66.362 43.0666C66.5311 43.1026 66.6752 43.1665 66.7942 43.2583L66.6965 42.8939L67.2204 42.7536L67.8929 45.2635L67.3691 45.4039L67.269 45.0304C67.2127 45.1724 67.1191 45.3032 66.9885 45.4229C66.8578 45.5425 66.6952 45.6284 66.5009 45.6805C66.2853 45.7382 66.0732 45.7365 65.8648 45.6752C65.6555 45.6108 65.4712 45.4942 65.3121 45.3252C65.1551 45.1525 65.0428 44.9401 64.9753 44.688ZM67.0322 44.1466C66.9858 43.9735 66.9091 43.833 66.802 43.725C66.698 43.6161 66.5793 43.5438 66.446 43.5079C66.3127 43.472 66.1793 43.4719 66.0456 43.5077C65.912 43.5435 65.7965 43.6103 65.699 43.708C65.6006 43.8027 65.5321 43.9236 65.4934 44.0707C65.4569 44.2139 65.4619 44.3721 65.5083 44.5452C65.5547 44.7183 65.6303 44.8608 65.7351 44.9727C65.843 45.0837 65.964 45.1587 66.0981 45.1976C66.2344 45.2327 66.3679 45.2327 66.4985 45.1978C66.6321 45.162 66.7477 45.0952 66.8452 44.9975C66.9427 44.8997 67.0093 44.7777 67.0449 44.6315C67.0828 44.4813 67.0786 44.3197 67.0322 44.1466ZM68.713 42.8077L69.0852 44.1971C69.1105 44.2912 69.15 44.3538 69.2039 44.385C69.2601 44.4122 69.3413 44.4116 69.4476 44.3831L69.7664 44.2977L69.8824 44.7305L69.4724 44.8403C69.2386 44.903 69.0448 44.8963 68.8909 44.8203C68.7371 44.7444 68.6273 44.5834 68.5614 44.3374L68.1891 42.9481L67.893 43.0274L67.7795 42.6037L68.0756 42.5244L67.9084 41.9003L68.4322 41.76L68.5994 42.384L69.2098 42.2205L69.3234 42.6441L68.713 42.8077ZM72.0527 41.4587L72.7252 43.9687L72.2059 44.1079L72.1266 43.8118C72.0723 43.937 71.9864 44.0479 71.8691 44.1444C71.7539 44.2371 71.622 44.3034 71.4732 44.3433C71.2758 44.3962 71.0871 44.4028 70.9072 44.3631C70.7304 44.3226 70.5748 44.2341 70.4406 44.0975C70.3094 43.9602 70.2133 43.7776 70.1523 43.5498L69.7568 42.0739L70.2716 41.936L70.6463 43.3345C70.7065 43.5592 70.8091 43.7173 70.954 43.8086C71.0981 43.8969 71.2673 43.9151 71.4617 43.863C71.656 43.8109 71.7935 43.7106 71.8741 43.5621C71.957 43.4097 71.9683 43.2211 71.9081 42.9964L71.5334 41.5979L72.0527 41.4587ZM73.1176 40.2506L74.0208 43.6216L73.5015 43.7607L72.5983 40.3898L73.1176 40.2506ZM74.2813 42.1945C74.2138 41.9424 74.2056 41.7054 74.2568 41.4833C74.311 41.2605 74.4134 41.0719 74.5641 40.9176C74.717 40.7595 74.9028 40.6511 75.1215 40.5925C75.3189 40.5396 75.501 40.5331 75.668 40.573C75.8371 40.6091 75.9812 40.673 76.1002 40.7648L76.0025 40.4004L76.5264 40.26L77.1989 42.77L76.6751 42.9104L76.575 42.5368C76.5186 42.6789 76.4251 42.8097 76.2944 42.9293C76.1638 43.049 76.0012 43.1349 75.8069 43.1869C75.5913 43.2447 75.3792 43.2429 75.1707 43.1816C74.9615 43.1173 74.7772 43.0006 74.618 42.8317C74.4611 42.6589 74.3488 42.4465 74.2813 42.1945ZM76.3382 41.6531C76.2918 41.48 76.2151 41.3394 76.108 41.2314C76.004 41.1226 75.8853 41.0502 75.752 41.0143C75.6187 40.9784 75.4853 40.9784 75.3516 41.0142C75.218 41.05 75.1025 41.1168 75.005 41.2145C74.9066 41.3092 74.8381 41.4301 74.7994 41.5772C74.7629 41.7204 74.7679 41.8786 74.8143 42.0517C74.8607 42.2248 74.9363 42.3673 75.0411 42.4791C75.149 42.5902 75.27 42.6652 75.4041 42.7041C75.5404 42.7392 75.6739 42.7392 75.8045 42.7042C75.9381 42.6684 76.0537 42.6017 76.1512 42.5039C76.2487 42.4062 76.3152 42.2842 76.3509 42.1379C76.3888 41.9878 76.3846 41.8262 76.3382 41.6531ZM78.0189 40.3141L78.3912 41.7035C78.4165 41.7977 78.456 41.8603 78.5099 41.8914C78.5661 41.9187 78.6473 41.9181 78.7536 41.8896L79.0724 41.8042L79.1884 42.2369L78.7784 42.3468C78.5446 42.4094 78.3507 42.4028 78.1969 42.3268C78.0431 42.2508 77.9333 42.0899 77.8674 41.8439L77.4951 40.4545L77.199 40.5339L77.0855 40.1102L77.3816 40.0309L77.2143 39.4068L77.7382 39.2664L77.9054 39.8905L78.5158 39.7269L78.6294 40.1506L78.0189 40.3141ZM79.2607 39.171C79.1665 39.1962 79.079 39.1855 78.9982 39.1388C78.9173 39.0921 78.8643 39.0217 78.839 38.9275C78.8138 38.8334 78.8245 38.7459 78.8712 38.665C78.9179 38.5842 78.9883 38.5311 79.0825 38.5059C79.1736 38.4815 79.2596 38.4926 79.3404 38.5393C79.4213 38.586 79.4743 38.6564 79.4996 38.7505C79.5248 38.8447 79.5141 38.9322 79.4674 39.013C79.4207 39.0939 79.3518 39.1465 79.2607 39.171ZM79.6049 39.4351L80.2774 41.9451L79.7581 42.0843L79.0856 39.5743L79.6049 39.4351ZM82.15 41.4873C81.9132 41.5508 81.6848 41.555 81.465 41.5C81.2444 41.4419 81.0534 41.3303 80.892 41.1653C80.7298 40.9972 80.6141 40.784 80.5449 40.5259C80.4765 40.2708 80.4721 40.0295 80.5316 39.802C80.5911 39.5745 80.7037 39.3816 80.8696 39.2232C81.0355 39.0648 81.2384 38.9535 81.4783 38.8892C81.7182 38.8249 81.9496 38.8199 82.1724 38.8741C82.3953 38.9283 82.5893 39.0391 82.7546 39.2064C82.9198 39.3736 83.0366 39.5848 83.105 39.8399C83.1733 40.095 83.1763 40.3367 83.1138 40.5651C83.0512 40.7934 82.9344 40.9891 82.7633 41.1521C82.5944 41.3113 82.3899 41.423 82.15 41.4873ZM82.0292 41.0363C82.1628 41.0005 82.2788 40.9353 82.3771 40.8406C82.4784 40.7451 82.5485 40.6238 82.5872 40.4767C82.6259 40.3296 82.6208 40.165 82.572 39.9827C82.5232 39.8005 82.4472 39.6565 82.344 39.5507C82.2399 39.4419 82.1217 39.3711 81.9892 39.3382C81.8567 39.3054 81.7236 39.3068 81.59 39.3426C81.4564 39.3784 81.3404 39.4437 81.2421 39.5384C81.1468 39.6323 81.0829 39.7519 81.0503 39.8974C81.0168 40.0398 81.0245 40.2021 81.0733 40.3843C81.1457 40.6546 81.2702 40.8458 81.4467 40.958C81.6255 41.0664 81.8197 41.0925 82.0292 41.0363ZM84.6292 38.0449C84.8266 37.992 85.0137 37.9859 85.1906 38.0263C85.3704 38.066 85.526 38.1545 85.6572 38.2919C85.7884 38.4293 85.8845 38.6118 85.9455 38.8396L86.3422 40.3201L85.8275 40.458L85.4515 39.055C85.3913 38.8302 85.2891 38.6737 85.145 38.5854C85.0001 38.494 84.8305 38.4744 84.6361 38.5264C84.4418 38.5785 84.3032 38.6807 84.2203 38.8331C84.1397 38.9817 84.1295 39.1683 84.1897 39.3931L84.5656 40.7961L84.0463 40.9352L83.3738 38.4253L83.8931 38.2861L83.97 38.5731C84.0274 38.4471 84.1136 38.3377 84.2287 38.245C84.3469 38.1515 84.4804 38.0848 84.6292 38.0449ZM88.0178 39.915C87.8204 39.9679 87.6334 39.9806 87.4567 39.9531C87.2823 39.9217 87.1333 39.8575 87.0096 39.7604C86.8852 39.6603 86.7995 39.5351 86.7528 39.3849L87.2903 39.2409C87.3279 39.3447 87.402 39.4209 87.5127 39.4694C87.6255 39.514 87.7518 39.5176 87.8915 39.4802C88.0373 39.4411 88.1423 39.3837 88.2066 39.3078C88.2731 39.2282 88.2946 39.1443 88.271 39.0562C88.2458 38.9621 88.1815 38.9045 88.0782 38.8833C87.9779 38.8614 87.8233 38.8491 87.6143 38.8465C87.4122 38.8453 87.2454 38.8363 87.1139 38.8195C86.9825 38.8026 86.8593 38.7559 86.7443 38.6792C86.6325 38.6018 86.5545 38.4811 86.5106 38.3171C86.4748 38.1835 86.4817 38.0514 86.5314 37.921C86.5802 37.7874 86.669 37.6693 86.7977 37.5664C86.9294 37.4628 87.0909 37.3853 87.2823 37.3341C87.5677 37.2576 87.8165 37.269 88.0287 37.3684C88.2431 37.4639 88.3897 37.6346 88.4686 37.8804L87.9493 38.0195C87.9101 37.9096 87.8405 37.8322 87.7406 37.7874C87.6407 37.7425 87.5209 37.7388 87.3812 37.7762C87.2446 37.8129 87.1467 37.8667 87.0876 37.9379C87.0286 38.0091 87.0105 38.0872 87.0332 38.1722C87.0511 38.239 87.0905 38.2887 87.1513 38.3212C87.2121 38.3537 87.2811 38.3743 87.3582 38.3829C87.4346 38.3885 87.5464 38.3927 87.6936 38.3956C87.8889 38.3954 88.0511 38.4056 88.1803 38.4263C88.3118 38.4432 88.4331 38.4888 88.5441 38.5632C88.6552 38.6376 88.7338 38.7548 88.78 38.915C88.8182 39.0577 88.8129 39.1958 88.7641 39.3294C88.7152 39.4629 88.6265 39.5811 88.4978 39.6839C88.3721 39.7859 88.2121 39.863 88.0178 39.915Z" fill="#323232"/>
</svg>
