<svg width="14" height="14" viewBox="0 0 14 14" fill="none" xmlns="http://www.w3.org/2000/svg">
<g clip-path="url(#clip0_17_159)">
<path fill-rule="evenodd" clip-rule="evenodd" d="M4.66675 0.145836C4.90837 0.145836 5.10425 0.341711 5.10425 0.583336V0.747982C5.63418 0.729165 6.25151 0.729167 6.97801 0.729169L7.00008 0.729169L7.02216 0.729169C7.74866 0.729167 8.36598 0.729165 8.89592 0.747982V0.583336C8.89592 0.341711 9.09179 0.145836 9.33342 0.145836C9.57504 0.145836 9.77092 0.341711 9.77092 0.583336V0.807418C10.3677 0.874471 10.8611 1.00206 11.3022 1.25669C11.9007 1.60228 12.3978 2.09934 12.7434 2.69792C13.0227 3.18169 13.1492 3.72856 13.2105 4.40562C13.2709 5.07209 13.2709 5.90621 13.2709 6.9779V7V7.0221C13.2709 8.09379 13.2709 8.92791 13.2105 9.59438C13.1492 10.2714 13.0227 10.8183 12.7434 11.3021C12.3978 11.9007 11.9007 12.3977 11.3022 12.7433C10.8184 13.0226 10.2715 13.1491 9.59446 13.2104C8.92799 13.2708 8.09387 13.2708 7.02218 13.2708H7.00008H6.97798C5.90629 13.2708 5.07217 13.2708 4.4057 13.2104C3.72864 13.1491 3.18177 13.0226 2.698 12.7433C2.09942 12.3977 1.60236 11.9007 1.25677 11.3021C0.977466 10.8183 0.851012 10.2714 0.789648 9.59438C0.729243 8.92791 0.729245 8.09378 0.729248 7.02208V7V6.97793C0.729245 5.90623 0.729243 5.0721 0.789648 4.40562C0.851012 3.72856 0.977466 3.18169 1.25677 2.69792C1.60236 2.09934 2.09942 1.60228 2.698 1.25669C3.13903 1.00206 3.6325 0.874471 4.22925 0.807418V0.583336C4.22925 0.341711 4.42512 0.145836 4.66675 0.145836ZM3.64592 4.66667C3.64592 4.42504 3.84179 4.22917 4.08342 4.22917H9.91675C10.1584 4.22917 10.3542 4.42504 10.3542 4.66667C10.3542 4.90829 10.1584 5.10417 9.91675 5.10417H4.08342C3.84179 5.10417 3.64592 4.90829 3.64592 4.66667ZM4.66675 8.16667C4.98891 8.16667 5.25008 7.9055 5.25008 7.58334C5.25008 7.26117 4.98891 7 4.66675 7C4.34458 7 4.08342 7.26117 4.08342 7.58334C4.08342 7.9055 4.34458 8.16667 4.66675 8.16667ZM5.25008 9.91667C5.25008 10.2388 4.98891 10.5 4.66675 10.5C4.34458 10.5 4.08342 10.2388 4.08342 9.91667C4.08342 9.5945 4.34458 9.33334 4.66675 9.33334C4.98891 9.33334 5.25008 9.5945 5.25008 9.91667ZM7.00008 10.5C7.32225 10.5 7.58341 10.2388 7.58341 9.91667C7.58341 9.5945 7.32225 9.33334 7.00008 9.33334C6.67792 9.33334 6.41675 9.5945 6.41675 9.91667C6.41675 10.2388 6.67792 10.5 7.00008 10.5ZM9.91675 9.91667C9.91675 10.2388 9.65558 10.5 9.33342 10.5C9.01125 10.5 8.75008 10.2388 8.75008 9.91667C8.75008 9.5945 9.01125 9.33334 9.33342 9.33334C9.65558 9.33334 9.91675 9.5945 9.91675 9.91667ZM7.00008 8.16667C7.32225 8.16667 7.58341 7.9055 7.58341 7.58334C7.58341 7.26117 7.32225 7 7.00008 7C6.67792 7 6.41675 7.26117 6.41675 7.58334C6.41675 7.9055 6.67792 8.16667 7.00008 8.16667ZM9.91675 7.58334C9.91675 7.9055 9.65558 8.16667 9.33342 8.16667C9.01125 8.16667 8.75008 7.9055 8.75008 7.58334C8.75008 7.26117 9.01125 7 9.33342 7C9.65558 7 9.91675 7.26117 9.91675 7.58334Z" fill="#DCDCDC"/>
</g>
<defs>
<clipPath id="clip0_17_159">
<rect width="14" height="14" fill="white"/>
</clipPath>
</defs>
</svg>
