<svg width="135" height="135" viewBox="0 0 135 135" fill="none" xmlns="http://www.w3.org/2000/svg">
<path d="M97.0458 35.3706H104.031C105.268 35.3706 106.455 35.8622 107.33 36.7371C108.205 37.6121 108.696 38.7988 108.696 40.0362C108.696 41.2736 108.205 42.4603 107.33 43.3353C106.455 44.2103 105.268 44.7018 104.031 44.7018H93.3306C92.7178 44.7022 92.111 44.5817 91.5448 44.3474C90.9785 44.113 90.4641 43.7694 90.0308 43.3361C89.5975 42.9028 89.2538 42.3883 89.0195 41.8221C88.7851 41.2559 88.6647 40.649 88.665 40.0362C88.665 38.7988 89.1566 37.6121 90.0316 36.7371C90.9065 35.8622 92.0932 35.3706 93.3306 35.3706" stroke="#263238" stroke-width="0.256" stroke-miterlimit="10"/>
<path d="M94.9263 35.3647H96.1467" stroke="#263238" stroke-width="0.256" stroke-miterlimit="10"/>
<path d="M95.3097 39.1777V39.4666H94.9722V39.1507C94.9722 38.8618 94.8588 38.689 94.5969 38.689C94.335 38.689 94.2297 38.8807 94.2297 39.1507V40.8382C94.2297 41.1271 94.3485 41.2999 94.6023 41.2999C94.8561 41.2999 94.9776 41.1271 94.9776 40.8382V40.4224H95.3097V40.8193C95.3097 41.3053 95.0802 41.6293 94.5888 41.6293C94.0974 41.6293 93.8706 41.3107 93.8706 40.8193V39.1777C93.8706 38.6944 94.1001 38.3677 94.5888 38.3677C95.0775 38.3677 95.3097 38.6944 95.3097 39.1777Z" fill="#263238"/>
<path d="M96.0039 40.9592L95.8797 41.6018H95.5503L96.1632 38.4077H96.6789L97.2891 41.6018H96.93L96.8058 40.9592H96.0039ZM96.0498 40.6541H96.7599L96.39 38.8073L96.0498 40.6541Z" fill="#263238"/>
<path d="M97.8862 41.6018H97.5649V38.4077H98.0104L98.7502 40.7162V38.4077H99.0634V41.6018H98.6935L97.8835 39.0179L97.8862 41.6018Z" fill="#263238"/>
<path d="M100.848 39.1777V39.4666H100.51V39.1507C100.51 38.8618 100.397 38.689 100.135 38.689C99.8728 38.689 99.7621 38.8618 99.7621 39.1507V40.8382C99.7621 41.1271 99.8809 41.2999 100.135 41.2999C100.389 41.2999 100.51 41.1271 100.51 40.8382V40.4224H100.848V40.8193C100.848 41.3053 100.621 41.6293 100.127 41.6293C99.6325 41.6293 99.4111 41.3107 99.4111 40.8193V39.1777C99.4111 38.6944 99.6379 38.3677 100.127 38.3677C100.615 38.3677 100.848 38.6944 100.848 39.1777Z" fill="#263238"/>
<path d="M102.308 39.8225V40.1411H101.52V41.2778H102.478V41.6018H101.164V38.4077H102.478V38.7317H101.52V39.8117L102.308 39.8225Z" fill="#263238"/>
<path d="M102.816 41.6018V38.4077H103.172V41.2778H104.085V41.6018H102.816Z" fill="#263238"/>
<path d="M70.2727 6.80949C69.9279 6.71689 69.5769 6.64921 69.2224 6.60699M68.3557 6.55569C66.515 6.5511 64.7387 7.23259 63.3735 8.46714C62.0083 9.70168 61.1521 11.4007 60.972 13.2325C60.792 15.0643 61.3011 16.8975 62.3998 18.3742C63.4986 19.8509 65.1083 20.8652 66.9146 21.219C68.7209 21.5729 70.5943 21.2409 72.169 20.2879C73.7437 19.3349 74.9068 17.8292 75.4312 16.0649C75.9556 14.3005 75.8037 12.404 75.0052 10.7456C74.2066 9.08722 72.8187 7.7859 71.1124 7.09569M66.2524 13.2571L70.8424 18.6301C69.7767 19.2105 68.5442 19.4076 67.3507 19.1886C66.1571 18.9696 65.0749 18.3476 64.2848 17.4266C63.4947 16.5057 63.0445 15.3415 63.0095 14.1285C62.9745 12.9155 63.3567 11.7273 64.0924 10.7623L65.6557 12.5875L66.2308 13.2571M70.4833 15.0121L65.6881 9.36909C66.4958 8.89126 67.4172 8.63947 68.3557 8.64009C69.3574 8.63968 70.3387 8.92315 71.1859 9.45765C72.0331 9.99214 72.7115 10.7558 73.1424 11.66C73.5733 12.5643 73.7392 13.5722 73.6208 14.5669C73.5023 15.5615 73.1044 16.5023 72.4732 17.2801L71.8333 16.5322L70.4833 15.0121Z" stroke="#263238" stroke-width="0.256" stroke-miterlimit="10"/>
<path d="M37.1011 33.4099L37.5169 32.9941" stroke="#263238" stroke-width="0.256" stroke-miterlimit="10"/>
<path d="M36.2318 34.2798L32.2601 30.3081L28.9688 33.5994L32.9404 37.5711L28.9688 41.5428L32.2601 44.8341L36.2318 40.8624L40.2034 44.8341L43.4947 41.5428L39.5231 37.5711L43.4947 33.5994L40.2034 30.3081L38.03 32.4816" stroke="#263238" stroke-width="0.256" stroke-miterlimit="10"/>
<path d="M25.4502 99.2165L39.4038 80.3165C41.7987 74.3765 41.4909 70.9907 42.12 65.0561C42.66 59.8451 44.0856 55.5359 44.2287 53.735C44.28 53.1005 44.7957 45.4676 44.8065 44.825C44.8254 43.9853 45.8865 41.9981 46.0863 41.18C47.7063 34.2788 48.9807 33.2447 50.7924 34.2896C51.0624 34.4435 53.9514 35.8016 51.7914 43.6451C51.2973 45.4433 51.8778 56.8238 51.8778 56.8238L81.4077 44.9114V74.363L68.3829 89.3858C66.3436 91.5873 63.8584 93.3289 61.0929 94.4942C59.8374 95.0342 58.3416 95.1692 58.2417 95.2637C57.4992 95.9711 49.2831 107.859 44.9118 114.215C37.6839 109.231 31.05 104.233 25.4502 99.2165Z" fill="white"/>
<path d="M51.8779 56.8219L51.5296 56.9623C51.5296 56.9623 50.8357 45.4414 51.3298 43.6432C52.5232 39.3043 52.3153 36.9526 51.8428 35.689C51.7321 37.579 51.2623 42.9169 49.4128 45.139C52.2559 49.135 50.7142 56.8408 49.753 58.369C49.753 58.369 50.9842 67.9216 53.4223 74.569C52.507 74.2072 51.5539 74.1532 51.0112 74.9389C49.9096 76.5292 51.3595 80.2741 51.859 81.8725C52.399 83.5951 52.939 85.3186 53.479 87.043C56.6956 86.6513 59.9345 86.4709 63.1747 86.503L63.0856 86.5408C58.4497 88.339 53.2198 89.0464 48.4894 87.5263C47.7388 86.8162 46.9909 86.0251 46.9477 86.0089C45.6922 85.5958 46.1377 87.6289 45.8245 88.5793C45.4006 89.9293 44.65 91.1551 43.9075 92.3593L36.3745 104.615C42.9328 97.7647 45.7705 93.0316 49.8475 88.771L51.0193 89.8051H50.9923C49.9933 89.9779 49.5424 92.038 49.1833 92.8372C48.0187 95.44 46.7839 98.0086 45.4789 100.543L49.3615 95.4724C50.4766 94.0117 51.7915 92.4457 53.5222 92.011L54.3322 92.7238C54.6184 92.9776 54.91 93.2314 55.207 93.4771C53.9137 94.8271 48.6109 104.05 42.463 112.291L44.9443 114.202C49.3156 107.846 57.5317 95.9584 58.2742 95.251C58.4486 95.1866 58.6298 95.1422 58.8142 95.1187L58.8304 95.0863H58.9654C59.7037 94.9554 60.4272 94.7519 61.1254 94.4788C63.8909 93.3135 66.3761 91.5719 68.4154 89.3704L75.8863 80.7304C76.3561 79.8637 76.51 78.997 75.1303 79.6909C74.89 79.8124 74.6578 79.9609 74.4229 80.0878C74.3464 80.0046 74.2623 79.9287 74.1718 79.861C73.5886 79.4452 72.8218 79.4155 72.1036 79.4533C69.787 79.5802 67.5352 80.2633 65.2321 80.5333C62.929 80.8033 60.4234 80.6278 58.5685 79.2319C57.502 78.4219 56.746 77.296 55.8442 76.3051C57.1028 69.1394 57.6231 61.8635 57.3967 54.5917L51.8779 56.8192V56.8219Z" fill="#DCDCDC"/>
<path opacity="0.5" d="M51.8779 56.8219L51.5296 56.9623C51.5296 56.9623 50.8357 45.4414 51.3298 43.6432C52.5232 39.3043 52.3153 36.9526 51.8428 35.689C51.7321 37.579 51.2623 42.9169 49.4128 45.139C52.2559 49.135 50.7142 56.8408 49.753 58.369C49.753 58.369 50.9842 67.9216 53.4223 74.569C52.507 74.2072 51.5539 74.1532 51.0112 74.9389C49.9096 76.5292 51.3595 80.2741 51.859 81.8725C52.399 83.5951 52.939 85.3186 53.479 87.043C56.6956 86.6513 59.9345 86.4709 63.1747 86.503L63.0856 86.5408C58.4497 88.339 53.2198 89.0464 48.4894 87.5263C47.7388 86.8162 46.9909 86.0251 46.9477 86.0089C45.6922 85.5958 46.1377 87.6289 45.8245 88.5793C45.4006 89.9293 44.65 91.1551 43.9075 92.3593L36.3745 104.615C42.9328 97.7647 45.7705 93.0316 49.8475 88.771L51.0193 89.8051H50.9923C49.9933 89.9779 49.5424 92.038 49.1833 92.8372C48.0187 95.44 46.7839 98.0086 45.4789 100.543L49.3615 95.4724C50.4766 94.0117 51.7915 92.4457 53.5222 92.011L54.3322 92.7238C54.6184 92.9776 54.91 93.2314 55.207 93.4771C53.9137 94.8271 48.6109 104.05 42.463 112.291L44.9443 114.202C49.3156 107.846 57.5317 95.9584 58.2742 95.251C58.4486 95.1866 58.6298 95.1422 58.8142 95.1187L58.8304 95.0863H58.9654C59.7037 94.9554 60.4272 94.7519 61.1254 94.4788C63.8909 93.3135 66.3761 91.5719 68.4154 89.3704L75.8863 80.7304C76.3561 79.8637 76.51 78.997 75.1303 79.6909C74.89 79.8124 74.6578 79.9609 74.4229 80.0878C74.3464 80.0046 74.2623 79.9287 74.1718 79.861C73.5886 79.4452 72.8218 79.4155 72.1036 79.4533C69.787 79.5802 67.5352 80.2633 65.2321 80.5333C62.929 80.8033 60.4234 80.6278 58.5685 79.2319C57.502 78.4219 56.746 77.296 55.8442 76.3051C57.1028 69.1394 57.6231 61.8635 57.3967 54.5917L51.8779 56.8192V56.8219Z" fill="white"/>
<path d="M25.4502 99.2165L39.4038 80.3165C41.7987 74.3765 41.4909 70.9907 42.12 65.0561C42.66 59.8451 44.0856 55.5359 44.2287 53.735C44.28 53.1005 44.7957 45.4676 44.8065 44.825C44.8254 43.9853 45.8865 41.9981 46.0863 41.18C47.7063 34.2788 48.9807 33.2447 50.7924 34.2896C51.0624 34.4435 53.9514 35.8016 51.7914 43.6451C51.2973 45.4433 51.8778 56.8238 51.8778 56.8238L81.4077 44.9114V74.363L68.3829 89.3858C66.3436 91.5873 63.8584 93.3289 61.0929 94.4942C59.8374 95.0342 58.3416 95.1692 58.2417 95.2637C57.4992 95.9711 49.2831 107.859 44.9118 114.215" stroke="#263238" stroke-width="0.256" stroke-miterlimit="10"/>
<path d="M83.9835 44.3207C84.2737 44.1856 84.5712 44.0666 84.8745 43.9643C85.9545 43.5998 87.4746 43.4243 88.4169 44.0831C89.4726 44.8067 90.0801 47.3528 87.6447 49.1213C86.1836 50.201 84.5845 51.08 82.89 51.7349C82.5173 51.8868 82.1156 51.9545 81.7137 51.933C81.3118 51.9116 80.9196 51.8015 80.5653 51.6107C80.1387 51.3731 79.7769 51.0221 79.7553 50.5118C79.65 47.5418 81.2889 45.5762 83.9835 44.3207Z" fill="white"/>
<mask id="mask0_228_5763" style="mask-type:luminance" maskUnits="userSpaceOnUse" x="79" y="43" width="11" height="9">
<path d="M83.9835 44.3207C84.2737 44.1856 84.5712 44.0666 84.8745 43.9643C85.9545 43.5998 87.4746 43.4243 88.4169 44.0831C89.4726 44.8067 90.0801 47.3528 87.6447 49.1213C86.1836 50.201 84.5845 51.08 82.89 51.7349C82.5173 51.8868 82.1156 51.9545 81.7137 51.933C81.3118 51.9116 80.9196 51.8015 80.5653 51.6107C80.1387 51.3731 79.7769 51.0221 79.7553 50.5118C79.65 47.5418 81.2889 45.5762 83.9835 44.3207Z" fill="white"/>
</mask>
<g mask="url(#mask0_228_5763)">
<path d="M88.147 45.5574C87.1237 43.041 83.8135 43.7214 83.1277 46.0542C82.7929 47.1963 82.9576 48.4194 83.1277 49.5966C83.2168 50.2176 83.3977 50.9466 83.9674 51.1734C84.0126 51.1885 84.0586 51.2012 84.1051 51.2112C85.0595 50.7677 85.9808 50.2561 86.8618 49.6803C87.208 49.353 87.5111 48.9828 87.7636 48.5787C88.3144 47.6796 88.5412 46.5321 88.147 45.5574Z" fill="#DCDCDC"/>
<path opacity="0.5" d="M88.147 45.5574C87.1237 43.041 83.8135 43.7214 83.1277 46.0542C82.7929 47.1963 82.9576 48.4194 83.1277 49.5966C83.2168 50.2176 83.3977 50.9466 83.9674 51.1734C84.0126 51.1885 84.0586 51.2012 84.1051 51.2112C85.0595 50.7677 85.9808 50.2561 86.8618 49.6803C87.208 49.353 87.5111 48.9828 87.7636 48.5787C88.3144 47.6796 88.5412 46.5321 88.147 45.5574Z" fill="white"/>
</g>
<path d="M83.9835 44.3207C84.2737 44.1856 84.5712 44.0666 84.8745 43.9643C85.9545 43.5998 87.4746 43.4243 88.4169 44.0831C89.4726 44.8067 90.0801 47.3528 87.6447 49.1213C86.1836 50.201 84.5845 51.08 82.89 51.7349C82.5173 51.8868 82.1156 51.9545 81.7137 51.933C81.3118 51.9116 80.9196 51.8015 80.5653 51.6107C80.1387 51.3731 79.7769 51.0221 79.7553 50.5118C79.65 47.5418 81.2889 45.5762 83.9835 44.3207Z" stroke="#263238" stroke-width="0.256" stroke-miterlimit="10"/>
<path d="M83.6002 58.0768L79.3018 60.2368V53.6488L84.5452 51.2188C84.5452 51.2188 81.8749 54.8314 83.6002 58.0768Z" stroke="#263238" stroke-width="0.256" stroke-miterlimit="10"/>
<path d="M82.1341 60.5825L79.3018 62.1539V69.5168L83.9485 67.8023L84.5452 61.0361C84.5452 61.0361 83.8216 60.7256 82.1341 60.5825Z" stroke="#263238" stroke-width="0.256" stroke-miterlimit="10"/>
<path d="M84.1565 27.2837V80.1335C84.1558 81.1863 83.738 82.1958 82.9947 82.9412C82.2513 83.6866 81.2429 84.1071 80.1902 84.1106H55.8902C54.8356 84.1099 53.8244 83.6907 53.0787 82.945C52.333 82.1993 51.9138 81.1881 51.9131 80.1335V27.2837C51.9131 26.2289 52.3321 25.2174 53.078 24.4715C53.8238 23.7257 54.8354 23.3066 55.8902 23.3066H80.1902C80.479 23.3065 80.7669 23.3382 81.0488 23.4011C81.9309 23.5988 82.7194 24.091 83.2844 24.7968C83.8493 25.5026 84.1569 26.3797 84.1565 27.2837Z" fill="#263238"/>
<path d="M78.5459 24.9023H57.5372C55.3407 24.9023 53.5601 26.683 53.5601 28.8794V78.4973C53.5601 80.6938 55.3407 82.4744 57.5372 82.4744H78.5459C80.7424 82.4744 82.523 80.6938 82.523 78.4973V28.8794C82.523 26.683 80.7424 24.9023 78.5459 24.9023Z" fill="#DCDCDC"/>
<path d="M60.6558 24.9023H76.0917V25.3532C76.0917 26.123 75.7859 26.8613 75.2415 27.4056C74.6972 27.9499 73.959 28.2557 73.1892 28.2557H63.5583C62.7885 28.2557 62.0502 27.9499 61.5059 27.4056C60.9616 26.8613 60.6558 26.123 60.6558 25.3532V24.9023Z" fill="#263238"/>
<path d="M63.3124 27.1999C63.7254 27.1999 64.0603 26.8651 64.0603 26.452C64.0603 26.0389 63.7254 25.7041 63.3124 25.7041C62.8993 25.7041 62.5645 26.0389 62.5645 26.452C62.5645 26.8651 62.8993 27.1999 63.3124 27.1999Z" fill="white" stroke="#263238" stroke-width="0.256" stroke-miterlimit="10"/>
<path d="M70.4678 25.8525H66.2801C65.9237 25.8525 65.6348 26.1414 65.6348 26.4978V26.7003C65.6348 27.0567 65.9237 27.3456 66.2801 27.3456H70.4678C70.8242 27.3456 71.1131 27.0567 71.1131 26.7003V26.4978C71.1131 26.1414 70.8242 25.8525 70.4678 25.8525Z" fill="white" stroke="#263238" stroke-width="0.256" stroke-miterlimit="10"/>
<path d="M71.745 49.3805C73.4285 47.3361 73.1359 44.3141 71.0915 42.6306C69.0471 40.9472 66.0251 41.2398 64.3416 43.2841C62.6582 45.3285 62.9508 48.3506 64.9951 50.034C67.0395 51.7175 70.0616 51.4249 71.745 49.3805Z" stroke="#263238" stroke-width="0.256" stroke-miterlimit="10"/>
<path d="M67.2139 49.0241L64.7974 46.4159L65.3914 45.8651L67.249 47.8685L71.0182 44.2397L71.5798 44.8229L67.2139 49.0241Z" fill="#263238"/>
<path d="M66.5389 39.8169L66.061 38.3643H66.331L66.6847 39.4767L67.0411 38.3643H67.2787L66.7981 39.8169V40.6269H66.547L66.5389 39.8169Z" fill="#263238"/>
<path d="M68.2587 39.3686V39.5954H67.7052V40.4054H68.3856V40.6349H67.4541V38.3696H68.3856V38.5991H67.7052V39.374L68.2587 39.3686Z" fill="#263238"/>
<path d="M69.6005 38.9071V38.9692H69.3602V38.8936C69.3602 38.6911 69.2846 38.5696 69.0902 38.5696C68.8958 38.5696 68.8202 38.6911 68.8202 38.8909C68.8202 39.4012 69.5816 39.4498 69.5816 40.087C69.5816 40.4299 69.4169 40.654 69.0713 40.654C68.7257 40.654 68.561 40.4299 68.561 40.087V39.9601H68.7986V40.1032C68.7986 40.3057 68.8823 40.4272 69.0686 40.4272C69.2549 40.4272 69.3386 40.3057 69.3386 40.1032C69.3386 39.5983 68.5799 39.5497 68.5799 38.9098C68.5799 38.5615 68.7419 38.3428 69.0821 38.3428C69.4223 38.3428 69.6005 38.5642 69.6005 38.9071Z" fill="#263238"/>
<path d="M68.2943 73.2429C72.486 73.2429 75.884 69.8449 75.884 65.6532C75.884 61.4615 72.486 58.0635 68.2943 58.0635C64.1026 58.0635 60.7046 61.4615 60.7046 65.6532C60.7046 69.8449 64.1026 73.2429 68.2943 73.2429Z" fill="#263238"/>
<path d="M71.0935 60.5073L73.3912 62.805L70.6183 65.5779L73.3912 68.3508L71.0935 70.6485L68.3206 67.8756L65.5477 70.6485L63.25 68.3508L66.0229 65.5779L63.25 62.805L65.5477 60.5073L68.3206 63.2775L71.0935 60.5073Z" fill="#DCDCDC"/>
<path d="M64.6515 54.6508V54.9397H64.314V54.6346C64.314 54.3457 64.1979 54.1702 63.936 54.1702C63.6741 54.1702 63.5607 54.3457 63.5607 54.6346V56.3302C63.5607 56.6191 63.6795 56.7946 63.936 56.7946C64.1925 56.7946 64.314 56.6191 64.314 56.3302V55.9144H64.6515V56.3113C64.6515 56.7973 64.422 57.1213 63.9279 57.1213C63.4338 57.1213 63.207 56.8 63.207 56.3113V54.6508C63.207 54.1648 63.4365 53.8408 63.9279 53.8408C64.4193 53.8408 64.6515 54.1648 64.6515 54.6508Z" fill="#263238"/>
<path d="M65.3403 56.4302L65.2161 57.0755H64.8867L65.4996 53.8652H66.018L66.6336 57.0755H66.2745L66.1503 56.4302H65.3403ZM65.3862 56.1224H66.1017L65.7399 54.2702L65.3862 56.1224Z" fill="#263238"/>
<path d="M67.2305 57.0863H66.9092V53.876H67.3628L68.1053 56.198V53.876H68.4212V57.0863H68.0405L67.2305 54.4916V57.0863Z" fill="#263238"/>
<path d="M70.1999 54.6508V54.9397H69.8597V54.6346C69.8597 54.3457 69.7463 54.1702 69.4844 54.1702C69.2225 54.1702 69.1091 54.3457 69.1091 54.6346V56.3302C69.1091 56.6191 69.2279 56.7946 69.4844 56.7946C69.7409 56.7946 69.8597 56.6191 69.8597 56.3302V55.9144H70.1999V56.3113C70.1999 56.7973 69.9704 57.1213 69.4763 57.1213C68.9822 57.1213 68.7554 56.8 68.7554 56.3113V54.6508C68.7554 54.1648 68.9849 53.8408 69.4763 53.8408C69.9677 53.8408 70.1999 54.1648 70.1999 54.6508Z" fill="#263238"/>
<path d="M71.6743 55.2989V55.6202H70.8886V56.7623H71.8525V57.0863H70.5322V53.876H71.8525V54.2027H70.8886V55.2989H71.6743Z" fill="#263238"/>
<path d="M72.1821 57.0863V53.876H72.5412V56.7623H73.4565V57.0863H72.1821Z" fill="#263238"/>
<path d="M63.9362 32.2191C64.2926 32.2191 64.4438 32.4297 64.4438 32.7591V33.0291C64.4438 33.3882 64.2764 33.5691 63.9038 33.5691H63.6797V34.4628H63.4502V32.1948L63.9362 32.2191ZM63.9173 33.3666C64.1036 33.3666 64.1873 33.2802 64.1873 33.0615V32.7618C64.1873 32.5539 64.1117 32.4513 63.9173 32.4513H63.6743V33.3666H63.9173Z" fill="#263238"/>
<path d="M65.1564 32.2192C65.5128 32.2192 65.664 32.4028 65.664 32.7376V32.9239C65.664 33.1723 65.5749 33.3289 65.394 33.3883C65.6019 33.4504 65.6802 33.6205 65.6802 33.8608V34.2145C65.6729 34.307 65.6887 34.3997 65.7261 34.4845H65.4696C65.4341 34.3992 65.4193 34.3067 65.4264 34.2145V33.8581C65.4264 33.5881 65.3076 33.5206 65.097 33.5206H64.9188V34.4899H64.665V32.2219L65.1564 32.2192ZM65.0916 33.2992C65.2941 33.2992 65.4129 33.2344 65.4129 32.9887V32.7727C65.4129 32.5675 65.34 32.4622 65.1429 32.4622H64.8972V33.2992H65.0916Z" fill="#263238"/>
<path d="M65.9097 32.7675C65.9097 32.4219 66.0825 32.1978 66.4281 32.1978C66.7737 32.1978 66.9492 32.4219 66.9492 32.7675V33.9393C66.9597 34.0123 66.9538 34.0868 66.932 34.1574C66.9103 34.228 66.8731 34.2928 66.8233 34.3473C66.7735 34.4018 66.7122 34.4445 66.6438 34.4725C66.5755 34.5004 66.5018 34.5129 66.4281 34.509C66.0825 34.509 65.9097 34.2822 65.9097 33.9393V32.7675ZM66.1581 33.9528C66.1581 34.1607 66.2472 34.2795 66.4281 34.2795C66.609 34.2795 66.6981 34.1607 66.6981 33.9528V32.754C66.6981 32.5515 66.6144 32.4273 66.4281 32.4273C66.2418 32.4273 66.1581 32.5515 66.1581 32.754V33.9528Z" fill="#263238"/>
<path d="M68.1883 32.7675V32.9727H67.9507V32.754C67.9507 32.5515 67.8697 32.4273 67.6807 32.4273C67.4917 32.4273 67.4107 32.5515 67.4107 32.754V33.9528C67.4107 34.158 67.4944 34.2795 67.6807 34.2795C67.867 34.2795 67.9507 34.158 67.9507 33.9528V33.6585H68.1883V33.9285C68.1883 34.2714 68.029 34.4982 67.678 34.4982C67.327 34.4982 67.1704 34.2714 67.1704 33.9285V32.7567C67.1704 32.4138 67.3324 32.187 67.678 32.187C68.0236 32.187 68.1883 32.4246 68.1883 32.7675Z" fill="#263238"/>
<path d="M69.2282 33.2239V33.4507H68.672V34.2607H69.3524V34.4902H68.4209V32.2222H69.3524V32.4544H68.672V33.2266L69.2282 33.2239Z" fill="#263238"/>
<path d="M70.3922 33.2239V33.4507H69.8522V34.2607H70.5326V34.4902H69.6011V32.2222H70.5326V32.4544H69.8522V33.2266L70.3922 33.2239Z" fill="#263238"/>
<path d="M71.2802 32.2192C71.6339 32.2192 71.7959 32.4352 71.7959 32.7835V33.9256C71.7959 34.2739 71.6339 34.4872 71.2802 34.4872H70.7402V32.2192H71.2802ZM71.2802 34.2577C71.4611 34.2577 71.5502 34.1443 71.5502 33.9364V32.77C71.5502 32.5648 71.4611 32.4514 71.2802 32.4514H71.0102V34.2577H71.2802Z" fill="#263238"/>
<path d="M73.5023 32.7696C73.5023 33.3096 73.0541 33.4257 73.0541 33.8496C73.054 33.8916 73.0595 33.9333 73.0703 33.9738H72.8435C72.8322 33.9316 72.8267 33.888 72.8273 33.8442C72.8273 33.3474 73.2512 33.2745 73.2512 32.7642C73.2512 32.559 73.1756 32.4294 72.9812 32.4294C72.7868 32.4294 72.7112 32.5617 72.7112 32.7642V32.964H72.4736V32.7777C72.4736 32.4348 72.6302 32.2026 72.9758 32.2026C73.3214 32.2026 73.5023 32.424 73.5023 32.7696ZM73.073 34.1736V34.4868H72.8327V34.1736H73.073Z" fill="#263238"/>
<path opacity="0.2" d="M62.0194 23.3145L51.8755 36.4311V27.2916C51.8755 26.2368 52.2945 25.2252 53.0404 24.4793C53.7862 23.7335 54.7978 23.3145 55.8526 23.3145H62.0194Z" fill="white"/>
<path opacity="0.2" d="M81.0006 23.3223L51.8784 59.8155V45.6945L70.5354 23.2197H80.1447C80.4329 23.2224 80.7199 23.2568 81.0006 23.3223Z" fill="white"/>
<path opacity="0.2" d="M84.1567 63.8472V69.96L82.5259 71.9607L73.9507 82.4745L72.6169 84.1107H67.3276L68.6857 82.4745L82.5259 65.8101L84.1567 63.8472Z" fill="white"/>
<path d="M82.3039 54.8398C82.2285 55.2956 82.2532 55.7623 82.3763 56.2076C82.4994 56.6529 82.7179 57.066 83.0167 57.4183C83.6915 58.1953 84.6173 58.7112 85.633 58.8763C86.4295 59.014 87.3664 58.9141 87.8821 58.3795C88.333 57.9151 88.3492 57.259 88.3411 56.6596C88.3276 55.1908 87.9496 53.1793 85.93 52.723C84.2695 52.345 82.5469 53.479 82.3039 54.8398Z" fill="white"/>
<mask id="mask1_228_5763" style="mask-type:luminance" maskUnits="userSpaceOnUse" x="82" y="52" width="7" height="7">
<path d="M82.3039 54.8398C82.2285 55.2956 82.2532 55.7623 82.3763 56.2076C82.4994 56.6529 82.7179 57.066 83.0167 57.4183C83.6915 58.1953 84.6173 58.7112 85.633 58.8763C86.4295 59.014 87.3664 58.9141 87.8821 58.3795C88.333 57.9151 88.3492 57.259 88.3411 56.6596C88.3276 55.1908 87.9496 53.1793 85.93 52.723C84.2695 52.345 82.5469 53.479 82.3039 54.8398Z" fill="white"/>
</mask>
<g mask="url(#mask1_228_5763)">
<path d="M82.3016 54.3924C82.1721 54.9034 82.1743 55.4389 82.3079 55.9488C82.4415 56.4588 82.7022 56.9265 83.0657 57.3084C83.8065 58.0662 84.7781 58.5562 85.8278 58.7016C86.0546 58.2642 85.7036 57.7701 85.439 57.3516C84.9708 56.6136 84.7434 55.7484 84.7883 54.8757C84.8099 54.4842 84.9611 54.0144 85.3472 53.9388C85.6901 53.8713 86.006 54.1845 86.1086 54.5193C86.1752 54.8618 86.2104 55.2098 86.2139 55.5588C86.2191 55.7349 86.272 55.9064 86.3672 56.0548C86.4623 56.2032 86.596 56.3229 86.7539 56.4012C86.8307 55.6105 86.7387 54.8126 86.4839 54.0603C85.6415 52.0623 82.8902 52.3809 82.3016 54.3924Z" fill="#DCDCDC"/>
<path opacity="0.5" d="M82.3016 54.3924C82.1721 54.9034 82.1743 55.4389 82.3079 55.9488C82.4415 56.4588 82.7022 56.9265 83.0657 57.3084C83.8065 58.0662 84.7781 58.5562 85.8278 58.7016C86.0546 58.2642 85.7036 57.7701 85.439 57.3516C84.9708 56.6136 84.7434 55.7484 84.7883 54.8757C84.8099 54.4842 84.9611 54.0144 85.3472 53.9388C85.6901 53.8713 86.006 54.1845 86.1086 54.5193C86.1752 54.8618 86.2104 55.2098 86.2139 55.5588C86.2191 55.7349 86.272 55.9064 86.3672 56.0548C86.4623 56.2032 86.596 56.3229 86.7539 56.4012C86.8307 55.6105 86.7387 54.8126 86.4839 54.0603C85.6415 52.0623 82.8902 52.3809 82.3016 54.3924Z" fill="white"/>
</g>
<path d="M82.3039 54.8398C82.2285 55.2956 82.2532 55.7623 82.3763 56.2076C82.4994 56.6529 82.7179 57.066 83.0167 57.4183C83.6915 58.1953 84.6173 58.7112 85.633 58.8763C86.4295 59.014 87.3664 58.9141 87.8821 58.3795C88.333 57.9151 88.3492 57.259 88.3411 56.6596C88.3276 55.1908 87.9496 53.1793 85.93 52.723C84.2695 52.345 82.5469 53.479 82.3039 54.8398Z" stroke="#263238" stroke-width="0.256" stroke-miterlimit="10"/>
<path d="M84.0216 71.7499L81.0381 74.0071C81.0381 74.0071 79.1859 77.0311 82.7769 77.8141L85.8603 76.9258C86.5889 76.7278 87.235 76.3018 87.7038 75.71C88.1727 75.1182 88.4397 74.3918 88.4658 73.6372C88.4847 72.1873 87.6126 70.6537 84.0405 70.3081L84.0216 71.7499Z" fill="white"/>
<mask id="mask2_228_5763" style="mask-type:luminance" maskUnits="userSpaceOnUse" x="80" y="70" width="9" height="8">
<path d="M84.0216 71.7499L81.0381 74.0071C81.0381 74.0071 79.1859 77.0311 82.7769 77.8141L85.8603 76.9258C86.5889 76.7278 87.235 76.3018 87.7038 75.71C88.1727 75.1182 88.4397 74.3918 88.4658 73.6372C88.4847 72.1873 87.6126 70.6537 84.0405 70.3081L84.0216 71.7499Z" fill="white"/>
</mask>
<g mask="url(#mask2_228_5763)">
<path d="M83.3409 73.0193C83.3682 73.2685 83.4552 73.5075 83.5947 73.7159C84.2038 74.8398 84.589 76.0713 84.7287 77.342C84.6288 76.4267 85.1364 75.2441 85.1094 74.2613C85.0824 73.2785 84.9906 71.9906 84.4749 71.1509C84.1779 71.6477 83.3328 72.4037 83.3409 73.0193Z" fill="#DCDCDC"/>
<path opacity="0.5" d="M83.3409 73.0193C83.3682 73.2685 83.4552 73.5075 83.5947 73.7159C84.2038 74.8398 84.589 76.0713 84.7287 77.342C84.6288 76.4267 85.1364 75.2441 85.1094 74.2613C85.0824 73.2785 84.9906 71.9906 84.4749 71.1509C84.1779 71.6477 83.3328 72.4037 83.3409 73.0193Z" fill="white"/>
</g>
<path d="M84.0216 71.7499L81.0381 74.0071C81.0381 74.0071 79.1859 77.0311 82.7769 77.8141L85.8603 76.9258C86.5889 76.7278 87.235 76.3018 87.7038 75.71C88.1727 75.1182 88.4397 74.3918 88.4658 73.6372C88.4847 72.1873 87.6126 70.6537 84.0405 70.3081L84.0216 71.7499Z" stroke="#263238" stroke-width="0.256" stroke-miterlimit="10"/>
<path d="M82.9496 62.91L80.1902 65.88C80.1902 65.88 78.7754 69.4737 82.7741 69.6303L85.898 68.1048C86.675 67.7379 87.354 67.1921 87.8792 66.512C88.4044 65.8319 88.7608 65.037 88.9193 64.1925C89.2163 62.4645 88.5629 60.7122 84.4508 61.0335L82.9496 62.91Z" fill="white"/>
<mask id="mask3_228_5763" style="mask-type:luminance" maskUnits="userSpaceOnUse" x="79" y="60" width="10" height="10">
<path d="M82.9496 62.91L80.1902 65.88C80.1902 65.88 78.7754 69.4737 82.7741 69.6303L85.898 68.1048C86.675 67.7379 87.354 67.1921 87.8792 66.512C88.4044 65.8319 88.7608 65.037 88.9193 64.1925C89.2163 62.4645 88.5629 60.7122 84.4508 61.0335L82.9496 62.91Z" fill="white"/>
</mask>
<g mask="url(#mask3_228_5763)">
<path d="M83.1441 69.2958C83.4141 69.5334 83.8785 69.3633 84.0594 69.0501C84.2106 68.7197 84.2504 68.3492 84.1728 67.9944C84.1053 67.4544 83.4141 63.7635 82.5744 64.2144C82.0803 64.4844 83.0469 68.6343 83.1441 69.2958Z" fill="#DCDCDC"/>
<path opacity="0.5" d="M83.1441 69.2958C83.4141 69.5334 83.8785 69.3633 84.0594 69.0501C84.2106 68.7197 84.2504 68.3492 84.1728 67.9944C84.1053 67.4544 83.4141 63.7635 82.5744 64.2144C82.0803 64.4844 83.0469 68.6343 83.1441 69.2958Z" fill="white"/>
</g>
<path d="M82.9496 62.91L80.1902 65.88C80.1902 65.88 78.7754 69.4737 82.7741 69.6303L85.898 68.1048C86.675 67.7379 87.354 67.1921 87.8792 66.512C88.4044 65.8319 88.7608 65.037 88.9193 64.1925C89.2163 62.4645 88.5629 60.7122 84.4508 61.0335L82.9496 62.91Z" stroke="#263238" stroke-width="0.256" stroke-miterlimit="10"/>
<path d="M82.7551 65.1025C82.5412 65.1405 82.3383 65.2248 82.1604 65.3495C81.9825 65.4742 81.834 65.6362 81.7253 65.8243C81.6167 66.0124 81.5504 66.2219 81.5312 66.4383C81.512 66.6547 81.5404 66.8726 81.6142 67.0769C81.6881 67.2811 81.8058 67.4668 81.9589 67.6208C82.1121 67.7749 82.2971 67.8936 82.5009 67.9686C82.7047 68.0436 82.9225 68.0732 83.139 68.0553C83.3555 68.0373 83.5654 67.9722 83.7541 67.8646" stroke="#263238" stroke-width="0.256" stroke-miterlimit="10"/>
<path d="M83.6784 74.1072C82.8225 73.9695 82.0017 74.9172 82.2663 75.7515C82.5309 76.5858 83.7567 76.8747 84.3723 76.2645" fill="white"/>
<path d="M83.6784 74.1072C82.8225 73.9695 82.0017 74.9172 82.2663 75.7515C82.5309 76.5858 83.7567 76.8747 84.3723 76.2645" stroke="#263238" stroke-width="0.256" stroke-miterlimit="10"/>
<path d="M48.125 45.1497C49.4411 45.2494 50.7471 44.8558 51.7889 44.0454" stroke="#263238" stroke-width="0.256" stroke-miterlimit="10"/>
<path d="M51.3 57.5747C50.2439 58.4306 48.9305 58.9061 47.5713 58.9247" stroke="#263238" stroke-width="0.256" stroke-miterlimit="10"/>
<path d="M55.0798 83.8809C54.4797 85.5919 53.3275 87.0547 51.8047 88.0389" stroke="#263238" stroke-width="0.256" stroke-miterlimit="10"/>
<path d="M86.7971 128.083L86.0465 125.159C80.5331 119.489 70.4081 114.288 69.5306 106.426C68.3966 96.3306 66.8442 96.741 66.8442 94.23C67.4484 92.9926 67.9671 91.7152 68.3967 90.4068C68.6667 89.5779 68.8124 88.3602 68.9636 87.3612C69.0373 86.851 69.3005 86.3873 69.7009 86.0625C70.1012 85.7377 70.6092 85.5758 71.1237 85.6089C71.8418 85.6541 72.5279 85.9222 73.0865 86.3757C74.1098 87.2424 74.6282 88.5897 74.7551 89.9262C74.882 91.2627 74.6768 92.6046 74.4581 93.9303C75.5381 95.9769 76.1564 98.5203 76.6181 100.78C77.0933 98.8902 77.8332 93.0987 75.8892 89.2107C72.6195 82.6605 69.0392 76.3749 66.2204 68.0643C65.988 67.2908 65.9509 66.4716 66.1124 65.6802C66.7685 63.2043 69.2984 63.5958 70.4783 64.9323C70.7893 65.2846 71.0442 65.6825 71.2343 66.1122C72.5843 69.0498 75.3465 73.5345 77.2986 76.1022L84.0269 85.0122L84.8369 84.3804C84.8369 84.3804 85.2015 73.3104 85.0206 73.1349C84.8397 72.9594 83.7543 65.88 83.7543 65.88C83.7543 65.88 83.1603 64.5624 82.4367 62.8803C82.2236 62.4095 82.1133 61.8986 82.1133 61.3818C82.1133 60.865 82.2236 60.3541 82.4367 59.8833C83.7003 57.3021 86.3355 58.5036 86.8755 59.8833C87.4155 61.263 89.0355 63.963 89.0355 63.963L92.0406 72.1818C91.9272 74.0394 92.9937 83.2194 92.9937 83.2194L94.0737 82.7253L95.8151 77.3253L94.5002 71.82C94.5002 71.82 91.622 68.6448 92.1026 66.7818C92.5832 64.9188 95.0402 65.4642 95.0402 65.4642L99.9569 71.3394H101.401L104.82 75.6594C105.74 78.4406 106.209 81.351 106.21 84.2805C106.211 86.2047 106.007 88.1234 105.603 90.0045L104.82 93.6549V117.234C104.82 117.234 107.158 121.014 107.158 121.37C107.158 121.443 107.647 122.793 108.305 124.592C101.423 127.375 94.2302 128.444 86.7971 128.083Z" fill="white"/>
<path d="M71.5802 91.0491C71.8745 91.3866 71.7234 92.0697 71.2752 92.0805C70.6807 91.8904 70.0414 91.8925 69.4482 92.0863C68.855 92.2802 68.3379 92.656 67.9704 93.1605C67.8624 93.3144 67.668 93.5007 67.5222 93.3819C67.4277 93.3036 67.4492 93.1551 67.4789 93.0363C67.5221 92.8743 67.5653 92.7123 67.6058 92.5503C67.8407 91.9887 68.1108 91.284 68.397 90.4146C68.4564 90.2418 68.5049 90.0474 68.5535 89.8449C68.6428 90.0902 68.8096 90.2997 69.0288 90.4416C69.4095 90.6792 69.8901 90.6549 70.3383 90.6576C70.7865 90.6603 71.2805 90.7197 71.5802 91.0491ZM73.5215 102.559C73.589 102.438 73.6458 102.313 73.7025 102.187C73.6428 102.228 73.5947 102.284 73.563 102.349C73.5313 102.414 73.517 102.487 73.5215 102.559ZM76.6158 100.78C76.1568 98.5092 75.5358 95.9766 74.4558 93.93C74.6745 92.6043 74.885 91.2624 74.7527 89.9259C74.6204 88.5894 74.1074 87.2421 73.0841 86.3754C72.5255 85.9218 71.8394 85.6538 71.1213 85.6086C70.9405 85.5956 70.7588 85.6074 70.5813 85.6437C69.6768 86.0001 69.1233 86.7912 69.747 88.0035C69.9351 88.3561 70.2455 88.6278 70.6199 88.7675C70.9944 88.9072 71.4069 88.9053 71.7801 88.7622C71.9587 88.678 72.1187 88.5589 72.2507 88.4119C72.3826 88.2649 72.4837 88.093 72.5482 87.9062C72.6126 87.7195 72.639 87.5218 72.6258 87.3247C72.6125 87.1276 72.56 86.9352 72.4713 86.7588C73.2431 87.9798 73.6245 89.407 73.5647 90.8502C73.5049 92.2935 73.0067 93.6842 72.1365 94.8372C74.1669 96.5976 74.8121 99.7512 73.6997 102.187C73.8342 102.095 73.9933 102.046 74.156 102.046C74.3188 102.046 74.4778 102.095 74.6123 102.187C75.0011 102.478 75.1307 102.997 75.3197 103.439C75.5087 103.882 75.876 104.355 76.362 104.322C76.8453 103.137 76.8615 101.836 76.6671 100.542C76.6509 100.629 76.6347 100.71 76.6158 100.78ZM86.5545 70.845C86.568 70.9368 86.576 71.0286 86.5869 71.115C86.6068 71.0239 86.5954 70.9287 86.5545 70.845ZM70.2357 67.1622C72.6839 70.209 73.9998 74.0106 73.959 77.919C74.742 77.3034 75.8111 78.1566 76.424 78.9423C80.1851 83.7719 83.6995 88.7886 86.954 93.9732C86.3249 91.6809 86.3088 89.2509 85.6284 86.9748C85.3684 86.1374 85.0462 85.3206 84.6645 84.5313L84.0353 85.02L77.307 76.11C75.3549 73.5342 72.5927 69.0495 71.2427 66.12C71.0526 65.6903 70.7977 65.2924 70.4867 64.9401C70.1735 64.5916 69.7885 64.3153 69.3582 64.1301C68.9559 65.0022 69.6876 66.3198 68.8182 67.1379C69.0369 67.1379 70.1196 67.0218 70.2357 67.1622ZM92.9696 83.0058C92.8103 81.6126 91.9383 73.8744 92.0409 72.1842L89.0358 63.9654C89.0358 63.9654 87.4158 61.2654 86.8758 59.8857C86.828 59.7687 86.7693 59.6566 86.7002 59.5509C86.6006 59.4505 86.4823 59.3707 86.352 59.316C85.0722 58.8543 85.9362 60.5148 85.7688 61.3518C87.8712 64.0801 89.0504 67.407 89.1357 70.8504C88.5377 70.951 87.9978 71.2686 87.6192 71.7423C87.2407 72.216 87.05 72.8126 87.0836 73.4181C87.1997 72.6081 88.3877 72.3813 89.0384 72.8781C89.6891 73.3749 89.9132 74.2281 90.059 75.0381C90.9203 79.7874 90.267 84.6717 90.6126 89.4858C90.7422 91.3029 92.2839 95.2692 93.3126 103.569C93.0426 97.5318 93.3126 91.1193 93.0426 85.0848C93.0237 84.3666 92.9966 83.6808 92.9696 83.0058ZM107.153 121.37C107.153 121.011 104.815 117.234 104.815 117.234V97.7397C104.436 96.7031 103.994 95.6914 103.489 94.7103C103.481 94.696 103.469 94.6846 103.454 94.6776C103.439 94.6707 103.422 94.6686 103.406 94.6715C103.39 94.6745 103.375 94.6825 103.364 94.6942C103.353 94.706 103.345 94.7211 103.343 94.7373C103.116 96.6273 102.379 96.1683 101.218 94.6509C101.218 94.6509 99.5009 95.8092 99.4928 95.7984C98.9123 95.0154 98.664 94.065 98.5263 93.0984C98.5452 93.0552 98.5668 93.012 98.5884 92.9661C98.61 92.9202 98.6504 92.8365 98.6828 92.7717C98.7152 92.7069 98.7719 92.5827 98.8178 92.4855L98.9123 92.283L99.0501 91.9833L99.1419 91.7808C99.1905 91.6755 99.2364 91.5675 99.285 91.4595C99.312 91.3947 99.3417 91.3326 99.3687 91.2678C99.4226 91.1436 99.4767 91.0221 99.528 90.8979L99.5927 90.7467V90.7224C99.6143 90.6738 99.6332 90.6252 99.6521 90.5766C99.7115 90.4362 99.771 90.3066 99.8277 90.1527L99.9167 89.934C99.968 89.8098 100.017 89.6856 100.065 89.5641L100.157 89.3211C100.203 89.205 100.249 89.0862 100.292 88.9701L100.381 88.7244C100.424 88.611 100.465 88.4976 100.505 88.3815C100.546 88.2654 100.565 88.2195 100.592 88.1412L100.643 87.9954C100.718 89.4806 101.335 90.8869 102.376 91.9482C102.218 90.1793 102.308 88.397 102.646 86.6535C102.763 86.073 102.784 84.0507 103.238 83.6835C103.691 83.3163 104.512 83.3298 104.758 83.8671C104.738 83.6725 104.672 83.4852 104.568 83.3201C104.463 83.1549 104.321 83.0162 104.154 82.915C103.986 82.8138 103.798 82.7527 103.603 82.7366C103.408 82.7205 103.212 82.7498 103.03 82.8222C103.608 82.5522 102.8 79.5822 102.663 79.0071C102.576 78.6453 102.355 77.6571 102.055 76.6689C102.361 76.246 102.754 75.8942 103.208 75.6375C103.457 75.5061 103.737 75.4441 104.018 75.4579C104.299 75.4717 104.571 75.5607 104.806 75.7158V75.6861L104.62 75.4485C104.277 75.0489 103.948 74.6385 103.637 74.2092L101.388 71.3634H100.308L100.281 71.3931C100.046 71.7684 100.389 72.4407 100.5 72.7944C100.567 73.0077 100.635 73.221 100.7 73.4343C100.4 72.5758 100.029 71.744 99.5901 70.9476L95.3753 65.8797C95.2281 65.7842 95.0727 65.702 94.9109 65.634C93.8309 65.1966 92.3729 66.1335 92.624 67.4052C92.6021 67.0722 92.7027 66.7427 92.907 66.4788C93.1113 66.215 93.4051 66.035 93.733 65.9729C94.0608 65.9108 94.4001 65.9708 94.6867 66.1416C94.9734 66.3125 95.1876 66.5823 95.289 66.9003C95.1406 66.8988 94.9934 66.9269 94.856 66.983C94.7186 67.039 94.5937 67.1219 94.4887 67.2267C94.3836 67.3315 94.3005 67.4561 94.2441 67.5934C94.1877 67.7307 94.1593 67.8778 94.1603 68.0262L95.5616 67.4862C95.7533 68.8713 96.674 70.0323 97.5866 71.0907C98.4992 72.1491 98.5722 72.8619 98.907 74.2173C99.2418 75.5727 99.5873 77.6517 98.2535 78.0729C98.8448 77.9541 99.4145 78.4698 99.5793 79.0503C99.7439 79.6308 99.6171 80.2518 99.4956 80.8431C98.6993 84.7092 98.1966 88.6299 97.9916 92.5719C97.5546 93.3763 97.2319 94.2378 97.0332 95.1315L97.2195 104.541C98.0557 103.695 98.6898 102.67 99.0744 101.544C99.1338 101.366 99.2552 101.215 99.4167 101.119C99.5781 101.023 99.7687 100.988 99.9536 101.021C100.139 101.053 100.306 101.151 100.424 101.297C100.543 101.443 100.605 101.626 100.6 101.814C100.6 101.949 100.6 102.084 100.578 102.216L99.7926 115.514L102.79 104.195C103.33 107.527 101.888 116.915 100.873 120.125C103.338 120.533 104.245 123.587 104.329 126.092C105.681 125.672 107.007 125.172 108.3 124.597C107.641 122.793 107.153 121.443 107.153 121.37ZM86.8596 123.26C86.4259 122.65 85.8896 122.119 85.2746 121.691C83.7752 120.627 81.9835 120.052 80.1446 120.044L81.6998 121.3C81.7619 121.33 81.8241 121.357 81.8808 121.389C82.8582 121.929 83.7492 122.796 84.4971 123.611C84.5673 123.689 84.6429 123.778 84.7211 123.881C85.1882 124.31 85.6364 124.737 86.055 125.169L86.5949 127.248C86.7164 127.531 86.8326 127.818 86.9405 128.098C87.2375 128.113 87.5345 128.124 87.8315 128.131C87.9071 126.781 87.8721 125.361 87.5319 124.494C87.3628 124.052 87.1368 123.633 86.8596 123.249V123.26Z" fill="#DCDCDC"/>
<path opacity="0.5" d="M71.5802 91.0491C71.8745 91.3866 71.7234 92.0697 71.2752 92.0805C70.6807 91.8904 70.0414 91.8925 69.4482 92.0863C68.855 92.2802 68.3379 92.656 67.9704 93.1605C67.8624 93.3144 67.668 93.5007 67.5222 93.3819C67.4277 93.3036 67.4492 93.1551 67.4789 93.0363C67.5221 92.8743 67.5653 92.7123 67.6058 92.5503C67.8407 91.9887 68.1108 91.284 68.397 90.4146C68.4564 90.2418 68.5049 90.0474 68.5535 89.8449C68.6428 90.0902 68.8096 90.2997 69.0288 90.4416C69.4095 90.6792 69.8901 90.6549 70.3383 90.6576C70.7865 90.6603 71.2805 90.7197 71.5802 91.0491ZM73.5215 102.559C73.589 102.438 73.6458 102.313 73.7025 102.187C73.6428 102.228 73.5947 102.284 73.563 102.349C73.5313 102.414 73.517 102.487 73.5215 102.559ZM76.6158 100.78C76.1568 98.5092 75.5358 95.9766 74.4558 93.93C74.6745 92.6043 74.885 91.2624 74.7527 89.9259C74.6204 88.5894 74.1074 87.2421 73.0841 86.3754C72.5255 85.9218 71.8394 85.6538 71.1213 85.6086C70.9405 85.5956 70.7588 85.6074 70.5813 85.6437C69.6768 86.0001 69.1233 86.7912 69.747 88.0035C69.9351 88.3561 70.2455 88.6278 70.6199 88.7675C70.9944 88.9072 71.4069 88.9053 71.7801 88.7622C71.9587 88.678 72.1187 88.5589 72.2507 88.4119C72.3826 88.2649 72.4837 88.093 72.5482 87.9062C72.6126 87.7195 72.639 87.5218 72.6258 87.3247C72.6125 87.1276 72.56 86.9352 72.4713 86.7588C73.2431 87.9798 73.6245 89.407 73.5647 90.8502C73.5049 92.2935 73.0067 93.6842 72.1365 94.8372C74.1669 96.5976 74.8121 99.7512 73.6997 102.187C73.8342 102.095 73.9933 102.046 74.156 102.046C74.3188 102.046 74.4778 102.095 74.6123 102.187C75.0011 102.478 75.1307 102.997 75.3197 103.439C75.5087 103.882 75.876 104.355 76.362 104.322C76.8453 103.137 76.8615 101.836 76.6671 100.542C76.6509 100.629 76.6347 100.71 76.6158 100.78ZM86.5545 70.845C86.568 70.9368 86.576 71.0286 86.5869 71.115C86.6068 71.0239 86.5954 70.9287 86.5545 70.845ZM70.2357 67.1622C72.6839 70.209 73.9998 74.0106 73.959 77.919C74.742 77.3034 75.8111 78.1566 76.424 78.9423C80.1851 83.7719 83.6995 88.7886 86.954 93.9732C86.3249 91.6809 86.3088 89.2509 85.6284 86.9748C85.3684 86.1374 85.0462 85.3206 84.6645 84.5313L84.0353 85.02L77.307 76.11C75.3549 73.5342 72.5927 69.0495 71.2427 66.12C71.0526 65.6903 70.7977 65.2924 70.4867 64.9401C70.1735 64.5916 69.7885 64.3153 69.3582 64.1301C68.9559 65.0022 69.6876 66.3198 68.8182 67.1379C69.0369 67.1379 70.1196 67.0218 70.2357 67.1622ZM92.9696 83.0058C92.8103 81.6126 91.9383 73.8744 92.0409 72.1842L89.0358 63.9654C89.0358 63.9654 87.4158 61.2654 86.8758 59.8857C86.828 59.7687 86.7693 59.6566 86.7002 59.5509C86.6006 59.4505 86.4823 59.3707 86.352 59.316C85.0722 58.8543 85.9362 60.5148 85.7688 61.3518C87.8712 64.0801 89.0504 67.407 89.1357 70.8504C88.5377 70.951 87.9978 71.2686 87.6192 71.7423C87.2407 72.216 87.05 72.8126 87.0836 73.4181C87.1997 72.6081 88.3877 72.3813 89.0384 72.8781C89.6891 73.3749 89.9132 74.2281 90.059 75.0381C90.9203 79.7874 90.267 84.6717 90.6126 89.4858C90.7422 91.3029 92.2839 95.2692 93.3126 103.569C93.0426 97.5318 93.3126 91.1193 93.0426 85.0848C93.0237 84.3666 92.9966 83.6808 92.9696 83.0058ZM107.153 121.37C107.153 121.011 104.815 117.234 104.815 117.234V97.7397C104.436 96.7031 103.994 95.6914 103.489 94.7103C103.481 94.696 103.469 94.6846 103.454 94.6776C103.439 94.6707 103.422 94.6686 103.406 94.6715C103.39 94.6745 103.375 94.6825 103.364 94.6942C103.353 94.706 103.345 94.7211 103.343 94.7373C103.116 96.6273 102.379 96.1683 101.218 94.6509C101.218 94.6509 99.5009 95.8092 99.4928 95.7984C98.9123 95.0154 98.664 94.065 98.5263 93.0984C98.5452 93.0552 98.5668 93.012 98.5884 92.9661C98.61 92.9202 98.6504 92.8365 98.6828 92.7717C98.7152 92.7069 98.7719 92.5827 98.8178 92.4855L98.9123 92.283L99.0501 91.9833L99.1419 91.7808C99.1905 91.6755 99.2364 91.5675 99.285 91.4595C99.312 91.3947 99.3417 91.3326 99.3687 91.2678C99.4226 91.1436 99.4767 91.0221 99.528 90.8979L99.5927 90.7467V90.7224C99.6143 90.6738 99.6332 90.6252 99.6521 90.5766C99.7115 90.4362 99.771 90.3066 99.8277 90.1527L99.9167 89.934C99.968 89.8098 100.017 89.6856 100.065 89.5641L100.157 89.3211C100.203 89.205 100.249 89.0862 100.292 88.9701L100.381 88.7244C100.424 88.611 100.465 88.4976 100.505 88.3815C100.546 88.2654 100.565 88.2195 100.592 88.1412L100.643 87.9954C100.718 89.4806 101.335 90.8869 102.376 91.9482C102.218 90.1793 102.308 88.397 102.646 86.6535C102.763 86.073 102.784 84.0507 103.238 83.6835C103.691 83.3163 104.512 83.3298 104.758 83.8671C104.738 83.6725 104.672 83.4852 104.568 83.3201C104.463 83.1549 104.321 83.0162 104.154 82.915C103.986 82.8138 103.798 82.7527 103.603 82.7366C103.408 82.7205 103.212 82.7498 103.03 82.8222C103.608 82.5522 102.8 79.5822 102.663 79.0071C102.576 78.6453 102.355 77.6571 102.055 76.6689C102.361 76.246 102.754 75.8942 103.208 75.6375C103.457 75.5061 103.737 75.4441 104.018 75.4579C104.299 75.4717 104.571 75.5607 104.806 75.7158V75.6861L104.62 75.4485C104.277 75.0489 103.948 74.6385 103.637 74.2092L101.388 71.3634H100.308L100.281 71.3931C100.046 71.7684 100.389 72.4407 100.5 72.7944C100.567 73.0077 100.635 73.221 100.7 73.4343C100.4 72.5758 100.029 71.744 99.5901 70.9476L95.3753 65.8797C95.2281 65.7842 95.0727 65.702 94.9109 65.634C93.8309 65.1966 92.3729 66.1335 92.624 67.4052C92.6021 67.0722 92.7027 66.7427 92.907 66.4788C93.1113 66.215 93.4051 66.035 93.733 65.9729C94.0608 65.9108 94.4001 65.9708 94.6867 66.1416C94.9734 66.3125 95.1876 66.5823 95.289 66.9003C95.1406 66.8988 94.9934 66.9269 94.856 66.983C94.7186 67.039 94.5937 67.1219 94.4887 67.2267C94.3836 67.3315 94.3005 67.4561 94.2441 67.5934C94.1877 67.7307 94.1593 67.8778 94.1603 68.0262L95.5616 67.4862C95.7533 68.8713 96.674 70.0323 97.5866 71.0907C98.4992 72.1491 98.5722 72.8619 98.907 74.2173C99.2418 75.5727 99.5873 77.6517 98.2535 78.0729C98.8448 77.9541 99.4145 78.4698 99.5793 79.0503C99.7439 79.6308 99.6171 80.2518 99.4956 80.8431C98.6993 84.7092 98.1966 88.6299 97.9916 92.5719C97.5546 93.3763 97.2319 94.2378 97.0332 95.1315L97.2195 104.541C98.0557 103.695 98.6898 102.67 99.0744 101.544C99.1338 101.366 99.2552 101.215 99.4167 101.119C99.5781 101.023 99.7687 100.988 99.9536 101.021C100.139 101.053 100.306 101.151 100.424 101.297C100.543 101.443 100.605 101.626 100.6 101.814C100.6 101.949 100.6 102.084 100.578 102.216L99.7926 115.514L102.79 104.195C103.33 107.527 101.888 116.915 100.873 120.125C103.338 120.533 104.245 123.587 104.329 126.092C105.681 125.672 107.007 125.172 108.3 124.597C107.641 122.793 107.153 121.443 107.153 121.37ZM86.8596 123.26C86.4259 122.65 85.8896 122.119 85.2746 121.691C83.7752 120.627 81.9835 120.052 80.1446 120.044L81.6998 121.3C81.7619 121.33 81.8241 121.357 81.8808 121.389C82.8582 121.929 83.7492 122.796 84.4971 123.611C84.5673 123.689 84.6429 123.778 84.7211 123.881C85.1882 124.31 85.6364 124.737 86.055 125.169L86.5949 127.248C86.7164 127.531 86.8326 127.818 86.9405 128.098C87.2375 128.113 87.5345 128.124 87.8315 128.131C87.9071 126.781 87.8721 125.361 87.5319 124.494C87.3628 124.052 87.1368 123.633 86.8596 123.249V123.26Z" fill="white"/>
<path d="M86.7971 128.083L86.0465 125.159C80.5331 119.489 70.4081 114.288 69.5306 106.426C68.3966 96.3306 66.8442 96.741 66.8442 94.23C67.4484 92.9926 67.9671 91.7152 68.3967 90.4068C68.6667 89.5779 68.8124 88.3602 68.9636 87.3612C69.0373 86.851 69.3005 86.3873 69.7009 86.0625C70.1012 85.7377 70.6092 85.5758 71.1237 85.6089C71.8418 85.6541 72.5279 85.9222 73.0865 86.3757C74.1098 87.2424 74.6282 88.5897 74.7551 89.9262C74.882 91.2627 74.6768 92.6046 74.4581 93.9303C75.5381 95.9769 76.1564 98.5203 76.6181 100.78C77.0933 98.8902 77.8332 93.0987 75.8892 89.2107C72.6195 82.6605 69.0392 76.3749 66.2204 68.0643C65.988 67.2907 65.9509 66.4716 66.1124 65.6802C66.7685 63.2043 69.2984 63.5958 70.4783 64.9323C70.7893 65.2846 71.0442 65.6825 71.2343 66.1122C72.5843 69.0498 75.3465 73.5345 77.2986 76.1022L84.0269 85.0122L84.8369 84.3804C84.8369 84.3804 85.2015 73.3104 85.0206 73.1349C84.8397 72.9594 83.7543 65.88 83.7543 65.88C83.7543 65.88 83.1603 64.5624 82.4367 62.8803C82.2236 62.4095 82.1133 61.8986 82.1133 61.3818C82.1133 60.865 82.2236 60.3541 82.4367 59.8833C83.7003 57.3021 86.3355 58.5036 86.8755 59.8833C87.4155 61.263 89.0355 63.963 89.0355 63.963L92.0406 72.1818C91.9272 74.0394 92.9937 83.2194 92.9937 83.2194L94.0737 82.7253L95.8151 77.3253L94.5002 71.82C94.5002 71.82 91.622 68.6448 92.1026 66.7818C92.5832 64.9188 95.0402 65.4642 95.0402 65.4642L99.9569 71.3394H101.401L104.82 75.6594C105.74 78.4406 106.209 81.351 106.21 84.2805C106.211 86.2046 106.007 88.1234 105.603 90.0045L104.82 93.6549V117.234C104.82 117.234 107.158 121.014 107.158 121.37C107.158 121.443 107.647 122.793 108.305 124.592" stroke="#263238" stroke-width="0.256" stroke-miterlimit="10"/>
<path d="M73.4727 78.3002C73.91 77.8217 74.4541 77.4532 75.0608 77.2247C75.6674 76.9962 76.3194 76.9142 76.9638 76.9853" stroke="#263238" stroke-width="0.256" stroke-miterlimit="10"/>
<path d="M71.2314 67.0273C70.7389 66.9445 70.2348 66.9607 69.7485 67.0747C69.2622 67.1887 68.8035 67.3984 68.3991 67.6915C68.3991 67.6915 66.9816 66.2767 67.284 65.1211" stroke="#263238" stroke-width="0.256" stroke-miterlimit="10"/>
<path d="M102.244 92.0402C101.461 90.8333 100.705 89.1755 100.913 87.7553C101.324 84.9689 102.593 81.764 102.023 79.0073C101.663 77.2469 101.298 75.4865 100.927 73.7261" stroke="#263238" stroke-width="0.256" stroke-miterlimit="10"/>
<path d="M87.0723 62.1836C86.7989 62.3803 86.476 62.4967 86.14 62.5198C85.804 62.5429 85.4682 62.4717 85.1705 62.3143C84.8727 62.1568 84.6248 61.9194 84.4547 61.6287C84.2846 61.338 84.199 61.0056 84.2076 60.6689" stroke="#263238" stroke-width="0.256" stroke-miterlimit="10"/>
<path d="M84.9834 79.3525C84.9186 80.3029 85.0455 84.7741 84.9834 85.7245" stroke="#263238" stroke-width="0.256" stroke-miterlimit="10"/>
<path d="M90.5854 87.5122C91.822 88.8622 91.6411 92.1211 90.769 93.9112" stroke="#263238" stroke-width="0.256" stroke-miterlimit="10"/>
<path d="M81.0327 91.2954C81.6987 92.5942 82.7047 93.6878 83.9433 94.4598" stroke="#263238" stroke-width="0.256" stroke-miterlimit="10"/>
<path d="M98.5153 89.5103C98.7173 90.8878 98.4163 92.292 97.6675 93.4658" stroke="#263238" stroke-width="0.256" stroke-miterlimit="10"/>
<path d="M103.778 93.7466C103.835 94.826 103.526 95.8931 102.903 96.776" stroke="#263238" stroke-width="0.256" stroke-miterlimit="10"/>
<path d="M96.5632 67.5919C96.2383 67.4421 95.8763 67.3922 95.523 67.4484C95.1697 67.5046 94.841 67.6645 94.5787 67.9078L93.8794 66.9844" stroke="#263238" stroke-width="0.256" stroke-miterlimit="10"/>
<path d="M90.7421 71.7555C90.2636 71.473 89.7005 71.3692 89.1528 71.4626C88.6051 71.5561 88.1082 71.8406 87.7505 72.2658" stroke="#263238" stroke-width="0.256" stroke-miterlimit="10"/>
<path d="M101.882 79.3532C101.58 78.8494 101.139 78.4428 100.613 78.1815C100.086 77.9203 99.4963 77.8153 98.9121 77.879" stroke="#263238" stroke-width="0.256" stroke-miterlimit="10"/>
<path d="M105.686 84.7803C105.666 84.4128 105.522 84.0631 105.276 83.7887C105.031 83.5144 104.699 83.3318 104.336 83.271" stroke="#263238" stroke-width="0.256" stroke-miterlimit="10"/>
<path d="M76.5829 101.234L75.3706 101.774" stroke="#263238" stroke-width="0.256" stroke-miterlimit="10"/>
<path d="M76.8962 102.208C76.6975 103.146 76.6929 104.114 76.8827 105.054" stroke="#263238" stroke-width="0.256" stroke-miterlimit="10"/>
<path d="M68.9344 92.7939C68.2807 93.3116 67.7225 93.9393 67.2847 94.6488" stroke="#263238" stroke-width="0.256" stroke-miterlimit="10"/>
<path d="M69.231 89.1C70.1193 88.4655 71.5368 89.8884 72.3549 89.1621C72.6789 88.8732 72.7059 88.371 72.6249 87.9444C72.5439 87.5178 72.3981 87.0858 72.4602 86.6538" stroke="#263238" stroke-width="0.256" stroke-miterlimit="10"/>
<path d="M88.1392 102.446C88.1635 102.9 88.1797 103.353 88.1824 103.796" stroke="#263238" stroke-width="0.256" stroke-miterlimit="10"/>
<path d="M86.8647 94.686C87.4074 96.647 87.7832 98.6503 87.9879 100.675" stroke="#263238" stroke-width="0.256" stroke-miterlimit="10"/>
<path d="M85.3018 90.8096C85.7581 91.8302 86.1631 92.8643 86.5276 93.9119" stroke="#263238" stroke-width="0.256" stroke-miterlimit="10"/>
</svg>
