<svg width="14" height="14" viewBox="0 0 14 14" fill="none" xmlns="http://www.w3.org/2000/svg">
<g clip-path="url(#clip0_228_2783)">
<path fill-rule="evenodd" clip-rule="evenodd" d="M2.64237 0.274625C2.81322 0.44548 2.81322 0.722489 2.64237 0.893344L0.892367 2.64334C0.721513 2.8142 0.444503 2.8142 0.273649 2.64334C0.102794 2.47249 0.102794 2.19548 0.273649 2.02463L2.02365 0.274625C2.1945 0.103771 2.47151 0.103771 2.64237 0.274625ZM6.99968 0.729818C3.53639 0.729818 0.728841 3.53737 0.728841 7.00065C0.728841 10.4639 3.53639 13.2715 6.99968 13.2715C10.463 13.2715 13.2705 10.4639 13.2705 7.00065C13.2705 3.53737 10.463 0.729818 6.99968 0.729818ZM6.99984 4.22949C7.24146 4.22949 7.43734 4.42537 7.43734 4.66699V6.76618L8.99252 7.80297C9.19356 7.937 9.24789 8.20863 9.11386 8.40967C8.97983 8.61072 8.7082 8.66504 8.50716 8.53102L6.75716 7.36435C6.63544 7.28321 6.56234 7.14661 6.56234 7.00033V4.66699C6.56234 4.42537 6.75821 4.22949 6.99984 4.22949ZM11.357 0.893344C11.1861 0.722489 11.1861 0.44548 11.357 0.274625C11.5278 0.103771 11.8048 0.103771 11.9757 0.274625L13.7257 2.02463C13.8966 2.19548 13.8966 2.47249 13.7257 2.64334C13.5548 2.8142 13.2778 2.8142 13.107 2.64334L11.357 0.893344Z" fill="white"/>
</g>
<defs>
<clipPath id="clip0_228_2783">
<rect width="14" height="14" fill="white"/>
</clipPath>
</defs>
</svg>
