<svg width="22" height="22" viewBox="0 0 22 22" fill="none" xmlns="http://www.w3.org/2000/svg">
<path fill-rule="evenodd" clip-rule="evenodd" d="M9.72982 0.249969L9.62102 0.249861C9.10842 0.249096 8.65851 0.248424 8.25762 0.406091C7.90709 0.543956 7.59677 0.76762 7.35513 1.05657C7.07878 1.38703 6.93715 1.81406 6.77577 2.3006L6.74147 2.40385L6.45943 3.24997H3H1C0.585786 3.24997 0.25 3.58576 0.25 3.99997C0.25 4.41418 0.585786 4.74997 1 4.74997H2.29282L2.89693 15.0198L2.89881 15.0517C2.95958 16.0849 3.0078 16.9048 3.09968 17.5652C3.19376 18.2413 3.34057 18.8112 3.63159 19.3286C4.10467 20.1697 4.8227 20.8467 5.6901 21.2696C6.22368 21.5297 6.80126 21.6428 7.48176 21.697C8.14635 21.75 8.9677 21.75 10.0027 21.75H10.0346H11.9654H11.9973C13.0323 21.75 13.8537 21.75 14.5182 21.697C15.1987 21.6428 15.7763 21.5297 16.3099 21.2696C17.1773 20.8467 17.8953 20.1697 18.3684 19.3286C18.6594 18.8112 18.8062 18.2413 18.9003 17.5652C18.9922 16.9049 19.0404 16.0851 19.1012 15.052L19.1012 15.052L19.1012 15.0519L19.1012 15.0518L19.1031 15.0198L19.7072 4.74997H21C21.4142 4.74997 21.75 4.41418 21.75 3.99997C21.75 3.58576 21.4142 3.24997 21 3.24997H19H15.5406L15.2585 2.40385L15.2242 2.3006C15.0629 1.81406 14.9212 1.38703 14.6449 1.05657C14.4032 0.76762 14.0929 0.543956 13.7424 0.406091C13.3415 0.248424 12.8916 0.249096 12.379 0.249861L12.2702 0.249969H9.72982ZM13.9594 3.24997L13.8355 2.87819C13.6186 2.22737 13.5633 2.10149 13.4942 2.01884C13.4137 1.92252 13.3102 1.84796 13.1934 1.80201C13.0931 1.76257 12.9562 1.74997 12.2702 1.74997H9.72982C9.04379 1.74997 8.90691 1.76257 8.80663 1.80201C8.68979 1.84796 8.58635 1.92252 8.5058 2.01884C8.43668 2.10149 8.38144 2.22737 8.16449 2.87819L8.04057 3.24997H13.9594ZM9 8.24997C9.41422 8.24997 9.75 8.58576 9.75 8.99997V16C9.75 16.4142 9.41422 16.75 9 16.75C8.58579 16.75 8.25 16.4142 8.25 16V8.99997C8.25 8.58576 8.58579 8.24997 9 8.24997ZM13.75 8.99997C13.75 8.58576 13.4142 8.24997 13 8.24997C12.5858 8.24997 12.25 8.58576 12.25 8.99997V13C12.25 13.4142 12.5858 13.75 13 13.75C13.4142 13.75 13.75 13.4142 13.75 13V8.99997Z" fill="white"/>
</svg>
