<svg width="21" height="21" viewBox="0 0 21 21" fill="none" xmlns="http://www.w3.org/2000/svg">
<path fill-rule="evenodd" clip-rule="evenodd" d="M10.4732 1.75H10.5268C11.83 1.75 12.8444 1.74999 13.6607 1.81028C14.4891 1.87146 15.1652 1.99734 15.7813 2.27646C17.0865 2.86783 18.1322 3.91352 18.7235 5.2187C19.0026 5.83474 19.1286 6.51092 19.1897 7.33933C19.25 8.15557 19.25 9.17 19.25 10.4732V10.5268C19.25 11.83 19.25 12.8444 19.1897 13.6607C19.1286 14.4891 19.0026 15.1652 18.7235 15.7813C18.1322 17.0865 17.0865 18.1322 15.7813 18.7235C15.1652 19.0026 14.4891 19.1286 13.6607 19.1897C12.8444 19.25 11.83 19.25 10.5268 19.25H10.4732C9.17 19.25 8.15557 19.25 7.33933 19.1897C6.51092 19.1286 5.83474 19.0026 5.2187 18.7235C3.91352 18.1322 2.86783 17.0865 2.27646 15.7813C1.99734 15.1652 1.87146 14.4891 1.81028 13.6607C1.74999 12.8444 1.75 11.83 1.75 10.5268V10.4732C1.75 9.17 1.74999 8.15558 1.81028 7.33933C1.87146 6.51092 1.99734 5.83474 2.27646 5.2187C2.86783 3.91352 3.91352 2.86783 5.2187 2.27646C5.83474 1.99734 6.51092 1.87146 7.33933 1.81028C8.15558 1.74999 9.17 1.75 10.4732 1.75ZM7.436 3.11922C6.68033 3.17503 6.17716 3.28313 5.76038 3.47196C4.74524 3.93193 3.93193 4.74524 3.47196 5.76038C3.28313 6.17716 3.17503 6.68033 3.11922 7.436C3.06292 8.19827 3.0625 9.1644 3.0625 10.5C3.0625 11.8356 3.06292 12.8018 3.11922 13.564C3.17503 14.3196 3.28313 14.8229 3.47196 15.2396C3.93193 16.2548 4.74524 17.0681 5.76038 17.528C6.17716 17.7169 6.68033 17.825 7.436 17.8808C8.19827 17.9371 9.1644 17.9375 10.5 17.9375C11.8356 17.9375 12.8018 17.9371 13.564 17.8808C14.3196 17.825 14.8229 17.7169 15.2396 17.528C16.2548 17.0681 17.0681 16.2548 17.528 15.2396C17.7169 14.8229 17.825 14.3196 17.8808 13.564C17.9371 12.8018 17.9375 11.8356 17.9375 10.5C17.9375 9.1644 17.9371 8.19827 17.8808 7.436C17.825 6.68033 17.7169 6.17716 17.528 5.76038C17.0681 4.74524 16.2548 3.93193 15.2396 3.47196C14.8229 3.28313 14.3196 3.17503 13.564 3.11922C12.8018 3.06292 11.8356 3.0625 10.5 3.0625C9.1644 3.0625 8.19827 3.06292 7.436 3.11922ZM14.0265 7.99429C14.2828 8.25057 14.2828 8.66608 14.0265 8.92237L9.94324 13.0057C9.68695 13.2619 9.27141 13.2619 9.01513 13.0057L6.97346 10.964C6.71718 10.7077 6.71718 10.2923 6.97346 10.036C7.22974 9.7797 7.64526 9.7797 7.90154 10.036L9.47914 11.6136L13.0985 7.99429C13.3548 7.738 13.7702 7.738 14.0265 7.99429Z" fill="white"/>
</svg>
