<svg width="15" height="15" viewBox="0 0 15 15" fill="none" xmlns="http://www.w3.org/2000/svg">
<g clip-path="url(#clip0_187_4920)">
<path d="M2.79971 14.3764H11.2703C11.7953 14.3749 12.2983 14.1652 12.6688 13.7933C13.0394 13.4213 13.2472 12.9176 13.2468 12.3926V8.13641C13.2468 7.98664 13.1873 7.84301 13.0814 7.7371C12.9755 7.6312 12.8318 7.5717 12.6821 7.5717C12.5323 7.5717 12.3887 7.6312 12.2828 7.7371C12.1769 7.84301 12.1174 7.98664 12.1174 8.13641V12.3926C12.1181 12.6182 12.0293 12.8348 11.8705 12.995C11.7117 13.1552 11.4959 13.2458 11.2703 13.247H2.79971C2.57416 13.2458 2.35828 13.1552 2.19948 12.995C2.04067 12.8348 1.9519 12.6182 1.95265 12.3926V3.93669C1.9519 3.71113 2.04067 3.49449 2.19948 3.33431C2.35828 3.17412 2.57416 3.08349 2.79971 3.08229H7.03501C7.18478 3.08229 7.32841 3.0228 7.43432 2.91689C7.54022 2.81099 7.59971 2.66736 7.59971 2.51759C7.59971 2.36782 7.54022 2.22418 7.43432 2.11828C7.32841 2.01238 7.18478 1.95288 7.03501 1.95288H2.79971C2.27471 1.95438 1.77174 2.1641 1.4012 2.53602C1.03065 2.90795 0.822792 3.41169 0.823243 3.93669V12.3926C0.822792 12.9176 1.03065 13.4213 1.4012 13.7933C1.77174 14.1652 2.27471 14.3749 2.79971 14.3764Z" fill="white"/>
<path d="M6.16284 6.77759L5.71729 8.81844C5.69712 8.91101 5.70057 9.00717 5.72731 9.09805C5.75405 9.18894 5.80323 9.27164 5.87032 9.33854C5.93834 9.40375 6.02107 9.4516 6.1115 9.47805C6.20194 9.50449 6.29742 9.50874 6.38985 9.49044L8.42618 9.04376C8.53192 9.02054 8.62875 8.96742 8.70515 8.89072L13.8519 3.74399C14.0092 3.58668 14.134 3.39991 14.2192 3.19435C14.3043 2.98879 14.3482 2.76847 14.3482 2.54597C14.3482 2.32347 14.3043 2.10315 14.2192 1.89759C14.134 1.69204 14.0092 1.50527 13.8519 1.34795C13.5293 1.0397 13.1003 0.867676 12.6541 0.867676C12.208 0.867676 11.779 1.0397 11.4564 1.34795L6.31757 6.49976C6.24044 6.57564 6.18674 6.67207 6.16284 6.77759ZM12.2549 2.14701C12.3623 2.04408 12.5054 1.98663 12.6541 1.98663C12.8029 1.98663 12.9459 2.04408 13.0534 2.14701C13.1579 2.25353 13.2164 2.39677 13.2164 2.54597C13.2164 2.69517 13.1579 2.83842 13.0534 2.94494L12.6541 3.34418L11.8556 2.54569L12.2549 2.14701ZM7.22901 7.18079L11.0543 3.34588L11.8449 4.14042L8.0179 7.97647L7.00425 8.19896L7.22901 7.18079Z" fill="white"/>
</g>
<defs>
<clipPath id="clip0_187_4920">
<rect width="13.5529" height="13.5529" fill="white" transform="translate(0.823242 0.823486)"/>
</clipPath>
</defs>
</svg>
