<svg width="24" height="24" viewBox="0 0 24 24" fill="none" xmlns="http://www.w3.org/2000/svg">
<path fill-rule="evenodd" clip-rule="evenodd" d="M9.96644 2.25H10H14H14.0336H14.0336C15.4053 2.25 16.4807 2.24999 17.3451 2.32061C18.2252 2.39252 18.9523 2.54138 19.6104 2.87671C20.6924 3.42798 21.572 4.30762 22.1233 5.38955C22.4586 6.04769 22.6075 6.77479 22.6794 7.65494C22.75 8.51926 22.75 9.59466 22.75 10.9663V10.9664V10.9664V11V13V13.0336V13.0336V13.0337C22.75 14.4053 22.75 15.4807 22.6794 16.3451C22.6075 17.2252 22.4586 17.9523 22.1233 18.6104C21.572 19.6924 20.6924 20.572 19.6104 21.1233C18.9523 21.4586 18.2252 21.6075 17.3451 21.6794C16.4807 21.75 15.4053 21.75 14.0337 21.75H14.0336H14.0336H14H10H9.96642H9.96637H9.96632C8.59466 21.75 7.51926 21.75 6.65494 21.6794C5.77479 21.6075 5.04769 21.4586 4.38955 21.1233C3.30762 20.572 2.42798 19.6924 1.87671 18.6104C1.54138 17.9523 1.39252 17.2252 1.32061 16.3451C1.24999 15.4807 1.25 14.4053 1.25 13.0336V13.0336V13V11V10.9664V10.9664C1.25 9.59472 1.24999 8.51928 1.32061 7.65494C1.39252 6.77479 1.54138 6.04769 1.87671 5.38955C2.42798 4.30762 3.30762 3.42798 4.38955 2.87671C5.04769 2.54138 5.77479 2.39252 6.65494 2.32061C7.51928 2.24999 8.59472 2.25 9.96643 2.25H9.96644ZM6.41603 7.37596C6.07138 7.1462 5.60573 7.23933 5.37596 7.58398C5.1462 7.92862 5.23933 8.39427 5.58398 8.62404L6.58398 9.2907L6.70034 9.36829C8.19863 10.3674 9.09026 10.9619 10.0527 11.2519C11.3227 11.6346 12.6773 11.6346 13.9473 11.2519C14.9097 10.9619 15.8014 10.3674 17.2997 9.36829L17.416 9.2907L18.416 8.62404C18.7607 8.39427 18.8538 7.92862 18.624 7.58398C18.3943 7.23933 17.9286 7.1462 17.584 7.37596L16.584 8.04263C14.9337 9.14282 14.2367 9.59812 13.5145 9.8157C12.5268 10.1133 11.4732 10.1133 10.4855 9.8157C9.76334 9.59812 9.0663 9.14282 7.41603 8.04263L6.41603 7.37596Z" fill="#F15F42"/>
</svg>
