<svg width="41" height="40" viewBox="0 0 41 40" fill="none" xmlns="http://www.w3.org/2000/svg">
<g clip-path="url(#clip0_228_7008)">
<path d="M35.5556 0H5.55554C2.79804 0 0.555542 2.2425 0.555542 5V35C0.555542 37.7575 2.79804 40 5.55554 40H35.5556C38.3131 40 40.5556 37.7575 40.5556 35V5C40.5556 2.2425 38.3131 0 35.5556 0Z" fill="#1976D2"/>
<path fill-rule="evenodd" clip-rule="evenodd" d="M34.3056 20H28.0555V15C28.0555 13.62 29.1755 13.75 30.5555 13.75H33.0555V7.5H28.0555C26.0664 7.5 24.1588 8.29018 22.7522 9.6967C21.3457 11.1032 20.5555 13.0109 20.5555 15V20H15.5555V26.25H20.5555V40H28.0555V26.25H31.8055L34.3056 20Z" fill="#FAFAFA"/>
</g>
<defs>
<clipPath id="clip0_228_7008">
<rect x="0.555542" width="40" height="40" rx="8.88889" fill="white"/>
</clipPath>
</defs>
</svg>
