<svg width="42" height="47" viewBox="0 0 42 47" fill="none" xmlns="http://www.w3.org/2000/svg">
<path fill-rule="evenodd" clip-rule="evenodd" d="M10 0C4.47715 0 0 4.47715 0 10V32C0 37.5228 4.47715 42 10 42H14.9956L19.2329 46.2342C20.209 47.2096 21.791 47.2096 22.7671 46.2342L27.0044 42H32C37.5228 42 42 37.5228 42 32V10C42 4.47715 37.5228 0 32 0H10Z" fill="#F15F42"/>
<rect x="6" y="6" width="30" height="30" rx="8" fill="white"/>
<g clip-path="url(#clip0_364_883)">
<path d="M27.6102 26.7533L21.7284 20.8715L14.8566 13.9997H14.3195L14.2099 14.2783C13.9205 15.0138 13.7968 15.766 13.8523 16.4536C13.9156 17.2373 14.2133 17.9159 14.7134 18.4159L20.078 23.7805L20.7855 23.0729L25.7451 28.6186C26.2384 29.112 27.0876 29.1412 27.6102 28.6186C28.1245 28.1043 28.1245 27.2676 27.6102 26.7533Z" fill="#F15F42"/>
<path d="M17.5916 22.5388L13.3901 26.7403C12.8758 27.2545 12.8758 28.0912 13.3901 28.6055C13.8786 29.094 14.7236 29.1371 15.2552 28.6055L19.4568 24.4039L17.5916 22.5388Z" fill="#F15F42"/>
<path d="M27.3633 16.497L24.9799 18.8803L24.3582 18.2585L26.7415 15.8752L26.1197 15.2535L23.7364 17.6368L23.1147 17.015L25.498 14.6317L24.8763 14.01L21.7676 17.1187C21.3873 17.499 21.1603 18.004 21.1281 18.5406C21.12 18.6766 21.0892 18.8103 21.0381 18.9375L23.0575 20.9569C23.1847 20.9058 23.3185 20.875 23.4544 20.8669C23.9911 20.8348 24.496 20.6077 24.8763 20.2274L27.985 17.1187L27.3633 16.497Z" fill="#F15F42"/>
</g>
<defs>
<clipPath id="clip0_364_883">
<rect width="15" height="15" fill="white" transform="translate(13 14)"/>
</clipPath>
</defs>
</svg>
