<svg width="17" height="17" viewBox="0 0 17 17" fill="none" xmlns="http://www.w3.org/2000/svg">
<g clip-path="url(#clip0_87_8591)">
<path d="M16.3586 14.3063L9.85771 7.80531L2.26248 0.210083H1.66891L1.54771 0.518056C1.22782 1.33094 1.09114 2.16235 1.1525 2.9223C1.22244 3.78855 1.55153 4.53852 2.10423 5.09122L8.03347 11.0205L8.81554 10.2384L14.2971 16.3679C14.8424 16.9131 15.781 16.9455 16.3586 16.3679C16.927 15.7994 16.927 14.8746 16.3586 14.3063Z" fill="#A5A5A5"/>
<path d="M5.28584 9.64807L0.642081 14.2918C0.0737335 14.8602 0.0737335 15.785 0.642081 16.3534C1.182 16.8933 2.11602 16.9409 2.7036 16.3534L7.34739 11.7096L5.28584 9.64807Z" fill="#A5A5A5"/>
<path d="M16.0857 2.97029L13.4515 5.60447L12.7643 4.91728L15.3985 2.28308L14.7113 1.59589L12.0771 4.23007L11.3899 3.54288L14.0241 0.90871L13.337 0.221558L9.90107 3.65748C9.48074 4.07781 9.22975 4.63593 9.19427 5.22908C9.1853 5.37936 9.15123 5.52718 9.09473 5.66777L11.3267 7.89975C11.4673 7.84318 11.6151 7.80915 11.7654 7.80018C12.3585 7.76478 12.9167 7.51374 13.337 7.0934L16.7729 3.65751L16.0857 2.97029Z" fill="#A5A5A5"/>
</g>
<defs>
<clipPath id="clip0_87_8591">
<rect width="16.5789" height="16.5789" fill="white" transform="translate(0.210449 0.210571)"/>
</clipPath>
</defs>
</svg>
