<svg width="19" height="20" viewBox="0 0 19 20" fill="none" xmlns="http://www.w3.org/2000/svg">
<path fill-rule="evenodd" clip-rule="evenodd" d="M10.8415 0.753622C9.96365 0.510771 9.03635 0.510771 8.15851 0.753622C7.62861 0.900218 7.14923 1.15924 6.61965 1.52273C6.10143 1.87844 5.50056 2.35913 4.73721 2.96982L4.71718 2.98585L2.96718 4.38585L2.88852 4.44876C1.99887 5.16029 1.4513 5.59823 1.05144 6.14984C0.697701 6.63783 0.434519 7.18541 0.274443 7.76648C0.0934983 8.4233 0.0935909 9.12446 0.0937412 10.2636L0.09375 10.3644V14.875C0.09375 17.6537 2.34632 19.9062 5.125 19.9062C6.45394 19.9062 7.53125 18.8289 7.53125 17.5V13.9999C7.53125 12.9126 8.41269 12.0312 9.5 12.0312C10.5873 12.0312 11.4688 12.9126 11.4688 13.9999V17.5C11.4688 18.8289 12.5461 19.9062 13.875 19.9062C16.6537 19.9062 18.9062 17.6537 18.9062 14.875V10.3644L18.9063 10.2636V10.2636C18.9064 9.12445 18.9065 8.4233 18.7256 7.76648C18.5655 7.18541 18.3023 6.63783 17.9486 6.14984C17.5487 5.59823 17.0011 5.16029 16.1115 4.44876L16.0328 4.38585L14.2828 2.98585L14.2627 2.96978L14.2627 2.96977C13.4994 2.35911 12.8986 1.87843 12.3803 1.52273C11.8508 1.15924 11.3714 0.900218 10.8415 0.753622Z" fill="#A5A5A5"/>
</svg>
