<svg width="21" height="21" viewBox="0 0 21 21" fill="none" xmlns="http://www.w3.org/2000/svg">
<path fill-rule="evenodd" clip-rule="evenodd" d="M19.3891 5.75215C19.9159 3.87106 20.1792 2.93051 19.9348 2.28509C19.7217 1.72237 19.2774 1.2781 18.7147 1.06499C18.0693 0.820548 17.1287 1.0839 15.2476 1.61061L5.76042 4.26703C2.78927 5.09895 1.30369 5.51491 0.87322 6.2212C0.50091 6.83206 0.465178 7.59043 0.778402 8.23359C1.14056 8.97722 2.58044 9.53102 5.46021 10.6386L7.60597 11.4639C7.98187 11.6085 8.41477 11.5244 8.69955 11.2396L11.4695 8.46967C11.7624 8.17678 12.2372 8.17678 12.5301 8.46967C12.823 8.76257 12.823 9.23744 12.5301 9.53033L9.76019 12.3003C9.47541 12.5851 9.39129 13.0179 9.53585 13.3938L10.361 15.5394C11.4686 18.4192 12.0224 19.8591 12.766 20.2213C13.4092 20.5345 14.1676 20.4988 14.7784 20.1265C15.4847 19.6961 15.9007 18.2105 16.7327 15.2393L19.3891 5.75215Z" fill="white"/>
</svg>
