<svg width="130" height="130" viewBox="0 0 130 130" fill="none" xmlns="http://www.w3.org/2000/svg">
<path d="M35.275 20.7012L18.1206 23.0419L19.605 33.9209L36.7595 31.5802L35.275 20.7012Z" fill="#EBEBEB"/>
<path d="M35.2767 20.7065C34.6735 21.4631 34.0547 22.1937 33.4567 22.9399C32.8587 23.6861 32.2191 24.4089 31.5977 25.1369C30.9763 25.8649 30.2977 26.6501 29.6425 27.3989L29.5827 27.4717C29.0055 28.1321 28.4249 28.7933 27.8407 29.4555L27.7549 29.5491L27.6483 29.4815C26.9099 29.0005 26.1767 28.5195 25.4409 28.0333C25.4138 28.0187 25.3877 28.0022 25.3629 27.9839C24.5309 27.4353 23.6989 26.8841 22.8695 26.3225C22.0401 25.7609 21.2835 25.2513 20.4931 24.7079C19.7027 24.1645 18.9149 23.6133 18.1323 23.0439C18.9461 23.5119 19.7521 24.0085 20.5581 24.4921C21.3641 24.9757 22.1727 25.4801 22.9787 25.9845C23.8731 26.5409 24.7675 27.1068 25.6619 27.6823C26.3327 28.1087 27.0027 28.542 27.6717 28.9823C28.1917 28.3869 28.7299 27.7915 29.2629 27.2039C29.9727 26.4239 30.6799 25.6283 31.3949 24.8483C32.0345 24.1549 32.6776 23.4616 33.3241 22.7683C33.9741 22.0689 34.6163 21.3747 35.2767 20.7065Z" fill="white"/>
<path d="M25.7112 27.9266L25.693 27.9474C25.615 28.0358 25.5344 28.1268 25.4538 28.2074C25.0742 28.6286 24.6738 29.0368 24.2786 29.4372C23.7898 29.9286 23.2854 30.4044 22.7758 30.8776C22.2662 31.3508 21.7514 31.8058 21.2158 32.2556C20.6802 32.7054 20.1498 33.15 19.5908 33.5556C20.0484 33.0356 20.532 32.5312 21.0208 32.0424C21.5096 31.5536 22.0166 31.0752 22.5236 30.602C23.0306 30.1288 23.5636 29.6686 24.0836 29.2188C24.5048 28.86 24.9338 28.5038 25.3836 28.1658C25.485 28.0852 25.589 28.0098 25.693 27.9318L25.7112 27.9266Z" fill="white"/>
<path d="M36.6596 31.2416C36.0096 30.9816 35.3726 30.7216 34.746 30.4174C34.1194 30.1132 33.4953 29.8142 32.8765 29.5048C32.2577 29.1954 31.6467 28.86 31.0565 28.5168C30.5651 28.2412 30.0763 27.9552 29.6005 27.651L29.2937 27.456L29.2729 27.4404H29.299L29.6604 27.586C30.1804 27.7914 30.6821 28.0202 31.1865 28.2542C31.8183 28.5454 32.4371 28.8548 33.0533 29.1694C33.6695 29.484 34.2832 29.8116 34.8734 30.1548C35.4636 30.498 36.0876 30.8568 36.6596 31.2416Z" fill="white"/>
<path d="M91.0575 58.2219L87.9307 71.4288L108.756 76.3593L111.882 63.1524L91.0575 58.2219Z" fill="#EBEBEB"/>
<path d="M111.878 63.1463C110.838 63.752 109.798 64.3189 108.773 64.9117C107.749 65.5045 106.693 66.0557 105.653 66.6173C104.566 67.2049 103.48 67.7847 102.393 68.3567L102.291 68.4165L99.4002 69.9401L99.2598 70.0077L99.1662 69.8829C98.5283 69.0023 97.8948 68.1183 97.2656 67.2308C97.2422 67.2022 97.2188 67.1711 97.198 67.1399C96.4804 66.1363 95.7654 65.1327 95.0582 64.1161C94.3822 63.1515 93.7088 62.1739 93.038 61.1963C92.3672 60.2187 91.7042 59.2307 91.0542 58.2271C91.7848 59.1293 92.492 60.0601 93.2096 60.9779C93.9272 61.8957 94.6344 62.8317 95.3364 63.7729C96.1181 64.8129 96.8981 65.8632 97.6764 66.924L99.4236 69.303C100.295 68.8532 101.173 68.3983 102.047 67.9589C103.214 67.3643 104.383 66.775 105.554 66.1909C106.594 65.6709 107.644 65.1569 108.703 64.649C109.772 64.1394 110.822 63.6247 111.878 63.1463Z" fill="white"/>
<path d="M97.6373 67.2231L97.6061 67.2387L97.2135 67.4389C96.5869 67.7561 95.9525 68.0525 95.3103 68.3333C94.5303 68.6817 93.7347 69.0067 92.9391 69.3265C92.1435 69.6463 91.3427 69.9427 90.5315 70.2261C89.7203 70.5095 88.9091 70.7825 88.0771 71.0061C88.8415 70.6005 89.6189 70.2417 90.4015 69.8933C91.1841 69.5449 91.9797 69.2199 92.7727 68.9001C93.5657 68.5803 94.3717 68.2813 95.1829 67.9979C95.8277 67.7691 96.4829 67.5507 97.1407 67.3583L97.6009 67.2257L97.6373 67.2231Z" fill="white"/>
<path d="M108.802 75.9201C108.162 75.3429 107.554 74.7345 106.961 74.1183C106.368 73.5021 105.786 72.8703 105.211 72.2333C104.637 71.5963 104.078 70.9463 103.537 70.2833C103.092 69.7451 102.655 69.1991 102.237 68.6349C102.145 68.5153 102.058 68.3957 101.977 68.2761C101.971 68.2661 101.964 68.2565 101.956 68.2475C101.964 68.2566 101.974 68.2645 101.985 68.2709L102.336 68.5985C102.84 69.0665 103.321 69.5553 103.799 70.0467C104.397 70.6629 104.972 71.2973 105.547 71.9343C106.121 72.5713 106.678 73.2213 107.221 73.8843C107.764 74.5473 108.303 75.2155 108.802 75.9201Z" fill="white"/>
<path d="M21.4733 84.5651L18.0621 84.6379L16.3305 84.6665C15.7507 84.6795 15.1683 84.6665 14.5885 84.6795H14.4741V84.5625L14.4585 81.6531V81.5231H14.5885L18.0309 81.5387C19.1801 81.5387 20.3267 81.5673 21.4733 81.5829H21.5461V81.6531C21.5461 82.1471 21.5227 82.6385 21.5123 83.1221L21.4733 84.5651ZM21.4733 84.5651L21.4369 83.0935C21.4369 82.6099 21.4083 82.1315 21.4031 81.6557L21.4733 81.7259C20.3267 81.7389 19.1801 81.7675 18.0309 81.7701L14.5885 81.7857L14.7185 81.6557V84.5651L14.6015 84.4481C15.1683 84.4481 15.7351 84.4481 16.3045 84.4637L18.0153 84.4923L21.4733 84.5651Z" fill="#EBEBEB"/>
<path d="M17.633 88.2337L14.2218 88.3065L12.4902 88.3351C11.9104 88.3481 11.328 88.3351 10.7482 88.3481H10.6338V88.2311L10.6182 85.3217V85.1917H10.7482L14.1906 85.2073C15.3372 85.2073 16.4864 85.2359 17.633 85.2515H17.7058V85.3217C17.7058 85.8157 17.685 86.3071 17.672 86.7907L17.633 88.2337ZM17.633 88.2337L17.5966 86.7621C17.5836 86.2785 17.568 85.8001 17.5628 85.3243L17.633 85.3945C16.4864 85.4075 15.3372 85.4361 14.1906 85.4387L10.7482 85.4543L10.8782 85.3243L10.8652 88.2337L10.7482 88.1167C11.315 88.1167 11.8818 88.1167 12.4512 88.1323L14.162 88.1609L17.633 88.2337Z" fill="#EBEBEB"/>
<path d="M73.6242 51.8882L70.213 51.961L68.4814 51.9896C67.9016 51.9896 67.3192 51.9896 66.7394 52.0052H66.625V51.8882L66.6094 48.9788V48.8488H66.7394L70.1818 48.8644C71.331 48.8644 72.4776 48.8956 73.6242 48.9086H73.697V48.9788C73.697 49.4728 73.6736 49.9642 73.6606 50.4504L73.6242 51.8882ZM73.6242 51.8882L73.5878 50.4192C73.5878 49.933 73.5592 49.4546 73.554 48.9788L73.6242 49.049C72.4776 49.0646 71.331 49.0906 70.1818 49.0932L66.7394 49.1088L66.8694 48.9788L66.8564 51.8882L66.7394 51.7738C67.3062 51.7738 67.873 51.7738 68.4424 51.7868L70.1532 51.8154L73.6242 51.8882Z" fill="#EBEBEB"/>
<path d="M69.7838 55.5568L66.3726 55.6296L64.641 55.6582C64.0612 55.6712 63.4788 55.6582 62.899 55.6738H62.7846V55.5568L62.769 52.6474V52.52H62.899L66.3414 52.5356C67.488 52.5356 68.6372 52.5668 69.7838 52.5798H69.8566V52.65C69.8566 53.144 69.8358 53.6354 69.8228 54.119L69.7838 55.5568ZM69.7838 55.5568L69.7474 54.0878C69.7344 53.6016 69.7188 53.1232 69.7136 52.6474L69.7838 52.7176C68.6372 52.7332 67.488 52.7592 66.3414 52.7618L62.899 52.7774L63.029 52.6474V55.5568L62.912 55.4424C63.4788 55.4424 64.0456 55.4424 64.615 55.4424L66.3258 55.471L69.7838 55.5568Z" fill="#EBEBEB"/>
<path d="M65.9593 51.8882L62.5455 51.961L60.8139 51.9896C60.2367 51.9896 59.6543 51.9896 59.0745 52.0052H58.9575V51.8882V48.9788V48.8488H59.0875L62.5299 48.8644C63.6765 48.8644 64.8231 48.8956 65.9723 48.9086H66.0399V48.9788C66.0399 49.4728 66.0165 49.9642 66.0061 50.4504L65.9593 51.8882ZM65.9593 51.8882L65.9229 50.4192C65.9099 49.933 65.8917 49.4546 65.8865 48.9788L65.9593 49.049C64.8101 49.0646 63.6635 49.0906 62.5169 49.0932L59.0745 49.1088L59.2045 48.9788L59.1889 51.8882L59.0745 51.7738C59.6413 51.7738 60.2055 51.7738 60.7749 51.7868L62.4857 51.8154L65.9593 51.8882Z" fill="#EBEBEB"/>
<path d="M119.251 88.2337L115.837 88.3065L114.106 88.3351C113.529 88.3481 112.946 88.3351 112.366 88.3481H112.249V88.2311L112.236 85.3217V85.1917H112.366L115.809 85.2073C116.955 85.2073 118.105 85.2359 119.251 85.2515H119.321V85.3217C119.321 85.8157 119.301 86.3071 119.288 86.7907L119.251 88.2337ZM119.251 88.2337L119.215 86.7621C119.215 86.2785 119.184 85.8001 119.181 85.3243L119.251 85.3945C118.105 85.4075 116.955 85.4361 115.809 85.4387L112.366 85.4543L112.496 85.3243L112.481 88.2337L112.366 88.1167C112.933 88.1167 113.5 88.1167 114.067 88.1323L115.778 88.1609L119.251 88.2337Z" fill="#EBEBEB"/>
<path d="M115.411 14.7992L111.998 14.8694L110.266 14.9006C109.689 14.9006 109.106 14.9006 108.527 14.9006H108.42V14.7862V11.8768V11.7442H108.553L111.995 11.7598C113.142 11.7598 114.288 11.7884 115.437 11.8014H115.508V11.8716C115.508 12.363 115.484 12.8544 115.474 13.3406L115.411 14.7992ZM115.411 14.7992L115.375 13.3276C115.362 12.844 115.344 12.3656 115.339 11.8898L115.411 11.96C114.262 11.96 113.116 12.0016 111.969 12.0016L108.527 12.0198L108.657 11.8898L108.641 14.7992L108.527 14.6822C109.093 14.6822 109.658 14.6822 110.227 14.6952L111.938 14.7264L115.411 14.7992Z" fill="#EBEBEB"/>
<path d="M119.251 18.46L115.837 18.5302L114.106 18.5614C113.529 18.5614 112.946 18.5614 112.366 18.5614H112.249V18.46L112.236 15.5506V15.418H112.366L115.809 15.4336C116.955 15.4336 118.105 15.4622 119.251 15.4752H119.321V15.5454C119.321 16.0368 119.301 16.5282 119.288 17.0144L119.251 18.46ZM119.251 18.46L119.215 16.9884C119.215 16.5048 119.184 16.0264 119.181 15.5506L119.251 15.6208C118.105 15.6208 116.955 15.6624 115.809 15.6624L112.366 15.678L112.496 15.5506L112.481 18.46L112.366 18.343C112.933 18.343 113.5 18.343 114.067 18.343L115.778 18.3742L119.251 18.46Z" fill="#EBEBEB"/>
<path d="M17.633 14.7992L14.2218 14.8694L12.4798 14.9006C11.9 14.9006 11.3176 14.9006 10.7378 14.9006H10.6338V14.7862L10.6182 11.8768V11.7442H10.7482L14.1906 11.7598C15.3372 11.7598 16.4864 11.7884 17.633 11.8014H17.7058V11.8716C17.7058 12.363 17.685 12.8544 17.672 13.3406L17.633 14.7992ZM17.633 14.7992L17.5966 13.3276C17.5836 12.844 17.568 12.3656 17.5628 11.8898L17.633 11.96C16.4864 11.96 15.3372 12.0016 14.1906 12.0016L10.7482 12.0198L10.8782 11.8898L10.8652 14.7992L10.7482 14.6822C11.315 14.6822 11.8818 14.6822 12.4512 14.6952L14.162 14.7264L17.633 14.7992Z" fill="#EBEBEB"/>
<path d="M107.447 33.8547C108.602 34.5484 109.946 34.8591 111.288 34.742C112.629 34.6249 113.899 34.0862 114.916 33.203C115.933 32.3198 116.643 31.1374 116.947 29.8254C117.25 28.5133 117.131 27.1388 116.605 25.899C116.079 24.6591 115.175 23.6174 114.021 22.9232C112.867 22.229 111.523 21.9179 110.181 22.0345C108.839 22.1511 107.569 22.6893 106.552 23.5722C105.535 24.455 104.824 25.6371 104.52 26.9491C104.209 28.2618 104.325 29.6397 104.852 30.8818C105.378 32.124 106.288 33.1655 107.447 33.8547Z" fill="#EBEBEB"/>
<path d="M108.786 27.6822C108.79 28.0664 108.908 28.4408 109.125 28.7579C109.342 29.075 109.648 29.3207 110.005 29.4638C110.362 29.6069 110.753 29.641 111.129 29.5618C111.505 29.4826 111.849 29.2937 112.117 29.0189C112.386 28.7441 112.567 28.3959 112.637 28.0182C112.708 27.6405 112.665 27.2503 112.514 26.8971C112.363 26.5439 112.11 26.2434 111.788 26.0337C111.466 25.8241 111.089 25.7146 110.705 25.7192C110.19 25.7254 109.699 25.9356 109.339 26.3037C108.98 26.6717 108.781 27.1675 108.786 27.6822Z" fill="white"/>
<path d="M107.437 33.0538V33.8546C108.452 34.4658 109.618 34.7818 110.803 34.7671C111.987 34.7524 113.145 34.4076 114.145 33.7714V32.9732C114.112 32.0982 113.739 31.2705 113.105 30.6667C112.471 30.0629 111.626 29.7309 110.75 29.7414C109.875 29.7519 109.038 30.1042 108.418 30.723C107.799 31.3418 107.446 32.1782 107.434 33.0538H107.437Z" fill="white"/>
<path d="M15.2747 59.9196C16.0615 60.3938 16.965 60.6391 17.8836 60.6281C18.8021 60.617 19.6994 60.3501 20.4747 59.8572C21.3814 59.2807 22.0755 58.4243 22.4517 57.4179C22.8278 56.4114 22.8656 55.3097 22.5592 54.2798C22.2528 53.2499 21.619 52.348 20.7539 51.7108C19.8887 51.0736 18.8394 50.7359 17.765 50.7488C16.6906 50.7617 15.6497 51.1245 14.8001 51.7823C13.9505 52.4401 13.3385 53.3569 13.0569 54.3938C12.7753 55.4308 12.8395 56.5312 13.2397 57.5284C13.6399 58.5256 14.3544 59.3651 15.2747 59.9196Z" fill="#EBEBEB"/>
<path d="M16.3121 55.1434C16.3157 55.4406 16.4074 55.7301 16.5755 55.9752C16.7436 56.2203 16.9807 56.41 17.2566 56.5204C17.5326 56.6308 17.8351 56.6569 18.1258 56.5954C18.4166 56.5339 18.6826 56.3875 18.8902 56.1748C19.0978 55.9621 19.2377 55.6926 19.2922 55.4004C19.3466 55.1083 19.3132 54.8065 19.1962 54.5333C19.0791 54.2601 18.8837 54.0277 18.6346 53.8656C18.3855 53.7035 18.0939 53.6188 17.7967 53.6224C17.5994 53.6248 17.4044 53.666 17.223 53.7438C17.0416 53.8215 16.8772 53.9342 16.7394 54.0754C16.6015 54.2167 16.4928 54.3837 16.4195 54.5669C16.3462 54.7502 16.3097 54.9461 16.3121 55.1434Z" fill="white"/>
<path d="M15.2697 59.3008V59.9196C16.0566 60.3937 16.96 60.639 17.8786 60.628C18.7972 60.617 19.6945 60.3501 20.4697 59.8572V59.2384C20.4614 58.5488 20.1796 57.8908 19.6861 57.409C19.1927 56.9273 18.5281 56.6613 17.8385 56.6696C17.149 56.6779 16.4909 56.9597 16.0092 57.4532C15.5274 57.9466 15.2614 58.6112 15.2697 59.3008Z" fill="white"/>
<path d="M42.9414 14.8382C43.4197 15.1269 43.9691 15.2763 44.5278 15.2694C45.0864 15.2625 45.632 15.0997 46.103 14.7992C46.6556 14.4484 47.0787 13.9269 47.308 13.3138C47.5374 12.7008 47.5606 12.0297 47.3741 11.4023C47.1875 10.7749 46.8014 10.2254 46.2744 9.8373C45.7473 9.44918 45.108 9.24356 44.4535 9.25163C43.799 9.25971 43.165 9.48103 42.6477 9.88204C42.1303 10.283 41.7579 10.8418 41.5869 11.4737C41.4159 12.1055 41.4556 12.7758 41.7001 13.383C41.9445 13.9902 42.3803 14.5011 42.9414 14.8382Z" fill="#EBEBEB"/>
<path d="M43.5733 11.9289C43.5753 12.1099 43.631 12.2862 43.7333 12.4355C43.8356 12.5849 43.9798 12.7005 44.1478 12.7679C44.3158 12.8352 44.5001 12.8513 44.6772 12.8139C44.8543 12.7766 45.0163 12.6876 45.1429 12.5582C45.2694 12.4287 45.3547 12.2647 45.388 12.0868C45.4213 11.9088 45.4011 11.725 45.3299 11.5586C45.2588 11.3922 45.1399 11.2506 44.9882 11.1517C44.8366 11.0529 44.6591 11.0012 44.4781 11.0033C44.2356 11.0067 44.0043 11.106 43.8347 11.2794C43.6652 11.4528 43.5712 11.6863 43.5733 11.9289Z" fill="white"/>
<path d="M42.9362 14.4612V14.8382C43.4144 15.127 43.9639 15.2763 44.5225 15.2694C45.0812 15.2625 45.6267 15.0997 46.0978 14.7992V14.4222C46.0926 14.003 45.9211 13.6029 45.621 13.3101C45.3208 13.0173 44.9167 12.8557 44.4975 12.8609C44.0782 12.8661 43.6782 13.0376 43.3854 13.3377C43.0926 13.6378 42.931 14.042 42.9362 14.4612Z" fill="white"/>
<path d="M64.9452 122.182C93.4242 122.182 116.511 119.605 116.511 116.425C116.511 113.246 93.4242 110.669 64.9452 110.669C36.4662 110.669 13.3794 113.246 13.3794 116.425C13.3794 119.605 36.4662 122.182 64.9452 122.182Z" fill="#EBEBEB"/>
<path d="M103.706 76.9289C103.774 75.8014 103.934 74.6814 104.185 73.5801C104.381 72.5534 104.79 71.5791 105.386 70.7201C105.662 70.3319 106.012 70.0022 106.417 69.75C106.821 69.4979 107.271 69.3283 107.741 69.2511C108.664 69.1393 109.53 69.5501 110.219 70.1325C111.075 70.8501 111.73 71.8043 112.343 72.7325C113.018 73.7667 113.631 74.8398 114.179 75.9461C114.181 75.9532 114.181 75.9608 114.178 75.9677C114.176 75.9746 114.17 75.9803 114.164 75.9837C114.157 75.9872 114.15 75.9882 114.142 75.9865C114.135 75.9849 114.129 75.9807 114.124 75.9747C113.648 75.0383 113.099 74.1403 112.484 73.2889C111.922 72.4725 111.289 71.7069 110.594 71.0009C109.959 70.3821 109.156 69.8049 108.238 69.7763C107.788 69.7813 107.346 69.8911 106.946 70.0969C106.546 70.3027 106.2 70.5989 105.934 70.9619C105.318 71.7419 105.006 72.7325 104.772 73.6893C104.53 74.742 104.372 75.8122 104.299 76.8899C104.12 79.1051 104.07 81.3333 104.021 83.5563C103.993 84.813 103.974 86.0696 103.964 87.3263L103.948 89.2373C103.972 89.8527 103.948 90.4691 103.875 91.0807C103.854 91.2055 103.652 91.1925 103.631 91.0807C103.555 90.5016 103.527 89.9173 103.545 89.3335C103.545 88.7303 103.538 88.1236 103.524 87.5135C103.514 86.3383 103.509 85.164 103.511 83.9905C103.519 81.6401 103.548 79.2793 103.706 76.9289Z" fill="#263238"/>
<path d="M106.873 75.2597C106.99 74.6331 107.201 73.8167 107.559 73.3305C108.199 72.4595 108.893 72.8391 108.254 73.8037C107.78 74.5208 107.472 75.3343 107.351 76.1853C107.351 76.1853 108.43 77.7245 109.73 78.4837C109.676 77.8909 109.509 76.9809 109.624 76.1021C109.884 74.1989 111.025 74.3055 110.739 75.8187C110.533 76.8232 110.445 77.8486 110.479 78.8737C110.914 79.1553 111.381 79.384 111.87 79.5549C111.795 79.3365 111.717 79.0713 111.628 78.7489C111.168 77.0433 112.304 76.5129 112.341 77.4723C112.414 78.29 112.562 79.0993 112.783 79.8903C113.407 80.1009 113.924 80.2439 114.241 80.3557C115.061 80.6585 115.793 81.1585 116.373 81.8117C116.967 81.2778 117.46 80.641 117.827 79.9319C117.429 79.5887 116.802 79.0817 115.929 78.4655C114.293 77.3111 114.863 75.8525 116.16 76.7599C117.096 77.4125 117.822 78.6267 118.152 79.2481C118.593 78.1638 118.844 77.0116 118.893 75.8421C117.608 74.6357 114.431 72.9561 115.388 72.9561C116.251 72.9561 118.178 74.2197 118.885 74.7085C118.868 74.3764 118.831 74.0457 118.776 73.7179C117.567 72.9379 113.636 71.6925 114.262 71.3363C114.951 70.9463 117.694 72.2177 118.524 72.6181C118.368 72.0796 118.121 71.5715 117.796 71.1153C116.124 68.8767 113.116 68.1045 111.795 68.5309C110.864 68.8325 111.137 71.1959 110.937 71.1153C107.198 69.6099 105.498 70.6733 106.873 75.2597ZM116.035 74.9997C116.295 74.6799 117.528 75.6211 117.174 76.1385C116.821 76.6559 115.7 75.4001 116.035 74.9997ZM109.626 72.9873C109.949 73.1927 109.473 74.3835 108.974 74.0273C108.55 73.7153 109.301 72.7793 109.626 72.9873Z" fill="#F15F42"/>
<path d="M110.115 73.3512C110.284 73.0184 110.461 72.6856 110.654 72.3658C110.83 72.0487 111.036 71.7493 111.27 71.4714C111.218 71.4038 111.166 71.3388 111.111 71.2738C111.057 71.2088 111.127 71.2114 111.15 71.2374C111.213 71.3076 111.272 71.3804 111.332 71.4532C111.338 71.4563 111.344 71.4607 111.348 71.466C111.353 71.4714 111.356 71.4777 111.358 71.4844C111.589 71.76 111.808 72.046 112.016 72.3372C112.383 72.4211 112.745 72.5261 113.1 72.6518C113.467 72.774 113.831 72.9118 114.187 73.0522C114.226 73.0678 114.205 73.1302 114.169 73.112C113.815 72.956 113.459 72.8052 113.092 72.683C112.726 72.5608 112.393 72.475 112.052 72.3762C112.167 72.5374 112.279 72.6986 112.388 72.865C113.047 73.0728 113.689 73.3336 114.307 73.645C114.957 73.9518 115.581 74.3106 116.202 74.6694C116.236 74.6902 116.202 74.7448 116.168 74.724C115.556 74.3677 114.927 74.0423 114.283 73.749C113.682 73.4682 113.061 73.229 112.463 72.969C113.989 75.3506 114.907 78.0988 116.129 80.6442C116.147 80.6832 116.09 80.7118 116.075 80.6754C115.7 79.7836 115.271 78.9126 114.863 78.0364C114.499 77.2564 114.143 76.4556 113.776 75.6652C113.67 75.4364 113.558 75.205 113.446 74.9762C113.513 76.2476 113.487 77.5424 113.706 78.8008C113.706 78.8091 113.703 78.8171 113.697 78.8229C113.691 78.8288 113.683 78.832 113.675 78.832C113.666 78.832 113.658 78.8288 113.653 78.8229C113.647 78.8171 113.644 78.8091 113.644 78.8008C113.555 77.441 113.316 76.1046 113.324 74.737C113.324 74.737 113.324 74.724 113.324 74.7188C113.064 74.1988 112.804 73.6788 112.492 73.1874C111.985 74.3782 111.452 75.5872 111.218 76.8664C111.218 76.9054 111.148 76.8872 111.158 76.8456C111.501 75.5638 111.821 74.282 112.437 73.0964C112.114 72.5535 111.755 72.0324 111.363 71.5364C111.192 71.8536 110.976 72.1526 110.784 72.4542C110.591 72.7558 110.409 73.047 110.235 73.3512C109.859 73.9958 109.54 74.6717 109.281 75.3714C109.265 75.4078 109.203 75.3896 109.218 75.3506C109.486 74.6928 109.782 74.0116 110.115 73.3512Z" fill="#263238"/>
<path d="M98.0827 76.2502C99.0603 75.2674 100.199 73.9778 101.723 73.9804C103.184 73.9804 104.258 75.1582 104.877 76.3724C105.521 77.6412 105.755 79.079 105.937 80.4778C106.152 82.1523 106.282 83.8367 106.325 85.5244C106.351 86.4604 106.348 87.399 106.325 88.335C106.326 89.2855 106.254 90.2348 106.109 91.1742C106.083 91.325 105.849 91.3302 105.831 91.1742C105.787 90.3942 105.818 89.5934 105.831 88.803C105.844 88.0126 105.831 87.243 105.794 86.463C105.737 84.89 105.623 83.3196 105.438 81.757C105.277 80.392 105.147 78.9906 104.739 77.6724C104.372 76.4816 103.681 75.1218 102.474 74.5992C100.831 73.8868 99.2241 75.1894 98.1451 76.2892C98.1035 76.3178 98.0541 76.2788 98.0827 76.2502Z" fill="#263238"/>
<path d="M93.0802 78.4446C93.0802 78.6448 93.101 78.8424 93.114 79.0374C93.5854 78.6862 94.1366 78.4575 94.7182 78.3718C96.1092 78.2236 96.0182 79.2818 95.0926 79.326C94.4382 79.334 93.7911 79.4636 93.1842 79.7082C93.4104 81.5438 93.9148 83.0206 93.9928 83.0388C95.2266 82.9692 96.4541 82.8146 97.6666 82.576C97.3208 81.8376 96.533 80.86 96.9334 80.782C97.3338 80.704 97.7732 81.562 97.9968 82.5084C98.9051 82.3349 99.798 82.0888 100.667 81.7726C100.056 81.2526 99.107 80.5844 99.4736 80.3036C99.8402 80.0228 100.584 80.951 101.034 81.6244C101.443 81.4589 101.831 81.2432 102.188 80.9822C101.364 79.7706 99.3566 79.5236 99.6192 78.6422C99.8818 77.7608 101.759 78.9802 102.604 80.6C103.595 79.56 103.883 78.1196 103.779 76.8768C102.916 76.7754 101.257 76.9574 101.377 76.3386C101.496 75.7198 102.698 75.8368 103.678 76.1982C103.588 75.7069 103.392 75.2411 103.103 74.8332C102.193 73.6658 99.4164 75.1504 99.4164 75.1504C99.4164 75.1504 99.7128 72.3606 98.6546 71.877C98.0462 71.6014 96.9698 71.604 95.8882 72.2384C96.494 72.2904 97.2272 72.4802 97.521 72.9014C97.898 73.437 97.3026 73.7308 96.9256 73.4812C96.6656 73.307 96.1638 72.7558 95.2668 72.683C94.884 73.0047 94.5472 73.3773 94.2658 73.7906C94.1618 73.9362 94.0682 74.087 93.972 74.2534C94.4844 74.0228 95.0415 73.9083 95.6034 73.9182C96.1652 73.9281 96.718 74.0621 97.222 74.3106C98.4258 74.9086 97.742 76.1592 96.7176 75.673C95.6932 75.1868 94.6974 74.711 93.5976 74.984C93.2117 75.9772 93.0347 77.0393 93.0776 78.104C93.6134 77.7115 94.2173 77.4215 94.8586 77.2486C96.0546 76.934 96.4186 77.649 95.103 77.7816C94.3906 77.8627 93.7023 78.0883 93.0802 78.4446ZM94.5362 76.5232C94.453 76.1358 95.3032 76.024 95.4436 76.3386C95.5632 76.6064 94.6194 76.9106 94.5388 76.5232H94.5362ZM101.795 78.6708C101.876 78.4576 102.443 78.6994 102.391 78.962C102.323 79.3156 101.72 78.8814 101.798 78.6708H101.795ZM97.7888 80.0306C98.2022 79.8642 98.847 80.8938 98.3972 81.1278C97.9474 81.3618 97.4534 80.1658 97.7914 80.0306H97.7888Z" fill="#F15F42"/>
<path d="M94.1565 82.8308C94.7805 81.7908 95.3967 80.7508 96.0519 79.7108C96.3561 79.235 96.6759 78.767 97.0061 78.3094L96.8579 78.2756L96.6109 78.2262C96.4185 78.1924 96.2261 78.1664 96.0311 78.1456C95.8361 78.1248 95.6671 78.117 95.4851 78.1144C95.2896 78.1053 95.0936 78.1158 94.9001 78.1456C94.8767 78.1456 94.8715 78.1144 94.9001 78.1144C95.0951 78.1144 95.2953 78.0988 95.4903 78.0936C95.6853 78.0884 95.8673 78.0937 96.0571 78.1093C96.2469 78.1249 96.4107 78.1379 96.5771 78.1639C96.6759 78.1795 96.7721 78.195 96.8683 78.2158C96.9271 78.2242 96.9853 78.2364 97.0425 78.2522C97.3892 77.786 97.7358 77.331 98.0825 76.8872C97.0044 76.3604 95.8553 75.9934 94.6713 75.7978C94.6505 75.7978 94.6583 75.764 94.6713 75.7666C95.8724 75.9287 97.0404 76.2797 98.1319 76.8066C98.3321 76.5622 98.5323 76.3179 98.7351 76.0761C98.9379 75.8343 99.2005 75.5404 99.4059 75.2518C99.4189 75.2336 99.4449 75.2518 99.4293 75.27C99.1533 75.5792 98.893 75.902 98.6493 76.2372C99.0949 76.5478 99.5188 76.8883 99.9181 77.2565C100.334 77.6239 100.739 78.0035 101.132 78.3952C101.132 78.4082 101.132 78.4317 101.109 78.4161C100.721 78.0313 100.317 77.6629 99.8973 77.3111C99.4761 76.9627 99.0315 76.6402 98.5973 76.2944C98.5011 76.4244 98.4049 76.5544 98.3061 76.6766L98.1605 76.869V76.8821C97.9967 77.0927 97.8355 77.3059 97.6769 77.5165C97.8644 77.7909 98.0255 78.0826 98.1579 78.3874C98.2983 78.6812 98.4179 78.9854 98.5323 79.2896C98.7548 79.9273 98.9286 80.5809 99.0523 81.2449C99.0523 81.2631 99.0237 81.2735 99.0211 81.2449C98.8885 80.5916 98.6989 79.9513 98.4543 79.3312C98.3321 79.0114 98.1943 78.6994 98.0513 78.39C97.9083 78.0806 97.7653 77.8388 97.6431 77.5528C97.5053 77.7374 97.3649 77.9246 97.2271 78.1144C97.1881 78.169 97.1517 78.2237 97.1101 78.2783C97.1101 78.2913 97.1101 78.3068 97.0971 78.3068C96.6681 78.9048 96.2599 79.5184 95.8647 80.1268C95.8878 80.1695 95.9053 80.2149 95.9167 80.2621C95.9427 80.3375 95.9661 80.4129 95.9895 80.4883C96.0337 80.6417 96.0701 80.7976 96.0987 80.9536C96.1273 81.1096 96.1455 81.2475 96.1611 81.3983C96.1628 81.567 96.1749 81.7354 96.1975 81.9027C96.1975 81.9261 96.1637 81.9287 96.1663 81.9027C96.1784 81.745 96.167 81.5864 96.1325 81.4321C96.1091 81.2709 96.0805 81.1097 96.0415 80.9511C96.0025 80.7925 95.9713 80.665 95.9271 80.5246C95.9063 80.4544 95.8829 80.3842 95.8595 80.314C95.8361 80.2438 95.8283 80.2386 95.8153 80.1996C95.6307 80.4908 95.4461 80.782 95.2667 81.0758C94.9079 81.6608 94.5517 82.2459 94.1929 82.8283C94.1851 82.8855 94.1383 82.8594 94.1565 82.8308Z" fill="#263238"/>
<path d="M103.771 90.8363C103.789 90.2461 103.883 89.6507 103.945 89.0631L104.14 87.2925C104.217 86.145 104.369 85.0038 104.595 83.8761C104.794 82.9047 105.279 82.0147 105.986 81.3203C106.353 80.9551 106.834 80.7258 107.349 80.6703C107.867 80.6561 108.376 80.8133 108.797 81.1175C109.274 81.4706 109.686 81.9044 110.014 82.3993C110.366 82.8903 110.683 83.4055 110.963 83.9411C110.963 83.9619 110.942 83.9723 110.929 83.9411C110.403 83.0467 109.706 82.2648 108.878 81.6401C108.506 81.337 108.054 81.1498 107.578 81.1019C107.113 81.102 106.668 81.2862 106.34 81.6141C105.651 82.2147 105.253 83.0961 105.017 83.9541C104.772 84.9932 104.598 86.0478 104.497 87.1105C104.413 87.7345 104.333 88.3611 104.252 88.9851C104.172 89.6091 104.117 90.2461 103.992 90.8597C103.991 90.8742 103.986 90.8883 103.979 90.9011C103.972 90.9139 103.963 90.9252 103.951 90.9344C103.94 90.9436 103.927 90.9504 103.913 90.9546C103.899 90.9587 103.884 90.96 103.87 90.9585C103.855 90.957 103.841 90.9526 103.829 90.9456C103.816 90.9386 103.804 90.9292 103.795 90.9179C103.786 90.9065 103.779 90.8935 103.775 90.8795C103.771 90.8655 103.77 90.8508 103.771 90.8363Z" fill="#263238"/>
<path d="M106.678 86.2473C106.861 86.4952 107.077 86.7165 107.321 86.9051C107.224 86.3279 107.107 85.3035 107.399 84.7575C107.848 83.9099 108.384 84.3337 108.116 85.0695C107.848 85.7311 107.7 86.4356 107.679 87.1495C108.294 87.5352 108.953 87.8459 109.642 88.0751C109.569 87.7442 109.547 87.4039 109.577 87.0663C109.668 86.1589 110.357 86.1771 110.181 87.1183C110.113 87.4835 110.082 87.8545 110.087 88.2258C111.087 88.5346 112.109 88.7667 113.145 88.9201C113.673 88.2335 114.099 87.4743 114.411 86.6658C113.675 86.4812 112.183 86.4397 112.214 85.9145C112.255 85.2047 113.701 85.7507 114.554 86.2655C114.748 85.6486 114.836 85.0033 114.814 84.3571C114.15 84.1727 113.468 84.0602 112.781 84.0217C111.262 83.8891 111.338 83.0285 112.437 83.0493C113.249 83.0649 114.276 83.5693 114.762 83.8293C114.445 81.7649 112.869 80.4493 111.608 80.3921C109.473 80.2985 110.24 82.9401 110.24 82.9401C110.24 82.9401 108.803 81.9287 107.445 81.9547C106.088 81.9807 105.228 84.2401 106.678 86.2473ZM112.346 82.4201C112.3 82.1237 113.249 82.0509 113.295 82.4201C113.36 82.8699 112.396 82.7321 112.346 82.4201ZM113.88 85.5401C113.86 85.3451 114.268 85.3113 114.361 85.5557C114.416 85.7039 113.88 85.7195 113.88 85.5401ZM108.782 85.7195C109.102 85.7637 109.284 86.9077 108.735 86.8869C108.306 86.8583 108.504 85.6701 108.774 85.7091L108.782 85.7195Z" fill="#F15F42"/>
<path d="M109.218 86.9805C109.27 86.8375 109.317 86.6919 109.361 86.5463C109.32 86.6945 109.283 86.8427 109.257 86.9909C109.252 87.0195 109.2 87.0065 109.218 86.9805Z" fill="#263238"/>
<path d="M100.222 89.687L100.373 92.846L100.758 100.989H109.158L109.543 92.846L109.691 89.687H100.222Z" fill="#37474F"/>
<path d="M100.222 89.687L100.373 92.846H109.543L109.691 89.687H100.222Z" fill="#263238"/>
<path d="M99.6245 90.9636H110.287V88.4078H99.6245V90.9636Z" fill="#37474F"/>
<path d="M108.477 100.989H107.003V102.326H108.477V100.989Z" fill="#37474F"/>
<path d="M108.477 100.989H107.003V101.657H108.477V100.989Z" fill="#263238"/>
<path d="M102.911 100.989H101.437V102.326H102.911V100.989Z" fill="#37474F"/>
<path d="M102.911 100.989H101.437V101.657H102.911V100.989Z" fill="#263238"/>
<path d="M10.3921 102.326L24.0447 102.263L37.6973 102.24L64.9999 102.198L92.3025 102.24L105.955 102.263L119.608 102.326L105.955 102.391L92.3025 102.414L64.9999 102.456L37.6973 102.414L24.0447 102.391L10.3921 102.326Z" fill="#263238"/>
<path d="M86.156 16.2292H43.7318C43.1627 16.2343 42.6002 16.3515 42.0765 16.574C41.5527 16.7966 41.078 17.1202 40.6793 17.5263C40.2807 17.9325 39.966 18.4132 39.7532 18.941C39.5404 19.4688 39.4337 20.0333 39.4392 20.6024V107.934C39.4295 109.082 39.8761 110.188 40.681 111.007C41.4859 111.827 42.5832 112.293 43.7318 112.304H86.156C87.3048 112.293 88.4024 111.827 89.2076 111.008C90.0129 110.188 90.4602 109.083 90.4512 107.934V20.6024C90.4563 20.0332 90.3493 19.4686 90.1362 18.9408C89.9231 18.4129 89.6082 17.9323 89.2093 17.5262C88.8105 17.1201 88.3355 16.7965 87.8116 16.574C87.2877 16.3514 86.7251 16.2343 86.156 16.2292ZM87.7654 105.232C87.7654 107.531 86.0442 109.392 83.9226 109.392H45.9626C43.8358 109.392 42.1146 107.531 42.1146 105.232V23.92C42.1146 19.24 43.8358 19.0086 45.9626 19.0086H53.5676C54.0096 19.0086 54.371 19.5104 54.371 20.1318V20.3918C54.371 21.8478 55.1692 21.853 56.1468 21.853H73.728C74.716 21.853 75.509 21.853 75.509 20.3918V20.1318C75.509 19.5104 75.8652 19.0086 76.315 19.0086H83.9174C86.039 19.0086 87.7602 19.63 87.7602 23.92L87.7654 105.232Z" fill="#263238"/>
<path d="M87.768 23.9825V105.3C87.768 107.598 86.0468 109.46 83.9252 109.46H45.9652C43.8384 109.46 42.1172 107.601 42.1172 105.3V23.9825C42.1172 19.3025 43.8384 19.0711 45.9652 19.0711H53.5702C54.0122 19.0711 54.3736 19.5755 54.3736 20.1969V20.4569C54.3736 21.9155 55.1718 21.9207 56.1494 21.9207H73.7358C74.7238 21.9207 75.5168 21.9207 75.5168 20.4569V20.1969C75.5168 19.5755 75.873 19.0711 76.3228 19.0711H83.9252C86.0598 19.0711 87.768 19.6951 87.768 23.9825Z" fill="white"/>
<path d="M87.7678 23.985V31.3612H42.1196V23.985C42.1196 19.305 43.8408 19.0736 45.9676 19.0736H53.5726C54.0146 19.0736 54.376 19.5754 54.376 20.1968V20.4568C54.376 21.9128 55.1742 21.918 56.1518 21.918H73.7356C74.7236 21.918 75.5166 21.918 75.5166 20.4568V20.1968C75.5166 19.5754 75.8728 19.0736 76.3226 19.0736H83.925C86.0596 19.0736 87.7678 19.695 87.7678 23.985Z" fill="#F15F42"/>
<path d="M67.3397 20.0357H62.5453C62.4671 20.035 62.3924 20.0035 62.3374 19.948C62.2823 19.8925 62.2515 19.8175 62.2515 19.7393C62.2515 19.6612 62.2823 19.5862 62.3374 19.5306C62.3924 19.4751 62.4671 19.4436 62.5453 19.4429H67.3397C67.4183 19.4429 67.4937 19.4741 67.5493 19.5297C67.6048 19.5853 67.6361 19.6607 67.6361 19.7393C67.6361 19.8179 67.6048 19.8933 67.5493 19.9489C67.4937 20.0045 67.4183 20.0357 67.3397 20.0357Z" fill="white"/>
<path d="M52.2599 20.8261L52.1871 20.9015C52.172 20.914 52.158 20.928 52.1455 20.9431C52.0525 20.8499 51.9421 20.776 51.8205 20.7256C51.6989 20.6752 51.5686 20.6492 51.437 20.6492C51.3054 20.6492 51.1751 20.6752 51.0535 20.7256C50.9319 20.776 50.8215 20.8499 50.7285 20.9431L50.6895 20.9015L50.6167 20.8287L50.7103 20.7455C50.7761 20.6926 50.8476 20.6473 50.9235 20.6103C51.0141 20.5655 51.1103 20.5332 51.2095 20.5141L51.3525 20.4959H51.4799H51.5761C51.6652 20.5049 51.7526 20.5259 51.8361 20.5583C51.898 20.5791 51.9574 20.607 52.0129 20.6415C52.0728 20.6751 52.1294 20.7142 52.1819 20.7585L52.2599 20.8287V20.8261Z" fill="white"/>
<path d="M50.9598 21.1719L50.8428 21.0575C50.9695 20.9278 51.1362 20.8445 51.316 20.8209C51.4443 20.802 51.5753 20.8134 51.6985 20.854C51.8217 20.8946 51.9338 20.9634 52.0258 21.0549L51.9088 21.1719C51.7823 21.0472 51.6118 20.9774 51.4343 20.9774C51.2567 20.9774 51.0863 21.0472 50.9598 21.1719Z" fill="white"/>
<path d="M51.7943 21.2889L51.6799 21.4033C51.6477 21.3714 51.6096 21.3462 51.5676 21.3293C51.5256 21.3123 51.4807 21.3039 51.4355 21.3045C51.3904 21.304 51.3457 21.3127 51.3041 21.3301C51.2625 21.3476 51.2249 21.3733 51.1937 21.4059L51.0767 21.2889C51.1236 21.2414 51.1794 21.2037 51.241 21.178C51.3026 21.1522 51.3687 21.139 51.4355 21.139C51.5022 21.139 51.5683 21.1522 51.6299 21.178C51.6915 21.2037 51.7473 21.2414 51.7943 21.2889Z" fill="white"/>
<path d="M51.5423 21.5099C51.5428 21.531 51.537 21.5519 51.5256 21.5698C51.5142 21.5876 51.4977 21.6017 51.4783 21.6102C51.4589 21.6186 51.4374 21.6211 51.4165 21.6173C51.3957 21.6135 51.3764 21.6036 51.3613 21.5888C51.3461 21.574 51.3357 21.555 51.3313 21.5342C51.327 21.5135 51.329 21.4919 51.337 21.4723C51.3449 21.4527 51.3586 21.4358 51.3762 21.424C51.3938 21.4122 51.4145 21.4059 51.4357 21.4059C51.4495 21.4055 51.4633 21.4079 51.4763 21.413C51.4892 21.4181 51.501 21.4257 51.5109 21.4354C51.5208 21.4451 51.5287 21.4567 51.5341 21.4694C51.5395 21.4822 51.5423 21.496 51.5423 21.5099Z" fill="white"/>
<path d="M45.0967 21.0601C45.0962 20.9997 45.1136 20.9405 45.1469 20.8901C45.1801 20.8397 45.2276 20.8003 45.2833 20.7769C45.339 20.7536 45.4003 20.7474 45.4596 20.759C45.5188 20.7707 45.5733 20.7997 45.616 20.8424C45.6587 20.8851 45.6877 20.9395 45.6994 20.9988C45.711 21.058 45.7048 21.1194 45.6814 21.1751C45.6581 21.2308 45.6187 21.2783 45.5683 21.3115C45.5178 21.3447 45.4587 21.3622 45.3983 21.3617C45.3183 21.3617 45.2416 21.3299 45.185 21.2733C45.1285 21.2168 45.0967 21.1401 45.0967 21.0601Z" fill="white"/>
<path d="M46.0508 21.0601C46.0508 21.0004 46.0685 20.9421 46.1016 20.8925C46.1348 20.8429 46.1819 20.8043 46.237 20.7814C46.2921 20.7586 46.3527 20.7526 46.4112 20.7643C46.4697 20.7759 46.5235 20.8046 46.5656 20.8468C46.6078 20.889 46.6365 20.9427 46.6482 21.0012C46.6598 21.0597 46.6539 21.1204 46.631 21.1755C46.6082 21.2306 46.5695 21.2777 46.5199 21.3108C46.4703 21.344 46.412 21.3617 46.3524 21.3617C46.2724 21.3617 46.1957 21.3299 46.1391 21.2733C46.0826 21.2168 46.0508 21.1401 46.0508 21.0601Z" fill="white"/>
<path d="M47.0025 21.0601C47.0019 20.9997 47.0194 20.9405 47.0526 20.8901C47.0859 20.8397 47.1333 20.8003 47.189 20.7769C47.2447 20.7536 47.3061 20.7474 47.3654 20.759C47.4246 20.7707 47.479 20.7997 47.5217 20.8424C47.5644 20.8851 47.5935 20.9395 47.6051 20.9988C47.6168 21.058 47.6105 21.1194 47.5872 21.1751C47.5638 21.2308 47.5244 21.2783 47.474 21.3115C47.4236 21.3447 47.3644 21.3622 47.3041 21.3617C47.2241 21.3617 47.1473 21.3299 47.0908 21.2733C47.0342 21.2168 47.0025 21.1401 47.0025 21.0601Z" fill="white"/>
<path d="M47.9541 21.0601C47.9536 20.9998 47.971 20.9408 48.0041 20.8904C48.0372 20.84 48.0845 20.8006 48.1401 20.7772C48.1956 20.7538 48.2569 20.7474 48.316 20.7588C48.3752 20.7703 48.4297 20.799 48.4725 20.8415C48.5153 20.8839 48.5445 20.9381 48.5565 20.9972C48.5684 21.0563 48.5625 21.1176 48.5396 21.1733C48.5167 21.229 48.4777 21.2767 48.4276 21.3102C48.3775 21.3438 48.3186 21.3617 48.2583 21.3617C48.1781 21.3617 48.1011 21.33 48.0441 21.2735C47.9871 21.217 47.9548 21.1403 47.9541 21.0601Z" fill="white"/>
<path d="M48.9082 21.0601C48.9077 20.9997 48.9252 20.9405 48.9584 20.8901C48.9916 20.8397 49.0391 20.8003 49.0948 20.7769C49.1505 20.7536 49.2119 20.7474 49.2711 20.759C49.3304 20.7707 49.3848 20.7997 49.4275 20.8424C49.4702 20.8851 49.4992 20.9395 49.5109 20.9988C49.5225 21.058 49.5163 21.1194 49.4929 21.1751C49.4696 21.2308 49.4302 21.2783 49.3798 21.3115C49.3294 21.3447 49.2702 21.3622 49.2098 21.3617C49.1298 21.3617 49.0531 21.3299 48.9965 21.2733C48.94 21.2168 48.9082 21.1401 48.9082 21.0601Z" fill="white"/>
<path d="M84.344 21.7101H81.8818V20.5687H84.344V21.7101ZM82.004 21.5853H84.214V20.6935H82.004V21.5853Z" fill="white"/>
<path d="M83.6731 20.7637H82.0845V21.5177H83.6731V20.7637Z" fill="white"/>
<path d="M84.5621 20.8339H84.3438V21.4449H84.5621V20.8339Z" fill="white"/>
<path d="M46.4461 28.5403L45.0967 27.2767L46.4461 26.0131L46.6541 26.2341L45.5439 27.2767L46.6541 28.3167L46.4461 28.5403Z" fill="white"/>
<path d="M83.6289 28.6313H82.7189V28.3141C82.7185 28.3012 82.7147 28.2886 82.7078 28.2776C82.701 28.2667 82.6913 28.2577 82.6799 28.2517C82.6449 28.2339 82.611 28.214 82.5785 28.1919C82.5667 28.1848 82.5532 28.1811 82.5395 28.1811C82.5257 28.1811 82.5122 28.1848 82.5005 28.1919L82.2275 28.3505L81.7725 27.5705L82.0481 27.4119C82.059 27.4045 82.0678 27.3943 82.0737 27.3825C82.0796 27.3707 82.0824 27.3575 82.0819 27.3443C82.0819 27.3235 82.0819 27.3053 82.0819 27.2871C82.0819 27.2689 82.0819 27.2481 82.0819 27.2299C82.0826 27.2163 82.0799 27.2028 82.074 27.1905C82.0681 27.1782 82.0592 27.1676 82.0481 27.1597L81.7725 27.0011L82.2275 26.2211L82.5005 26.3797C82.5118 26.3866 82.5249 26.3903 82.5382 26.3903C82.5514 26.3903 82.5645 26.3866 82.5759 26.3797L82.6799 26.3225C82.6915 26.3161 82.7013 26.3067 82.7081 26.2953C82.715 26.2839 82.7187 26.2708 82.7189 26.2575V25.9221H83.6289V26.2367C83.629 26.25 83.6328 26.2631 83.6396 26.2745C83.6465 26.2859 83.6562 26.2953 83.6679 26.3017C83.7028 26.3187 83.7367 26.3378 83.7693 26.3589C83.7811 26.3658 83.7946 26.3694 83.8083 26.3694C83.8219 26.3694 83.8354 26.3658 83.8473 26.3589L84.1203 26.2003L84.5753 26.9803L84.2997 27.1363C84.2877 27.1434 84.2781 27.1538 84.2721 27.1663C84.2661 27.1788 84.2639 27.1928 84.2659 27.2065V27.3209C84.2641 27.3343 84.2664 27.3479 84.2724 27.3599C84.2785 27.3719 84.2879 27.3819 84.2997 27.3885L84.5753 27.5471L84.1203 28.3271L83.8447 28.1685C83.8333 28.1617 83.8202 28.158 83.807 28.158C83.7937 28.158 83.7806 28.1617 83.7693 28.1685C83.7367 28.1906 83.7029 28.2105 83.6679 28.2283C83.6564 28.2343 83.6467 28.2433 83.6399 28.2542C83.633 28.2652 83.6292 28.2778 83.6289 28.2907V28.6313ZM82.9139 28.4363H83.4339V28.3141C83.4333 28.265 83.4466 28.2166 83.4724 28.1748C83.4982 28.1329 83.5353 28.0992 83.5795 28.0775C83.6081 28.0626 83.6359 28.0461 83.6627 28.0281C83.7046 28.0013 83.7533 27.987 83.8031 27.987C83.8528 27.987 83.9016 28.0013 83.9435 28.0281L84.0475 28.0879L84.3075 27.6381L84.2009 27.5783C84.1558 27.5529 84.1193 27.5145 84.0961 27.4682C84.073 27.4219 84.0642 27.3697 84.0709 27.3183V27.2221C84.0644 27.1705 84.0736 27.1181 84.0972 27.0718C84.1209 27.0254 84.1579 26.9872 84.2035 26.9621L84.3075 26.9023L84.0475 26.4525L83.9435 26.5123C83.9016 26.5392 83.8528 26.5535 83.8031 26.5535C83.7533 26.5535 83.7046 26.5392 83.6627 26.5123C83.6368 26.4937 83.6088 26.478 83.5795 26.4655C83.5349 26.4437 83.4975 26.4096 83.4717 26.3672C83.4459 26.3248 83.4328 26.2759 83.4339 26.2263V26.1067H82.9139V26.2263C82.9147 26.2762 82.9012 26.3253 82.8749 26.3677C82.8486 26.4101 82.8107 26.4441 82.7657 26.4655C82.7368 26.4791 82.709 26.4948 82.6825 26.5123C82.6409 26.5387 82.5926 26.5527 82.5434 26.5527C82.4941 26.5527 82.4459 26.5387 82.4043 26.5123L82.2977 26.4525L82.0377 26.9023L82.1417 26.9621C82.1872 26.9872 82.2242 27.0254 82.2479 27.0718C82.2715 27.1181 82.2807 27.1705 82.2743 27.2221V27.3183C82.2807 27.37 82.2715 27.4223 82.2479 27.4687C82.2242 27.515 82.1872 27.5532 82.1417 27.5783L82.0377 27.6381L82.2977 28.0879L82.4043 28.0281C82.4462 28.0013 82.4949 27.987 82.5447 27.987C82.5944 27.987 82.6432 28.0013 82.6851 28.0281C82.7119 28.0461 82.7396 28.0626 82.7683 28.0775C82.8124 28.0992 82.8495 28.1329 82.8753 28.1748C82.9011 28.2166 82.9144 28.265 82.9139 28.3141V28.4363ZM83.1739 27.9579C83.0384 27.9584 82.9058 27.9187 82.793 27.8438C82.6801 27.7688 82.5921 27.6621 82.54 27.537C82.4879 27.412 82.4742 27.2743 82.5005 27.1414C82.5268 27.0085 82.592 26.8864 82.6877 26.7906C82.7835 26.6948 82.9056 26.6297 83.0385 26.6034C83.1714 26.5771 83.3091 26.5908 83.4341 26.6429C83.5592 26.695 83.666 26.783 83.7409 26.8959C83.8158 27.0087 83.8556 27.1413 83.8551 27.2767C83.8551 27.4574 83.7833 27.6307 83.6555 27.7584C83.5278 27.8862 83.3545 27.9579 83.1739 27.9579ZM83.1739 26.7879C83.0771 26.7874 82.9823 26.8156 82.9016 26.869C82.8209 26.9224 82.7578 26.9986 82.7204 27.0879C82.683 27.1771 82.673 27.2755 82.6915 27.3705C82.7101 27.4655 82.7564 27.5528 82.8247 27.6214C82.893 27.6901 82.98 27.7369 83.0749 27.7559C83.1698 27.775 83.2682 27.7655 83.3577 27.7286C83.4472 27.6917 83.5237 27.629 83.5775 27.5486C83.6313 27.4681 83.6601 27.3735 83.6601 27.2767C83.6611 27.2121 83.6493 27.1479 83.6254 27.0879C83.6014 27.0278 83.5658 26.9732 83.5206 26.927C83.4754 26.8808 83.4214 26.844 83.3619 26.8188C83.3024 26.7936 83.2385 26.7805 83.1739 26.7801V26.7879Z" fill="white"/>
<path d="M82.3522 40.911C82.2609 40.7262 82.2162 40.5218 82.2222 40.3156C82.2167 40.1096 82.2614 39.9053 82.3522 39.7202C82.4421 39.9056 82.4867 40.1097 82.4822 40.3156C82.4857 40.5215 82.4412 40.7254 82.3522 40.911Z" fill="#263238"/>
<path d="M81.2758 41.3738C81.0785 41.307 80.9002 41.1937 80.7558 41.0436C80.6066 40.8989 80.4943 40.7206 80.4282 40.5236C80.6205 40.5955 80.795 40.708 80.9399 40.8533C81.0848 40.9987 81.1967 41.1735 81.268 41.366L81.2758 41.3738Z" fill="#263238"/>
<path d="M80.8441 42.4606C80.6573 42.5463 80.4542 42.5907 80.2487 42.5907C80.0432 42.5907 79.8401 42.5463 79.6533 42.4606C79.8382 42.3694 80.0426 42.3248 80.2487 42.3306C80.4547 42.3262 80.6588 42.3707 80.8441 42.4606Z" fill="#263238"/>
<path d="M81.3069 43.5345C81.2346 43.7272 81.1217 43.9021 80.9759 44.0475C80.8301 44.1928 80.6549 44.3051 80.4619 44.3769C80.5343 44.1841 80.6471 44.0092 80.7929 43.8639C80.9387 43.7185 81.114 43.6062 81.3069 43.5345Z" fill="#263238"/>
<path d="M82.394 43.966C82.4834 44.1523 82.5271 44.3573 82.5214 44.564C82.5269 44.77 82.4823 44.9743 82.3914 45.1594C82.303 44.9735 82.2585 44.7698 82.2614 44.564C82.2579 44.357 82.3033 44.1521 82.394 43.966Z" fill="#263238"/>
<path d="M83.46 43.5059C83.6522 43.5778 83.8267 43.6903 83.9716 43.8356C84.1165 43.981 84.2284 44.1558 84.2998 44.3483C84.1075 44.2764 83.933 44.1639 83.7881 44.0186C83.6432 43.8732 83.5313 43.6983 83.46 43.5059Z" fill="#263238"/>
<path d="M83.8994 42.419C84.0862 42.3333 84.2893 42.2889 84.4948 42.2889C84.7003 42.2889 84.9034 42.3333 85.0902 42.419C84.9053 42.5102 84.7009 42.5548 84.4948 42.549C84.289 42.5522 84.0852 42.5077 83.8994 42.419Z" fill="#263238"/>
<path d="M83.4365 41.3401C83.5041 41.1431 83.6172 40.9649 83.7667 40.8201C83.9111 40.6699 84.0894 40.5567 84.2867 40.4899C84.2144 40.6826 84.1015 40.8575 83.9557 41.0028C83.8099 41.1482 83.6347 41.2605 83.4417 41.3323L83.4365 41.3401Z" fill="#263238"/>
<path d="M50.5776 66.4899C50.4873 66.3037 50.4428 66.0987 50.4476 65.8919C50.4447 65.686 50.4892 65.4823 50.5776 65.2965C50.6688 65.4823 50.7134 65.6875 50.7076 65.8945C50.7105 66.1003 50.6661 66.304 50.5776 66.4899Z" fill="#263238"/>
<path d="M49.504 66.95C49.3111 66.8787 49.136 66.7665 48.9905 66.6211C48.8451 66.4756 48.7329 66.3005 48.6616 66.1076C48.8539 66.1799 49.0285 66.2925 49.1738 66.4378C49.3191 66.5831 49.4317 66.7577 49.504 66.95Z" fill="#263238"/>
<path d="M49.0697 68.0368C48.8843 68.1267 48.6803 68.1712 48.4743 68.1668C48.2685 68.17 48.0647 68.1255 47.8789 68.0368C48.0639 67.9459 48.2682 67.9013 48.4743 67.9068C48.6802 67.9033 48.884 67.9478 49.0697 68.0368Z" fill="#263238"/>
<path d="M49.5323 69.1107C49.46 69.303 49.3474 69.4776 49.2021 69.6229C49.0569 69.7682 48.8822 69.8807 48.6899 69.9531C48.7623 69.7608 48.8749 69.5862 49.0201 69.4409C49.1654 69.2956 49.34 69.183 49.5323 69.1107Z" fill="#263238"/>
<path d="M50.6193 69.5448C50.7083 69.7305 50.7528 69.9343 50.7493 70.1402C50.753 70.3463 50.7075 70.5504 50.6167 70.7356C50.5277 70.55 50.484 70.3459 50.4893 70.1402C50.4833 69.9341 50.5279 69.7296 50.6193 69.5448Z" fill="#263238"/>
<path d="M51.6929 69.082C51.8852 69.1543 52.0598 69.2669 52.2051 69.4122C52.3503 69.5575 52.4629 69.7321 52.5353 69.9244C52.338 69.8576 52.1596 69.7443 52.0153 69.5942C51.8695 69.4508 51.7592 69.2754 51.6929 69.082Z" fill="#263238"/>
<path d="M52.1245 67.9952C52.3112 67.9065 52.5158 67.862 52.7225 67.8652C52.9287 67.8616 53.1328 67.907 53.3179 67.9978C53.1315 68.0872 52.9265 68.1309 52.7199 68.1252C52.5139 68.1307 52.3095 68.0861 52.1245 67.9952Z" fill="#263238"/>
<path d="M51.6646 66.9214C51.7359 66.7285 51.8481 66.5533 51.9935 66.4079C52.1389 66.2625 52.3141 66.1503 52.5069 66.079C52.4401 66.2763 52.3269 66.4546 52.1767 66.599C52.0333 66.7447 51.858 66.8551 51.6646 66.9214Z" fill="#263238"/>
<path d="M77.7399 85.8781C77.698 85.8384 77.6647 85.7903 77.6423 85.7371C77.62 85.6838 77.6089 85.6264 77.6099 85.5687C77.609 85.5113 77.62 85.4543 77.6424 85.4015C77.6648 85.3487 77.698 85.3011 77.7399 85.2619C77.7808 85.3018 77.8134 85.3496 77.8357 85.4022C77.858 85.4549 77.8697 85.5115 77.8699 85.5687C77.8697 85.6263 77.8581 85.6833 77.8358 85.7364C77.8135 85.7895 77.7809 85.8376 77.7399 85.8781Z" fill="#263238"/>
<path d="M77.1784 86.1146C77.121 86.1158 77.0641 86.1054 77.0109 86.084C76.9577 86.0625 76.9094 86.0305 76.869 85.9898C76.8287 85.9491 76.7969 85.9008 76.7755 85.8477C76.754 85.7946 76.7434 85.7377 76.7442 85.6804C76.8015 85.6791 76.8586 85.6894 76.9118 85.7109C76.965 85.7324 77.0132 85.7645 77.0536 85.8052C77.0942 85.8457 77.1262 85.894 77.1477 85.9471C77.1692 86.0003 77.1796 86.0573 77.1784 86.1146Z" fill="#263238"/>
<path d="M76.9598 86.6762C76.92 86.7174 76.8724 86.7502 76.8196 86.7726C76.7669 86.7949 76.7103 86.8065 76.653 86.8065C76.5957 86.8065 76.539 86.7949 76.4863 86.7726C76.4336 86.7502 76.386 86.7174 76.3462 86.6762C76.3854 86.6343 76.433 86.6011 76.4858 86.5787C76.5387 86.5563 76.5956 86.5452 76.653 86.5462C76.7102 86.5462 76.7669 86.5577 76.8196 86.58C76.8723 86.6023 76.92 86.635 76.9598 86.6762Z" fill="#263238"/>
<path d="M77.1941 87.23C77.1949 87.2873 77.1843 87.3442 77.1628 87.3973C77.1414 87.4504 77.1096 87.4987 77.0693 87.5394C77.0292 87.5807 76.981 87.6133 76.9278 87.6352C76.8746 87.6571 76.8175 87.6679 76.7599 87.6668C76.7583 87.6095 76.7685 87.5523 76.79 87.4991C76.8114 87.4458 76.8437 87.3976 76.8847 87.3574C76.9249 87.3162 76.973 87.2836 77.0262 87.2617C77.0795 87.2398 77.1366 87.229 77.1941 87.23Z" fill="#263238"/>
<path d="M77.7555 87.4536C77.7965 87.4941 77.8291 87.5422 77.8514 87.5953C77.8737 87.6484 77.8853 87.7054 77.8855 87.763C77.8853 87.8202 77.8736 87.8768 77.8513 87.9295C77.829 87.9821 77.7964 88.0298 77.7555 88.0698C77.7139 88.0304 77.6808 87.9828 77.6585 87.93C77.6361 87.8772 77.6249 87.8204 77.6255 87.763C77.6251 87.7053 77.6364 87.6482 77.6588 87.595C77.6811 87.5418 77.714 87.4937 77.7555 87.4536Z" fill="#263238"/>
<path d="M78.3091 87.217C78.3665 87.2157 78.4235 87.226 78.4767 87.2475C78.5299 87.269 78.5782 87.3011 78.6185 87.3418C78.6598 87.3818 78.6922 87.43 78.7137 87.4833C78.7352 87.5366 78.7453 87.5938 78.7433 87.6512C78.686 87.652 78.6292 87.6414 78.5761 87.6199C78.5229 87.5985 78.4746 87.5667 78.4339 87.5264C78.3937 87.4857 78.362 87.4373 78.3406 87.3842C78.3192 87.3311 78.3085 87.2743 78.3091 87.217Z" fill="#263238"/>
<path d="M78.5327 86.6554C78.5724 86.6142 78.6201 86.5814 78.6728 86.559C78.7255 86.5367 78.7823 86.5253 78.8395 86.5254C78.8651 86.5004 78.8976 86.4834 78.9328 86.4767C78.968 86.4699 79.0044 86.4738 79.0374 86.4876C79.0704 86.5015 79.0986 86.5249 79.1185 86.5547C79.1383 86.5846 79.1489 86.6196 79.1489 86.6554C79.1489 86.6913 79.1383 86.7263 79.1185 86.7562C79.0986 86.786 79.0704 86.8093 79.0374 86.8232C79.0044 86.8371 78.968 86.8409 78.9328 86.8342C78.8976 86.8275 78.8651 86.8105 78.8395 86.7854C78.7241 86.7843 78.6138 86.7376 78.5327 86.6554Z" fill="#263238"/>
<path d="M78.2939 86.1017C78.1935 86.1012 78.0964 86.0659 78.0191 86.002C77.9418 85.938 77.8891 85.8492 77.8699 85.7507C77.8506 85.6522 77.8661 85.5501 77.9137 85.4617C77.9612 85.3734 78.0379 85.3042 78.1307 85.266C78.2235 85.2278 78.3266 85.2229 78.4226 85.2522C78.5186 85.2814 78.6015 85.343 78.6572 85.4265C78.7129 85.51 78.738 85.6102 78.7281 85.71C78.7183 85.8099 78.6742 85.9033 78.6033 85.9743C78.5631 86.0155 78.515 86.0481 78.4618 86.07C78.4086 86.0919 78.3514 86.1027 78.2939 86.1017Z" fill="#263238"/>
<path d="M46.1296 118.443C45.5446 118.63 28.902 118.414 28.2728 118.003C28.031 117.853 27.9218 115.424 27.8724 112.489V112.395C27.8724 111.792 27.8542 111.168 27.8516 110.536C27.8516 110.451 27.8516 110.362 27.8516 110.276L28.6602 101.642L39.7934 101.753L38.6936 110.308V110.646L38.626 112.416V112.598C38.626 112.598 44.9596 115.531 45.6044 116.053C46.2492 116.576 46.712 118.256 46.1296 118.443Z" fill="#EB9481"/>
<path d="M46.1296 118.443C45.5446 118.63 28.902 118.414 28.2728 118.004C28.031 117.853 27.9218 115.424 27.8724 112.489V112.395C27.8724 111.792 27.8542 111.168 27.8516 110.536C27.8516 110.451 27.8516 110.362 27.8516 110.276L38.6936 110.308V110.646L38.626 112.416V112.598C38.626 112.598 44.9596 115.531 45.6044 116.054C46.2492 116.576 46.712 118.256 46.1296 118.443Z" fill="#EBEBEB"/>
<path d="M46.1294 118.44C45.8304 118.539 41.309 118.529 36.889 118.44C35.9998 118.422 35.1158 118.404 34.2734 118.381C31.1222 118.295 28.517 118.165 28.2752 118.006C28.0334 117.848 27.9268 115.495 27.8774 112.614C27.8774 112.572 27.8774 112.531 27.8774 112.492C27.8774 112.453 27.8774 112.427 27.8774 112.398L38.605 112.416V112.601C38.605 112.601 44.9386 115.531 45.5808 116.056C46.223 116.581 46.7144 118.256 46.1294 118.44Z" fill="#F15F42"/>
<path d="M45.9498 117.796C43.1444 117.689 31.8214 117.536 29.0498 117.64C29.0264 117.64 29.0264 117.655 29.0498 117.655C31.8292 117.822 43.1522 117.889 45.9498 117.84C46.02 117.84 46.02 117.796 45.9498 117.796Z" fill="#263238"/>
<path d="M39.8062 112.463C38.7064 112.242 37.3518 112.393 36.499 113.17C36.4652 113.199 36.499 113.246 36.5458 113.235C37.6052 112.908 38.6965 112.695 39.801 112.601C39.8172 112.598 39.832 112.59 39.8428 112.578C39.8537 112.566 39.86 112.55 39.8606 112.534C39.8612 112.518 39.8561 112.502 39.8462 112.489C39.8363 112.476 39.8222 112.467 39.8062 112.463Z" fill="#263238"/>
<path d="M40.5963 112.952C39.4965 112.731 38.1445 112.884 37.2891 113.659C37.2553 113.69 37.2891 113.737 37.3359 113.727C38.3953 113.401 39.4866 113.191 40.5911 113.1C40.6107 113.101 40.6299 113.094 40.6442 113.08C40.6586 113.067 40.6671 113.048 40.6678 113.028C40.6685 113.009 40.6613 112.99 40.6479 112.975C40.6345 112.961 40.6159 112.952 40.5963 112.952Z" fill="#263238"/>
<path d="M41.3871 113.443C40.2873 113.222 38.9353 113.376 38.0799 114.15C38.0487 114.182 38.0799 114.226 38.1267 114.215C39.1862 113.889 40.2775 113.678 41.3819 113.584C41.4006 113.584 41.4187 113.577 41.4323 113.565C41.446 113.552 41.4541 113.535 41.4547 113.516C41.4554 113.497 41.4487 113.479 41.436 113.466C41.4233 113.452 41.4058 113.444 41.3871 113.443Z" fill="#263238"/>
<path d="M36.889 118.438C35.9998 118.42 35.1158 118.401 34.2734 118.378C31.1222 118.292 28.517 118.162 28.2752 118.004C28.0334 117.845 27.9268 115.492 27.8774 112.611C27.8774 112.57 27.8774 112.528 27.8774 112.489C27.8774 112.45 27.8774 112.424 27.8774 112.395C29.3542 113.425 34.5334 116.873 36.889 118.438Z" fill="#263238"/>
<path d="M39.343 112.453H27.3544C27.3544 112.453 29.7698 84.4557 29.6736 83.9799C29.554 83.3533 28.8468 80.5193 27.9056 76.8169C27.6092 75.6599 27.292 74.4171 26.9592 73.1275C26.0674 69.6461 25.082 65.8475 24.224 62.5273C22.924 57.5639 21.9282 53.7081 21.9282 53.7081H32.089C32.089 53.7081 33.2798 57.4599 34.7644 62.3323C37.1954 70.2675 40.4454 81.1927 40.7652 83.8473C41.2852 88.1399 39.343 112.453 39.343 112.453Z" fill="#37474F"/>
<path d="M38.8105 110.406C36.9905 110.37 37.5105 110.354 35.6749 110.336C34.7805 110.336 28.8915 110.276 28.0543 110.417C28.0495 110.417 28.0449 110.419 28.0415 110.422C28.038 110.425 28.0361 110.43 28.0361 110.435C28.0361 110.44 28.038 110.444 28.0415 110.448C28.0449 110.451 28.0495 110.453 28.0543 110.453C28.8915 110.591 34.7805 110.539 35.6749 110.531C37.4949 110.513 36.9749 110.5 38.8105 110.461C38.8148 110.462 38.8194 110.463 38.8238 110.462C38.8282 110.461 38.8324 110.459 38.836 110.457C38.8396 110.454 38.8426 110.451 38.8446 110.447C38.8466 110.443 38.8477 110.438 38.8477 110.434C38.8477 110.429 38.8466 110.425 38.8446 110.421C38.8426 110.417 38.8396 110.413 38.836 110.411C38.8324 110.408 38.8282 110.406 38.8238 110.405C38.8194 110.405 38.8148 110.405 38.8105 110.406Z" fill="#263238"/>
<path d="M31.9309 82.2561C31.5382 80.5219 30.9507 78.8241 30.4385 77.1237C29.3985 73.6675 28.3533 70.2138 27.3029 66.7627C26.7829 65.0294 26.2559 63.303 25.7221 61.5835C25.4621 60.7151 25.1865 59.8415 24.9135 58.9835C24.6405 58.1255 24.3441 57.2779 24.1023 56.4199C24.0035 56.0715 23.9515 56.2639 24.0763 56.7059C24.3363 57.6003 24.5781 58.4947 24.8407 59.3865C25.3607 61.1545 25.8807 62.9199 26.4007 64.6827C27.4407 68.1962 28.4893 71.7053 29.5467 75.2101C30.0667 76.9712 30.5953 78.7297 31.1327 80.4855C31.4002 81.3226 31.6164 82.1753 31.7801 83.0387C31.9221 83.9414 31.9579 84.8577 31.8867 85.7687C31.7723 87.6017 31.5591 89.4321 31.3901 91.2625C31.2211 93.0929 31.0495 94.9311 30.8701 96.7641C30.5234 100.404 30.1889 104.053 29.8665 107.71C29.8249 108.173 29.7833 108.636 29.7469 109.099C29.7469 109.255 29.8457 109.273 29.8613 109.125C30.2565 105.516 30.6855 101.865 31.0235 98.2513C31.3615 94.6373 31.6968 91.0597 32.0322 87.4639C32.118 86.5617 32.2143 85.6569 32.2143 84.7495C32.2124 83.9105 32.1174 83.0742 31.9309 82.2561Z" fill="#263238"/>
<path d="M30.9402 53.6952C30.2356 59.1552 28.8914 69.3836 27.9112 76.804C25.618 67.8106 21.9312 53.6952 21.9312 53.6952H30.9402Z" fill="#263238"/>
<path d="M33.4307 118.602C32.8457 118.794 16.2031 118.638 15.5739 118.23C15.3321 118.079 15.2125 115.651 15.1527 112.715V112.624C15.1371 112.018 15.1293 111.394 15.1241 110.763C15.1241 110.677 15.1241 110.591 15.1241 110.503C15.0851 106.265 15.3841 101.868 15.3841 101.868L26.2651 101.938L25.9635 110.5V110.838L25.9011 112.609V112.791C25.9011 112.791 32.2399 115.7 32.8743 116.22C33.5087 116.74 34.0131 118.414 33.4307 118.602Z" fill="#EB9481"/>
<path d="M33.4311 118.602C32.8461 118.794 16.2035 118.638 15.5743 118.23C15.3325 118.079 15.2129 115.651 15.1531 112.715V112.624C15.1375 112.018 15.1297 111.394 15.1245 110.763C15.1245 110.677 15.1245 110.591 15.1245 110.503H25.9665V110.841L25.9041 112.611V112.793C25.9041 112.793 32.2403 115.7 32.8747 116.22C33.5091 116.74 34.0135 118.414 33.4311 118.602Z" fill="#EBEBEB"/>
<path d="M33.4308 118.602C32.8458 118.794 16.2032 118.638 15.574 118.23C15.3322 118.079 15.2126 115.651 15.1528 112.715V112.624L25.8908 112.603V112.785C25.8908 112.785 32.24 115.7 32.8744 116.22C33.5088 116.74 34.0132 118.414 33.4308 118.602Z" fill="#F15F42"/>
<path d="M33.2491 117.957C30.4437 117.861 19.1207 117.741 16.3491 117.861C16.3283 117.861 16.3283 117.876 16.3491 117.879C19.1285 118.035 30.4515 118.061 33.2491 118.001C33.3063 118.001 33.3063 117.957 33.2491 117.957Z" fill="#263238"/>
<path d="M27.0869 112.645C25.9845 112.429 24.6325 112.585 23.7823 113.365C23.7485 113.394 23.7823 113.441 23.8265 113.43C24.8856 113.1 25.9768 112.884 27.0817 112.785C27.1003 112.786 27.1185 112.779 27.1321 112.767C27.1458 112.754 27.1538 112.736 27.1545 112.718C27.1552 112.699 27.1485 112.681 27.1358 112.667C27.1231 112.654 27.1055 112.646 27.0869 112.645Z" fill="#263238"/>
<path d="M27.8798 113.134C26.7774 112.915 25.4254 113.074 24.5726 113.851C24.5414 113.883 24.5726 113.929 24.6194 113.919C25.6771 113.587 26.7676 113.369 27.872 113.272C27.8883 113.269 27.9033 113.262 27.9144 113.25C27.9256 113.238 27.9322 113.222 27.9332 113.206C27.9341 113.19 27.9293 113.173 27.9195 113.16C27.9098 113.147 27.8957 113.138 27.8798 113.134Z" fill="#263238"/>
<path d="M28.6702 113.62C27.5704 113.404 26.2184 113.56 25.3656 114.34C25.3344 114.371 25.3656 114.416 25.4124 114.405C26.4705 114.075 27.5609 113.859 28.665 113.76C28.6836 113.761 28.7017 113.754 28.7154 113.742C28.729 113.729 28.7371 113.711 28.7378 113.693C28.7385 113.674 28.7317 113.656 28.7191 113.642C28.7064 113.629 28.6888 113.621 28.6702 113.62Z" fill="#263238"/>
<path d="M31.7591 53.6952C31.7591 53.6952 31.5251 58.5572 30.4123 62.4052C30.3239 62.725 30.2277 63.037 30.1237 63.3386C29.1035 63.749 28.1235 64.2529 27.1961 64.844C27.1961 64.844 27.0765 68.744 26.9595 73.1146C26.8295 77.9922 26.6995 83.4288 26.7229 84.5832C26.8269 88.8992 26.1847 112.629 26.1847 112.629L14.1987 112.676C14.1987 112.676 16.3671 86.177 16.3515 84.5962C16.3281 82.056 16.9313 70.8162 17.3915 62.634C17.6775 57.5874 17.9115 53.6952 17.9115 53.6952H31.7591Z" fill="#37474F"/>
<path d="M25.7738 110.5C23.9538 110.469 24.4738 110.45 22.6382 110.443C21.7412 110.443 15.8522 110.411 15.0176 110.552C14.9994 110.552 14.9994 110.588 15.0176 110.591C15.8548 110.726 21.7412 110.648 22.6382 110.638C24.4582 110.612 23.9382 110.599 25.7738 110.552C25.7807 110.552 25.7873 110.549 25.7921 110.544C25.797 110.539 25.7998 110.533 25.7998 110.526C25.7998 110.519 25.797 110.512 25.7921 110.508C25.7873 110.503 25.7807 110.5 25.7738 110.5Z" fill="#263238"/>
<path d="M18.923 55.432C18.7046 62.1192 18.4706 68.8064 18.1716 75.4884C17.8726 82.1704 16.297 106.2 15.894 109.931C15.894 109.954 15.9278 109.964 15.9304 109.931C16.804 103.298 17.2902 93.4804 17.7192 86.8062C18.1482 80.132 18.4394 73.4474 18.6682 66.7628C18.7956 62.9824 18.8944 59.202 19.0062 55.4216C19.0088 55.38 18.9256 55.38 18.923 55.432Z" fill="#263238"/>
<path d="M30.6204 63.0473C29.4293 63.5462 28.2836 64.1473 27.1962 64.8439C27.1874 64.8487 27.1808 64.8567 27.1777 64.8662C27.1746 64.8758 27.1753 64.8861 27.1796 64.8952C27.184 64.9042 27.1917 64.9112 27.201 64.9147C27.2104 64.9183 27.2208 64.9181 27.23 64.9141C28.387 64.3525 29.57 63.8117 30.6906 63.1877C30.6998 63.1831 30.7081 63.1768 30.7148 63.169C30.7216 63.1612 30.7267 63.1521 30.73 63.1424C30.7332 63.1326 30.7345 63.1223 30.7338 63.112C30.7331 63.1017 30.7303 63.0917 30.7257 63.0824C30.7211 63.0732 30.7147 63.065 30.7069 63.0583C30.6992 63.0515 30.6901 63.0463 30.6803 63.0431C30.6706 63.0398 30.6602 63.0385 30.65 63.0393C30.6397 63.04 30.6296 63.0427 30.6204 63.0473Z" fill="#263238"/>
<path d="M30.6803 58.9238C30.6023 59.3502 30.4983 59.7714 30.4203 60.1952C30.3423 60.619 30.2695 60.9986 30.1603 61.3912C30.0734 61.7714 29.8794 62.1188 29.6013 62.3922C29.4479 62.5378 29.2737 62.6652 29.1099 62.7978C29.0189 62.8706 28.9227 62.9382 28.8291 63.011C28.8425 62.9543 28.8529 62.8971 28.8603 62.8394C28.8889 62.6782 28.9175 62.517 28.9435 62.3558C29.0033 61.997 29.0631 61.6382 29.1177 61.2768C29.2243 60.5696 29.3231 59.8572 29.4713 59.1578C29.4719 59.1523 29.4705 59.1468 29.4675 59.1422C29.4645 59.1377 29.4599 59.1343 29.4546 59.1327C29.4494 59.1312 29.4437 59.1316 29.4387 59.1337C29.4336 59.1359 29.4295 59.1398 29.4271 59.1448C29.2529 59.839 29.0579 60.5254 28.9071 61.2248C28.8317 61.568 28.5639 63.2606 28.5509 63.3802C28.5379 63.4998 28.5275 63.6272 28.5249 63.752C28.508 63.8779 28.508 64.0056 28.5249 64.1316C28.5249 64.1628 28.5691 64.1576 28.5821 64.1316C28.6341 64.0137 28.6708 63.8896 28.6913 63.7624C28.7225 63.6428 28.7485 63.5206 28.7719 63.3958C28.7719 63.3516 28.7719 63.3074 28.7901 63.2632C28.9591 63.1618 29.1125 63.0266 29.2685 62.9148C29.4245 62.803 29.6091 62.673 29.7677 62.5404C30.061 62.2911 30.2729 61.9596 30.3761 61.5888C30.4785 61.1899 30.5447 60.7827 30.5737 60.372C30.6283 59.891 30.6673 59.4074 30.7349 58.929C30.7375 58.9082 30.6933 58.8952 30.6803 58.9238Z" fill="#263238"/>
<path d="M25.1914 40.6978C27.0998 43.2978 33.0564 47.658 35.5472 47.5618C37.349 47.4942 42.9468 41.7326 44.4522 39.845C45.903 38.025 39.9906 34.5462 39.104 35.5914C37.674 37.2814 35.3496 41.0774 34.6684 41.262C34.1926 41.392 31.2052 40.4508 26.6734 38.6958C23.9044 37.6272 24.05 39.1534 25.1914 40.6978Z" fill="#EB9481"/>
<path d="M46.8756 37.3021C46.1684 38.5631 43.7088 40.5781 42.9288 40.8355C42.1488 41.0929 38.5868 37.0265 38.748 36.1997C38.9092 35.3729 41.6236 31.3091 42.9938 30.7553C44.364 30.2015 47.6114 35.9943 46.8756 37.3021Z" fill="#EB9481"/>
<path d="M39.0886 35.4276C39.2411 34.2681 39.2227 33.0925 39.034 31.9384C38.774 30.5708 38.202 28.5584 38.9326 28.3946C40.4302 28.0384 41.8238 33.0252 41.8238 33.0252C41.8238 33.0252 42.0838 35.3262 40.633 35.8098C40.3654 35.8948 40.0795 35.9042 39.8069 35.8367C39.5343 35.7692 39.2857 35.6276 39.0886 35.4276Z" fill="#EB9481"/>
<path d="M41.0591 32.0294C41.0825 32.8094 41.9717 32.3284 41.9717 32.3284C41.9717 32.3284 40.8537 33.3112 41.1917 34.0912C41.5297 34.8712 42.5671 34.2394 42.6425 34.1952C42.5827 34.2498 41.5817 35.178 41.9951 35.9268C42.4085 36.6756 43.3783 35.9268 43.4407 35.8696C43.3991 35.9346 42.8869 36.829 43.3315 37.3282C44.0933 38.1836 45.4661 35.9346 46.3761 35.7526C46.3761 35.7526 46.8597 37.2606 46.8805 37.3126C46.8805 37.3126 48.2299 35.1988 47.9205 33.9846C47.8779 33.8073 47.7761 33.6499 47.6319 33.5383C47.4878 33.4267 47.3098 33.3677 47.1275 33.371C47.1275 33.371 47.6475 32.7392 47.3303 32.1386C47.1717 31.8292 46.5503 31.8084 46.5503 31.8084C46.6583 31.6593 46.723 31.4833 46.7373 31.2997C46.7515 31.1162 46.7147 30.9323 46.6309 30.7684C46.3865 30.355 45.7885 30.3992 45.7885 30.3992C45.7885 30.3992 45.9289 29.7232 45.5415 29.38C44.7485 28.6806 41.0071 30.3888 41.0591 32.0294Z" fill="#EB9481"/>
<path d="M46.5399 31.7823C46.5555 31.7823 46.5399 31.7537 46.5399 31.7563C44.9749 32.0666 43.5724 32.9261 42.5853 34.1795C42.5515 34.2237 42.5671 34.2991 42.6087 34.2497C43.3133 33.4307 45.2945 32.2399 46.5399 31.7823Z" fill="#263238"/>
<path d="M43.3993 35.984C44.3743 34.7672 45.6431 33.9846 47.0601 33.3684C47.0783 33.3684 47.0601 33.3372 47.0601 33.3372C46.2801 33.4516 45.4195 33.9378 44.7825 34.3772C44.1806 34.7695 43.692 35.3128 43.3655 35.9528C43.3421 35.9736 43.3785 36.01 43.3993 35.984Z" fill="#263238"/>
<path d="M41.9461 32.3257C41.9097 32.3647 42.0085 32.3751 41.9721 32.4167C41.8187 32.5909 40.9867 33.7167 41.2831 34.1223C41.5197 34.4447 42.1177 34.3485 42.3231 34.2211L42.8639 33.9013L42.4661 34.3901C42.2888 34.6062 42.1474 34.8493 42.0475 35.1103C41.9942 35.2284 41.9666 35.3565 41.9666 35.486C41.9666 35.6156 41.9942 35.7437 42.0475 35.8617C42.0968 35.9719 42.183 36.0615 42.2911 36.1151C42.3993 36.1687 42.5227 36.183 42.6403 36.1555C42.9021 36.0905 43.1435 35.9609 43.3423 35.7785L43.9065 35.2897L43.5347 35.9319C43.4302 36.1103 43.3497 36.3018 43.2955 36.5013C43.2384 36.6886 43.2384 36.8887 43.2955 37.0759C43.3234 37.1594 43.3739 37.2334 43.4414 37.2899C43.5088 37.3463 43.5906 37.383 43.6777 37.3957C43.8772 37.3945 44.0722 37.3358 44.2393 37.2267C44.6063 36.9951 44.9541 36.7342 45.2793 36.4467C45.4509 36.3089 45.6199 36.1711 45.7993 36.0411C45.9691 35.9008 46.1667 35.798 46.3791 35.7395C46.1776 35.8203 45.9932 35.9385 45.8357 36.0879C45.6719 36.2309 45.5133 36.3791 45.3547 36.5299C45.0417 36.8408 44.7005 37.122 44.3355 37.3697C44.1401 37.5075 43.9088 37.5852 43.6699 37.5933C43.5392 37.5831 43.4144 37.5348 43.3109 37.4544C43.2074 37.374 43.1298 37.265 43.0875 37.1409C43.0148 36.909 43.0148 36.6604 43.0875 36.4285C43.1456 36.2056 43.233 35.9914 43.3475 35.7915L43.5373 35.9449C43.3072 36.1663 43.023 36.3232 42.7131 36.3999C42.5372 36.4397 42.353 36.4157 42.1931 36.3323C42.0413 36.2481 41.9182 36.1204 41.8395 35.9657C41.772 35.8162 41.7371 35.654 41.7371 35.4899C41.7371 35.3259 41.772 35.1637 41.8395 35.0141C41.9531 34.7298 42.113 34.4662 42.3127 34.2341L42.4583 34.4031C42.1775 34.5565 41.5223 34.7359 41.0907 34.2809C40.6097 33.6153 41.7277 32.5129 41.9461 32.3257Z" fill="#263238"/>
<path d="M41.9717 32.3283C41.8206 32.3729 41.6638 32.3948 41.5063 32.3933C41.4432 32.3933 41.3811 32.3767 41.3264 32.3452C41.2716 32.3138 41.2261 32.2685 41.1943 32.2139C41.1428 32.0834 41.1302 31.9407 41.1579 31.8031C41.18 31.6429 41.2113 31.484 41.2515 31.3273C41.135 31.453 41.0464 31.6018 40.9915 31.7641C40.9188 31.9398 40.9188 32.1371 40.9915 32.3127C41.0412 32.4038 41.1186 32.4766 41.2125 32.5207C41.3033 32.5602 41.4031 32.5737 41.5011 32.5597C41.6792 32.5367 41.8447 32.4553 41.9717 32.3283Z" fill="#263238"/>
<path d="M33.1761 40.8434L31.7617 47.0444C31.7617 47.0444 28.1867 44.1688 25.8805 41.808C23.5743 39.4472 23.0413 37.4088 26.3017 38.3994C29.5621 39.39 33.1761 40.8434 33.1761 40.8434Z" fill="#F15F42"/>
<path opacity="0.1" d="M29.0655 39.3094L27.9761 43.8074L28.1815 43.992L29.2943 39.39L29.0655 39.3094ZM30.2199 39.7202L29.0083 44.72L29.2137 44.8994L30.4461 39.7982L30.2199 39.7202ZM31.3691 40.1466L30.0431 45.6066L30.2485 45.7808L31.5953 40.222L31.3691 40.1466ZM32.5157 40.5834L31.0857 46.4906L31.2911 46.6622L32.7419 40.6822L32.5157 40.5834Z" fill="#030402"/>
<path d="M31.8786 40.7498C31.7408 41.1866 31.6524 41.6416 31.5536 42.0888C31.4548 42.536 31.3638 42.9676 31.2728 43.407C31.0882 44.2962 30.901 45.1828 30.7866 46.085C30.7866 46.111 30.8152 46.1162 30.823 46.085C31.083 45.2114 31.2468 44.3221 31.4288 43.4303C31.5172 42.9909 31.6056 42.5516 31.6888 42.1096C31.772 41.6676 31.8708 41.2074 31.915 40.7498C31.915 40.7449 31.9131 40.7403 31.9097 40.7369C31.9063 40.7335 31.9016 40.7316 31.8968 40.7316C31.892 40.7316 31.8874 40.7335 31.884 40.7369C31.8805 40.7403 31.8786 40.7449 31.8786 40.7498Z" fill="#263238"/>
<path opacity="0.1" d="M32.3936 44.2701L31.7618 47.0417C31.7618 47.0417 28.1868 44.1687 25.8806 41.8079C24.045 39.9281 23.3326 38.2537 24.7626 38.1471L32.3936 44.2701Z" fill="black"/>
<path d="M16.6685 60.918C16.7101 60.9596 34.2731 59.7584 34.4187 59.566C34.6241 59.306 29.0679 41.4518 27.6743 38.831C27.0789 37.713 24.2397 37.5518 23.1191 38.6074C20.3085 41.2516 18.3507 49.7874 17.9399 52.3588C17.2587 56.5812 16.5099 60.762 16.6685 60.918Z" fill="#F15F42"/>
<path opacity="0.1" d="M27.6952 38.8673L22.5524 39.2313C22.6252 39.1429 22.6954 39.0571 22.7682 38.9713L27.5392 38.6333C27.5916 38.693 27.6369 38.7584 27.6744 38.8283C27.6802 38.8419 27.6872 38.8549 27.6952 38.8673ZM28.1164 39.8163L21.8556 40.2583C21.8036 40.3415 21.7542 40.4273 21.7074 40.5183L28.2074 40.0581C28.1788 39.9697 28.1476 39.8917 28.1164 39.8163ZM28.5766 41.0019L21.1744 41.5219L21.0574 41.7819L28.665 41.2437C28.6364 41.1605 28.6 41.0799 28.5766 41.0019ZM29.0108 42.1927L20.6154 42.7855L20.514 43.0455L29.094 42.4371C29.068 42.3487 29.0394 42.2707 29.0108 42.1927ZM29.4294 43.3835L20.1318 44.0413C20.1006 44.1245 20.072 44.2077 20.0434 44.3013L29.5126 43.6305C29.484 43.5395 29.458 43.4615 29.4294 43.3835ZM29.8376 44.5743L19.6976 45.2919C19.669 45.3725 19.643 45.4557 19.617 45.5519L29.913 44.8213C29.9 44.7329 29.8662 44.6523 29.8376 44.5743ZM30.238 45.7599L19.318 46.5399C19.292 46.6231 19.2686 46.7037 19.2452 46.7869L30.3212 46.0069C30.2926 45.9237 30.2666 45.8457 30.238 45.7599ZM30.6332 46.9507L18.9644 47.7775C18.941 47.8607 18.9176 47.9439 18.8968 48.0375L30.7138 47.2029C30.68 47.1171 30.6618 47.0391 30.6332 46.9585V46.9507ZM31.0232 48.1441L18.642 49.0281C18.6212 49.1113 18.603 49.1945 18.5822 49.2881L31.1012 48.4015L31.0232 48.1441ZM31.4106 49.3375L18.3508 50.2605C18.3326 50.3437 18.3144 50.4269 18.2988 50.5075L31.486 49.5741C31.46 49.5039 31.434 49.4233 31.4106 49.3453V49.3375ZM31.7928 50.5309L18.0934 51.5007C18.0752 51.5865 18.0596 51.6671 18.0466 51.7451L31.8656 50.7675C31.8396 50.6999 31.8162 50.6167 31.7928 50.5387V50.5309ZM32.1672 51.7269L17.8672 52.7383L17.8282 52.9801L32.2322 51.9609C32.2166 51.8907 32.1932 51.8127 32.1672 51.7399V51.7269ZM32.5416 52.9203L17.68 53.9811L17.641 54.2229L32.617 53.1621C32.591 53.0807 32.5659 53.0027 32.5416 52.9281V52.9203ZM32.9082 54.1137L17.472 55.2057C17.472 55.2863 17.446 55.3695 17.4304 55.4501L32.981 54.3503C32.9576 54.2801 32.9316 54.2021 32.9082 54.1215V54.1137ZM33.2696 55.3097L17.2666 56.4407L17.2276 56.6851L33.3476 55.5437C33.319 55.4735 33.2956 55.3955 33.28 55.3175L33.2696 55.3097ZM33.6258 56.5031L17.0664 57.6757L17.0274 57.9201L33.696 56.7397L33.6258 56.5031ZM33.9716 57.6991L16.8714 58.9107C16.8714 58.9939 16.848 59.0745 16.835 59.1525L34.0392 57.9357C34.0158 57.8681 33.995 57.7901 33.9716 57.7199V57.6991ZM34.294 58.8977L16.6998 60.1431C16.6998 60.2315 16.6816 60.3121 16.6738 60.3849L34.3538 59.1343C34.3382 59.0719 34.32 58.9939 34.294 58.9055V58.8977Z" fill="#030402"/>
<path d="M22.6566 43.1808C23.0336 46.4334 25.6752 56.3706 28.3142 57.2572C30.6542 58.0372 36.7642 56.771 39.5462 56.251C40.5602 56.0612 39.2862 47.5124 38.293 47.983C37.097 48.5472 30.6568 49.6106 30.3448 49.4546C30.0328 49.2986 27.7682 45.7184 25.0174 41.3946C22.4226 37.3022 22.4226 41.1424 22.6566 43.1808Z" fill="#EB9481"/>
<path d="M37.3179 48.5654C37.3179 48.5654 40.0037 46.9456 41.8107 45.9654C42.8169 45.422 44.6291 44.642 45.5521 44.5796C46.9327 44.4886 52.7671 44.9878 52.6761 46.3996C52.5955 47.6814 47.6373 46.618 47.6373 46.618C47.6373 46.618 52.7333 47.2498 52.3511 48.776C51.9689 50.3022 46.5401 48.36 46.5401 48.36C46.5401 48.36 51.7401 49.14 51.1083 50.6428C50.6221 51.7868 45.5937 50.2996 45.5937 50.2996C45.5937 50.2996 50.0787 50.9886 49.6289 52.1846C49.1323 53.508 44.4055 52.4264 44.4055 52.4264C42.7519 55.2864 40.8799 56.0898 39.3511 56.2744C39.0001 56.316 37.3179 48.5654 37.3179 48.5654Z" fill="#EB9481"/>
<path d="M46.127 46.3346C49.9178 46.5114 51.7222 47.762 51.6676 47.7386C50.3676 47.1822 48.2538 46.7714 47.6584 46.6648C47.063 46.5582 46.7172 46.462 46.1218 46.3554C46.1088 46.3528 46.114 46.332 46.127 46.3346Z" fill="#263238"/>
<path d="M45.4664 48.438C47.0032 48.4399 48.5274 48.7164 49.967 49.2544C50.019 49.2778 49.9956 49.296 49.9384 49.283C49.1844 49.127 46.2204 48.5732 45.4638 48.4536C45.4508 48.4536 45.456 48.438 45.4664 48.438Z" fill="#263238"/>
<path d="M44.7747 50.2086C45.9656 50.2372 47.1408 50.4867 48.2405 50.9444C48.2951 50.9652 48.2587 50.9912 48.1989 50.9782C47.0523 50.7182 46.1527 50.4946 44.7721 50.2502C44.7487 50.245 44.7487 50.2086 44.7747 50.2086Z" fill="#263238"/>
<path d="M28.7485 46.9299L23.8085 50.9287C23.8085 50.9287 22.7685 46.4593 22.4253 43.1781C22.0821 39.8969 22.9167 37.9625 24.8641 40.7601C26.8115 43.5577 28.7485 46.9299 28.7485 46.9299Z" fill="#F15F42"/>
<path opacity="0.1" d="M26.4163 43.1054L22.8335 46.0694L22.8803 46.345L26.5463 43.3108L26.4163 43.1054ZM27.0715 44.1454L23.0805 47.4474C23.0961 47.5384 23.1143 47.6294 23.1325 47.7074L27.1989 44.343L27.0715 44.1454ZM27.7163 45.1854L23.3483 48.7994C23.3639 48.8904 23.3821 48.9788 23.4003 49.0594L27.8411 45.3856L27.7163 45.1854ZM28.3481 46.2384L23.6291 50.1384C23.6499 50.2346 23.6681 50.323 23.6863 50.3984L28.4703 46.4386L28.3481 46.2384Z" fill="#030402"/>
<path d="M27.9217 46.0927C27.5369 46.3371 27.1755 46.6283 26.8141 46.9091C26.4527 47.1899 26.1043 47.4577 25.7533 47.7385C25.0383 48.3027 24.3233 48.8591 23.6577 49.4779C23.6539 49.481 23.6515 49.4855 23.651 49.4904C23.6505 49.4953 23.652 49.5001 23.6551 49.5039C23.6582 49.5077 23.6626 49.5101 23.6675 49.5106C23.6724 49.5111 23.6773 49.5096 23.6811 49.5065C24.4325 48.9865 25.1397 48.4275 25.8495 47.8607C26.1961 47.5817 26.5428 47.3 26.8895 47.0157C27.2431 46.7271 27.6071 46.4411 27.9295 46.1213C27.9313 46.1191 27.9326 46.1164 27.9332 46.1136C27.9338 46.1108 27.9337 46.1078 27.9329 46.105C27.9322 46.1022 27.9307 46.0996 27.9288 46.0975C27.9268 46.0954 27.9244 46.0937 27.9217 46.0927Z" fill="#263238"/>
<path d="M24.4115 50.44C24.2217 50.6194 24.0241 50.791 23.8291 50.96L23.7771 51.0042L23.7589 50.9366C23.6237 50.4452 23.4989 49.9512 23.3793 49.4546C23.2597 48.958 23.1531 48.4614 23.0673 47.9596C22.9815 47.4578 22.8853 46.956 22.8073 46.4516C22.7293 45.9472 22.6773 45.4402 22.6357 44.9306C22.7475 45.4298 22.8437 45.929 22.9425 46.4282L23.2389 47.9232L23.8317 50.9158L23.7615 50.8924C23.9851 50.7416 24.1957 50.583 24.4115 50.44Z" fill="#263238"/>
<path d="M22.4692 45.8562C22.5732 46.0668 22.6642 46.2748 22.7552 46.4828C22.8462 46.6908 22.9346 46.8988 23.0152 47.125C22.8578 46.9519 22.7296 46.7543 22.6356 46.54C22.5899 46.433 22.5525 46.3226 22.5238 46.2098C22.4896 46.0949 22.4713 45.976 22.4692 45.8562Z" fill="#263238"/>
<path d="M26.0884 42.5958C26.3484 42.9286 26.6084 43.2744 26.8424 43.6228C27.0764 43.9712 27.3156 44.3274 27.5418 44.6862C27.768 45.045 27.9864 45.409 28.1944 45.7808C28.4035 46.1518 28.5927 46.5337 28.7612 46.9248L28.626 47.0262L28.7404 46.904V46.9222C28.5194 46.5582 28.2932 46.202 28.0618 45.8458L27.3832 44.772C27.1622 44.4132 26.936 44.0518 26.7228 43.6852C26.5096 43.3186 26.2886 42.9702 26.0884 42.5958Z" fill="#263238"/>
<path d="M26.7617 43.134C26.8913 43.2866 26.9894 43.4633 27.0503 43.654C27.116 43.8407 27.1409 44.0393 27.1231 44.2364C27.0815 44.1454 27.0529 44.0544 27.0191 43.9634L26.9255 43.7034C26.8683 43.5058 26.8059 43.329 26.7617 43.134Z" fill="#263238"/>
<path d="M27.1205 41.184C26.2417 41.3972 24.5205 39.9542 23.9173 38.8674C23.8757 38.792 23.9849 38.0016 24.0707 37.0474C24.1227 36.4598 24.1643 35.8072 24.1591 35.2066C24.1591 35.0844 24.5777 35.308 24.5777 35.308L25.3577 35.4874L27.9291 36.0906C27.7211 36.8425 27.605 37.6169 27.5833 38.3968C27.5858 38.4789 27.5954 38.5607 27.6119 38.6412C27.6119 38.6412 27.6119 38.6672 27.6119 38.6828C27.6951 39.1378 27.9707 40.9734 27.1205 41.184Z" fill="#EB9481"/>
<path d="M27.6095 38.6308C27.6095 38.6308 27.6095 38.6568 27.6095 38.6724C27.4822 38.6913 27.3534 38.6991 27.2247 38.6958C24.6923 38.6594 24.3491 35.4432 24.3491 35.4432L25.3501 35.477L27.9215 36.0802C27.7135 36.8321 27.5973 37.6065 27.5757 38.3864C27.5799 38.4687 27.5912 38.5504 27.6095 38.6308Z" fill="#263238"/>
<path d="M23.4987 31.1999C23.1711 32.5571 24.1071 36.3583 25.1055 37.1591C26.5511 38.3187 28.8053 38.3031 29.7621 36.5897C30.6903 34.9283 29.3825 29.9935 28.2801 29.2785C26.6525 28.2333 23.9797 29.2057 23.4987 31.1999Z" fill="#EB9481"/>
<path d="M27.1675 33.6518C27.1675 33.6518 27.1493 33.6674 27.1519 33.6778C27.2221 33.9378 27.2585 34.2368 27.0479 34.3772C27.0479 34.3772 27.0479 34.3928 27.0479 34.3902C27.3261 34.2836 27.2741 33.8806 27.1675 33.6518Z" fill="#263238"/>
<path d="M26.8739 33.4385C26.4527 33.5061 26.6139 34.3407 27.0091 34.2783C27.4043 34.2159 27.2249 33.3813 26.8739 33.4385Z" fill="#263238"/>
<path d="M28.7197 33.2799C28.7197 33.2799 28.7405 33.2799 28.7431 33.3007C28.7873 33.5607 28.8809 33.8519 29.1305 33.8909V33.9039C28.8393 33.9221 28.7197 33.5399 28.7197 33.2799Z" fill="#263238"/>
<path d="M28.8965 32.9654C29.3047 32.851 29.5049 33.6778 29.1253 33.7844C28.7457 33.891 28.5533 33.0616 28.8965 32.9654Z" fill="#263238"/>
<path d="M26.4679 33.1213C26.5704 33.0674 26.6702 33.0084 26.7669 32.9445C26.8769 32.8934 26.9679 32.8087 27.0269 32.7027C27.0394 32.6651 27.0393 32.6245 27.0267 32.5869C27.014 32.5494 26.9894 32.517 26.9567 32.4947C26.8841 32.4615 26.804 32.4481 26.7245 32.4558C26.6451 32.4636 26.5691 32.4923 26.5043 32.5389C26.3592 32.6124 26.2469 32.7377 26.1897 32.8899C26.1762 32.9271 26.1746 32.9675 26.1849 33.0057C26.1953 33.0439 26.2172 33.0779 26.2476 33.1032C26.278 33.1285 26.3155 33.1438 26.3549 33.147C26.3943 33.1503 26.4337 33.1413 26.4679 33.1213Z" fill="#263238"/>
<path d="M29.1359 32.4791C29.0195 32.4796 28.9032 32.4735 28.7875 32.4609C28.6632 32.4704 28.5391 32.4394 28.4339 32.3725C28.4051 32.3449 28.3862 32.3085 28.3801 32.269C28.374 32.2296 28.381 32.1892 28.4001 32.1541C28.4492 32.0914 28.514 32.0427 28.588 32.013C28.662 31.9833 28.7424 31.9737 28.8213 31.9851C28.9845 31.9849 29.1419 32.0451 29.2633 32.1541C29.2887 32.1806 29.3059 32.2139 29.313 32.2499C29.3201 32.2859 29.3168 32.3231 29.3034 32.3573C29.29 32.3915 29.2671 32.4211 29.2374 32.4427C29.2078 32.4643 29.1725 32.4769 29.1359 32.4791Z" fill="#263238"/>
<path d="M27.3832 35.9918C27.4533 36.0593 27.546 36.0983 27.6432 36.101C27.737 36.0789 27.8254 36.0382 27.9032 35.9814C27.9032 35.9814 27.9214 35.9814 27.9032 35.9814C27.8764 36.0393 27.8344 36.0889 27.7818 36.125C27.7292 36.1611 27.6679 36.1825 27.6042 36.1868C27.547 36.1858 27.4914 36.1674 27.4449 36.1339C27.3984 36.1004 27.3633 36.0536 27.3442 35.9996C27.352 35.9944 27.3702 35.984 27.3832 35.9918Z" fill="#263238"/>
<path d="M27.5001 35.165C27.586 35.2542 27.6896 35.3246 27.8042 35.3716C27.9188 35.4186 28.0419 35.4412 28.1657 35.438C28.2741 35.4371 28.3818 35.4204 28.4855 35.3886C28.5062 35.3853 28.5263 35.3792 28.5453 35.3704L28.5999 35.36C28.6128 35.3545 28.6236 35.3449 28.6307 35.3327C28.6377 35.3205 28.6406 35.3064 28.6389 35.2924C28.6397 35.2838 28.6397 35.2751 28.6389 35.2664V35.243C28.6051 35.0428 28.5245 34.7438 28.5245 34.7438C28.6051 34.7646 29.0081 34.8582 28.9821 34.7438C28.7804 33.8496 28.4877 32.9784 28.1085 32.1438C28.1052 32.1394 28.1007 32.1362 28.0955 32.1346C28.0902 32.133 28.0847 32.133 28.0795 32.1347C28.0743 32.1365 28.0698 32.1398 28.0666 32.1442C28.0634 32.1486 28.0617 32.154 28.0617 32.1594C28.2463 32.9862 28.5817 33.774 28.7689 34.6008C28.6243 34.5661 28.4755 34.5521 28.3269 34.5592C28.3009 34.5592 28.4907 35.1338 28.4985 35.2248C28.3383 35.2734 28.1699 35.2895 28.0034 35.2721C27.8368 35.2547 27.6754 35.2041 27.5287 35.1234C27.4975 35.126 27.4793 35.1468 27.5001 35.165Z" fill="#263238"/>
<path d="M28.3404 35.3132C28.2592 35.4765 28.1374 35.6161 27.9868 35.7188C27.9025 35.773 27.8034 35.7993 27.7034 35.7942C27.4876 35.7942 27.4434 35.594 27.4434 35.4224C27.4483 35.3343 27.4632 35.2471 27.4876 35.1624C27.7486 35.3019 28.0473 35.3548 28.3404 35.3132Z" fill="#263238"/>
<path d="M27.9941 35.7188C27.9098 35.773 27.8107 35.7994 27.7107 35.7942C27.4949 35.7942 27.4507 35.594 27.4507 35.4224C27.5614 35.4035 27.6753 35.4225 27.7739 35.4762C27.8725 35.53 27.9501 35.6155 27.9941 35.7188Z" fill="#FF98B9"/>
<path d="M23.8603 34.5228C23.8603 34.5228 22.5005 32.3778 22.5967 31.1194C22.6409 30.55 23.4001 30.16 23.4001 30.16C23.3357 29.9295 23.3371 29.6855 23.4042 29.4558C23.4713 29.226 23.6013 29.0196 23.7797 28.86C24.4375 28.2152 26.0651 28.3218 26.0651 28.3218C26.0651 28.3218 27.0869 26.7774 28.5897 27.3494C30.0925 27.9214 29.1591 29.6322 29.1591 29.6322C29.1591 29.6322 29.7207 30.3966 28.3973 31.0336C27.0739 31.6706 24.4375 31.1246 24.4375 31.1246C24.5793 32.0374 24.5845 32.9662 24.4531 33.8806C24.4227 34.0317 24.3514 34.1716 24.2468 34.2849C24.1422 34.3982 24.0085 34.4805 23.8603 34.5228Z" fill="#263238"/>
<path d="M26.3275 28.34C25.9924 28.21 25.6335 28.1524 25.2745 28.171C24.9535 28.1713 24.635 28.2276 24.3333 28.3374C24.061 28.4201 23.8165 28.5758 23.6263 28.7875C23.4362 28.9993 23.3075 29.259 23.2543 29.5386C23.2354 29.6833 23.2457 29.8303 23.2845 29.971C23.3234 30.1117 23.39 30.2431 23.4805 30.3576C23.4805 30.3576 23.5013 30.3576 23.4805 30.3576C23.1269 29.939 23.2933 29.2708 23.6417 28.9068C24.0696 28.5186 24.6241 28.2996 25.2017 28.2906C25.5716 28.2776 25.9417 28.309 26.3041 28.3842C26.307 28.3857 26.3102 28.3867 26.3135 28.387C26.3168 28.3873 26.3201 28.387 26.3232 28.386C26.3263 28.385 26.3293 28.3835 26.3318 28.3814C26.3343 28.3793 26.3364 28.3767 26.3379 28.3738C26.3395 28.3709 26.3404 28.3677 26.3407 28.3644C26.3411 28.3612 26.3407 28.3579 26.3397 28.3547C26.3388 28.3516 26.3372 28.3487 26.3351 28.3462C26.333 28.3436 26.3305 28.3415 26.3275 28.34Z" fill="#263238"/>
<path d="M29.6766 28.0384C29.6028 27.8425 29.4823 27.6676 29.3255 27.529C29.1687 27.3903 28.9804 27.2921 28.777 27.2428C28.3104 27.1129 27.814 27.1413 27.3652 27.3234C26.9154 27.5106 26.5233 27.8139 26.229 28.2022C26.229 28.2022 26.229 28.223 26.2446 28.2022C26.5093 27.8593 26.8614 27.5941 27.264 27.4344C27.6667 27.2747 28.1049 27.2265 28.5326 27.2948C28.7301 27.3082 28.921 27.371 29.0878 27.4775C29.2546 27.584 29.392 27.7307 29.4872 27.9042C29.5825 28.0777 29.6327 28.2723 29.633 28.4702C29.6334 28.6681 29.584 28.863 29.4894 29.0368C29.2744 29.4449 28.9492 29.7845 28.5508 30.017C28.5508 30.017 28.5508 30.0352 28.5508 30.017C28.9295 29.8231 29.2525 29.5358 29.4894 29.1824C29.5992 29.0155 29.6726 28.8274 29.7049 28.6303C29.7371 28.4332 29.7275 28.2315 29.6766 28.0384Z" fill="#263238"/>
<path d="M28.7275 31.0882C28.1385 31.3419 27.5019 31.4661 26.8607 31.4522C26.1939 31.449 25.5295 31.3723 24.8795 31.2234C24.5025 31.1402 24.1255 31.044 23.7537 30.94C23.7537 30.94 23.7355 30.9556 23.7537 30.9582C24.4081 31.2233 25.0888 31.4185 25.7843 31.5406C26.432 31.6482 27.0944 31.6279 27.7343 31.4808C28.0843 31.397 28.4224 31.2695 28.7405 31.1012C28.7405 31.1012 28.7353 31.0856 28.7275 31.0882Z" fill="#263238"/>
<path d="M27.0167 35.1C26.8048 35.1187 26.592 35.0775 26.4024 34.9812C26.2128 34.8849 26.0541 34.7373 25.9442 34.5552C25.8343 34.3732 25.7777 34.1639 25.7809 33.9513C25.7841 33.7386 25.8468 33.5312 25.9621 33.3524C26.0773 33.1737 26.2404 33.0309 26.4328 32.9403C26.6252 32.8497 26.8391 32.8149 27.0503 32.8398C27.2615 32.8648 27.4614 32.9485 27.6274 33.0815C27.7934 33.2145 27.9187 33.3913 27.9891 33.592C28.0459 33.7554 28.0647 33.9295 28.0441 34.1012C28.0236 34.2729 27.9642 34.4377 27.8705 34.583C27.7768 34.7284 27.6512 34.8505 27.5032 34.94C27.3553 35.0296 27.1889 35.0843 27.0167 35.1ZM26.8295 32.9862C26.7479 32.9933 26.6675 33.0107 26.5903 33.0382C26.3545 33.1213 26.1592 33.2912 26.0442 33.5133C25.9293 33.7353 25.9033 33.9928 25.9716 34.2334C26.0398 34.4739 26.1972 34.6794 26.4116 34.808C26.6261 34.9366 26.8815 34.9786 27.1258 34.9255C27.3701 34.8723 27.585 34.7281 27.7268 34.5221C27.8685 34.3161 27.9263 34.0638 27.8886 33.8166C27.8508 33.5695 27.7202 33.346 27.5235 33.1917C27.3267 33.0374 27.0785 32.9639 26.8295 32.9862Z" fill="#F15F42"/>
<path d="M29.5671 34.5436C29.1355 34.5826 28.7013 34.1744 28.5817 33.592C28.5179 33.3156 28.5434 33.0262 28.6545 32.7652C28.6933 32.6493 28.7616 32.5454 28.8525 32.4637C28.9435 32.382 29.0541 32.3252 29.1736 32.2991C29.293 32.2729 29.4172 32.2781 29.534 32.3142C29.6508 32.3503 29.7563 32.4161 29.8401 32.5052C30.0462 32.7009 30.1854 32.9565 30.2379 33.2358C30.3653 33.8494 30.0975 34.424 29.6425 34.5202L29.5671 34.5436ZM29.2655 32.448H29.2083C29.1141 32.4719 29.0271 32.5182 28.9547 32.5829C28.8823 32.6476 28.8266 32.7289 28.7923 32.8198C28.6963 33.0519 28.6745 33.308 28.7299 33.553C28.8417 34.073 29.2343 34.4552 29.6113 34.3772C29.9883 34.2992 30.1989 33.8026 30.0897 33.2722C30.0432 33.025 29.9204 32.7986 29.7387 32.6248C29.6764 32.5641 29.6022 32.517 29.5207 32.4866C29.4392 32.4562 29.3523 32.443 29.2655 32.448Z" fill="#F15F42"/>
<path d="M27.9785 33.7168L27.8589 33.6232C27.9993 33.4464 28.3477 33.1734 28.6805 33.4074L28.5999 33.54C28.2957 33.3216 27.9915 33.7012 27.9785 33.7168Z" fill="#F15F42"/>
<path d="M23.0802 35.035L22.9346 34.996C22.9528 34.9258 23.1296 34.3252 23.4546 34.2004C23.7796 34.0756 25.7946 33.8598 25.8752 33.8494L25.8908 34.0002C25.3084 34.0652 23.7406 34.2602 23.5092 34.3434C23.2778 34.4266 23.14 34.8712 23.0802 35.035Z" fill="#F15F42"/>
<path d="M24.5076 34.2913C24.5076 34.2913 23.5404 33.1213 23.0022 33.4749C22.464 33.8285 23.2621 35.5783 23.9433 35.7707C24.0289 35.8015 24.1199 35.8146 24.2107 35.8093C24.3014 35.8039 24.3902 35.7803 24.4716 35.7397C24.553 35.6991 24.6253 35.6425 24.6842 35.5732C24.7431 35.5039 24.7874 35.4234 24.8144 35.3365L24.5076 34.2913Z" fill="#EB9481"/>
<path d="M23.2441 33.9715C23.2441 33.9715 23.2311 33.9845 23.2441 33.9897C23.7225 34.1405 24.0007 34.5487 24.2087 34.9829C24.1781 34.9385 24.1382 34.9012 24.0918 34.8737C24.0453 34.8462 23.9935 34.8291 23.9398 34.8237C23.8861 34.8182 23.8319 34.8246 23.7809 34.8422C23.7299 34.8598 23.6833 34.8883 23.6445 34.9257C23.6445 34.9257 23.6445 34.9517 23.6601 34.9491C23.7391 34.9166 23.8264 34.9094 23.9097 34.9284C23.9931 34.9475 24.0684 34.992 24.1255 35.0557C24.2242 35.1633 24.3114 35.2809 24.3855 35.4067C24.4115 35.4457 24.4843 35.4067 24.4661 35.3729C24.4089 34.7697 23.8837 33.9793 23.2441 33.9715Z" fill="#263238"/>
<path d="M39.1118 63.6687L38.9766 63.5283L39.3562 63.1695L39.4888 63.3125L39.1118 63.6687Z" fill="#263238"/>
<path d="M40.8199 84.2764C40.4663 84.2764 40.1127 84.2478 39.7799 84.2114L39.8007 84.019C40.1387 84.0528 40.4845 84.0736 40.8407 84.0814L40.8199 84.2764ZM42.1199 84.2556V84.0606C42.4579 84.0398 42.8063 84.0112 43.1599 83.9696L43.1833 84.1646C42.8297 84.2036 42.4787 84.24 42.1355 84.2556H42.1199ZM38.4799 84.0138C38.1315 83.941 37.7883 83.85 37.4607 83.7538L37.5205 83.5692C37.8403 83.668 38.1757 83.7564 38.5189 83.8292L38.4799 84.0138ZM44.4781 83.967L44.4443 83.7746C44.7771 83.7122 45.1203 83.642 45.4583 83.5614L45.5051 83.7512C45.1593 83.8318 44.8135 83.9046 44.4755 83.98L44.4781 83.967ZM46.7687 83.4158L46.7141 83.2286C47.0443 83.1324 47.3771 83.0258 47.7047 82.914L47.7671 83.0986C47.4343 83.2 47.0989 83.317 46.7661 83.4158H46.7687ZM36.2335 83.2728C35.9159 83.1225 35.6077 82.9532 35.3105 82.7658L35.4145 82.602C35.7048 82.7851 36.0061 82.95 36.3167 83.096L36.2335 83.2728ZM48.9969 82.6514L48.9267 82.4694C49.2439 82.3446 49.5689 82.2094 49.8887 82.0742L49.9641 82.2536C49.6417 82.3914 49.3141 82.5266 48.9943 82.6514H48.9969ZM34.2601 81.9676C33.9997 81.7303 33.7564 81.4749 33.5321 81.2032L33.6829 81.0784C33.9011 81.344 34.1383 81.5934 34.3927 81.8246L34.2601 81.9676ZM51.1601 81.7076L51.0769 81.5334C51.3837 81.3852 51.6957 81.2292 52.0077 81.068L52.0961 81.2422C51.7763 81.406 51.4617 81.562 51.1523 81.7102L51.1601 81.7076ZM53.2401 80.6208L53.1439 80.4518C53.4472 80.2785 53.7462 80.1051 54.0409 79.9318L54.1423 80.0982C53.8459 80.2776 53.5443 80.4518 53.2401 80.6234V80.6208ZM32.7963 80.1008C32.6293 79.7905 32.4859 79.468 32.3673 79.1362L32.5519 79.0712C32.6682 79.3935 32.8072 79.7072 32.9679 80.0098L32.7963 80.1008ZM55.2499 79.404L55.1433 79.2402C55.4362 79.0512 55.7248 78.8588 56.0091 78.663L56.1183 78.8242C55.8323 79.0244 55.5437 79.2168 55.2499 79.4066V79.404ZM57.1817 78.0676L57.0673 77.9116C57.3481 77.7036 57.6237 77.4956 57.8967 77.2824L58.0163 77.4358C57.7407 77.6516 57.4599 77.8622 57.1817 78.0702V78.0676ZM32.0345 77.8596C31.9757 77.5156 31.9392 77.1682 31.9253 76.8196H32.1177C32.1327 77.163 32.1691 77.5051 32.2269 77.844L32.0345 77.8596ZM59.0355 76.622L58.9107 76.4712C59.1707 76.2502 59.4463 76.0266 59.7089 75.8004L59.8363 75.9486C59.5711 76.18 59.3059 76.4036 59.0355 76.6246V76.622ZM32.1541 75.5144L31.9591 75.4962C31.9929 75.1556 32.0423 74.8072 32.1125 74.4562L32.3023 74.4926C32.2399 74.841 32.1853 75.1842 32.1541 75.517V75.5144ZM60.8165 75.0854L60.6865 74.9424C60.9465 74.7084 61.2065 74.4744 61.4509 74.2378L61.5835 74.3808C61.3287 74.62 61.0739 74.8566 60.8165 75.088V75.0854ZM62.5273 73.4838L62.3921 73.3434L63.1357 72.6154L63.2735 72.7532L62.5273 73.4838ZM32.6273 73.2368L32.4401 73.1796C32.5415 72.8546 32.6559 72.5218 32.7859 72.189L32.9653 72.2592C32.8301 72.5894 32.7157 72.9196 32.6169 73.2394L32.6273 73.2368ZM64.2043 71.8276L64.0639 71.6924C64.3083 71.4454 64.5501 71.1958 64.7919 70.9462L64.9323 71.0814L64.2043 71.8276ZM33.4827 71.071L33.3085 70.9852C33.4567 70.6784 33.6179 70.3638 33.7895 70.0544L33.9611 70.148C33.7791 70.46 33.6205 70.7694 33.4723 71.0736L33.4827 71.071ZM65.8371 70.1428L65.6967 70.0076L66.4169 69.2536L66.5573 69.3888L65.8371 70.1428ZM34.6371 69.0326L34.4733 68.9286C34.6553 68.64 34.8529 68.3488 35.0557 68.0576L35.2143 68.172C34.9907 68.4606 34.7957 68.7492 34.6137 69.0352L34.6371 69.0326ZM67.4699 68.4424L67.3269 68.3098L68.0471 67.5532L68.1875 67.6884L67.4699 68.4424ZM35.9891 67.1268L35.8357 67.0072C36.0437 66.7472 36.2647 66.4664 36.4935 66.1934L36.6417 66.3182C36.3999 66.5912 36.1711 66.8642 35.9657 67.1294L35.9891 67.1268ZM69.0897 66.7472L68.9493 66.612C69.1885 66.3624 69.4303 66.1128 69.6747 65.8632L69.8151 65.9984C69.5516 66.2497 69.302 66.5002 69.0663 66.7498L69.0897 66.7472ZM37.4997 65.3406L37.3567 65.2106C37.5881 64.9506 37.8273 64.7036 38.0743 64.4488L38.2121 64.584C37.9443 64.8388 37.6999 65.0936 37.4763 65.3432L37.4997 65.3406ZM70.7251 65.0806L70.5873 64.9454C70.8317 64.6984 71.0761 64.4514 71.3257 64.2044L71.4609 64.3448L70.7251 65.0806ZM72.3917 63.4322L72.2565 63.2918C72.5035 63.05 72.7557 62.8082 73.0079 62.569L73.1431 62.7094C72.8649 62.9408 72.6153 63.18 72.3683 63.4218L72.3917 63.4322ZM74.0921 61.8202L73.9621 61.6772C74.2221 61.4432 74.4821 61.2092 74.7421 60.9726L74.8747 61.1182L74.0921 61.8202ZM75.8393 60.2602L75.7093 60.112C75.9693 59.8858 76.2293 59.6596 76.4893 59.4334L76.6167 59.5816C76.3385 59.8 76.0759 60.021 75.8159 60.2472L75.8393 60.2602ZM77.6307 58.7496L77.5085 58.5988C77.7685 58.3804 78.0467 58.162 78.3223 57.9462L78.4419 58.097L77.6307 58.7496ZM79.4715 57.3014L79.3519 57.1454C79.6275 56.9374 79.9057 56.7268 80.1891 56.5188L80.3035 56.6774C79.9993 56.8724 79.7211 57.0804 79.4481 57.2884L79.4715 57.3014ZM81.3591 55.9156L81.2473 55.7544C81.5281 55.5568 81.8141 55.3566 82.1027 55.159L82.2119 55.3176C81.8999 55.5048 81.6165 55.7024 81.3357 55.9L81.3591 55.9156ZM83.2935 54.5922L83.1869 54.431C83.4729 54.2412 83.7667 54.0514 84.0631 53.8616L84.1671 54.0254C83.8473 54.2022 83.5561 54.3894 83.2701 54.5792L83.2935 54.5922ZM85.2721 53.3364L85.1681 53.17C85.4619 52.9906 85.7609 52.8112 86.0625 52.6318L86.1613 52.8008C85.8389 52.9646 85.5399 53.144 85.2487 53.3234L85.2721 53.3364ZM87.2871 52.1456L87.1909 51.9766C87.4925 51.805 87.7941 51.636 88.1035 51.4566L88.1971 51.6256C87.8799 51.792 87.5627 51.9636 87.2637 52.1326L87.2871 52.1456ZM89.3437 51.0198L89.2501 50.8456C89.5569 50.6844 89.8637 50.5232 90.1783 50.3646L90.2667 50.5388C89.9313 50.6844 89.6219 50.8456 89.3203 51.0068L89.3437 51.0198ZM91.4237 49.9538L91.3379 49.7796C91.6473 49.6262 91.9593 49.4754 92.2765 49.3246L92.3623 49.4988C92.0399 49.6366 91.7149 49.79 91.4055 49.9408L91.4237 49.9538ZM93.5401 48.9476L93.4595 48.7708L94.4111 48.3418L94.4917 48.5186L93.5401 48.9476ZM95.6851 47.9986L95.6071 47.8192C95.9269 47.684 96.2467 47.5592 96.5717 47.4162L96.6445 47.5956L95.6851 47.9986Z" fill="#263238"/>
<path d="M97.8975 47.06L97.8247 46.878L98.3083 46.6882L98.3811 46.8676L97.8975 47.06Z" fill="#263238"/>
<path d="M97.2787 43.8101L95.5601 48.5291L99.1689 45.7133L112.959 40.7109L97.2787 43.8101Z" fill="#F15F42"/>
<path opacity="0.1" d="M97.2787 43.8101L95.5601 48.5291L99.1689 45.7133L112.959 40.7109L97.2787 43.8101Z" fill="black"/>
<path d="M99.6291 46.813L95.5601 48.529L99.1689 45.7132L99.6291 46.813Z" fill="#263238"/>
<path d="M99.1689 45.7133L112.959 40.7109L101.647 51.7505L99.1689 45.7133Z" fill="#F15F42"/>
<path d="M97.2787 43.81L91.5483 40.1102L112.959 40.7108L97.2787 43.81Z" fill="#F15F42"/>
</svg>
