<svg width="24" height="24" viewBox="0 0 24 24" fill="none" xmlns="http://www.w3.org/2000/svg">
<path fill-rule="evenodd" clip-rule="evenodd" d="M2.9214 16.1973L2.24087 16.5125L2.26416 16.5628C2.74237 17.5948 3.01547 18.1841 2.78372 18.9906C2.73848 19.148 2.66921 19.2981 2.57345 19.5055C2.54526 19.5665 2.51477 19.6325 2.48193 19.7052C2.35571 19.9844 2.19594 20.3628 2.16118 20.7861C2.06787 21.9222 3.06842 22.8429 4.1929 22.6555L4.06965 21.9157L4.19291 22.6555C4.82849 22.5496 5.37238 22.2688 5.77258 22.0621C5.87095 22.0113 5.96065 21.965 6.04089 21.9269C6.46591 21.7249 6.82155 21.6193 7.35382 21.7445C7.46428 21.7705 7.83036 21.8998 8.72366 22.2194L8.97627 21.5132L8.72367 22.2194C9.72211 22.5765 10.786 22.75 12 22.75C17.9371 22.75 22.75 17.9371 22.75 12C22.75 6.06294 17.9371 1.25 12 1.25C6.06294 1.25 1.25 6.06294 1.25 12C1.25 13.6102 1.60482 15.1395 2.24087 16.5125L2.9214 16.1973ZM8 9.25C7.58579 9.25 7.25 9.58579 7.25 10C7.25 10.4142 7.58579 10.75 8 10.75H16C16.4142 10.75 16.75 10.4142 16.75 10C16.75 9.58579 16.4142 9.25 16 9.25H8ZM7.25 14C7.25 13.5858 7.58579 13.25 8 13.25H12C12.4142 13.25 12.75 13.5858 12.75 14C12.75 14.4142 12.4142 14.75 12 14.75H8C7.58579 14.75 7.25 14.4142 7.25 14Z" fill="#F15F42"/>
</svg>
