<svg width="124" height="124" viewBox="0 0 124 124" fill="none" xmlns="http://www.w3.org/2000/svg">
<path d="M115.196 28.1405C114.802 27.4792 114.389 26.8261 113.956 26.1813C108.21 17.6625 98.3171 11.837 88.5856 9.20327C84.316 8.0675 79.9297 7.42757 75.5135 7.29615C46.5917 6.30415 35.0721 29.1201 25.5142 34.9903C15.9563 40.8605 1.23999 50.9218 2.23199 71.9993C3.22399 93.0769 18.4065 112.919 47.8169 114.159C77.2272 115.399 79.1889 102.151 95.6089 97.2482C106.476 94.0044 114.209 83.0477 117.979 72.9219C123.132 59.1182 122.889 41.1953 115.196 28.1405Z" fill="#F15F42"/>
<path opacity="0.7" d="M115.196 28.1405C114.802 27.4792 114.389 26.8261 113.956 26.1813C108.21 17.6625 98.3171 11.837 88.5856 9.20327C84.316 8.0675 79.9297 7.42757 75.5135 7.29615C46.5917 6.30415 35.0721 29.1201 25.5142 34.9903C15.9563 40.8605 1.23999 50.9218 2.23199 71.9993C3.22399 93.0769 18.4065 112.919 47.8169 114.159C77.2272 115.399 79.1889 102.151 95.6089 97.2482C106.476 94.0044 114.209 83.0477 117.979 72.9219C123.132 59.1182 122.889 41.1953 115.196 28.1405Z" fill="white"/>
<path d="M108.763 30.1294V29.3135H93.6697V17.2161H93.1787V29.3135H78.192V30.1294H93.1787V41.3291H78.192V42.1475H93.1787V53.3472H78.192V54.1631H93.1787V65.9307H93.6697V54.1631H108.763V53.3472H93.6697V42.1475H108.763V41.3291H93.6697V30.1294H108.763Z" fill="#263238" stroke="#263238" stroke-width="0.248" stroke-miterlimit="10"/>
<path d="M77.1578 16.234V67.2402H109.69V16.234H77.1578ZM108.592 65.5166H78.2565V17.9551H108.592V65.5166Z" fill="#263238" stroke="#263238" stroke-width="0.248" stroke-miterlimit="10"/>
<path d="M62.9921 80.3322C62.9933 80.3291 62.9938 80.3258 62.9937 80.3225C62.9936 80.3192 62.9928 80.316 62.9914 80.313C62.99 80.31 62.9881 80.3073 62.9856 80.305C62.9832 80.3028 62.9803 80.3011 62.9772 80.3C62.9741 80.2988 62.9708 80.2982 62.9675 80.2984C62.9642 80.2985 62.9609 80.2992 62.9579 80.3006C62.9549 80.302 62.9522 80.304 62.95 80.3064C62.9478 80.3089 62.9461 80.3117 62.945 80.3149C62.2165 82.0598 61.6407 83.8645 61.2238 85.7089C60.7985 87.5534 60.4781 89.4205 60.2641 91.3013L60.1302 92.7149C60.1103 92.9505 60.083 93.1861 60.0657 93.4217L60.0285 94.1309C60.0086 94.6046 59.9789 95.0783 59.964 95.552L59.9789 96.973L59.9938 97.6823C59.9938 97.9179 60.021 98.156 60.0384 98.3916C60.0731 98.8628 60.1029 99.3365 60.145 99.8077C60.2368 100.75 60.3781 101.685 60.522 102.62C60.5235 102.625 60.5268 102.63 60.5312 102.634C60.5357 102.637 60.5411 102.64 60.5468 102.64C60.5501 102.64 60.5535 102.64 60.5567 102.639C60.5599 102.638 60.5628 102.636 60.5652 102.633C60.5676 102.631 60.5694 102.628 60.5705 102.625C60.5716 102.622 60.572 102.618 60.5716 102.615C60.5716 102.141 60.5493 101.673 60.5394 101.199C60.5294 100.725 60.4848 100.261 60.4922 99.7903C60.4997 99.3191 60.4922 98.8479 60.4774 98.3792L60.4625 97.6749V96.9705V95.5619L60.4997 94.1557L60.5145 93.4514C60.5145 93.2158 60.5418 92.9827 60.5542 92.7471L60.641 91.3409C60.801 89.4682 61.0668 87.6061 61.4371 85.7634C61.7976 83.9115 62.3179 82.0943 62.9921 80.3322Z" fill="#263238"/>
<path d="M63.1929 87.6928C63.1945 87.6869 63.1939 87.6805 63.1911 87.675C63.1884 87.6695 63.1837 87.6653 63.178 87.663C63.1749 87.6618 63.1716 87.6613 63.1683 87.6614C63.165 87.6615 63.1617 87.6623 63.1587 87.6637C63.1557 87.665 63.153 87.667 63.1508 87.6695C63.1486 87.6719 63.1468 87.6748 63.1457 87.6779C62.3418 90.027 61.8068 92.4597 61.5511 94.9294C61.4271 96.1694 61.2882 97.3945 61.2709 98.6345C61.2414 99.876 61.2853 101.118 61.4023 102.355C61.4037 102.36 61.4065 102.364 61.4105 102.368C61.4145 102.371 61.4194 102.374 61.4246 102.374C61.4277 102.375 61.431 102.375 61.4341 102.375C61.4372 102.374 61.4402 102.373 61.4428 102.371C61.4454 102.369 61.4475 102.366 61.4491 102.364C61.4507 102.361 61.4516 102.358 61.4519 102.355C61.5957 101.115 61.6825 99.8894 61.7693 98.6593C61.8561 97.4293 61.8685 96.1967 61.9479 94.9666C62.1167 92.5082 62.5321 90.073 63.1879 87.6977L63.1929 87.6928Z" fill="#263238"/>
<path d="M67.275 90.2844C67.2703 90.2799 67.2641 90.2773 67.2576 90.2773C67.2511 90.2773 67.2449 90.2799 67.2402 90.2844C66.2196 90.9397 65.3005 91.741 64.5122 92.6628C64.1163 93.1285 63.7596 93.6262 63.4458 94.1508L63.2276 94.5649L63.054 94.9964C62.9959 95.138 62.9462 95.283 62.9052 95.4304C62.8606 95.5792 62.811 95.7231 62.7713 95.8719C62.4596 97.0495 62.2709 98.2563 62.2083 99.4728C62.1474 100.683 62.1922 101.896 62.3422 103.099C62.3438 103.104 62.347 103.109 62.3515 103.112C62.3559 103.116 62.3614 103.118 62.367 103.118C62.3702 103.119 62.3734 103.118 62.3764 103.117C62.3794 103.117 62.3821 103.115 62.3845 103.113C62.3868 103.111 62.3887 103.108 62.3899 103.105C62.3912 103.102 62.3919 103.099 62.3918 103.096L62.7043 99.5075C62.789 98.3203 62.9405 97.1388 63.1582 95.9686C63.1904 95.8223 63.2326 95.6834 63.2698 95.5395C63.3032 95.396 63.3446 95.2544 63.3938 95.1155L63.5401 94.7013L63.7286 94.3095C64.0125 93.7873 64.3393 93.2895 64.7057 92.8215C65.4341 91.8707 66.2971 91.031 67.2675 90.3291C67.2716 90.3272 67.2751 90.3244 67.2779 90.3208C67.2806 90.3173 67.2824 90.3131 67.2831 90.3087C67.2839 90.3043 67.2835 90.2998 67.2821 90.2956C67.2807 90.2913 67.2782 90.2875 67.275 90.2844Z" fill="#263238"/>
<path d="M65.2984 94.8947C64.7689 95.2811 64.343 95.7922 64.0584 96.3827C63.7586 96.964 63.5248 97.5771 63.3615 98.2104C63.3144 98.3667 63.2747 98.5254 63.24 98.6841L63.1284 99.1602C63.0694 99.4809 63.0289 99.8047 63.0069 100.13C63.0069 100.457 62.9945 100.782 63.0069 101.107C63.0305 101.432 63.0728 101.756 63.1333 102.077C63.1349 102.081 63.1375 102.085 63.141 102.089C63.1444 102.092 63.1486 102.095 63.1532 102.097C63.1564 102.097 63.1598 102.097 63.1631 102.097C63.1664 102.096 63.1695 102.095 63.1723 102.093C63.1751 102.091 63.1774 102.089 63.1793 102.086C63.1811 102.083 63.1823 102.08 63.1829 102.077C63.2581 101.762 63.3161 101.443 63.3565 101.122C63.4061 100.804 63.4557 100.492 63.4929 100.177C63.5301 99.8621 63.5797 99.5521 63.6045 99.2371C63.6293 98.9222 63.6715 98.6072 63.7409 98.2997C63.8499 97.6784 64.028 97.0711 64.2717 96.4893C64.4914 95.8961 64.8483 95.3633 65.3133 94.9343C65.3154 94.9322 65.3172 94.9297 65.3183 94.927C65.3195 94.9242 65.3201 94.9212 65.3201 94.9182C65.3201 94.9152 65.3195 94.9122 65.3183 94.9094C65.3172 94.9067 65.3154 94.9042 65.3133 94.9021C65.3092 94.8981 65.304 94.8955 65.2984 94.8947Z" fill="#263238"/>
<path d="M59.5745 98.4908C59.4406 96.8986 59.1777 95.3188 58.9297 93.744C58.6817 92.1692 58.4039 90.5944 58.1162 89.032C57.8286 87.4696 57.5062 85.8998 57.1664 84.3424C57.1676 84.3386 57.1679 84.3347 57.1673 84.3308C57.1667 84.3269 57.1652 84.3232 57.1629 84.3201C57.1606 84.3169 57.1576 84.3143 57.1541 84.3125C57.1506 84.3107 57.1468 84.3098 57.1428 84.3098C57.1389 84.3098 57.1351 84.3107 57.1316 84.3125C57.1281 84.3143 57.1251 84.3169 57.1228 84.3201C57.1205 84.3232 57.1189 84.3269 57.1183 84.3308C57.1177 84.3347 57.1181 84.3386 57.1193 84.3424C57.3921 85.9147 57.6376 87.4895 57.8633 89.0668C58.089 90.644 58.327 92.2188 58.5279 93.7986C58.7288 95.3784 58.8751 96.9656 59.071 98.5428L59.6538 103.287C59.6553 103.293 59.6584 103.298 59.6628 103.302C59.6672 103.306 59.6728 103.309 59.6786 103.309C59.6855 103.309 59.6921 103.307 59.6971 103.302C59.7022 103.298 59.7053 103.291 59.7059 103.285C59.7233 102.885 59.7233 102.486 59.7332 102.084C59.7431 101.683 59.7158 101.286 59.7109 100.886C59.7034 100.085 59.634 99.2893 59.5745 98.4908Z" fill="#263238"/>
<path d="M58.6197 98.4685C58.5329 97.8361 58.4188 97.2086 58.2973 96.5837L58.0741 95.6537C57.9997 95.3437 57.9303 95.0337 57.841 94.7261C57.5229 93.4903 57.1151 92.2794 56.6208 91.1029L56.4299 90.6639L56.2191 90.2349C56.0827 89.9472 55.9215 89.6719 55.7652 89.3917C55.4521 88.8345 55.065 88.3223 54.6145 87.8689C54.6124 87.8668 54.6099 87.865 54.6072 87.8639C54.6044 87.8627 54.6014 87.8621 54.5984 87.8621C54.5954 87.8621 54.5924 87.8627 54.5896 87.8639C54.5869 87.865 54.5844 87.8668 54.5823 87.8689C54.5777 87.8736 54.5752 87.8798 54.5752 87.8863C54.5752 87.8928 54.5777 87.899 54.5823 87.9037C55.0019 88.3735 55.3557 88.8983 55.6338 89.4636C55.7727 89.7463 55.919 90.0241 56.038 90.3167L56.2265 90.7507L56.3927 91.1946C56.8333 92.3752 57.1881 93.5861 57.4541 94.8179C57.598 95.4305 57.7021 96.0579 57.8137 96.6754L57.9625 97.6079C58.0171 97.9179 58.084 98.2279 58.1262 98.5404C58.2254 99.1629 58.342 99.7804 58.4486 100.408C58.5552 101.035 58.6594 101.648 58.7933 102.28C58.7943 102.286 58.7969 102.291 58.8009 102.295C58.8049 102.299 58.8101 102.302 58.8156 102.303C58.8225 102.303 58.8291 102.3 58.8341 102.295C58.8392 102.291 58.8423 102.285 58.8429 102.278C58.8429 101.641 58.828 101.005 58.7983 100.368C58.7611 99.7333 58.6842 99.1009 58.6197 98.4685Z" fill="#263238"/>
<path d="M57.3005 98.5502C57.0054 97.712 56.6631 96.8936 56.2911 96.0926C55.916 95.2918 55.492 94.5149 55.0214 93.7663C55.0201 93.7629 55.0181 93.7599 55.0155 93.7574C55.0129 93.7549 55.0098 93.753 55.0064 93.7518C55.003 93.7506 54.9994 93.7501 54.9958 93.7505C54.9922 93.7508 54.9887 93.752 54.9856 93.7538C54.9825 93.7556 54.9798 93.7581 54.9778 93.7611C54.9757 93.764 54.9744 93.7674 54.9737 93.771C54.9731 93.7745 54.9733 93.7782 54.9742 93.7816C54.9752 93.7851 54.9769 93.7883 54.9792 93.7911C55.3887 94.5687 55.7506 95.3704 56.063 96.1917C56.3854 97.0052 56.678 97.8335 56.921 98.6717C57.1641 99.51 57.3501 100.366 57.5733 101.209C57.7965 102.052 57.9974 102.903 58.2578 103.756C58.2593 103.761 58.2622 103.765 58.2662 103.768C58.2702 103.771 58.275 103.773 58.2801 103.773C58.2869 103.773 58.2935 103.771 58.2985 103.766C58.3036 103.761 58.3067 103.755 58.3074 103.748C58.3167 102.858 58.2336 101.97 58.0594 101.097C57.8751 100.229 57.6213 99.3775 57.3005 98.5502Z" fill="#263238"/>
<path d="M57.2458 101.335C57.0832 100.813 56.8469 100.317 56.544 99.8621C56.2619 99.3957 55.9182 98.9694 55.5222 98.5948C55.3201 98.4113 55.1027 98.2454 54.8724 98.0988C54.6426 97.9512 54.3918 97.8391 54.1284 97.7665C54.1229 97.7655 54.1172 97.7664 54.1122 97.7691C54.1072 97.7718 54.1033 97.7762 54.1012 97.7814C54.0973 97.7859 54.0952 97.7916 54.0952 97.7975C54.0952 97.8034 54.0973 97.8091 54.1012 97.8136C54.5713 98.0403 54.988 98.364 55.3238 98.7635C55.663 99.154 55.949 99.5876 56.1744 100.053C56.4224 100.509 56.5415 101.015 56.7523 101.489C56.844 101.737 56.9358 101.973 57.0449 102.216C57.1339 102.471 57.2408 102.719 57.3648 102.96C57.3673 102.963 57.3706 102.966 57.3745 102.969C57.3784 102.971 57.3827 102.972 57.3872 102.972C57.3903 102.972 57.3935 102.972 57.3965 102.971C57.3995 102.97 57.4022 102.969 57.4046 102.966C57.4069 102.964 57.4088 102.962 57.4101 102.959C57.4113 102.956 57.412 102.953 57.412 102.95C57.4219 102.677 57.412 102.405 57.3822 102.134C57.3649 101.863 57.3103 101.598 57.2458 101.335Z" fill="#263238"/>
<path d="M57.3451 86.614C56.5475 86.3934 55.8255 85.9588 55.2572 85.3573C54.689 84.7558 54.296 84.0103 54.1211 83.2015C53.5184 80.3892 55.4603 81.5945 53.7193 77.1751C51.9783 72.7557 52.3801 71.7513 52.9753 70.4791C53.5705 69.2069 53.9127 69.6086 54.4484 71.2826C54.9841 72.9566 56.9284 75.5681 57.6724 80.4586C58.4164 85.3492 57.3451 86.614 57.3451 86.614Z" fill="#F15F42"/>
<path d="M62.496 81.8623C62.496 81.8623 60.76 81.2597 60.6881 77.9786C60.6162 74.6976 61.9603 75.3672 62.1612 71.2826C62.3621 67.1981 62.6299 64.3188 63.3665 64.2518C64.103 64.1849 66.0449 66.2606 66.7145 70.8139C67.3841 75.3672 65.844 78.3804 64.5048 79.7196C63.1656 81.0588 62.496 81.8623 62.496 81.8623Z" fill="#F15F42"/>
<path d="M56.4076 90.5647C56.4076 90.5647 56.0058 88.1541 55.2023 87.0158C54.3988 85.8775 52.6578 84.8731 51.5195 82.6659C50.3812 80.4587 49.1089 79.3848 49.1759 82.532C49.2428 85.6791 50.649 87.2836 52.3999 88.355C54.1508 89.4264 56.4076 90.5647 56.4076 90.5647Z" fill="#F15F42"/>
<path d="M55.6711 94.7161C55.6711 94.7161 54.0641 91.636 51.7205 89.3593C49.3769 87.0827 47.5045 85.9444 48.1716 87.0827C48.8387 88.221 49.6447 88.154 50.783 90.1628C51.9213 92.1716 51.5865 93.6348 53.1936 94.7831C54.8006 95.9313 55.6711 94.7161 55.6711 94.7161Z" fill="#F15F42"/>
<path d="M55.4702 98.6668C55.4032 98.4659 55.3363 96.9928 53.0596 95.7875C50.783 94.5823 48.6403 95.0435 48.9081 95.6536C49.1759 96.2637 50.5821 97.2607 51.9883 97.8633C53.3944 98.4659 55.4702 98.6668 55.4702 98.6668Z" fill="#F15F42"/>
<path d="M62.3645 90.6986C62.3645 90.6986 61.3601 89.4263 61.8958 86.7479C62.4315 84.0695 63.6318 84.7391 64.976 83.333C66.3201 81.9268 66.0473 81.7284 67.3865 80.2553C68.7257 78.7822 69.931 77.9786 70.4667 78.5813C71.0024 79.1839 70.1989 81.0613 69.3953 82.1302C68.5918 83.199 67.3196 83.7347 66.712 85.064C66.1044 86.3933 66.3772 88.536 64.8371 89.5503C63.297 90.5646 62.3645 90.6986 62.3645 90.6986Z" fill="#F15F42"/>
<path d="M65.72 91.4352C65.72 91.4352 68.1305 88.6898 69.8715 86.681C71.6124 84.6722 72.282 83.1346 72.3515 84.4713C72.4209 85.8081 72.9541 86.8819 71.548 88.6229C70.1418 90.3638 65.72 91.4352 65.72 91.4352Z" fill="#F15F42"/>
<path d="M64.4403 95.8545C64.4403 95.8545 64.3733 94.7831 68.19 92.3056C72.0067 89.8281 73.6138 89.3594 73.212 90.3638C72.8103 91.3682 71.1363 92.3726 69.3283 94.1805C67.5204 95.9884 64.4403 95.8545 64.4403 95.8545Z" fill="#F15F42"/>
<path d="M57.5038 86.3288C57.5038 86.3288 56.6085 81.5275 55.6711 78.1126C54.7336 74.6976 54.131 72.6218 54.131 72.6218" stroke="#263238" stroke-width="0.248" stroke-linecap="round" stroke-linejoin="round"/>
<path d="M62.3447 81.912C62.3447 81.912 63.9716 76.704 64.5073 73.5594C65.043 70.4147 64.4403 68.0686 64.1725 66.6625" stroke="#263238" stroke-width="0.248" stroke-linecap="round" stroke-linejoin="round"/>
<path d="M56.1968 90.4654C55.4757 89.2252 54.6502 88.0487 53.7292 86.9488C52.256 85.2128 51.1177 84.2704 50.4481 82.5989" stroke="#263238" stroke-width="0.248" stroke-linecap="round" stroke-linejoin="round"/>
<path d="M62.3646 90.6986C62.3646 90.6986 62.9003 87.4746 64.1725 85.8105C65.4448 84.1464 67.9893 81.5276 68.9937 79.8585" stroke="#263238" stroke-width="0.248" stroke-linecap="round" stroke-linejoin="round"/>
<path d="M55.3039 98.5924C55.3039 98.5924 53.0521 97.1268 51.4451 96.3232" stroke="#263238" stroke-width="0.248" stroke-linecap="round" stroke-linejoin="round"/>
<path d="M62.7168 112.793H58.0643L55.738 101.144H65.043L62.7168 112.793Z" fill="#263238" stroke="#263238" stroke-width="0.248" stroke-linecap="round" stroke-linejoin="round"/>
<path d="M16.0704 112.793H121.515" stroke="#263238" stroke-width="0.248" stroke-miterlimit="10"/>
<path d="M7.73267 112.793H14.2724" stroke="#263238" stroke-width="0.248" stroke-miterlimit="10"/>
<path d="M53.6028 41.4161V33.6041H52.896V23.6072C52.8963 22.7977 52.7372 21.996 52.4276 21.248C52.118 20.5 51.6641 19.8203 51.0918 19.2478C50.5195 18.6753 49.84 18.2211 49.0922 17.9112C48.3443 17.6014 47.5427 17.4419 46.7332 17.4419H13.6202C11.9851 17.4419 10.4169 18.0914 9.26072 19.2477C8.10451 20.4039 7.45496 21.972 7.45496 23.6072V102.33C7.45496 103.965 8.10451 105.533 9.26072 106.689C10.4169 107.846 11.9851 108.495 13.6202 108.495H46.7332C47.5427 108.495 48.3443 108.336 49.0922 108.026C49.84 107.716 50.5195 107.262 51.0918 106.689C51.6641 106.117 52.118 105.437 52.4276 104.689C52.7372 103.941 52.8963 103.139 52.896 102.33V48.0749H53.6028V43.4596H52.896V41.4161H53.6028Z" fill="#707070" stroke="#263238" stroke-width="0.248" stroke-linejoin="round"/>
<path d="M45.6519 107.644H14.699C12.9672 107.644 11.3063 106.956 10.0817 105.732C8.85715 104.507 8.16919 102.846 8.16919 101.115V24.8223C8.16919 21.2139 10.0193 18.29 14.699 18.29H45.6519C49.9448 18.2329 52.1842 21.2139 52.1842 24.8223V101.115C52.1842 101.972 52.0153 102.822 51.6869 103.614C51.3586 104.406 50.8774 105.126 50.2708 105.733C49.6642 106.339 48.9441 106.82 48.1515 107.148C47.359 107.476 46.5096 107.645 45.6519 107.644Z" fill="#263238" stroke="#263238" stroke-width="0.248" stroke-linejoin="round"/>
<path d="M32.5724 19.2944L32.56 19.3415C32.1979 20.6907 31.3647 21.5735 30.4421 21.5735H29.9114C28.9888 21.5735 28.1555 20.7006 27.7935 19.3415V19.2944L14.8776 19.2498C14.1625 19.2475 13.4539 19.3863 12.7925 19.6584C12.1311 19.9304 11.5299 20.3302 11.0233 20.835C10.5167 21.3397 10.1147 21.9395 9.84027 22.5999C9.56585 23.2603 9.42442 23.9683 9.4241 24.6835L9.40674 100.309C9.40674 103.833 12.1645 106.69 15.5695 106.69H44.7939C48.1989 106.69 50.9591 103.833 50.9591 100.309V24.1403C50.9592 22.9 50.4703 21.7097 49.5984 20.8276C48.7265 19.9455 47.5419 19.4427 46.3017 19.4283L32.5724 19.2944Z" fill="white" stroke="#263238" stroke-width="0.248" stroke-miterlimit="10"/>
<path d="M50.9542 25.5143V24.1403C50.9542 22.9 50.4653 21.7097 49.5934 20.8276C48.7215 19.9455 47.5369 19.4427 46.2967 19.4283L32.5724 19.287L32.56 19.3341C32.1979 20.6832 31.3646 21.5661 30.4421 21.5661H29.9114C28.9888 21.5661 28.1555 20.6931 27.7934 19.3341V19.287L14.8776 19.2423C14.1618 19.2401 13.4527 19.3791 12.7908 19.6516C12.1289 19.9241 11.5274 20.3246 11.0207 20.8302C10.514 21.3357 10.1121 21.9363 9.8381 22.5976C9.56412 23.2588 9.42342 23.9677 9.42407 24.6835V25.5143H50.9542Z" fill="#DBDBDB" stroke="#263238" stroke-width="0.248" stroke-miterlimit="10"/>
<path d="M30.628 19.1456C30.628 19.0307 30.5939 18.9184 30.5301 18.823C30.4662 18.7275 30.3754 18.6531 30.2692 18.6092C30.163 18.5654 30.0462 18.554 29.9336 18.5766C29.821 18.5992 29.7176 18.6548 29.6365 18.7362C29.5554 18.8176 29.5004 18.9212 29.4783 19.0339C29.4561 19.1467 29.468 19.2634 29.5123 19.3694C29.5566 19.4754 29.6314 19.5659 29.7271 19.6293C29.8229 19.6928 29.9353 19.7264 30.0502 19.7259C30.1263 19.7259 30.2016 19.7109 30.2719 19.6817C30.3422 19.6525 30.406 19.6097 30.4597 19.5558C30.5134 19.5019 30.5559 19.4379 30.5848 19.3675C30.6137 19.2971 30.6284 19.2217 30.628 19.1456Z" fill="#707070"/>
<path d="M13.4912 20.6187C13.4912 21.2065 12.834 21.4173 12.8316 21.8587V21.8885H13.4689V22.0844H12.6183V21.9232C12.6183 21.2958 13.2755 21.1792 13.2755 20.6286C13.2755 20.4278 13.2085 20.3236 13.0473 20.3236C12.8861 20.3236 12.8192 20.4377 12.8192 20.6088V20.7799H12.6183V20.6237C12.6183 20.3261 12.7522 20.1277 13.0523 20.1277C13.3524 20.1277 13.4912 20.336 13.4912 20.6187Z" fill="#263238"/>
<path d="M14.5551 20.6162V20.6658C14.5635 20.7507 14.5438 20.836 14.499 20.9086C14.4542 20.9812 14.3868 21.037 14.3071 21.0676C14.3873 21.0974 14.4552 21.1532 14.5001 21.2259C14.545 21.2987 14.5644 21.3843 14.5551 21.4694V21.6182C14.5551 21.9158 14.4162 22.1142 14.1162 22.1142C13.8161 22.1142 13.6797 21.9207 13.6797 21.6182V21.4867H13.888V21.633C13.888 21.8066 13.9599 21.9133 14.1162 21.9133C14.2724 21.9133 14.3418 21.8091 14.3418 21.6132V21.4644C14.3418 21.271 14.2625 21.1792 14.0938 21.1742H13.9773V20.9808H14.1038C14.1375 20.9812 14.171 20.9742 14.2018 20.9604C14.2326 20.9466 14.26 20.9262 14.2822 20.9007C14.3044 20.8753 14.3208 20.8453 14.3302 20.8129C14.3396 20.7804 14.3419 20.7464 14.3369 20.713V20.6262C14.3369 20.4253 14.2674 20.3236 14.1112 20.3236C13.955 20.3236 13.883 20.4302 13.883 20.6063V20.7055H13.6797V20.6162C13.6797 20.3211 13.8186 20.1202 14.1162 20.1202C14.4138 20.1202 14.5551 20.3211 14.5551 20.6162Z" fill="#263238"/>
<path d="M14.9743 20.765V21.0329H14.766V20.765H14.9743ZM14.9743 21.8215V22.0893H14.766V21.824L14.9743 21.8215Z" fill="#263238"/>
<path d="M15.4107 20.9386C15.4395 20.8876 15.4818 20.8455 15.533 20.817C15.5842 20.7886 15.6423 20.7749 15.7009 20.7774C15.9489 20.7774 16.0605 20.9609 16.0605 21.2387V21.6181C16.0605 21.9157 15.9191 22.1141 15.624 22.1141C15.3289 22.1141 15.1875 21.9207 15.1875 21.6181V21.4891H15.3884V21.633C15.3884 21.8066 15.4628 21.9132 15.6165 21.9132C15.7703 21.9132 15.8447 21.8066 15.8447 21.633V21.256C15.8447 21.0799 15.7728 20.9758 15.6165 20.9758C15.5884 20.9744 15.5602 20.9788 15.5338 20.9887C15.5073 20.9986 15.4832 21.0137 15.4628 21.0332C15.4424 21.0527 15.4261 21.0761 15.4151 21.102C15.404 21.128 15.3983 21.1559 15.3983 21.1841V21.2263H15.1949L15.247 20.1475H16.0133V20.3359H15.4429L15.4107 20.9386Z" fill="#263238"/>
<path d="M17.1418 20.6137V20.6509H16.9384V20.6013C16.9384 20.4253 16.8665 20.3236 16.7078 20.3236C16.5491 20.3236 16.4598 20.4277 16.4598 20.6361V21.08C16.4822 21.0161 16.5249 20.9612 16.5812 20.9236C16.6376 20.8861 16.7046 20.8678 16.7723 20.8717C17.0203 20.8717 17.1343 21.0527 17.1343 21.3329V21.6256C17.1343 21.9232 16.988 22.1216 16.6904 22.1216C16.3928 22.1216 16.244 21.9281 16.244 21.6256V20.6336C16.244 20.3261 16.3829 20.1376 16.6904 20.1376C16.9979 20.1376 17.1418 20.3161 17.1418 20.6137ZM16.4722 21.3404V21.633C16.4722 21.8066 16.5441 21.9133 16.7028 21.9133C16.8615 21.9133 16.9335 21.8066 16.9335 21.633V21.3404C16.9335 21.1668 16.8591 21.0601 16.7028 21.0601C16.5466 21.0601 16.4722 21.1668 16.4722 21.3404Z" fill="#263238"/>
<path d="M38.3458 20.7006H37.7977V22.072H38.3458V20.7006Z" fill="#263238"/>
<path d="M39.0774 20.4253H38.5293V22.072H39.0774V20.4253Z" fill="#263238"/>
<path d="M39.8089 20.2294H39.2609V22.0695H39.8089V20.2294Z" fill="#263238"/>
<path d="M40.5382 19.8895H39.9901V22.0694H40.5382V19.8895Z" fill="#263238"/>
<path d="M47.3259 22.0324H44.0349V20.0211H47.3259V22.0324ZM44.2184 21.8514H47.1424V20.2046H44.2184V21.8514Z" fill="#263238"/>
<path d="M46.2297 20.403H44.4937V21.6504H46.2297V20.403Z" fill="#263238"/>
<path d="M47.626 20.7898H47.2118V21.2635H47.626V20.7898Z" fill="#263238"/>
<path d="M42.8295 21.5959C42.8068 21.5964 42.7845 21.5903 42.7651 21.5785C42.0955 21.1792 41.654 21.5488 41.6342 21.5661C41.6114 21.5887 41.5807 21.6013 41.5486 21.6013C41.5166 21.6013 41.4858 21.5887 41.4631 21.5661C41.4403 21.5429 41.4276 21.5118 41.4276 21.4793C41.4276 21.4469 41.4403 21.4157 41.4631 21.3925C41.4879 21.3727 42.0533 20.8965 42.8816 21.3925C42.9038 21.4068 42.9208 21.4277 42.9303 21.4523C42.9397 21.4769 42.9411 21.5039 42.9342 21.5293C42.9273 21.5547 42.9124 21.5773 42.8918 21.5937C42.8712 21.6102 42.8459 21.6196 42.8196 21.6207L42.8295 21.5959Z" fill="#263238"/>
<path d="M43.0775 21.1817C43.0548 21.1821 43.0325 21.1761 43.0131 21.1643C42.0459 20.5889 41.3936 21.1469 41.3887 21.1643C41.3638 21.1813 41.3336 21.1886 41.3037 21.1849C41.2738 21.1813 41.2463 21.1668 41.2263 21.1444C41.2062 21.1219 41.1951 21.0929 41.1948 21.0628C41.1946 21.0327 41.2053 21.0036 41.225 20.9808C41.225 20.9808 42.0186 20.3013 43.1395 20.9659C43.1535 20.9741 43.1657 20.985 43.1755 20.9979C43.1852 21.0109 43.1922 21.0256 43.1961 21.0413C43.2001 21.0571 43.2008 21.0734 43.1983 21.0894C43.1959 21.1054 43.1902 21.1208 43.1817 21.1345C43.1697 21.1505 43.1539 21.1632 43.1357 21.1714C43.1175 21.1797 43.0975 21.1832 43.0775 21.1817Z" fill="#263238"/>
<path d="M43.3009 20.7031C43.279 20.7032 43.2575 20.6972 43.2389 20.6857C42.0138 19.9566 41.1978 20.6435 41.1631 20.6857C41.1518 20.6972 41.1383 20.7064 41.1234 20.7127C41.1085 20.7189 41.0925 20.7222 41.0763 20.7222C41.0601 20.7222 41.0441 20.7189 41.0292 20.7127C41.0143 20.7064 41.0008 20.6972 40.9895 20.6857C40.9788 20.6738 40.9706 20.6598 40.9654 20.6447C40.9602 20.6295 40.9581 20.6135 40.9593 20.5975C40.9605 20.5815 40.9648 20.5659 40.9721 20.5517C40.9795 20.5374 40.9896 20.5248 41.0019 20.5146C41.0019 20.5146 41.979 19.6763 43.3653 20.4997C43.3931 20.5167 43.413 20.5438 43.4209 20.5754C43.4288 20.6069 43.424 20.6403 43.4075 20.6683C43.3938 20.6823 43.377 20.6927 43.3584 20.6987C43.3399 20.7048 43.3201 20.7063 43.3009 20.7031Z" fill="#263238"/>
<path d="M42.4601 21.8017C42.4605 21.8635 42.4425 21.9241 42.4083 21.9756C42.3741 22.0271 42.3252 22.0672 42.268 22.0907C42.2109 22.1142 42.1479 22.1201 42.0874 22.1076C42.0268 22.0951 41.9714 22.0648 41.9282 22.0205C41.885 21.9763 41.8561 21.9201 41.8451 21.8593C41.834 21.7984 41.8415 21.7357 41.8664 21.6791C41.8913 21.6225 41.9326 21.5747 41.9849 21.5417C42.0372 21.5088 42.0982 21.4922 42.16 21.4942C42.2403 21.4961 42.3166 21.5294 42.3727 21.5868C42.4287 21.6443 42.4601 21.7214 42.4601 21.8017Z" fill="#263238"/>
<path d="M30.1394 53.9797C35.5954 54.064 40.1413 56.1323 43.7249 60.269C43.8402 60.3942 43.9289 60.5416 43.9857 60.7021C44.0424 60.8626 44.0661 61.0329 44.0552 61.2028C44.0443 61.3727 43.9991 61.5386 43.9223 61.6906C43.8455 61.8425 43.7387 61.9773 43.6083 62.0868C43.4822 62.1949 43.3357 62.2766 43.1775 62.3271C43.0192 62.3775 42.8525 62.3956 42.6871 62.3803C42.5217 62.3651 42.361 62.3167 42.2147 62.2382C42.0683 62.1596 41.9393 62.0525 41.8351 61.9231C40.5564 60.4121 39.0019 59.1581 37.2546 58.2279C34.5676 56.8004 31.5136 56.2132 28.4888 56.5427C25.464 56.8722 22.608 58.103 20.2914 60.0755C19.6438 60.6511 19.0294 61.263 18.4512 61.9082C18.3433 62.0389 18.2105 62.147 18.0606 62.226C17.9106 62.3051 17.7465 62.3536 17.5777 62.3688C17.4088 62.3841 17.2387 62.3657 17.077 62.3147C16.9154 62.2637 16.7654 62.1812 16.6358 62.0719C16.508 61.9601 16.404 61.8237 16.33 61.6708C16.256 61.5178 16.2136 61.3516 16.2053 61.182C16.1969 61.0123 16.2229 60.8427 16.2815 60.6833C16.3401 60.5239 16.4303 60.3779 16.5466 60.2541C19.4149 56.8467 23.4613 54.6446 27.8802 54.0863C28.2373 54.0392 28.5969 53.9995 28.9565 53.9846C29.3161 53.9698 29.7451 53.9797 30.1394 53.9797Z" fill="#263238"/>
<path d="M30.5909 59.0364C34.0381 59.1257 37.2869 60.5963 39.8264 63.5425C39.9433 63.6662 40.0335 63.8125 40.0915 63.9725C40.1494 64.1325 40.1737 64.3027 40.163 64.4725C40.1523 64.6424 40.1068 64.8082 40.0293 64.9596C39.9517 65.1111 39.8438 65.245 39.7123 65.3529C39.5852 65.4633 39.437 65.5466 39.2767 65.5978C39.1163 65.649 38.9473 65.667 38.7797 65.6508C38.6122 65.6345 38.4498 65.5844 38.3023 65.5033C38.1548 65.4223 38.0253 65.312 37.9218 65.1793C36.6485 63.6383 34.9355 62.5222 33.0114 61.9801C29.0161 60.8989 25.5441 61.8859 22.6425 64.8495C22.5334 64.9611 22.4342 65.0801 22.3325 65.1942C22.225 65.322 22.0932 65.4271 21.9447 65.5034C21.7963 65.5798 21.6341 65.6259 21.4677 65.639C21.3013 65.6522 21.1339 65.6321 20.9753 65.58C20.8167 65.5279 20.67 65.4448 20.5438 65.3355C20.4176 65.2262 20.3144 65.093 20.2401 64.9434C20.1659 64.7939 20.1221 64.6311 20.1113 64.4645C20.1005 64.2979 20.1229 64.1308 20.1773 63.973C20.2316 63.8151 20.3168 63.6697 20.4278 63.545C21.5489 62.2153 22.9317 61.1305 24.4901 60.3582C26.2732 59.4729 28.1654 59.0438 30.5909 59.0364Z" fill="#263238"/>
<path d="M36.2601 67.6569C36.2612 67.9121 36.1847 68.1617 36.0408 68.3725C35.8968 68.5833 35.6923 68.7454 35.4541 68.8373C35.2127 68.933 34.9474 68.9505 34.6956 68.8873C34.4438 68.8241 34.2181 68.6834 34.0505 68.4852C33.5269 67.8672 32.8685 67.3777 32.126 67.0542C30.0576 66.1763 27.776 66.712 26.236 68.448C26.0806 68.646 25.8678 68.7912 25.6267 68.8636C25.3856 68.9359 25.1281 68.932 24.8893 68.8522C24.6914 68.7903 24.5119 68.6804 24.3668 68.5324C24.2216 68.3843 24.1153 68.2026 24.0574 68.0035C23.9995 67.8044 23.9917 67.5941 24.0347 67.3912C24.0777 67.1884 24.1703 66.9994 24.304 66.8409C25.0157 65.9851 25.9074 65.2967 26.9156 64.8249C27.9238 64.3531 29.0236 64.1094 30.1367 64.1113C31.2498 64.1132 32.3488 64.3606 33.3554 64.8359C34.3619 65.3111 35.2513 66.0025 35.9601 66.8608C36.1145 67.1003 36.2394 67.3576 36.3321 67.6271L36.2601 67.6569Z" fill="#263238"/>
<path d="M30.137 74.276C29.6358 74.2775 29.1455 74.13 28.7283 73.8524C28.3111 73.5748 27.9857 73.1795 27.7935 72.7167C27.6012 72.2539 27.5508 71.7444 27.6486 71.2529C27.7464 70.7614 27.9879 70.31 28.3426 69.9559C28.6974 69.6019 29.1492 69.3612 29.6409 69.2644C30.1327 69.1676 30.642 69.2191 31.1045 69.4122C31.5669 69.6054 31.9616 69.9315 32.2384 70.3493C32.5151 70.7671 32.6616 71.2576 32.6591 71.7588C32.6595 72.0899 32.5944 72.4177 32.4677 72.7236C32.341 73.0295 32.1552 73.3073 31.9209 73.5412C31.6865 73.7751 31.4083 73.9604 31.1022 74.0865C30.7961 74.2126 30.4681 74.277 30.137 74.276Z" fill="#263238"/>
<path d="M30.1518 45.136C26.5847 45.1355 23.0975 46.1928 20.1314 48.1743C17.1652 50.1558 14.8533 52.9724 13.488 56.2679C12.1227 59.5634 11.7654 63.1897 12.4612 66.6883C13.157 70.1869 14.8746 73.4006 17.397 75.9229C19.9193 78.4452 23.133 80.1629 26.6316 80.8587C30.1301 81.5545 33.7565 81.1971 37.052 79.8318C40.3475 78.4665 43.1641 76.1546 45.1455 73.1885C47.127 70.2223 48.1844 66.7352 48.1839 63.1681C48.178 58.3875 46.2763 53.8044 42.8959 50.424C39.5155 47.0436 34.9324 45.1419 30.1518 45.136ZM14.5972 63.178C14.5933 60.1563 15.4701 57.1989 17.1204 54.6677C18.7708 52.1365 21.1231 50.1412 23.8896 48.9258C26.6561 47.7104 29.7168 47.3277 32.6974 47.8245C35.678 48.3212 38.4492 49.6759 40.672 51.7229L18.6967 73.6882C16.0589 70.8239 14.5955 67.0719 14.5972 63.178ZM30.1518 78.7325C26.6529 78.7346 23.2566 77.5509 20.517 75.3746L42.341 53.5506C44.1546 55.8415 45.2858 58.5971 45.6047 61.5015C45.9235 64.4059 45.4173 67.3413 44.144 69.9711C42.8706 72.6009 40.8818 74.8185 38.4056 76.3695C35.9294 77.9205 33.0662 78.7421 30.1444 78.74L30.1518 78.7325Z" fill="#F15F42"/>
<path d="M106.02 112.793H103.669L103.166 107.198H106.524L106.02 112.793Z" fill="#263238" stroke="#263238" stroke-width="0.248" stroke-miterlimit="10"/>
<path d="M115.811 112.793H113.46L112.957 107.198H116.315L115.811 112.793Z" fill="#263238" stroke="#263238" stroke-width="0.248" stroke-miterlimit="10"/>
<path d="M92.3131 112.793H89.962L89.4611 107.198H92.8165L92.3131 112.793Z" fill="#263238" stroke="#263238" stroke-width="0.248" stroke-miterlimit="10"/>
<path d="M81.8227 112.793H79.4741L78.9707 107.198H82.3261L81.8227 112.793Z" fill="#263238" stroke="#263238" stroke-width="0.248" stroke-miterlimit="10"/>
<path d="M93.0423 71.1512H117.475C117.475 71.1512 117.572 79.6452 116.315 85.6592C115.057 91.6732 113.517 95.3089 113.517 95.3089H90.2994C90.2994 95.3089 93.7442 82.0062 93.0423 71.1512Z" fill="white" stroke="#263238" stroke-width="0.248" stroke-miterlimit="10"/>
<path d="M103.183 72.4482C101.04 72.2796 100.19 71.848 98.5874 70.9602C96.5018 69.8169 96.0554 70.5783 96.2042 71.7216C96.353 72.8648 94.178 80.4015 93.7242 84.1959C93.2703 87.9903 93.4241 90.0314 93.4241 90.0314C93.4241 90.0314 92.0849 91.1747 92.9777 91.5541C93.5519 91.7924 94.152 91.9631 94.7658 92.0625H112.041C112.041 92.0625 115.112 76.2872 115.409 73.7502C115.707 71.2132 114.368 70.9602 113.621 71.3396C112.875 71.7191 112.728 71.9745 111.684 72.101C109.244 72.416 106.119 72.6764 103.183 72.4482Z" fill="#F15F42"/>
<path d="M97.6204 72.7036C98.0673 72.2021 98.3819 71.5968 98.5355 70.9428C98.3272 70.8312 98.1362 70.7394 97.9602 70.665C97.8456 71.2751 97.5659 71.8421 97.1517 72.3043C96.8424 72.6801 96.4592 72.9882 96.0258 73.2095C95.9811 73.4352 95.9315 73.6807 95.877 73.9535C96.5615 73.7042 97.1645 73.2718 97.6204 72.7036Z" fill="white"/>
<path d="M113.088 77.6389C111.994 78.9236 112.037 80.0644 112.076 81.1704C112.116 82.2021 112.151 83.1743 111.213 84.2779C110.276 85.3815 109.306 85.498 108.282 85.627C107.186 85.7609 106.05 85.9023 104.959 87.1869C103.867 88.4716 103.905 89.6124 103.947 90.716C103.978 91.1683 103.965 91.6226 103.91 92.0725H104.535C104.582 91.6144 104.591 91.1532 104.562 90.6936C104.525 89.662 104.487 88.6873 105.427 87.5862C106.367 86.4851 107.332 86.3636 108.359 86.2371C109.455 86.1032 110.591 85.9618 111.682 84.6772C112.773 83.3925 112.733 82.2517 112.694 81.1456C112.654 80.114 112.619 79.1393 113.559 78.0382C113.914 77.6056 114.369 77.2653 114.884 77.0462C114.926 76.7982 114.968 76.57 115.008 76.3444C114.254 76.5764 113.586 77.027 113.088 77.6389Z" fill="white"/>
<path d="M95.5372 91.7948C96.6358 91.6584 97.7692 91.517 98.8628 90.2324C99.9565 88.9477 99.9144 87.8069 99.8747 86.7033C99.835 85.6716 99.8003 84.697 100.738 83.5959C101.675 82.4948 102.645 82.3732 103.669 82.2468C104.765 82.1104 105.901 81.9715 106.992 80.6868C108.083 79.4022 108.046 78.2589 108.004 77.1553C107.967 76.1236 107.93 75.149 108.87 74.0479C109.81 72.9468 110.777 72.8252 111.801 72.6988C112.825 72.5723 113.849 72.4508 114.861 71.424C114.665 71.2781 114.426 71.2029 114.182 71.2108C113.621 71.6686 112.938 71.9507 112.218 72.0217C112.044 72.061 111.869 72.0908 111.692 72.111L110.948 72.1978C109.946 72.3476 109.037 72.8681 108.401 73.656C107.305 74.9432 107.347 76.084 107.389 77.1876C107.426 78.2192 107.463 79.1939 106.524 80.2975C105.584 81.4011 104.619 81.5176 103.592 81.6441C102.496 81.7805 101.36 81.9194 100.269 83.204C99.1778 84.4887 99.2175 85.632 99.2572 86.7356C99.2968 87.7672 99.3316 88.7419 98.3941 89.843C97.4567 90.9441 96.487 91.0656 95.4628 91.1921C94.7426 91.2388 94.0376 91.4205 93.3845 91.7278C93.709 91.8413 94.0403 91.9341 94.3765 92.0056C94.7576 91.9067 95.1456 91.8362 95.5372 91.7948Z" fill="white"/>
<path d="M94.1756 86.242C95.2693 84.9574 95.2271 83.8166 95.1874 82.713C95.1502 81.6788 95.113 80.7067 96.053 79.6031C96.9929 78.4995 97.9576 78.3829 98.9818 78.2564C100.078 78.12 101.214 77.9786 102.308 76.694C103.401 75.4094 103.359 74.2686 103.319 73.165C103.319 72.917 103.302 72.6913 103.304 72.4557H103.183L102.687 72.4086C102.687 72.6739 102.687 72.9343 102.699 73.1947C102.739 74.2264 102.774 75.2011 101.836 76.3022C100.899 77.4033 99.9292 77.5248 98.905 77.6513C97.8088 77.7877 96.673 77.9266 95.5793 79.2112C94.4856 80.4958 94.5278 81.6367 94.5699 82.7427C94.6071 83.7744 94.6418 84.7491 93.7044 85.8502C93.6523 85.9122 93.6002 85.9692 93.5457 86.0238C93.5209 86.3387 93.4986 86.6363 93.4812 86.9141C93.736 86.7155 93.9688 86.4902 94.1756 86.242Z" fill="white"/>
<path d="M103.183 72.4482C101.04 72.2796 100.19 71.848 98.5874 70.9602C96.5018 69.8169 96.0554 70.5783 96.2042 71.7216C96.353 72.8648 94.178 80.4015 93.7242 84.1959C93.2703 87.9903 93.4241 90.0314 93.4241 90.0314C93.4241 90.0314 92.0849 91.1747 92.9777 91.5541C93.5519 91.7924 94.152 91.9631 94.7658 92.0625H112.041C112.041 92.0625 115.112 76.2872 115.409 73.7502C115.707 71.2132 114.368 70.9602 113.621 71.3396C112.875 71.7191 112.728 71.9745 111.684 72.101C109.244 72.416 106.119 72.6764 103.183 72.4482Z" stroke="#263238" stroke-width="0.248" stroke-miterlimit="10"/>
<path d="M93.0422 71.1512H91.6609C91.4103 71.1511 91.167 71.2355 90.9704 71.3908C90.7737 71.546 90.6351 71.7631 90.5771 72.0068L88.8609 79.1988C88.5435 80.5331 87.4573 84.3771 86.2619 85.0492C85.5279 85.4609 84.7004 85.677 83.8588 85.6766H78.6805L80.8828 108.188H90.3068L92.7868 72.3441C92.7949 72.2617 92.7949 72.1786 92.7868 72.0961H93.067L93.0422 71.1512Z" fill="white" stroke="#263238" stroke-width="0.248" stroke-miterlimit="10"/>
<path d="M80.0619 85.674H85.2426C86.0842 85.6741 86.9116 85.458 87.6457 85.0466C88.8411 84.3745 89.9249 80.5305 90.2448 79.1963L91.9585 72.0043C92.0169 71.7607 92.1556 71.5439 92.3521 71.3888C92.5487 71.2336 92.7918 71.149 93.0422 71.1487C93.1949 71.1487 93.346 71.18 93.4861 71.2409C93.6262 71.3018 93.7522 71.3908 93.8564 71.5024C93.9606 71.6141 94.0408 71.746 94.0918 71.8899C94.1429 72.0338 94.1638 72.1867 94.1533 72.3391L91.6113 108.185H82.1873L80.0619 85.674Z" fill="white" stroke="#263238" stroke-width="0.248" stroke-miterlimit="10"/>
<path d="M102.186 108.197L102.724 92.0724L81.1208 91.8815L81.6615 108.197H102.186Z" fill="white" stroke="#263238" stroke-width="0.248" stroke-miterlimit="10"/>
<path d="M118.857 71.1512H117.475C117.225 71.1516 116.982 71.2361 116.785 71.3913C116.589 71.5465 116.45 71.7633 116.391 72.0068L114.675 79.1988C114.358 80.5331 113.274 84.3771 112.076 85.0492C111.342 85.4612 110.515 85.6773 109.673 85.6766H104.495L105.4 108.185H116.019L118.586 72.3416C118.596 72.2593 118.596 72.176 118.586 72.0936H118.866L118.857 71.1512Z" fill="white" stroke="#263238" stroke-width="0.248" stroke-miterlimit="10"/>
<path d="M105.876 85.674H111.057C111.898 85.6741 112.726 85.458 113.46 85.0466C114.655 84.3745 115.742 80.5305 116.059 79.1963L117.775 72.0043C117.833 71.7609 117.971 71.5442 118.167 71.389C118.364 71.2338 118.606 71.1491 118.856 71.1487C119.009 71.1483 119.161 71.1794 119.301 71.2402C119.441 71.3009 119.567 71.3899 119.671 71.5016C119.776 71.6134 119.856 71.7454 119.907 71.8895C119.958 72.0336 119.978 72.1866 119.967 72.3391L117.448 107.632C117.437 107.78 117.37 107.919 117.261 108.021C117.152 108.122 117.009 108.179 116.86 108.18H106.722L105.876 85.674Z" fill="white" stroke="#263238" stroke-width="0.248" stroke-miterlimit="10"/>
<path d="M102.724 87.296L102.176 108.197H106.712L107.501 87.296C107.501 87.0828 107.459 86.8717 107.377 86.6747C107.295 86.4778 107.176 86.2989 107.025 86.1482C106.874 85.9976 106.695 85.8782 106.498 85.7968C106.301 85.7155 106.089 85.6737 105.876 85.6741H104.349C104.135 85.6737 103.924 85.7155 103.727 85.7968C103.53 85.8782 103.351 85.9976 103.2 86.1482C103.049 86.2989 102.929 86.4778 102.848 86.6747C102.766 86.8717 102.724 87.0828 102.724 87.296Z" fill="white" stroke="#263238" stroke-width="0.248" stroke-miterlimit="10"/>
<path d="M76.3691 87.296L77.1479 108.197H81.6838L81.1431 87.296C81.1431 86.8658 80.9723 86.4533 80.6681 86.1491C80.3639 85.845 79.9514 85.6741 79.5212 85.6741H77.9935C77.7803 85.6737 77.5692 85.7155 77.3721 85.7968C77.175 85.8782 76.9959 85.9976 76.8451 86.1482C76.6942 86.2989 76.5745 86.4778 76.4928 86.6747C76.4112 86.8717 76.3691 87.0828 76.3691 87.296Z" fill="white" stroke="#263238" stroke-width="0.248" stroke-miterlimit="10"/>
<path d="M81.2299 99.009H102.518" stroke="#263238" stroke-width="0.248" stroke-miterlimit="10"/>
<path d="M70.8163 71.233C70.8163 71.233 68.8472 82.1748 68.4157 84.0249C67.9842 85.875 66.9277 95.3064 66.9277 97.65C66.9277 99.9936 67.1112 107.074 67.1112 107.074C67.1112 107.074 66.3102 107.444 66.3102 107.751C66.3102 108.059 66.9277 110.033 66.9277 110.033L70.5634 111.389C70.5634 111.389 71.3074 109.653 71.3644 109.046C71.4215 108.438 70.9329 108.183 70.9329 107.134C70.9329 106.084 72.783 93.8804 73.3385 91.8468C73.894 89.8132 75.4961 83.7099 75.8036 83.1544C76.1111 82.5989 77.6537 78.5317 77.6537 78.5317L78.5167 78.9632C78.5167 78.9632 79.0698 91.7848 79.3798 92.5858C79.6898 93.3869 83.8239 106.442 83.8239 106.442C83.8239 106.442 83.1469 106.749 83.5759 107.491C84.005 108.232 84.7465 109.894 84.7465 109.894C84.7465 109.894 85.426 108.969 86.2345 108.785C87.043 108.602 88.3921 109.4 88.3921 109.4C88.3921 109.4 89.1931 107.55 89.0071 106.69C88.8211 105.829 88.0151 104.346 87.9606 103.914C87.906 103.483 86.2246 91.0532 86.2246 91.0532C86.2246 91.0532 86.6561 73.6684 86.6561 72.4978C86.633 71.6992 86.4875 70.9088 86.2246 70.1542C83.6383 71.0417 80.9401 71.561 78.2092 71.6968C73.832 71.8803 71.4289 70.0947 71.4289 70.0947L70.8163 71.233Z" fill="#263238" stroke="#263238" stroke-width="0.248" stroke-miterlimit="10"/>
<path d="M66.9377 110.04C66.9377 110.04 64.9017 111.888 64.5321 112.136C64.1626 112.384 61.5735 113.376 61.6355 113.872C61.6975 114.368 62.3795 114.673 62.3795 114.673H70.7644C70.7644 114.673 70.8239 114.425 70.9479 113.254C71.0072 112.495 70.8803 111.733 70.5784 111.035L66.9377 110.04Z" fill="white" stroke="#263238" stroke-width="0.248" stroke-miterlimit="10"/>
<path d="M70.8859 113.772L61.6802 114.02C61.8387 114.301 62.0817 114.524 62.3746 114.658H70.7595C70.7595 114.658 70.8016 114.492 70.8859 113.772Z" fill="white" stroke="#263238" stroke-width="0.248" stroke-miterlimit="10"/>
<path d="M84.7516 109.894C84.7516 109.894 84.6896 111.434 84.6896 112.237C84.6896 113.041 84.5681 113.973 84.6276 114.147C84.6871 114.321 84.8136 114.643 84.8136 114.643H89.6843C89.6843 114.643 89.8679 114.147 89.6223 113.224C89.3768 112.302 88.9428 111.808 88.8213 110.992C88.7271 110.446 88.5826 109.91 88.3898 109.39C88.3898 109.39 85.9842 107.491 84.7516 109.894Z" fill="white" stroke="#263238" stroke-width="0.248" stroke-miterlimit="10"/>
<path d="M89.7487 114.058C87.8961 114.058 85.5897 113.998 84.6101 113.973C84.6098 114.032 84.6156 114.09 84.6275 114.147C84.6895 114.333 84.8135 114.643 84.8135 114.643H89.6842C89.7378 114.453 89.7596 114.255 89.7487 114.058Z" fill="white" stroke="#263238" stroke-width="0.248" stroke-miterlimit="10"/>
<path d="M69.068 48.0227C69.068 48.0227 63.8302 52.9405 64.0584 53.3993C64.2866 53.8581 65.72 57.5806 65.72 57.5806C65.72 57.5806 66.1317 60.0606 65.9035 61.6255C65.764 62.6151 65.7175 63.6156 65.7646 64.6139C66.246 65.2207 66.8343 65.7342 67.5006 66.1291C68.5125 66.6822 69.2937 67.6469 69.9385 66.0845C70.5833 64.5221 70.3055 61.7172 70.3055 61.7172C70.3055 61.7172 71.176 65.1198 71.3223 65.7199C71.4686 66.3201 70.8263 71.2355 70.8263 71.2355C70.8263 71.2355 73.9858 73.9039 79.36 73.2988C84.7342 72.6937 86.4379 70.8188 86.4379 70.8188C86.4379 70.8188 85.8849 64.7974 85.8849 64.1079C85.8797 63.6313 85.8491 63.1553 85.7931 62.6819C85.7931 62.6819 87.6779 64.6139 88.598 64.5221C89.5181 64.4304 91.1251 60.6607 90.711 60.0581C90.2968 59.4555 88.8733 57.0201 88.0003 55.2742C87.4741 54.2219 87.0361 53.1278 86.6909 52.0031C86.6909 52.0031 85.1731 46.8546 84.7069 46.4875C84.2406 46.1205 79.0773 46.1775 78.1572 45.9494C76.9423 45.7102 75.7142 45.5446 74.4794 45.4534C74.1718 45.4484 70.0798 46.4131 69.068 48.0227Z" fill="#F15F42" stroke="#263238" stroke-width="0.248" stroke-miterlimit="10"/>
<path d="M84.5185 54.9047C84.4937 53.5853 84.4888 52.5586 84.4888 52.5586" stroke="#263238" stroke-width="0.248" stroke-miterlimit="10"/>
<path d="M85.808 62.682C85.4571 61.9667 85.1507 61.2304 84.8904 60.4773C84.7069 59.9292 84.6102 57.9725 84.5581 56.1398" stroke="#263238" stroke-width="0.248" stroke-miterlimit="10"/>
<path d="M67.6866 57.2384C67.2179 56.42 66.8608 55.7802 66.8162 55.6512" stroke="#263238" stroke-width="0.248" stroke-miterlimit="10"/>
<path d="M70.3105 61.7173C70.3105 61.7173 69.135 59.7333 68.1479 58.037" stroke="#263238" stroke-width="0.248" stroke-miterlimit="10"/>
<path d="M76.2848 46.0908C76.4741 47.7089 76.4899 49.3426 76.3319 50.964" stroke="#263238" stroke-width="0.248" stroke-miterlimit="10"/>
<path d="M79.3774 68.7754C79.9305 68.887 80.5232 68.9887 81.1556 69.0705" stroke="#263238" stroke-width="0.248" stroke-miterlimit="10"/>
<path d="M72.6987 65.8092C72.6987 65.8092 74.1867 67.441 78.1547 68.4876" stroke="#263238" stroke-width="0.248" stroke-miterlimit="10"/>
<path d="M76.7437 69.3011C78.4476 70.0659 80.3001 70.4428 82.1674 70.4048" stroke="#263238" stroke-width="0.248" stroke-miterlimit="10"/>
<path d="M65.7598 40.5753C65.7598 40.5753 66.3103 43.1495 66.3574 43.7026C66.4046 44.2556 66.541 44.9897 67.2304 46.0908C67.9198 47.1919 69.7104 49.6298 70.0799 49.7687C70.4494 49.9075 71.873 49.538 71.873 49.538C71.873 49.538 73.3882 52.5264 73.8024 52.4347C74.2166 52.3429 75.273 48.9403 75.4119 47.5615C75.4995 46.8755 75.5145 46.1822 75.4566 45.4931L74.8142 43.1967C74.8142 43.1967 74.2637 39.9727 74.2637 39.7495C74.2637 39.5263 74.5836 37.8647 72.793 37.1752C71.0025 36.4858 68.7928 36.4312 67.3222 38.1399C65.8515 39.8487 65.7598 40.5753 65.7598 40.5753Z" fill="white" stroke="#263238" stroke-width="0.248" stroke-miterlimit="10"/>
<path d="M70.68 37.6812C70.0354 38.6596 69.19 39.4898 68.2 40.1165C66.5012 41.2201 67.3271 40.0248 67.3271 40.0248C67.3271 40.0248 66.1317 40.7688 65.167 41.2648C64.2023 41.7608 64.5693 41.9096 64.2023 41.7608C63.8352 41.612 62.4663 37.6985 65.539 35.8088C68.6117 33.919 70.8536 34.4175 70.8536 34.4175C70.8536 34.4175 69.5194 33.8198 70.7148 33.8198C71.9101 33.8198 72.416 34.4721 72.416 34.4721C72.416 34.4721 73.0584 34.2885 73.3336 34.6556C73.4541 34.7867 73.6048 34.8863 73.7726 34.9457C75.2606 35.5757 75.7789 36.9843 76.0591 38.4549C76.2427 39.4197 75.4615 41.7186 75.4615 41.7186L74.1719 42.4081C73.8593 42.1233 73.6065 41.7794 73.4279 41.3962C73.3104 41.0246 73.2486 40.6377 73.2443 40.248C73.2443 40.248 72.4631 41.2573 72.3243 40.5233C72.1854 39.7892 71.8283 37.9044 71.8283 37.9044C71.8283 37.9044 71.9671 38.6484 71.5083 38.6484C71.0495 38.6484 70.68 37.6812 70.68 37.6812Z" fill="#263238" stroke="#263238" stroke-width="0.248" stroke-miterlimit="10"/>
<path d="M74.0776 42.7353C74.0776 42.7353 74.033 41.1729 74.9531 40.667C75.8731 40.1611 76.5155 40.7141 76.2377 42.1848C75.9599 43.6554 74.3083 44.206 74.3083 44.206" fill="white"/>
<path d="M74.0776 42.7353C74.0776 42.7353 74.033 41.1729 74.9531 40.667C75.8731 40.1611 76.5155 40.7141 76.2377 42.1848C75.9599 43.6554 74.3083 44.206 74.3083 44.206" stroke="#263238" stroke-width="0.248" stroke-miterlimit="10"/>
<path d="M71.8729 49.538L74.3083 47.1027L72.6988 50.8251L71.8729 49.538Z" fill="#263238" stroke="#263238" stroke-width="0.248" stroke-miterlimit="10"/>
<path d="M70.7469 47.0753C70.7986 47.1655 70.8142 47.2718 70.7908 47.373C70.7673 47.4741 70.7065 47.5627 70.6204 47.6209C70.4543 47.6879 70.2435 47.5515 70.1492 47.3159C70.055 47.0803 70.112 46.8348 70.2757 46.7678C70.4394 46.7009 70.6502 46.8397 70.7469 47.0753Z" fill="#263238"/>
<path d="M71.3819 42.8196C71.4712 43.1123 71.4067 43.39 71.2405 43.4421C71.0744 43.4942 70.8611 43.2983 70.7718 43.0081C70.6825 42.718 70.747 42.4402 70.9132 42.3881C71.0793 42.336 71.2926 42.5295 71.3819 42.8196Z" fill="#263238"/>
<path d="M68.3637 43.3306C68.453 43.6233 68.3885 43.901 68.2199 43.9531C68.0512 44.0052 67.8429 43.8117 67.7536 43.5191C67.6644 43.2265 67.7264 42.9512 67.895 42.8991C68.0636 42.847 68.272 43.0405 68.3637 43.3306Z" fill="#263238"/>
<path d="M68.4729 42.1848C68.6768 42.3515 68.8404 42.5621 68.9516 42.8009C69.0628 43.0396 69.1188 43.3003 69.1152 43.5637C69.1152 44.4838 68.9763 45.8627 68.9763 45.8627L70.633 45.632" stroke="#263238" stroke-width="0.248" stroke-miterlimit="10"/>
<path d="M69.574 41.5871C69.574 41.5871 70.4023 40.1165 71.6894 40.3918" stroke="#263238" stroke-width="0.248" stroke-miterlimit="10"/>
<path d="M68.1033 41.8624C68.1033 41.8624 67.094 41.5424 66.4045 41.9541" stroke="#263238" stroke-width="0.248" stroke-miterlimit="10"/>
<path d="M96.224 53.6746C96.224 53.6746 97.2358 53.3076 97.6029 53.1786C97.9699 53.0497 98.3469 53.2704 98.9818 52.9505C99.6166 52.6306 100.361 51.9833 100.408 52.4545C100.455 52.9257 100.222 53.0968 99.8547 53.3275C99.4877 53.5581 98.89 54.0169 98.89 54.0169L98.7065 54.4757L95.9487 54.2475C95.9487 54.2475 96.0008 53.816 96.224 53.6746Z" fill="white" stroke="#263238" stroke-width="0.248" stroke-miterlimit="10"/>
<path d="M101.767 54.8626C101.767 54.8626 103.034 53.8582 103.218 53.3994C103.401 52.9406 103.079 52.9034 102.759 53.077C102.439 53.2506 101.432 54.0888 101.432 54.0888L101.767 54.8626Z" fill="white" stroke="#263238" stroke-width="0.248" stroke-miterlimit="10"/>
<path d="M100.73 55.0808C100.73 55.0808 101.673 55.18 101.767 54.8625C101.861 54.5451 102.605 52.5462 102.484 52.2957C102.362 52.0452 102.126 52.0676 101.866 52.4817C101.588 53.0495 101.347 53.6352 101.147 54.2351C101.147 54.2351 100.517 54.3764 100.358 54.808C100.2 55.2395 100.73 55.0808 100.73 55.0808Z" fill="white" stroke="#263238" stroke-width="0.248" stroke-miterlimit="10"/>
<path d="M99.5397 55.3288C99.5397 55.3288 100.415 55.6983 100.599 55.4206C100.782 55.1428 102.069 53.4366 102.022 53.1687C101.975 52.9009 101.747 52.8488 101.38 53.1687C100.948 53.6311 100.549 54.1224 100.185 54.6394C100.185 54.6394 99.5397 54.5947 99.2645 54.9618C98.9892 55.3288 99.5397 55.3288 99.5397 55.3288Z" fill="white" stroke="#263238" stroke-width="0.248" stroke-miterlimit="10"/>
<path d="M86.7182 62.868C87.0813 61.3975 88.0052 60.1274 89.2924 59.3291C91.4971 57.9031 94.488 55.3288 94.488 55.3288C94.488 55.3288 95.4999 53.9053 96.224 53.6747C96.9482 53.444 99.3488 54.1335 99.3488 54.1335C99.3488 54.1335 101.281 52.204 101.333 52.6182C101.385 53.0324 100.415 54.503 99.9539 55.0536C99.4927 55.6041 98.0691 55.743 97.7492 55.743C97.1801 55.7601 96.6123 55.8065 96.0479 55.8819C95.8644 55.9265 92.8239 60.0632 91.4525 62.0819C90.0811 64.1006 89.4685 64.4701 88.603 64.5172C87.7375 64.5644 86.8099 63.8724 86.5793 63.5525C86.3487 63.2326 86.7182 62.868 86.7182 62.868Z" fill="white" stroke="#263238" stroke-width="0.248" stroke-miterlimit="10"/>
<path d="M57.975 55.2594L60.8716 61.5437C60.9162 61.6332 60.9887 61.7058 61.0782 61.7506C61.1677 61.7953 61.2692 61.8097 61.3676 61.7917L63.7707 61.3478C63.8375 61.3349 63.9005 61.3074 63.9553 61.2671C64.01 61.2269 64.0552 61.175 64.0874 61.1152C64.1197 61.0554 64.1383 60.9892 64.1419 60.9213C64.1454 60.8535 64.1339 60.7857 64.108 60.7228L61.504 54.5898C61.4664 54.4992 61.4003 54.4234 61.3157 54.3737C61.2312 54.324 61.1327 54.3032 61.0353 54.3145L58.3346 54.6146C58.2631 54.6232 58.1946 54.6486 58.1349 54.6887C58.0751 54.7288 58.0256 54.7825 57.9905 54.8454C57.9555 54.9083 57.9358 54.9786 57.9331 55.0505C57.9304 55.1225 57.9447 55.1941 57.975 55.2594Z" fill="#263238" stroke="#263238" stroke-width="0.248" stroke-miterlimit="10"/>
<path d="M59.8771 60.6385C59.8771 60.6385 58.838 59.0464 58.838 58.6892C58.838 58.3321 59.4431 57.4864 59.7978 56.7226C60.1524 55.9588 60.207 55.4479 60.512 55.552C60.8171 55.6562 60.76 55.9588 60.6633 56.4672C60.4768 57.1229 60.2567 57.7685 60.0036 58.4016L60.1053 59.0141C60.351 58.5185 60.6585 58.056 61.0204 57.6377C61.4792 57.1814 61.9876 56.4176 62.3447 56.5688C62.7019 56.7201 62.8531 56.8168 62.5481 57.1814C62.1651 57.6401 61.8217 58.1304 61.5214 58.6471C61.2521 59.088 61.0206 59.5509 60.8295 60.0309C61.1701 59.7046 61.5322 59.4013 61.9132 59.1232C62.4092 58.7661 63.1086 58.2503 63.4012 58.4536C63.6939 58.657 63.7583 58.8604 63.4533 59.1158C63.1483 59.3712 62.8705 59.5448 62.4613 59.902C62.0345 60.328 61.6336 60.7794 61.261 61.2536C61.6245 60.9728 62.0294 60.7502 62.4613 60.5939C63.3268 60.2392 64.1179 60.2789 64.1502 60.5517C64.1824 60.8245 63.24 61.0725 63.24 61.0725C62.5655 61.2263 62.5332 61.4569 62.5332 61.4569C62.5332 61.4569 63.0937 62.5779 62.992 62.9449C62.992 62.9449 65.2538 62.5903 66.1193 62.3373C66.9848 62.0844 68.3364 62.5853 68.7456 62.9945C69.6111 63.86 70.0178 65.1843 69.5615 66.3053C69.1052 67.4263 69.1027 67.0691 65.4869 66.0573C61.8711 65.0455 61.9405 64.6834 61.0576 63.2053C60.7377 62.63 59.8771 60.6385 59.8771 60.6385Z" fill="white" stroke="#263238" stroke-width="0.248" stroke-miterlimit="10"/>
<path d="M63.0069 62.9349L62.9301 63.8674" stroke="#263238" stroke-width="0.248" stroke-miterlimit="10"/>
</svg>
