<svg width="218" height="146" viewBox="0 0 218 146" fill="none" xmlns="http://www.w3.org/2000/svg">
<path d="M193.86 43.6727L191.084 57.1451L189.282 55.4011L186.245 57.5811L183.919 54.6889L178.687 58.4821L174.226 51.0265L169.255 53.9332L167.279 51.2155L160.957 54.7761L159.067 50.7068L163.486 29.2556L187.233 34.1533L193.86 43.6727Z" fill="#EBEBEB"/>
<path d="M187.233 34.1533L193.86 43.6727L185.62 41.9723L187.233 34.1533Z" fill="#DBDBDB"/>
<path d="M190.488 59.8483L186.405 79.6136L154.417 73.001L158.472 53.3955L160.375 57.4648L166.697 53.9042L168.659 56.6219L173.644 53.7152L178.106 61.1708L183.324 57.3776L185.649 60.2698L188.701 58.1043L190.488 59.8483Z" fill="#EBEBEB"/>
<path d="M144.709 57.523L112.11 59.5431L109.509 17.7016L133.721 16.2047L142.601 23.6603L144.709 57.523Z" fill="#EBEBEB"/>
<path d="M133.721 16.2047L142.601 23.6603L134.215 24.169L133.721 16.2047Z" fill="#DBDBDB"/>
<path d="M124.682 44.3558L124.551 43.4112C124.231 41.4492 124.769 39.2692 126.469 36.9729C127.995 34.9528 128.824 33.4849 128.736 31.8426C128.635 29.9824 127.399 28.8052 125.103 28.8924C123.781 28.965 122.356 29.4882 121.484 30.2294L120.481 27.9913C121.63 27.0466 123.679 26.349 125.612 26.2328C129.797 26.0002 131.847 28.4854 131.992 31.2613C132.137 33.732 130.844 35.5922 129.216 37.7722C127.719 39.7633 127.225 41.391 127.443 43.2513L127.53 44.196L124.682 44.3558ZM124.158 49.5006C124.086 48.149 124.943 47.1608 126.222 47.0881C127.501 47.0154 128.431 47.9165 128.504 49.2681C128.577 50.5325 127.792 51.5644 126.44 51.6516C125.161 51.7097 124.231 50.7796 124.158 49.5006Z" fill="#DBDBDB"/>
<path fill-rule="evenodd" clip-rule="evenodd" d="M42.699 38.2373C42.5682 38.5425 42.6264 38.8767 42.8298 39.1383C42.8783 39.2062 42.9316 39.274 42.9897 39.3418C43.0381 39.4193 43.0866 39.4968 43.135 39.5743C43.3094 39.8359 43.6146 39.9958 43.9344 39.9667L45.0389 39.865L45.3877 43.4402L44.2832 43.5565C43.9634 43.5855 43.7018 43.8035 43.571 44.1087C43.5129 44.2735 43.4402 44.4333 43.353 44.5883C43.2077 44.879 43.2222 45.2278 43.4112 45.4894L44.0652 46.3759L41.1294 48.4833L40.49 47.5822C40.301 47.3206 39.9813 47.1898 39.6616 47.2334C39.4872 47.2625 39.3079 47.2819 39.1238 47.2915C38.8041 47.3061 38.5134 47.495 38.3826 47.7857L37.9176 48.7885L34.633 47.3061L35.0981 46.3033C35.2289 45.9981 35.1708 45.6638 34.9818 45.4167C34.9237 45.3392 34.8704 45.2666 34.822 45.1987C34.7638 45.1309 34.7105 45.0583 34.6621 44.9807C34.4877 44.7046 34.1825 44.5447 33.8628 44.5738L32.7582 44.6901L32.4094 41.1003L33.4994 40.9986C33.8337 40.9695 34.0953 40.7515 34.2116 40.4463C34.2794 40.2816 34.3569 40.1169 34.4441 39.9522C34.5894 39.6761 34.5749 39.3273 34.386 39.0657L33.7465 38.1646L36.6677 36.0718L37.3072 36.9583C37.4961 37.2199 37.8158 37.3507 38.1356 37.3071C38.3196 37.2781 38.4989 37.2587 38.6733 37.249C38.993 37.2345 39.2837 37.0455 39.429 36.7549L39.8796 35.7521L43.1641 37.2345L42.699 38.2373ZM37.1764 39.865C35.8538 40.8242 35.5486 42.6699 36.4933 43.9925C37.438 45.315 39.2837 45.6202 40.6062 44.661C41.9288 43.7163 42.234 41.8706 41.2893 40.5481C40.3446 39.2255 38.4989 38.9203 37.1764 39.865Z" fill="#EBEBEB"/>
<path fill-rule="evenodd" clip-rule="evenodd" d="M191.753 85.456C191.869 85.6595 192.087 85.7612 192.32 85.7612C192.378 85.7515 192.436 85.7467 192.494 85.7467C192.562 85.7467 192.625 85.7515 192.683 85.7612C192.915 85.7612 193.133 85.6595 193.235 85.456L193.628 84.7875L195.808 86.0519L195.43 86.7204C195.313 86.9239 195.328 87.1564 195.444 87.3453C195.512 87.4519 195.575 87.5633 195.633 87.6796C195.735 87.8831 195.938 88.0139 196.171 88.0139H196.941V90.5281H196.171C195.938 90.5281 195.735 90.6589 195.633 90.8624C195.575 90.9787 195.512 91.0901 195.444 91.1967C195.328 91.3856 195.313 91.6181 195.43 91.8216L195.808 92.4901L193.628 93.7545L193.235 93.0715C193.133 92.8825 192.915 92.7808 192.683 92.7808C192.625 92.7905 192.562 92.7953 192.494 92.7953C192.436 92.7953 192.378 92.7905 192.32 92.7808C192.087 92.7808 191.869 92.8825 191.753 93.086L191.375 93.7545L189.18 92.4901L189.573 91.8216C189.689 91.6181 189.674 91.3856 189.544 91.1967C189.476 91.0901 189.413 90.9787 189.355 90.8624C189.253 90.6589 189.05 90.5281 188.832 90.5281H188.061V88.0139H188.832C189.05 88.0139 189.253 87.8831 189.355 87.6796C189.413 87.5633 189.476 87.4519 189.544 87.3453C189.674 87.1564 189.689 86.9239 189.573 86.7204L189.18 86.0519L191.375 84.7875L191.753 85.456ZM190.43 89.2637C190.43 90.4119 191.346 91.342 192.494 91.342C193.628 91.342 194.558 90.4119 194.558 89.2637C194.558 88.1301 193.628 87.2 192.494 87.2C191.346 87.2 190.43 88.1301 190.43 89.2637Z" fill="#EBEBEB"/>
<path fill-rule="evenodd" clip-rule="evenodd" d="M50.2562 27.1192C50.4016 27.2936 50.6341 27.3663 50.8521 27.3372C50.9102 27.3178 50.9732 27.3081 51.041 27.3081C51.0992 27.2985 51.1573 27.2888 51.2154 27.2791C51.448 27.2645 51.6514 27.1337 51.7386 26.9157L52.0293 26.2036L54.3692 27.1773L54.064 27.8895C53.9768 28.0929 54.0204 28.34 54.1657 28.5144C54.2529 28.6113 54.3304 28.7082 54.3982 28.8051C54.529 28.994 54.747 29.0957 54.965 29.0667L55.7353 28.9649L56.055 31.4792L55.2993 31.5664C55.0668 31.5955 54.8778 31.7553 54.8052 31.9733C54.7664 32.0896 54.718 32.2059 54.6598 32.3221C54.5581 32.5256 54.5872 32.7581 54.718 32.9471L55.1976 33.5575L53.192 35.098L52.7124 34.4731C52.5816 34.2987 52.349 34.2115 52.131 34.2551C52.0729 34.2648 52.0099 34.2745 51.9421 34.2841C51.884 34.2938 51.821 34.2987 51.7532 34.2987C51.5352 34.3277 51.3317 34.4585 51.2445 34.662L50.9538 35.3887L48.614 34.4149L48.9192 33.7028C49.0064 33.4848 48.9628 33.2523 48.8174 33.0779C48.7302 32.981 48.6527 32.8841 48.5849 32.7872C48.4541 32.5983 48.2361 32.4965 48.0181 32.5256L47.2478 32.6128L46.9136 30.1131L47.6838 30.0113C47.9164 29.9823 48.0908 29.8369 48.178 29.6189C48.2167 29.5027 48.2652 29.3864 48.3233 29.2701C48.4105 29.0667 48.396 28.8196 48.2506 28.6452L47.7856 28.0348L49.7912 26.4943L50.2562 27.1192ZM49.4278 31.0723C49.5877 32.2059 50.6196 33.0052 51.7532 32.8599C52.8868 32.7145 53.6861 31.6681 53.5408 30.5345C53.3809 29.4009 52.349 28.6016 51.2154 28.7615C50.0818 28.9068 49.2825 29.9387 49.4278 31.0723Z" fill="#EBEBEB"/>
<path d="M34.8219 92.0832C34.9382 89.2637 34.8946 86.4442 34.7056 83.6393C34.3278 77.8405 33.3831 72.0998 32.0751 66.4464C31.3339 63.2636 30.4183 60.1389 29.4736 57.0142C29.4446 56.9125 29.2992 56.9416 29.3283 57.0433C32.2495 68.0596 34.6475 79.4246 34.4876 90.8769C34.444 94.0742 34.0662 97.228 33.761 100.411C33.761 100.498 33.8918 100.527 33.9208 100.44C34.5167 97.7221 34.7202 94.859 34.8219 92.0832Z" fill="#EBEBEB"/>
<path d="M29.3283 57.0435C29.3283 57.0435 24.8957 68.2923 25.8839 70.9373C26.8722 73.5824 28.9214 74.1347 28.9214 74.1347C28.9214 74.1347 26.2037 78.0151 28.1075 81.6484C29.9969 85.2672 34.2115 85.1073 34.4877 89.2203C34.4877 89.2203 34.7202 71.9983 29.3283 57.0435Z" fill="#EBEBEB"/>
<path d="M34.0079 82.1133C34.0175 82.094 34.0175 82.0746 34.0079 82.0552C33.3829 74.4107 32.0313 66.7807 29.706 59.4268C29.6915 59.3977 29.6624 59.4123 29.6624 59.4268C30.5489 62.7259 31.3337 66.025 32.0023 69.3531C31.4209 68.7572 30.6652 68.4229 29.8804 68.1759C29.8659 68.1759 29.8513 68.1904 29.8659 68.2049C30.6943 68.5537 31.4791 68.9607 32.0604 69.6583C32.1863 70.3074 32.3123 70.9614 32.4383 71.6203C31.4355 70.5157 30.0693 69.9635 28.6887 69.4403C28.6741 69.4257 28.6596 69.4548 28.6887 69.4693C30.1129 70.0507 31.5372 70.8064 32.5109 72.0418C32.85 73.902 33.1455 75.772 33.3975 77.6516C32.6708 76.8959 31.7843 76.3872 30.7524 76.1402C30.7233 76.1256 30.7088 76.1838 30.7379 76.1838C31.7988 76.489 32.6999 77.0848 33.4265 77.8987C33.4265 77.9084 33.4314 77.9132 33.4411 77.9132C33.5283 78.5721 33.6106 79.2357 33.6881 79.9043C33.1359 79.4247 32.5109 79.0613 31.8424 78.7852C31.8133 78.7707 31.8133 78.7997 31.8279 78.8143C32.5109 79.1049 33.1359 79.5264 33.6881 80.0351C33.6881 80.0496 33.7027 80.0496 33.7027 80.0496C33.7753 80.6745 33.848 81.314 33.9207 81.9389C32.9033 80.7181 31.6389 79.8316 30.1565 79.2503C30.1275 79.2503 30.1129 79.2939 30.142 79.3084C31.5808 79.9333 32.8597 80.9216 33.848 82.1569C33.8771 82.186 33.9061 82.186 33.9352 82.186C34.0321 83.1549 34.1193 84.1238 34.1968 85.0927C34.1968 85.1072 34.2113 85.1072 34.2113 85.0927C34.1532 84.0947 34.0854 83.1016 34.0079 82.1133Z" fill="white"/>
<path d="M30.4473 67.0569C29.677 66.5337 28.7033 66.3012 27.7877 66.2285C27.7586 66.2285 27.7586 66.2576 27.7877 66.2576C28.7323 66.4029 29.5317 66.7517 30.4182 67.1296C30.4473 67.1441 30.4763 67.086 30.4473 67.0569Z" fill="white"/>
<path d="M30.985 78.9741C30.3746 78.5963 29.677 78.3928 28.9794 78.2911C28.9649 78.2765 28.9649 78.3201 28.9794 78.3201C29.6915 78.4509 30.3165 78.698 30.9559 79.0177C30.985 79.0323 31.0141 78.9887 30.985 78.9741Z" fill="white"/>
<path d="M46.4778 71.1116C44.632 72.4196 42.859 73.9166 41.3475 75.6024C39.7343 77.39 38.5716 79.4392 37.7578 81.7064C36.0719 86.3426 35.1563 91.3566 35.0691 96.2979C35.0255 99.0592 35.2726 101.791 35.8539 104.495C35.883 104.596 36.0283 104.567 36.0138 104.466C35.2871 99.7132 35.3162 94.8736 36.101 90.1212C36.8567 85.4706 38.0484 80.413 41.0132 76.6343C42.6264 74.5706 44.632 72.9428 46.6086 71.2715C46.7248 71.1843 46.5795 71.039 46.4778 71.1116Z" fill="#EBEBEB"/>
<path d="M35.7229 92.9408C35.7229 92.9408 37.2489 90.3829 39.458 88.1593C41.6816 85.9502 43.5418 84.3661 43.8325 82.8982C44.1232 81.4449 41.6089 80.3549 41.6089 80.3549C41.6089 80.3549 44.6754 80.9072 45.5184 79.6282C46.3613 78.3348 46.7682 70.8792 46.7682 70.8792C46.7682 70.8792 41.1874 74.8613 38.586 80.4421C35.9845 86.0374 35.7229 92.9408 35.7229 92.9408Z" fill="#EBEBEB"/>
<path d="M44.8353 72.783C42.4809 75.0938 40.1265 77.5499 38.7458 80.5874C38.2662 81.6192 37.8593 82.6947 37.5105 83.7992C37.433 84.0221 37.3603 84.2449 37.2925 84.4678C37.2828 84.4774 37.278 84.4871 37.278 84.4968C36.5949 86.764 36.1153 89.1039 35.6938 91.3856C35.6938 91.4002 35.7229 91.4147 35.7229 91.4002C35.9554 90.2375 36.2316 89.0603 36.5222 87.8831C36.5319 87.8831 36.5416 87.8831 36.5513 87.8831C37.0309 87.6796 37.5105 87.5634 38.0192 87.5052C38.0482 87.5052 38.0482 87.4471 38.0192 87.4471C37.525 87.4762 37.0406 87.5634 36.5658 87.7087C36.842 86.6623 37.1326 85.6014 37.4669 84.5695C38.5424 84.3079 39.6614 84.1626 40.7805 84.1335V84.119C39.6614 84.0608 38.615 84.1626 37.525 84.3951C37.5832 84.211 37.6413 84.0318 37.6994 83.8574C38.4261 83.6975 39.1528 83.5522 39.894 83.4795C39.9085 83.4795 39.9085 83.465 39.894 83.465C39.1673 83.4795 38.4552 83.5522 37.743 83.7266C38.0482 82.8255 38.368 81.939 38.7313 81.0815C39.0365 80.3694 39.3998 79.6863 39.7922 79.0323C40.3881 78.9015 40.9694 78.7707 41.5798 78.7126C41.5944 78.7126 41.5944 78.6835 41.5798 78.6835C41.0276 78.6399 40.4462 78.6835 39.9085 78.8434C40.1992 78.3686 40.5092 77.9084 40.8386 77.4627C42.0885 77.1866 43.3529 76.925 44.6464 77.172C44.6609 77.172 44.6754 77.1284 44.6464 77.1284C43.4256 76.8087 42.2193 76.9976 41.013 77.2302C41.139 77.0558 41.2698 76.8814 41.4054 76.707C42.1757 76.4744 42.946 76.3582 43.7453 76.3436C43.7598 76.3436 43.7744 76.3146 43.7453 76.3146C43.0186 76.2419 42.2774 76.3146 41.5653 76.5035C42.6117 75.2246 43.7453 74.0183 44.8789 72.8266C44.937 72.7684 44.8934 72.7394 44.8353 72.783Z" fill="white"/>
<path d="M44.7771 77.8696C44.3992 77.826 44.0359 77.7969 43.658 77.8405C43.6144 77.8405 43.6144 77.9132 43.6726 77.9132C44.0359 77.9277 44.3992 77.8987 44.7626 77.9132C44.7916 77.9132 44.8062 77.8696 44.7771 77.8696Z" fill="white"/>
<path d="M40.7515 85.1072C40.1701 85.0927 39.5888 85.2526 39.0365 85.456C39.022 85.456 39.022 85.4851 39.0365 85.4706C39.6179 85.3398 40.1847 85.2816 40.766 85.1944C40.8096 85.1799 40.8096 85.1072 40.7515 85.1072Z" fill="white"/>
<path d="M39.5452 82.6075C39.3127 82.5929 39.0511 82.6365 38.8185 82.6801C38.7895 82.6801 38.804 82.7092 38.8185 82.7092C39.0656 82.7237 39.3272 82.7237 39.5597 82.6801C39.6033 82.6801 39.5888 82.6075 39.5452 82.6075Z" fill="white"/>
<path d="M19.3585 79.0324C21.1606 79.6573 22.9337 80.4566 24.5469 81.474C26.2618 82.5494 27.6861 83.9301 28.8778 85.5724C31.3049 88.9441 33.2087 92.7954 34.415 96.763C35.0835 98.9866 35.5195 101.268 35.6649 103.594C35.6794 103.681 35.5486 103.681 35.5341 103.608C35.0254 99.597 33.8773 95.673 32.1623 92.0106C30.4619 88.4209 28.3255 84.5986 25.0555 82.2297C23.2825 80.9362 21.2769 80.0788 19.2858 79.1922C19.1841 79.1486 19.2567 78.9888 19.3585 79.0324Z" fill="#EBEBEB"/>
<path d="M33.1068 94.2051C33.1068 94.2051 31.2902 92.4902 28.9794 91.1967C26.6686 89.9178 24.7938 89.0748 24.227 87.9558C23.6602 86.8367 25.4332 85.3834 25.4332 85.3834C25.4332 85.3834 23.0788 86.546 22.1051 85.6885C21.1314 84.8456 19.0676 78.9015 19.0676 78.9015C19.0676 78.9015 24.5176 80.8344 27.9039 84.7584C31.3047 88.6824 33.1068 94.2051 33.1068 94.2051Z" fill="#EBEBEB"/>
<path d="M32.8309 92.9844C30.1132 87.8832 26.4799 83.2616 21.5095 80.2096C21.4998 80.2096 21.4998 80.2096 21.5095 80.2096C22.8175 81.0525 24.0237 82.0117 25.1428 83.0581C24.14 83.0291 23.1081 83.1889 22.2216 83.6831C22.1925 83.6831 22.2071 83.7121 22.2361 83.7121C23.2244 83.3779 24.1836 83.1453 25.2445 83.2035C25.2591 83.2035 25.2591 83.1889 25.2736 83.1889C25.448 83.3536 25.6224 83.5232 25.7968 83.6976C25.2736 83.7121 24.7504 83.7993 24.2417 83.9011C24.2272 83.9011 24.2272 83.9301 24.2417 83.9301C24.794 83.8139 25.3317 83.7848 25.884 83.7848C26.7996 84.7004 27.6571 85.6887 28.4564 86.706C28.0931 86.6479 27.7152 86.6769 27.3664 86.7787C27.3373 86.7932 27.3373 86.8223 27.3664 86.8223C27.7733 86.7787 28.1512 86.7787 28.5436 86.8077C28.6889 86.9918 28.8343 87.1807 28.9796 87.3745C27.8605 87.3019 26.7705 87.4181 25.6805 87.6943C25.666 87.6943 25.666 87.7233 25.6805 87.7233C26.8141 87.5053 27.9332 87.4327 29.0813 87.5053C29.2121 87.6797 29.3429 87.8687 29.4883 88.0576C28.8197 88.0431 28.1657 88.1303 27.5117 88.2901C27.4972 88.2901 27.4972 88.3337 27.5263 88.3192C28.1948 88.1739 28.8779 88.1303 29.5609 88.1739C30.1423 88.978 30.7042 89.7967 31.2468 90.63C30.9561 90.5719 30.6655 90.6009 30.3748 90.6881C30.3603 90.6881 30.3748 90.7027 30.3893 90.7027C30.7091 90.6736 30.9997 90.7172 31.3195 90.7463C31.8039 91.502 32.269 92.2626 32.7147 93.028C32.7583 93.1007 32.86 93.0425 32.8309 92.9844Z" fill="white"/>
<path d="M28.6016 88.7406C28.0639 88.697 27.5262 88.7842 27.0175 88.944C27.003 88.944 27.003 88.9731 27.0175 88.9586C27.5407 88.8714 28.0639 88.8278 28.5871 88.7987C28.6307 88.7987 28.6307 88.7551 28.6016 88.7406Z" fill="white"/>
<path d="M23.8492 82.5203C23.6167 82.4913 23.3551 82.5349 23.1225 82.5639C23.0935 82.5785 23.108 82.6075 23.1371 82.6075C23.3696 82.5785 23.6021 82.593 23.8492 82.593C23.8928 82.593 23.8928 82.5349 23.8492 82.5203Z" fill="white"/>
<path d="M40.1266 111.093H27.8459L29.6045 98.2599L30.0405 94.9753H37.9321L38.3681 98.2599L40.1266 111.093Z" fill="#DBDBDB"/>
<path d="M38.3681 98.2599H29.6045L30.0405 94.9753H37.9321L38.3681 98.2599Z" fill="#C7C7C7"/>
<path d="M39.0511 96.6177H28.9214V93.8418H39.0511V96.6177Z" fill="#DBDBDB"/>
<path d="M20.0415 111.093L42.1322 111.02L64.2374 110.991L108.419 110.948L152.6 110.991L174.705 111.02L196.796 111.093L174.705 111.166L152.6 111.18L108.419 111.238L64.2374 111.18L42.1322 111.151L20.0415 111.093Z" fill="#263238"/>
<path d="M192.349 123.621C192.349 128.664 155.027 132.748 109 132.748C62.973 132.748 25.6514 128.664 25.6514 123.621C25.6514 118.578 62.973 114.479 109 114.479C155.027 114.479 192.349 118.578 192.349 123.621Z" fill="#EBEBEB"/>
<path d="M167.511 125.583H78.9597L91.7636 52.9595H180.315L167.511 125.583Z" fill="#DCDCDC"/>
<path d="M122.065 45.4313H93.086L91.7634 52.9595H122.778L122.065 45.4313Z" fill="#DCDCDC"/>
<g opacity="0.1">
<path d="M167.511 125.583H78.9597L91.7636 52.9595H180.315L167.511 125.583Z" fill="black"/>
<path d="M122.065 45.4313H93.086L91.7634 52.9595H122.778L122.065 45.4313Z" fill="black"/>
</g>
<path d="M89.9613 48.5123C89.845 48.0909 89.8159 47.6694 89.8159 47.2479C89.8159 46.8265 89.845 46.405 89.9613 45.9835C90.0775 46.405 90.1066 46.8265 90.1066 47.2479C90.1066 47.6694 90.0775 48.0909 89.9613 48.5123Z" fill="#263238"/>
<path d="M87.3889 49.2535C87.0692 48.9483 86.8366 48.585 86.6332 48.2216C86.4152 47.8583 86.2262 47.4804 86.1245 47.059C86.4297 47.3642 86.6622 47.7275 86.8802 48.0763C87.0837 48.4542 87.2726 48.832 87.3889 49.2535Z" fill="#263238"/>
<path d="M85.5288 51.1864C85.1073 51.0701 84.7294 50.8812 84.3661 50.6777C84.0028 50.4597 83.6394 50.2272 83.3342 49.922C83.7557 50.0237 84.1336 50.2127 84.5114 50.4307C84.8602 50.6341 85.2236 50.8812 85.5288 51.1864Z" fill="#263238"/>
<path d="M84.8891 53.7879C84.4677 53.9042 84.0462 53.9332 83.6248 53.9332C83.2033 53.9332 82.7818 53.9042 82.3604 53.7879C82.7818 53.6716 83.2033 53.6426 83.6248 53.6426C84.0462 53.6426 84.4677 53.6716 84.8891 53.7879Z" fill="#263238"/>
<path d="M85.6303 56.3604C85.3251 56.6656 84.9618 56.9126 84.613 57.1161C84.2351 57.3341 83.8573 57.523 83.4358 57.6248C83.741 57.3196 84.1043 57.087 84.4677 56.869C84.831 56.6656 85.2089 56.4766 85.6303 56.3604Z" fill="#263238"/>
<path d="M87.5632 58.2206C87.447 58.642 87.258 59.0199 87.0546 59.3832C86.8366 59.7466 86.604 60.1099 86.2988 60.4151C86.4151 59.9936 86.5895 59.6158 86.8075 59.2379C87.0255 58.8746 87.258 58.5258 87.5632 58.2206Z" fill="#263238"/>
<path d="M90.1649 58.86C90.2811 59.2815 90.3102 59.7029 90.3102 60.1244C90.3102 60.5459 90.2811 60.9673 90.1649 61.3888C90.0486 60.9673 90.0195 60.5459 90.0195 60.1244C90.0195 59.7029 90.0486 59.2815 90.1649 58.86Z" fill="#263238"/>
<path d="M92.7373 58.1189C93.057 58.4241 93.2896 58.7729 93.493 59.1362C93.711 59.5141 93.9 59.892 94.0017 60.3134C93.6965 60.0082 93.464 59.6449 93.246 59.2816C93.0425 58.9182 92.8536 58.5404 92.7373 58.1189Z" fill="#263238"/>
<path d="M94.5974 56.1858C95.0189 56.3021 95.3967 56.491 95.7601 56.6945C96.1234 56.9125 96.4867 57.145 96.7919 57.4502C96.3705 57.3339 95.9926 57.145 95.6147 56.9415C95.2514 56.7235 94.9026 56.491 94.5974 56.1858Z" fill="#263238"/>
<path d="M95.2371 53.5844C95.6585 53.4682 96.08 53.4391 96.5015 53.4391C96.9229 53.4391 97.3444 53.4682 97.7659 53.5844C97.3444 53.7007 96.9229 53.7298 96.5015 53.7298C96.08 53.7298 95.6585 53.7007 95.2371 53.5844Z" fill="#263238"/>
<path d="M94.4956 51.012C94.8008 50.6922 95.1496 50.4597 95.5129 50.2562C95.8908 50.0382 96.2687 49.8493 96.6901 49.7476C96.3849 50.0528 96.0216 50.2853 95.6583 50.5033C95.2949 50.7068 94.9171 50.8957 94.4956 51.012Z" fill="#263238"/>
<path d="M92.5627 49.1517C92.679 48.7302 92.8679 48.3524 93.0714 47.9745C93.2894 47.6112 93.5219 47.2624 93.8271 46.9572C93.7109 47.3786 93.5219 47.7565 93.3185 48.1198C93.1005 48.4832 92.8679 48.8465 92.5627 49.1517Z" fill="#263238"/>
<path d="M167.38 125.582H78.6399L66.0396 55.59H154.78L167.38 125.582Z" fill="#DCDCDC"/>
<path d="M100.483 94.6846C100.483 96.7338 98.8265 98.3761 96.7918 98.3761C94.7571 98.3761 93.1003 96.7338 93.1003 94.6846C93.1003 92.65 94.7571 91.0077 96.7918 91.0077C98.8265 91.0077 100.483 92.65 100.483 94.6846Z" fill="#263238"/>
<path d="M129.637 94.6846C129.637 96.7338 127.981 98.3761 125.946 98.3761C123.911 98.3761 122.254 96.7338 122.254 94.6846C122.254 92.65 123.911 91.0077 125.946 91.0077C127.981 91.0077 129.637 92.65 129.637 94.6846Z" fill="#263238"/>
<path d="M116.674 98.972L116.47 98.5796C116.441 98.5506 114.537 95.019 110.7 95.019C107.212 95.019 106.355 98.3471 106.326 98.4779L106.224 98.8994L105.367 98.6959L105.468 98.2744C105.483 98.2308 106.515 94.147 110.7 94.147C115.075 94.147 117.153 98.0128 117.24 98.1727L117.444 98.5651L116.674 98.972Z" fill="#263238"/>
<path d="M161.494 94.2632C161.688 94.2245 161.877 94.1809 162.061 94.1324" stroke="#263238" stroke-width="0.290667" stroke-miterlimit="10"/>
<path d="M163.18 93.7982C167.627 92.3013 171.348 88.7987 171.697 84.7149C172.467 75.7042 161.494 70.7338 162.628 60.3134C163.718 50.3871 174.124 49.675 178.309 51.0556C182.916 52.5671 181.332 56.9998 177.161 56.433C169.924 55.4302 165.375 47.5676 168.805 38.6296C171.377 31.9588 177.786 29.4446 180.388 28.6743" stroke="#263238" stroke-width="0.290667" stroke-miterlimit="10" stroke-dasharray="1.16 1.16"/>
<path d="M180.94 28.5289C181.303 28.4271 181.507 28.3981 181.507 28.3981" stroke="#263238" stroke-width="0.290667" stroke-miterlimit="10"/>
<path d="M186.114 26.785C185.373 24.4888 180.417 25.3172 181.376 28.3256C182.35 31.3194 186.855 29.0813 186.114 26.785Z" fill="#263238"/>
<path d="M178.687 25.8694C178.716 24.8521 180.126 24.0818 182.103 24.4306C184.079 24.794 185.954 26.131 185.954 26.131C185.954 26.131 183.992 27.3228 181.986 27.5408C179.981 27.7442 178.644 26.8722 178.687 25.8694Z" fill="#EBEBEB"/>
<path d="M185.954 26.131C184.922 26.131 183.89 26.1019 182.873 26.0728C181.841 26.0292 180.809 25.9856 179.792 25.8984C180.809 25.8984 181.841 25.9275 182.873 25.9566C183.89 26.0002 184.922 26.0438 185.954 26.131Z" fill="#263238"/>
<path d="M180.678 24.9683C180.969 25.0991 181.245 25.2735 181.521 25.4333C181.798 25.6223 182.059 25.7821 182.321 26.0001C182.016 25.8693 181.739 25.6949 181.463 25.5351C181.202 25.3607 180.926 25.1863 180.678 24.9683Z" fill="#263238"/>
<path d="M183.367 26.0292C183.105 26.2617 182.829 26.4361 182.539 26.625C182.248 26.814 181.972 26.9884 181.652 27.1337C181.914 26.9157 182.204 26.7268 182.48 26.5378C182.771 26.3634 183.062 26.1745 183.367 26.0292Z" fill="#263238"/>
<path d="M183.672 25.4624C183.817 25.5351 183.948 25.6368 184.079 25.724C184.195 25.8403 184.326 25.942 184.413 26.0728C184.268 26.0147 184.137 25.9129 184.006 25.8112C183.89 25.7095 183.759 25.6077 183.672 25.4624Z" fill="#263238"/>
<path d="M180.577 31.8426C181.187 32.6419 182.786 32.453 184.181 30.9997C185.576 29.5463 186.303 27.3809 186.303 27.3809C186.303 27.3809 184.021 27.5553 182.277 28.5435C180.518 29.5463 179.952 31.0433 180.577 31.8426Z" fill="#EBEBEB"/>
<path d="M186.303 27.3809C185.474 27.9767 184.661 28.6017 183.847 29.2266C183.033 29.8661 182.219 30.491 181.449 31.1595C182.277 30.5637 183.091 29.9387 183.905 29.3138C184.719 28.6743 185.518 28.0494 186.303 27.3809Z" fill="#263238"/>
<path d="M182.713 31.4065C182.873 31.1158 182.989 30.8252 183.12 30.52C183.236 30.2293 183.353 29.9241 183.44 29.6044C183.28 29.895 183.149 30.1857 183.018 30.4909C182.902 30.7816 182.786 31.0868 182.713 31.4065Z" fill="#263238"/>
<path d="M184.268 28.965C183.934 28.936 183.585 28.9505 183.251 28.965C182.917 28.9796 182.582 29.0086 182.234 29.0668C182.582 29.0958 182.917 29.0813 183.251 29.0668C183.6 29.0522 183.934 29.0232 184.268 28.965Z" fill="#263238"/>
<path d="M184.849 29.2556C184.922 29.1102 184.98 28.9504 185.024 28.7905C185.053 28.6452 185.096 28.4853 185.096 28.3109C185.009 28.4562 184.966 28.6161 184.922 28.7614C184.878 28.9213 184.849 29.0812 184.849 29.2556Z" fill="#263238"/>
<path d="M186.114 26.7849C185.663 26.9302 185.169 26.6832 185.024 26.2326C184.879 25.7676 185.126 25.2734 185.591 25.1281C186.041 24.9828 186.535 25.2298 186.681 25.6949C186.826 26.1454 186.579 26.6396 186.114 26.7849Z" fill="#455A64"/>
<path d="M186.652 28.4418C186.201 28.6016 185.707 28.34 185.562 27.8895C185.416 27.4244 185.663 26.9303 186.114 26.785C186.579 26.6396 187.073 26.8867 187.218 27.3518C187.364 27.8023 187.117 28.2964 186.652 28.4418Z" fill="#455A64"/>
</svg>
