<svg width="80" height="97" viewBox="0 0 80 97" fill="none" xmlns="http://www.w3.org/2000/svg">
<g id="freepik--speech-bubble--inject-91">
<path id="Vector" d="M71.0124 0H9.00533C6.61697 0 4.32643 0.948776 2.6376 2.6376C0.948776 4.32643 0 6.61698 0 9.00534V69.2895C0 71.6779 0.948776 73.9684 2.6376 75.6572C4.32643 77.3461 6.61697 78.2949 9.00533 78.2949H28.8455L15.4885 96.4476L38.579 78.2949H70.9947C73.383 78.2949 75.6736 77.3461 77.3624 75.6572C79.0512 73.9684 80 71.6779 80 69.2895V9.00534C80 6.62005 79.0537 4.33218 77.3687 2.64386C75.6837 0.955546 73.3977 0.00470471 71.0124 0Z" fill="#828282"/>
<path id="Vector_2" opacity="0.6" d="M71.0124 0H9.00533C6.61697 0 4.32643 0.948776 2.6376 2.6376C0.948776 4.32643 0 6.61698 0 9.00534V69.2895C0 71.6779 0.948776 73.9684 2.6376 75.6572C4.32643 77.3461 6.61697 78.2949 9.00533 78.2949H28.8455L15.4885 96.4476L38.579 78.2949H70.9947C73.383 78.2949 75.6736 77.3461 77.3624 75.6572C79.0512 73.9684 80 71.6779 80 69.2895V9.00534C80 6.62005 79.0537 4.33218 77.3687 2.64386C75.6837 0.955546 73.3977 0.00470471 71.0124 0Z" fill="white"/>
<path id="Vector_3" d="M40.018 67.3002C55.5663 67.3002 68.1707 54.6958 68.1707 39.1474C68.1707 23.5991 55.5663 10.9947 40.018 10.9947C24.4696 10.9947 11.8652 23.5991 11.8652 39.1474C11.8652 54.6958 24.4696 67.3002 40.018 67.3002Z" fill="#828282"/>
<path id="Vector_4" opacity="0.2" d="M63.5022 44.6743C66.5645 31.6994 58.5288 18.6987 45.554 15.6363C32.5791 12.574 19.5784 20.6097 16.5161 33.5845C13.4537 46.5594 21.4894 59.5601 34.4642 62.6224C47.4391 65.6848 60.4398 57.6491 63.5022 44.6743Z" fill="black"/>
<path id="Vector 2" d="M49 29L30 49M30 29L49 49" stroke="white" stroke-width="5" stroke-linecap="round" stroke-linejoin="round"/>
</g>
</svg>
