<svg width="12" height="14" viewBox="0 0 12 14" fill="none" xmlns="http://www.w3.org/2000/svg">
<path fill-rule="evenodd" clip-rule="evenodd" d="M0.3125 6.125C0.3125 2.93439 2.87534 0.729164 6 0.729164C9.12466 0.729164 11.6875 2.93439 11.6875 6.125C11.6875 8.55801 10.5992 10.3443 9.36328 11.5144C8.74695 12.0979 8.09091 12.5316 7.50679 12.8211C6.93716 13.1035 6.39126 13.2707 6 13.2707C5.60874 13.2707 5.06284 13.1035 4.49321 12.8211C3.90909 12.5316 3.25305 12.0979 2.63672 11.5144C1.40077 10.3443 0.3125 8.55801 0.3125 6.125ZM6 8.16666C6.9665 8.16666 7.75 7.38316 7.75 6.41666C7.75 5.45017 6.9665 4.66666 6 4.66666C5.0335 4.66666 4.25 5.45017 4.25 6.41666C4.25 7.38316 5.0335 8.16666 6 8.16666Z" fill="#DCDCDC"/>
</svg>
