<svg width="19" height="19" viewBox="0 0 19 19" fill="none" xmlns="http://www.w3.org/2000/svg">
<path fill-rule="evenodd" clip-rule="evenodd" d="M0.09375 0.75C0.09375 0.387563 0.387563 0.09375 0.75 0.09375H18.25C18.6124 0.09375 18.9062 0.387563 18.9062 0.75C18.9062 1.11244 18.6124 1.40625 18.25 1.40625H17.375V7.4C17.375 9.36018 17.375 10.3403 16.9935 11.089C16.658 11.7475 16.1225 12.283 15.464 12.6185C14.7153 13 13.7352 13 11.775 13H10.1562V15.2534L14.2126 17.6873C14.5234 17.8737 14.6242 18.2769 14.4377 18.5876C14.2513 18.8984 13.8481 18.9992 13.5374 18.8127L10.1562 16.7841V18.25C10.1562 18.6124 9.86244 18.9062 9.5 18.9062C9.13756 18.9062 8.84375 18.6124 8.84375 18.25V16.7841L5.46264 18.8127C5.15185 18.9992 4.74874 18.8984 4.56227 18.5876C4.3758 18.2769 4.47657 17.8737 4.78736 17.6873L8.84375 15.2534V13H7.225C5.26482 13 4.28472 13 3.53603 12.6185C2.87747 12.283 2.34203 11.7475 2.00648 11.089C1.625 10.3403 1.625 9.36018 1.625 7.4V1.40625H0.75C0.387563 1.40625 0.09375 1.11244 0.09375 0.75ZM6.65625 6.875C6.65625 6.51256 6.36244 6.21875 6 6.21875C5.63756 6.21875 5.34375 6.51256 5.34375 6.875V8.625C5.34375 8.98744 5.63756 9.28125 6 9.28125C6.36244 9.28125 6.65625 8.98744 6.65625 8.625V6.875ZM9.5 4.46875C9.86244 4.46875 10.1562 4.76256 10.1562 5.125V8.625C10.1562 8.98744 9.86244 9.28125 9.5 9.28125C9.13756 9.28125 8.84375 8.98744 8.84375 8.625V5.125C8.84375 4.76256 9.13756 4.46875 9.5 4.46875ZM13.6562 6C13.6562 5.63756 13.3624 5.34375 13 5.34375C12.6376 5.34375 12.3438 5.63756 12.3438 6V8.625C12.3438 8.98744 12.6376 9.28125 13 9.28125C13.3624 9.28125 13.6562 8.98744 13.6562 8.625V6Z" fill="#A5A5A5"/>
</svg>
