<svg width="24" height="24" viewBox="0 0 24 24" fill="none" xmlns="http://www.w3.org/2000/svg">
<path d="M15.0662 18.7621H19.7237C20.8712 18.7621 21.8012 17.8246 21.8012 16.6771V14.6221M15.0662 4.13715H19.7237C20.8712 4.13715 21.8012 5.06715 21.8012 6.21465V8.27715M1.99365 8.27715V6.21465C1.99365 5.06715 2.92365 4.13715 4.07115 4.13715H8.72115M1.99365 14.6221V16.6771C1.99365 17.8246 2.92365 18.7621 4.07115 18.7621H8.72115" stroke="white" stroke-width="1.5" stroke-miterlimit="10" stroke-linecap="round" stroke-linejoin="round"/>
<path d="M15.0662 18.7621H19.7237C20.8712 18.7621 21.8012 17.8246 21.8012 16.6771V14.6221M15.0662 4.13715H19.7237C20.8712 4.13715 21.8012 5.06715 21.8012 6.21465V8.27715M1.99365 8.27715V6.21465C1.99365 5.06715 2.92365 4.13715 4.07115 4.13715H8.72115M1.99365 14.6221V16.6771C1.99365 17.8246 2.92365 18.7621 4.07115 18.7621H8.72115" stroke="white" stroke-width="1.5" stroke-miterlimit="10" stroke-linecap="round" stroke-linejoin="round"/>
<path d="M6.96924 7.98074V14.9182" stroke="white" stroke-width="1.5" stroke-miterlimit="10" stroke-linecap="round" stroke-linejoin="round"/>
<path d="M11.8975 7.98074V12.6682" stroke="white" stroke-width="1.5" stroke-miterlimit="10" stroke-linecap="round" stroke-linejoin="round"/>
<path d="M16.8267 7.98074V14.9182" stroke="white" stroke-width="1.5" stroke-miterlimit="10" stroke-linecap="round" stroke-linejoin="round"/>
</svg>
