<svg width="21" height="21" viewBox="0 0 21 21" fill="none" xmlns="http://www.w3.org/2000/svg">
<g clip-path="url(#clip0_245_9339)">
<path fill-rule="evenodd" clip-rule="evenodd" d="M7 0.21875C7.36244 0.21875 7.65625 0.512563 7.65625 0.875V1.11474C8.35752 1.09375 9.16959 1.09375 10.1203 1.09375H10.15H10.85H10.8797C11.8304 1.09375 12.6425 1.09375 13.3438 1.11474V0.875C13.3438 0.512563 13.6376 0.21875 14 0.21875C14.3624 0.21875 14.6562 0.512563 14.6562 0.875V1.19608C15.4352 1.27958 16.0877 1.435 16.6814 1.73749C17.7927 2.30374 18.6963 3.20729 19.2625 4.31862C19.6036 4.98807 19.7577 5.73234 19.8325 6.64837C19.9063 7.55056 19.9063 8.67527 19.9062 10.1203V10.15V10.85V10.8797C19.9063 12.3247 19.9063 13.4494 19.8325 14.3516C19.7577 15.2677 19.6036 16.0119 19.2625 16.6814C18.6963 17.7927 17.7927 18.6963 16.6814 19.2625C16.0119 19.6036 15.2677 19.7577 14.3516 19.8325C13.4494 19.9063 12.3247 19.9063 10.8797 19.9062H10.85H10.15H10.1203C8.67527 19.9063 7.55056 19.9063 6.64837 19.8325C5.73234 19.7577 4.98807 19.6036 4.31862 19.2625C3.20729 18.6963 2.30374 17.7927 1.73749 16.6814C1.39639 16.0119 1.2423 15.2677 1.16746 14.3516C1.09374 13.4494 1.09375 12.3247 1.09375 10.8797V10.85V10.15V10.1203C1.09375 8.67529 1.09374 7.55057 1.16746 6.64837C1.2423 5.73234 1.39639 4.98807 1.73749 4.31862C2.30374 3.20729 3.20729 2.30374 4.31862 1.73749C4.91229 1.435 5.5648 1.27958 6.34375 1.19608V0.875C6.34375 0.512563 6.63756 0.21875 7 0.21875ZM13.3438 2.42778V3.5C13.3438 3.86244 13.6376 4.15625 14 4.15625C14.3624 4.15625 14.6562 3.86244 14.6562 3.5V2.51723C15.269 2.5928 15.7109 2.71608 16.0855 2.90694C16.9499 3.34736 17.6526 4.05011 18.0931 4.91448C18.3242 5.36807 18.4562 5.92038 18.5244 6.75525C18.5932 7.59778 18.5938 8.66903 18.5938 10.15V10.85C18.5938 12.331 18.5932 13.4022 18.5244 14.2448C18.4562 15.0796 18.3242 15.6319 18.0931 16.0855C17.6526 16.9499 16.9499 17.6526 16.0855 18.0931C15.6319 18.3242 15.0796 18.4562 14.2448 18.5244C13.4022 18.5932 12.331 18.5938 10.85 18.5938H10.15C8.66903 18.5938 7.59778 18.5932 6.75525 18.5244C5.92038 18.4562 5.36807 18.3242 4.91448 18.0931C4.05011 17.6526 3.34736 16.9499 2.90694 16.0855C2.67583 15.6319 2.54381 15.0796 2.4756 14.2448C2.40676 13.4022 2.40625 12.331 2.40625 10.85V10.15C2.40625 8.66903 2.40676 7.59778 2.4756 6.75525C2.54381 5.92038 2.67583 5.36807 2.90694 4.91448C3.34736 4.05011 4.05011 3.34736 4.91448 2.90694C5.28906 2.71608 5.73098 2.5928 6.34375 2.51723V3.5C6.34375 3.86244 6.63756 4.15625 7 4.15625C7.36244 4.15625 7.65625 3.86244 7.65625 3.5V2.42778C8.33804 2.40648 9.15076 2.40625 10.15 2.40625H10.85C11.8492 2.40625 12.662 2.40648 13.3438 2.42778Z" fill="#A5A5A5"/>
<path d="M11.6189 11.7544C12.7652 12.0956 13.3383 12.8175 13.3383 13.92C13.3383 14.6725 13.0321 15.2719 12.4196 15.7181C11.9121 16.0944 11.2908 16.2825 10.5558 16.2825C9.70707 16.2825 9.01582 16.0375 8.48207 15.5475C8.00957 15.1187 7.77332 14.5762 7.77332 13.92C7.77332 13.3862 7.93957 12.9181 8.27207 12.5156C8.60457 12.1044 9.02894 11.8462 9.54519 11.7412C8.56519 11.4087 8.07519 10.8094 8.07519 9.94312C8.07519 9.20812 8.34207 8.63062 8.87582 8.21062C9.33082 7.84312 9.90394 7.65937 10.5952 7.65937C11.3564 7.65937 11.9821 7.89562 12.4721 8.36812C12.9096 8.78812 13.1283 9.31312 13.1283 9.94312C13.1283 10.3456 12.9927 10.7087 12.7214 11.0325C12.4502 11.3562 12.0827 11.5969 11.6189 11.7544ZM10.5821 11.295C11.4571 11.0412 11.8946 10.5775 11.8946 9.90375C11.8946 9.53625 11.7764 9.23875 11.5402 9.01125C11.3039 8.775 10.9977 8.65687 10.6214 8.65687C9.74644 8.65687 9.30894 9.0725 9.30894 9.90375C9.30894 10.5512 9.73332 11.015 10.5821 11.295ZM10.5821 12.1612C10.1533 12.1962 9.79019 12.38 9.49269 12.7125C9.20394 13.0362 9.05957 13.4256 9.05957 13.8806C9.05957 14.3094 9.19519 14.6506 9.46644 14.9044C9.73769 15.1581 10.1008 15.285 10.5558 15.285C11.0021 15.285 11.3608 15.1581 11.6321 14.9044C11.9121 14.6419 12.0521 14.3006 12.0521 13.8806C12.0521 13.4344 11.9121 13.0494 11.6321 12.7256C11.3521 12.3931 11.0021 12.205 10.5821 12.1612Z" fill="#A5A5A5"/>
</g>
<defs>
<clipPath id="clip0_245_9339">
<rect width="21" height="21" fill="white"/>
</clipPath>
</defs>
</svg>
