<svg width="24" height="24" viewBox="0 0 24 24" fill="none" xmlns="http://www.w3.org/2000/svg">
<path d="M21.4274 2.5783C20.9274 2.0673 20.1874 1.8783 19.4974 2.0783L3.40742 6.7273C2.67942 6.9293 2.16342 7.5063 2.02442 8.2383C1.88242 8.9843 2.37842 9.9323 3.02642 10.3283L8.05742 13.4003C8.57342 13.7163 9.23942 13.6373 9.66642 13.2093L15.4274 7.4483C15.7174 7.1473 16.1974 7.1473 16.4874 7.4483C16.7774 7.7373 16.7774 8.2083 16.4874 8.5083L10.7164 14.2693C10.2884 14.6973 10.2084 15.3613 10.5234 15.8783L13.5974 20.9283C13.9574 21.5273 14.5774 21.8683 15.2574 21.8683C15.3374 21.8683 15.4274 21.8683 15.5074 21.8573C16.2874 21.7583 16.9074 21.2273 17.1374 20.4773L21.9074 4.5083C22.1174 3.8283 21.9274 3.0883 21.4274 2.5783Z" fill="white"/>
<path opacity="0.4" fill-rule="evenodd" clip-rule="evenodd" d="M3.01049 16.8079C2.81849 16.8079 2.62649 16.7349 2.48049 16.5879C2.18749 16.2949 2.18749 15.8209 2.48049 15.5279L3.84549 14.1619C4.13849 13.8699 4.61349 13.8699 4.90649 14.1619C5.19849 14.4549 5.19849 14.9299 4.90649 15.2229L3.54049 16.5879C3.39449 16.7349 3.20249 16.8079 3.01049 16.8079ZM6.77167 18.0003C6.57967 18.0003 6.38767 17.9273 6.24167 17.7803C5.94867 17.4873 5.94867 17.0133 6.24167 16.7203L7.60667 15.3543C7.89967 15.0623 8.37467 15.0623 8.66767 15.3543C8.95967 15.6473 8.95967 16.1223 8.66767 16.4153L7.30167 17.7803C7.15567 17.9273 6.96367 18.0003 6.77167 18.0003ZM7.02551 21.5684C7.17151 21.7154 7.36351 21.7884 7.55551 21.7884C7.74751 21.7884 7.93951 21.7154 8.08551 21.5684L9.45151 20.2034C9.74351 19.9104 9.74351 19.4354 9.45151 19.1424C9.15851 18.8504 8.68351 18.8504 8.39051 19.1424L7.02551 20.5084C6.73251 20.8014 6.73251 21.2754 7.02551 21.5684Z" fill="white"/>
</svg>
