<svg width="21" height="21" viewBox="0 0 21 21" fill="none" xmlns="http://www.w3.org/2000/svg">
<path d="M2.7125 10.15C2.8 10.0625 2.8 9.975 2.8875 9.8875L5.5125 7.2625C5.8625 6.9125 6.3875 6.9125 6.7375 7.2625C7.0875 7.6125 7.0875 8.1375 6.7375 8.4875L5.6 9.625H9.625C10.15 9.625 10.5 9.975 10.5 10.5C10.5 11.025 10.15 11.375 9.625 11.375H5.6L6.7375 12.5125C7.0875 12.8625 7.0875 13.3875 6.7375 13.7375C6.5625 13.9125 6.3 14 6.125 14C5.95 14 5.6875 13.9125 5.5125 13.7375L2.8875 11.1125C2.8 11.025 2.7125 10.9375 2.7125 10.85C2.625 10.5875 2.625 10.4125 2.7125 10.15Z" fill="white"/>
<path d="M7.4375 15.8375C8.4 16.3625 9.45 16.625 10.5 16.625C13.9125 16.625 16.625 13.9125 16.625 10.5C16.625 7.0875 13.9125 4.375 10.5 4.375C9.45 4.375 8.4 4.6375 7.4375 5.1625C7 5.425 6.475 5.25 6.2125 4.8125C5.95 4.375 6.125 3.85 6.5625 3.5875C7.7875 2.975 9.1 2.625 10.5 2.625C14.875 2.625 18.375 6.125 18.375 10.5C18.375 14.875 14.875 18.375 10.5 18.375C9.1 18.375 7.7875 18.025 6.5625 17.325C6.125 17.0625 6.0375 16.5375 6.2125 16.1C6.475 15.75 7 15.575 7.4375 15.8375Z" fill="white"/>
</svg>
