<svg width="22" height="20" viewBox="0 0 22 20" fill="none" xmlns="http://www.w3.org/2000/svg">
<path fill-rule="evenodd" clip-rule="evenodd" d="M7.25 4L7.25 0.25H4C1.92893 0.25 0.25 1.92893 0.25 4V6.74286C0.25 7.29909 0.700913 7.75 1.25714 7.75C2.35777 7.75 3.25 8.64223 3.25 9.74286V10.2571C3.25 11.3578 2.35777 12.25 1.25714 12.25C0.700913 12.25 0.25 12.7009 0.25 13.2571V16C0.25 18.0711 1.92893 19.75 4 19.75H7.25L7.25 16C7.25 15.5858 7.58579 15.25 8 15.25C8.41421 15.25 8.75 15.5858 8.75 16V19.75H18C20.0711 19.75 21.75 18.0711 21.75 16V13.2571C21.75 12.7009 21.2991 12.25 20.7429 12.25C19.6422 12.25 18.75 11.3578 18.75 10.2571V9.74286C18.75 8.64223 19.6422 7.75 20.7429 7.75C21.2991 7.75 21.75 7.29909 21.75 6.74286V4C21.75 1.92893 20.0711 0.25 18 0.25H8.75V4C8.75 4.41421 8.41421 4.75 8 4.75C7.58579 4.75 7.25 4.41421 7.25 4ZM8.75 8C8.75 7.58579 8.41421 7.25 8 7.25C7.58579 7.25 7.25 7.58579 7.25 8V12C7.25 12.4142 7.58579 12.75 8 12.75C8.41421 12.75 8.75 12.4142 8.75 12V8Z" fill="white"/>
</svg>
