<svg width="14" height="14" viewBox="0 0 14 14" fill="none" xmlns="http://www.w3.org/2000/svg">
<path fill-rule="evenodd" clip-rule="evenodd" d="M7.00008 0.729187C3.5368 0.729187 0.729248 3.53674 0.729248 7.00002C0.729248 10.4633 3.5368 13.2709 7.00008 13.2709C10.4634 13.2709 13.2709 10.4633 13.2709 7.00002C13.2709 3.53674 10.4634 0.729187 7.00008 0.729187ZM7.00012 4.22918C7.24175 4.22918 7.43762 4.42506 7.43762 4.66668V6.76587L8.9928 7.80266C9.19385 7.93669 9.24817 8.20832 9.11415 8.40936C8.98012 8.61041 8.70849 8.66473 8.50744 8.5307L6.75744 7.36404C6.63573 7.2829 6.56262 7.1463 6.56262 7.00002V4.66668C6.56262 4.42506 6.7585 4.22918 7.00012 4.22918Z" fill="#DCDCDC"/>
</svg>
