<svg width="21" height="21" viewBox="0 0 21 21" fill="none" xmlns="http://www.w3.org/2000/svg">
<path fill-rule="evenodd" clip-rule="evenodd" d="M13.125 1.09375C12.7626 1.09375 12.4688 1.38756 12.4688 1.75C12.4688 2.11244 12.7626 2.40625 13.125 2.40625C14.6956 2.40625 15.9688 3.67944 15.9688 5.25C15.9688 6.82056 14.6956 8.09375 13.125 8.09375C12.7626 8.09375 12.4688 8.38756 12.4688 8.75C12.4688 9.11244 12.7626 9.40625 13.125 9.40625C15.4204 9.40625 17.2812 7.54543 17.2812 5.25C17.2812 2.95457 15.4204 1.09375 13.125 1.09375ZM14.875 11.5938C14.5126 11.5938 14.2188 11.8876 14.2188 12.25C14.2188 12.6124 14.5126 12.9062 14.875 12.9062H15.925C17.8822 12.9062 19.4688 14.4928 19.4688 16.45C19.4688 17.634 18.509 18.5938 17.325 18.5938H14.875C14.5126 18.5938 14.2188 18.8876 14.2188 19.25C14.2188 19.6124 14.5126 19.9062 14.875 19.9062H17.325C19.2338 19.9062 20.7812 18.3588 20.7812 16.45C20.7812 13.768 18.607 11.5938 15.925 11.5938H14.875ZM2.84375 5.25C2.84375 2.95457 4.70457 1.09375 7 1.09375C9.29543 1.09375 11.1562 2.95457 11.1562 5.25C11.1562 7.54543 9.29543 9.40625 7 9.40625C4.70457 9.40625 2.84375 7.54543 2.84375 5.25ZM5.075 11.5938C2.39297 11.5938 0.21875 13.768 0.21875 16.45C0.21875 18.3588 1.76617 19.9062 3.675 19.9062H10.325C12.2338 19.9062 13.7812 18.3588 13.7812 16.45C13.7812 13.768 11.607 11.5938 8.925 11.5938H5.075Z" fill="white"/>
</svg>
