<svg width="21" height="17" viewBox="0 0 21 17" fill="none" xmlns="http://www.w3.org/2000/svg">
<path d="M17.0066 0.625H3.99316C3.12292 0.625 2.28832 0.970702 1.67297 1.58606C1.05762 2.20141 0.711914 3.03601 0.711914 3.90625V13.0937C0.711914 13.964 1.05762 14.7986 1.67297 15.4139C2.28832 16.0293 3.12292 16.375 3.99316 16.375H17.0066C17.8768 16.375 18.7114 16.0293 19.3268 15.4139C19.9422 14.7986 20.2879 13.964 20.2879 13.0937V3.90625C20.2879 3.03601 19.9422 2.20141 19.3268 1.58606C18.7114 0.970702 17.8768 0.625 17.0066 0.625ZM14.0141 9.36625L8.62957 12.2537C8.48641 12.331 8.32632 12.3716 8.16363 12.3719C7.90256 12.3719 7.65218 12.2682 7.46758 12.0836C7.28297 11.899 7.17926 11.6486 7.17926 11.3875V5.6125C7.17941 5.44233 7.22367 5.2751 7.30773 5.12714C7.39179 4.97917 7.51277 4.85553 7.65886 4.76826C7.80496 4.681 7.97119 4.63311 8.14131 4.62925C8.31144 4.62539 8.47967 4.6657 8.62957 4.74625L14.0141 7.63375C14.1704 7.7181 14.3009 7.84314 14.3919 7.99565C14.4829 8.14815 14.5309 8.32242 14.5309 8.5C14.5309 8.67758 14.4829 8.85185 14.3919 9.00435C14.3009 9.15686 14.1704 9.2819 14.0141 9.36625ZM8.49176 6.16047L12.8525 8.5L8.49176 10.8395V6.16047Z" fill="#A5A5A5"/>
</svg>
