<svg width="19" height="19" viewBox="0 0 19 19" fill="none" xmlns="http://www.w3.org/2000/svg">
<path d="M13.525 11.2499C13.35 11.1624 12.2125 10.6374 12.0375 10.5499C11.8625 10.4624 11.6875 10.4624 11.5125 10.6374C11.3375 10.8124 10.9875 11.3374 10.8125 11.5124C10.725 11.6874 10.55 11.6874 10.375 11.5999C9.7625 11.3374 9.15 10.9874 8.625 10.5499C8.1875 10.1124 7.75 9.5874 7.4 9.0624C7.3125 8.8874 7.4 8.7124 7.4875 8.6249C7.575 8.5374 7.6625 8.3624 7.8375 8.2749C7.925 8.1874 8.0125 8.0124 8.0125 7.9249C8.1 7.8374 8.1 7.6624 8.0125 7.5749C7.925 7.4874 7.4875 6.4374 7.3125 5.9999C7.225 5.3874 7.05 5.3874 6.875 5.3874H6.4375C6.2625 5.3874 6 5.5624 5.9125 5.6499C5.3875 6.1749 5.125 6.7874 5.125 7.4874C5.2125 8.2749 5.475 9.0624 6 9.7624C6.9625 11.1624 8.1875 12.2999 9.675 12.9999C10.1125 13.1749 10.4625 13.3499 10.9 13.4374C11.3375 13.6124 11.775 13.6124 12.3 13.5249C12.9125 13.4374 13.4375 12.9999 13.7875 12.4749C13.9625 12.1249 13.9625 11.7749 13.875 11.4249L13.525 11.2499ZM15.7125 3.2874C12.3 -0.125098 6.7875 -0.125098 3.375 3.2874C0.575 6.0874 0.05 10.3749 1.975 13.7874L0.75 18.2499L5.3875 17.0249C6.7 17.7249 8.1 18.0749 9.5 18.0749C14.3125 18.0749 18.1625 14.2249 18.1625 9.4124C18.25 7.1374 17.2875 4.9499 15.7125 3.2874ZM13.35 15.5374C12.2125 16.2374 10.9 16.6749 9.5 16.6749C8.1875 16.6749 6.9625 16.3249 5.825 15.7124L5.5625 15.5374L2.85 16.2374L3.55 13.6124L3.375 13.3499C1.275 9.8499 2.325 5.4749 5.7375 3.2874C9.15 1.0999 13.525 2.2374 15.625 5.5624C17.725 8.9749 16.7625 13.4374 13.35 15.5374Z" fill="#A5A5A5"/>
</svg>
