<svg width="22" height="22" viewBox="0 0 22 22" fill="none" xmlns="http://www.w3.org/2000/svg">
<path fill-rule="evenodd" clip-rule="evenodd" d="M1.9214 15.1973L1.24087 15.5125L1.26416 15.5628C1.74237 16.5948 2.01547 17.1841 1.78372 17.9906C1.73848 18.148 1.66921 18.2981 1.57345 18.5055C1.54526 18.5665 1.51477 18.6325 1.48193 18.7052C1.35571 18.9844 1.19594 19.3628 1.16118 19.7861C1.06787 20.9222 2.06842 21.8429 3.1929 21.6555L3.06965 20.9157L3.19291 21.6555C3.82849 21.5496 4.37238 21.2688 4.77258 21.0621C4.87095 21.0113 4.96065 20.965 5.04089 20.9269C5.46591 20.7249 5.82155 20.6193 6.35382 20.7445C6.46428 20.7705 6.83036 20.8998 7.72366 21.2194L7.97627 20.5132L7.72367 21.2194C8.72211 21.5765 9.78598 21.75 11 21.75C16.9371 21.75 21.75 16.9371 21.75 11C21.75 5.06294 16.9371 0.25 11 0.25C5.06294 0.25 0.25 5.06294 0.25 11C0.25 12.6102 0.604823 14.1395 1.24087 15.5125L1.9214 15.1973ZM7 8.25C6.58579 8.25 6.25 8.58579 6.25 9C6.25 9.41421 6.58579 9.75 7 9.75H15C15.4142 9.75 15.75 9.41421 15.75 9C15.75 8.58579 15.4142 8.25 15 8.25H7ZM6.25 13C6.25 12.5858 6.58579 12.25 7 12.25H11C11.4142 12.25 11.75 12.5858 11.75 13C11.75 13.4142 11.4142 13.75 11 13.75H7C6.58579 13.75 6.25 13.4142 6.25 13Z" fill="white"/>
</svg>
